M48
;Layer_Color=9474304
;FILE_FORMAT=4:4
METRIC,LZ
;TYPE=PLATED
T1F00S00C0.6000
T2F00S00C0.8000
T3F00S00C0.9000
T4F00S00C1.0000
T5F00S00C1.2000
T6F00S00C1.4000
T7F00S00C2.3000
T8F00S00C3.0000
;TYPE=NON_PLATED
T9F00S00C0.8000
T10F00S00C3.2000
%
T01
X0083185Y00381
Y004191
X002159Y00381
X000635Y003937
X0
Y0059055
X000635
X002159Y00508
X003048Y008255
X0032385Y008382
X00381Y008128
X004953
X0052705Y008255
X0053975Y008382
X0057785Y008255
X0061595Y008382
X0064135Y008255
Y0078105
X0061595
Y007112
Y006096
X00762Y006604
Y006858
X0074295Y0078105
X007239
Y008255
X0074295Y008382
X00762Y008255
X0128905Y009144
Y009652
X0086995Y009779
X008382Y0094615
X007874Y0106045
X007366
X0069215Y0104775
Y0112395
X006985Y0092075
Y0086995
X00762Y008509
X009017Y0117475
X009779Y0117475
X005842Y0118745
Y012319
X0050165Y0120015
Y011557
X004191Y0113665
X004064Y0112395
Y0109855
X0046355Y0106045
X003429
X0032385Y0113665
X003048Y0112395
X003937Y009525
X0057785Y0090805
X005842Y0111125
X0027305Y0109855
X0015875Y0108585
X0
Y0085725
X0015875
X0027305Y009525
X000762Y0130175
X0
X0080645
X0084455
T02
X00058Y-00242
X00051Y-00225
X00058Y-00208
X00075Y-00201
X00092Y-00208
X00099Y-00225
X00092Y-00242
X00075Y-00249
X002137Y-002403
X002307Y-002473
X002477Y-002403
X002547Y-002233
X002477Y-002063
X002307Y-001993
X002137Y-002063
X002067Y-002233
X007867
X007937Y-002403
X008107Y-002473
X008277Y-002403
X008347Y-002233
X008277Y-002063
X008107Y-001993
X007937Y-002063
X00883Y-00208
X00876Y-00225
X00883Y-00242
X009Y-00249
X00917Y-00242
X00924Y-00225
X00917Y-00208
X009Y-00201
X00892Y00308
X00875Y00301
X00858Y00308
X00851Y00325
X00858Y00342
X00875Y00349
X00892Y00342
X00899Y00325
X008277Y002837
X008107Y002907
X007937Y002837
X007867Y002667
X007937Y002497
X008107Y002427
X008277Y002497
X008347Y002667
X002547
X002477Y002497
X002307Y002427
X002137Y002497
X002067Y002667
X002137Y002837
X002307Y002907
X002477Y002837
X00092Y00308
X00075Y00301
X00058Y00308
X00051Y00325
X00058Y00342
X00075Y00349
X00092Y00342
X00099Y00325
X0123825Y0090174
Y009271
Y009525
Y009779
X0126365Y00965201
Y009398
Y009144
Y00889
X0092075Y00888999
Y009144
Y009398
Y0096516
X0089535Y009525
Y009271
Y009017
Y009779
X00092Y01408
X00075Y01401
X00058Y01408
X00051Y01425
X00058Y01442
X00075Y01449
X00092Y01442
X00099Y01425
X00178Y01583
X00195Y01576
X00212Y01583
X00219Y016
X00212Y01617
X00195Y01624
X00178Y01617
X00171Y016
X00951
X00958Y01583
X00975Y01576
X00992Y01583
X00999Y016
X00992Y01617
X00975Y01624
X00958Y01617
X00892Y01442
X00875Y01449
X00858Y01442
X00851Y01425
X00858Y01408
X00875Y01401
X00892Y01408
X00899Y01425
X00892Y01983
X00875Y01976
X00858Y01983
X00851Y02
X00858Y02017
X00875Y02024
X00892Y02017
X00899Y02
X00951
X00958Y02017
X00975Y02024
X00992Y02017
X00999Y02
X00992Y01983
X00975Y01976
X00958Y01983
X00212
X00195Y01976
X00178Y01983
X00171Y02
X00178Y02017
X00195Y02024
X00212Y02017
X00219Y02
X00099
X00092Y01983
X00075Y01976
X00058Y01983
X00051Y02
X00058Y02017
X00075Y02024
X00092Y02017
T03
X009076Y000217
Y000417
X009338
Y000217
X014986Y00254
Y002794
X01524
X015494
Y00254
X015748
Y002794
X016002
Y00254
X016256
Y002794
X01651
Y00254
X01524
X014732
X014478
X014224
Y002794
X014478
X014732
X01397
X013716
X013462
X013208
X012954
Y00254
X013208
X013462
X013716
X01397
X0127
X012446
X012192
X011938
X011684
Y002794
X011938
X012192
X012446
X0127
X00127Y0044784
Y0049784
X0005Y008001
X0
X0059055Y0067
Y00645
Y00625
Y006
X009525Y004826
X009779
Y004572
X009525
Y007493
X009779
Y007747
X009525
X011684Y004826
Y004572
X011938
Y004826
X012192
Y004572
X012446
Y004826
X0127
X012954
Y004572
X013208
Y004826
X013462
Y004572
X013716
Y004826
X01397
X014224
Y004572
X014478
Y004826
X014732
Y004572
X01397
X0127
X014986
Y004826
X01524
X015494
Y004572
X015748
Y004826
X016002
Y004572
X016256
Y004826
X01651
Y004572
X01524
X010033Y0104775
X009779
X009525
X009271
X009017
X008763
X008509
X008255
X008001
X007747
X007493
X007239
Y0120015
X007493
X007747
X008001
X008255
X008509
X008763
X009017
X009271
X009525
X009779
X010033
X0066675Y0109855
X0064135
Y0107315
X0066675
Y0104775
X0064135
X0059055
Y0107315
X0005Y010287
X0
X0076835Y012985
Y013235
Y013435
Y013685
X009525Y013462
Y013208
X009779
Y013462
T04
X002794Y004572
Y004826
X003048
X003302
X003556
X00381
Y004572
X003556
X003302
X003048
X004064
X004318
X004572
X004826
X00508
Y004826
X004826
X004572
X004318
X004064
X005334
X005588
X005842
X006096
X00635
Y004572
X006096
X005842
X005588
X005334
X006604
Y004826
Y005461
Y005969
Y006477
Y007239
X007366
X007874
Y006477
Y005969
Y005461
X007366
Y005969
Y006477
X008636
X0091075Y006475
X0093075
Y006225
X0091075
X008636Y005969
Y005461
X00762Y004826
Y004572
X007366
Y004826
X007112
Y004572
X006858
Y004826
X008636Y007239
X0136525Y0078105
X0139065
Y0080645
X0136525
Y0084455
X0139065
Y0086995
X0136525
Y0095885
X0139065
Y0098425
X0136525
Y0103505
X0139065
Y0106045
X0136525
Y0108585
X0139065
X0066675Y0117475
X0064135
Y0120015
X0066675
X002032Y011811
X00127
X000762
X000254
Y011049
X000762
X00127
X002032
X002032Y009517
X00127
X000762
X000254
Y008755
X000762
X00127
X002032
X-0003175Y0178475
Y0180975
T05
X00195Y0185
Y019
T06
X0Y-000508
Y0
Y000508
T07
X0056345Y005693
Y007007
X0095785Y006952
Y005748
X0074125Y012678
Y013992
T08
X00075Y-00225
X002307Y-002233
X008107
X009Y-00225
X00875Y00325
X008107Y002667
X002307
X00075Y00325
X0155575Y0078105
Y0086995
Y0095885
Y0108585
X00075Y01425
X00195Y016
X00975
X00875Y01425
Y02
X00975
X00195
X00075
T09
X0105Y-0007
Y-0006
Y-0005
Y-0004
Y-0003
X0107
Y-0004
Y-0005
Y-0006
Y-0007
X0158Y002
X0159
X016
X0161
X0162
X0162Y0022
X0161
X016
X0159
X0158
X0122
X0121
X012
X0119
X0118
X0118Y002
X0119
X012
X0121
X0122
X0107Y0043
Y0044
X0105
Y0043
Y0045
Y0046
Y0047
X0107Y0047
Y0046
Y0045
X0118Y0052
X0119
X012
X0121
X0122
X0122Y0054
X0121
X012
X0119
X0118
Y0063
X0119
X012
X0121
X0122
X0122Y0065
X0121
X012
X0119
X0118
X0158
X0159
X016
X0161
X0162
X0162Y0063
X0161
X016
X0159
X0158
Y0054
X0159
X016
X0161
X0162
X0162Y0052
X0161
X016
X0159
X0158
Y012
X0159
X016
X0161
X0162
X0162Y0122
X0161
X016
X0159
X0158
X0122
X0121
X012
X0119
X0118
X0118Y012
X0119
X012
X0121
X0122
X0107Y0097
Y0096
Y0095
Y0094
Y0093
X0105Y0093
Y0094
Y0095
Y0096
Y0097
Y0143
Y0144
Y0145
Y0146
Y0147
X0107Y0147
Y0146
Y0145
Y0144
Y0143
Y0193
Y0194
Y0195
Y0196
Y0197
X0105Y0197
Y0196
Y0195
Y0194
Y0193
T10
X0117475Y008763
Y00990601
X0098425Y009906
Y008763
M30
