M48
INCH,TZ
T10C0.024
T11C0.028
T12C0.030
T13C0.032
T14C0.035
T15C0.039
T16C0.047
T17C0.055
T18C0.091
T19C0.118
T20C0.126
%
T10
X032750Y015000
X032750Y016500
X007750Y015000
X002500Y015500
X000000Y015500
X007750Y020000
X024250Y024000
X024250Y028000
X024250Y030750
X025250Y030750
X025250Y032500
X024250Y033000
X022500Y032500
X019250Y032500
X019750Y033000
X028500Y032500
X029250Y033000
X030000Y032500
X029250Y030750
X028500Y030750
X030000Y027000
X030000Y026000
X030000Y033500
X027500Y034250
X027500Y036250
X033000Y037250
X034250Y038500
X035500Y046250
X038500Y046250
X021250Y045250
X021250Y044000
X020250Y044000
X020250Y047250
X015000Y043750
X014500Y037250
X022500Y035750
X010750Y037250
X010750Y043750
T11
X050750Y036000
X050750Y038000
T12
X059000Y010000
X059000Y011000
X060000Y011000
X060000Y010000
X061000Y010000
X061000Y011000
X062000Y011000
X062000Y010000
X063000Y010000
X063000Y011000
X064000Y011000
X064000Y010000
X065000Y010000
X065000Y011000
X058000Y011000
X057000Y011000
X056000Y011000
X055000Y011000
X054000Y011000
X053000Y011000
X052000Y011000
X051000Y011000
X051000Y010000
X050000Y010000
X050000Y011000
X049000Y011000
X049000Y010000
X048000Y010000
X048000Y011000
X047000Y011000
X047000Y010000
X046000Y010000
X046000Y011000
X052000Y010000
X053000Y010000
X054000Y010000
X055000Y010000
X056000Y010000
X057000Y010000
X058000Y010000
X058000Y018000
X058000Y019000
X057000Y019000
X057000Y018000
X056000Y018000
X056000Y019000
X055000Y019000
X055000Y018000
X054000Y018000
X054000Y019000
X053000Y019000
X053000Y018000
X052000Y018000
X052000Y019000
X051000Y019000
X050000Y019000
X049000Y019000
X048000Y019000
X047000Y019000
X046000Y019000
X046000Y018000
X047000Y018000
X048000Y018000
X049000Y018000
X050000Y018000
X051000Y018000
X059000Y018000
X060000Y018000
X061000Y018000
X062000Y018000
X063000Y018000
X064000Y018000
X065000Y018000
X065000Y019000
X064000Y019000
X063000Y019000
X062000Y019000
X061000Y019000
X060000Y019000
X059000Y019000
T13
X002284Y-09528
X002008Y-08858
X002284Y-08189
X002953Y-07913
X003622Y-08189
X003898Y-08858
X003622Y-09528
X002953Y-09803
X007413Y-09461
X008083Y-09736
X008752Y-09461
X009028Y-08791
X008752Y-08122
X008083Y-07846
X007413Y-08122
X007138Y-08791
X029972Y-08791
X030248Y-09461
X030917Y-09736
X031587Y-09461
X031862Y-08791
X031587Y-08122
X030917Y-07846
X030248Y-08122
X033780Y-08189
X033504Y-08858
X033780Y-09528
X034449Y-09803
X035118Y-09528
X035394Y-08858
X035118Y-08189
X034449Y-07913
X034449Y011850
X033780Y012126
X033504Y012795
X033780Y013465
X034449Y013740
X035118Y013465
X035394Y012795
X035118Y012126
X031587Y011169
X030917Y011445
X030248Y011169
X029972Y010500
X030248Y009831
X030917Y009555
X031587Y009831
X031862Y010500
X009028Y010500
X008752Y009831
X008083Y009555
X007413Y009831
X007138Y010500
X007413Y011169
X008083Y011445
X008752Y011169
X003622Y012126
X002953Y011850
X002284Y012126
X002008Y012795
X002284Y013465
X002953Y013740
X003622Y013465
X003898Y012795
X048750Y035502
X048750Y036500
X048750Y037500
X048750Y038500
X049750Y038000
X049750Y037000
X049750Y036000
X049750Y035000
X036250Y035000
X036250Y036000
X036250Y037000
X036250Y037998
X035250Y037500
X035250Y036500
X035250Y035500
X035250Y038500
X008347Y058583
X007677Y058307
X007008Y058583
X006732Y059252
X007008Y059921
X007677Y060197
X008347Y059921
X008622Y059252
X003622Y056772
X002953Y057047
X002284Y056772
X002008Y056102
X002284Y055433
X002953Y055158
X003622Y055433
X003898Y056102
X033504Y056102
X033780Y055433
X034449Y055158
X035118Y055433
X035394Y056102
X035118Y056772
X034449Y057047
X033780Y056772
X037717Y058583
X037441Y059252
X037717Y059921
X038386Y060197
X039055Y059921
X039331Y059252
X039055Y058583
X038386Y058307
X038386Y074843
X037717Y075118
X037441Y075787
X037717Y076457
X038386Y076732
X039055Y076457
X039331Y075787
X039055Y075118
X035118Y075118
X034449Y074843
X033780Y075118
X033504Y075787
X033780Y076457
X034449Y076732
X035118Y076457
X035394Y075787
X008622Y075787
X008347Y075118
X007677Y074843
X007008Y075118
X006732Y075787
X007008Y076457
X007677Y076732
X008347Y076457
X003622Y076457
X002953Y076732
X002284Y076457
X002008Y075787
X002284Y075118
X002953Y074843
X003622Y075118
X003898Y075787
T14
X034732Y000854
X034732Y001642
X035764Y001642
X035764Y000854
X005000Y017632
X005000Y019600
X005000Y030234
X005000Y032203
X023250Y026378
X023250Y025394
X023250Y024606
X023250Y023622
X037500Y019000
X038500Y019000
X038500Y018000
X037500Y018000
X037500Y029500
X038500Y029500
X038500Y030500
X037500Y030500
X037500Y041250
X036500Y041250
X035500Y041250
X034500Y041250
X033500Y041250
X032500Y041250
X031500Y041250
X030500Y041250
X029500Y041250
X028500Y041250
X028500Y047250
X029500Y047250
X030500Y047250
X031500Y047250
X032500Y047250
X033500Y047250
X034500Y047250
X035500Y047250
X036500Y047250
X037500Y047250
X038500Y047250
X039500Y047250
X039500Y041250
X038500Y041250
X022500Y041250
X021500Y041250
X005000Y041703
X005000Y039734
X030250Y051122
X030250Y052106
X030250Y052894
X030250Y053878
X037500Y053000
X037500Y052000
X038500Y052000
X038500Y053000
T15
X010000Y018000
X011000Y018000
X011000Y019000
X010000Y019000
X012000Y019000
X013000Y019000
X014000Y019000
X014000Y018000
X013000Y018000
X012000Y018000
X015000Y018000
X016000Y018000
X017000Y018000
X018000Y018000
X019000Y018000
X019000Y019000
X018000Y019000
X017000Y019000
X016000Y019000
X015000Y019000
X020000Y019000
X021000Y019000
X022000Y019000
X023000Y019000
X024000Y019000
X024000Y018000
X023000Y018000
X022000Y018000
X021000Y018000
X020000Y018000
X025000Y018000
X026000Y018000
X026000Y019000
X025000Y019000
X026000Y021500
X026000Y023500
X026000Y025500
X026000Y028500
X029000Y028500
X031000Y028500
X031000Y025500
X031000Y023500
X031000Y021500
X029000Y021500
X029000Y023500
X029000Y025500
X034000Y025500
X035856Y025492
X036644Y025492
X036644Y024508
X035856Y024508
X034000Y023500
X034000Y021500
X034000Y028500
X029000Y019000
X029000Y018000
X028000Y018000
X028000Y019000
X027000Y019000
X027000Y018000
X053750Y030750
X054750Y030750
X054750Y031750
X053750Y031750
X053750Y033250
X054750Y033250
X054750Y034250
X053750Y034250
X053750Y037750
X054750Y037750
X054750Y038750
X053750Y038750
X053750Y040750
X054750Y040750
X054750Y041750
X053750Y041750
X053750Y042750
X054750Y042750
X026250Y043250
X025250Y043250
X025250Y042250
X026250Y042250
X026250Y041250
X025250Y041250
X025250Y046250
X026250Y046250
X026250Y047250
X025250Y047250
X008000Y046750
X005000Y046750
X003000Y046750
X001000Y046750
X001000Y043750
X003000Y043750
X005000Y043750
X008000Y043750
X008000Y037219
X005000Y037219
X003000Y037219
X001000Y037219
X001000Y034219
X003000Y034219
X005000Y034219
X008000Y034219
X-00197Y067258
X-00197Y068242
T16
X007677Y069095
X007677Y071063
T17
X000000Y-02000
X000000Y000000
X000000Y002000
T18
X022183Y022413
X022183Y027587
X037711Y027370
X037711Y022630
X029183Y049913
X029183Y055087
T19
X002953Y-08858
X008083Y-08791
X030917Y-08791
X034449Y-08858
X034449Y012795
X030917Y010500
X008083Y010500
X002953Y012795
X061250Y030750
X061250Y034250
X061250Y037750
X061250Y042750
X007677Y059252
X002953Y056102
X034449Y056102
X038386Y059252
X038386Y075787
X034449Y075787
X007677Y075787
X002953Y075787
T20
X046250Y034500
X046250Y039000
X038750Y039000
X038750Y034500
M30

