G04 Layer_Physical_Order=1*
G04 Layer_Color=255*
%FSLAX44Y44*%
%MOMM*%
G71*
G01*
G75*
%ADD10C,0.5000*%
%ADD11C,1.0000*%
%ADD12C,0.4000*%
%ADD13C,0.8000*%
%ADD14C,3.0000*%
%ADD15C,1.7000*%
%ADD16C,1.6000*%
%ADD17C,2.8000*%
%ADD18C,2.0000*%
%ADD19C,1.0000*%
%ADD20C,6.0000*%
%ADD21R,1.7000X1.7000*%
%ADD22R,1.7000X1.7000*%
%ADD23C,2.1000*%
%ADD24C,1.5000*%
%ADD25R,1.5000X1.5000*%
%ADD26R,1.5000X1.5000*%
%ADD27C,0.8000*%
G36*
X764015Y832585D02*
X764060Y832109D01*
X764135Y831654D01*
X764240Y831221D01*
X764375Y830809D01*
X764540Y830418D01*
X764735Y830049D01*
X764960Y829702D01*
X765215Y829376D01*
X765500Y829071D01*
X758500D01*
X758785Y829376D01*
X759040Y829702D01*
X759265Y830049D01*
X759460Y830418D01*
X759625Y830809D01*
X759760Y831221D01*
X759865Y831654D01*
X759940Y832109D01*
X759985Y832585D01*
X760000Y833083D01*
X764000D01*
X764015Y832585D01*
D02*
G37*
G36*
X619260Y834415D02*
X619090Y834165D01*
X618940Y833879D01*
X618810Y833557D01*
X618700Y833199D01*
X618610Y832805D01*
X618540Y832375D01*
X618490Y831910D01*
X618450Y830870D01*
X613450D01*
X613440Y831408D01*
X613360Y832375D01*
X613290Y832805D01*
X613200Y833199D01*
X613090Y833557D01*
X612960Y833879D01*
X612810Y834165D01*
X612640Y834415D01*
X612450Y834629D01*
X619450D01*
X619260Y834415D01*
D02*
G37*
G36*
X746260D02*
X746090Y834165D01*
X745940Y833879D01*
X745810Y833557D01*
X745700Y833199D01*
X745610Y832805D01*
X745540Y832375D01*
X745490Y831910D01*
X745450Y830870D01*
X740450D01*
X740440Y831408D01*
X740360Y832375D01*
X740290Y832805D01*
X740200Y833199D01*
X740090Y833557D01*
X739960Y833879D01*
X739810Y834165D01*
X739640Y834415D01*
X739450Y834629D01*
X746450D01*
X746260Y834415D01*
D02*
G37*
G36*
X580360Y832292D02*
X580440Y831324D01*
X580510Y830895D01*
X580600Y830501D01*
X580710Y830143D01*
X580840Y829821D01*
X580990Y829535D01*
X581160Y829285D01*
X581350Y829071D01*
X574350D01*
X574540Y829285D01*
X574710Y829535D01*
X574860Y829821D01*
X574990Y830143D01*
X575100Y830501D01*
X575190Y830895D01*
X575260Y831324D01*
X575310Y831790D01*
X575350Y832830D01*
X580350D01*
X580360Y832292D01*
D02*
G37*
G36*
X727210Y821715D02*
X727040Y821465D01*
X726890Y821179D01*
X726760Y820857D01*
X726650Y820499D01*
X726560Y820105D01*
X726490Y819676D01*
X726440Y819210D01*
X726400Y818170D01*
X721400D01*
X721390Y818708D01*
X721310Y819676D01*
X721240Y820105D01*
X721150Y820499D01*
X721040Y820857D01*
X720910Y821179D01*
X720760Y821465D01*
X720590Y821715D01*
X720400Y821929D01*
X727400D01*
X727210Y821715D01*
D02*
G37*
G36*
X308585Y828810D02*
X308835Y828640D01*
X309121Y828490D01*
X309443Y828360D01*
X309801Y828250D01*
X310195Y828160D01*
X310625Y828090D01*
X311090Y828040D01*
X312130Y828000D01*
Y823000D01*
X311592Y822990D01*
X310625Y822910D01*
X310195Y822840D01*
X309801Y822750D01*
X309443Y822640D01*
X309121Y822510D01*
X308835Y822360D01*
X308585Y822190D01*
X308371Y822000D01*
Y829000D01*
X308585Y828810D01*
D02*
G37*
G36*
X523479Y822000D02*
X523265Y822190D01*
X523015Y822360D01*
X522729Y822510D01*
X522407Y822640D01*
X522049Y822750D01*
X521655Y822840D01*
X521226Y822910D01*
X520760Y822960D01*
X519720Y823000D01*
Y828000D01*
X520258Y828010D01*
X521226Y828090D01*
X521655Y828160D01*
X522049Y828250D01*
X522407Y828360D01*
X522729Y828490D01*
X523015Y828640D01*
X523265Y828810D01*
X523479Y829000D01*
Y822000D01*
D02*
G37*
G36*
X327635Y841510D02*
X327885Y841340D01*
X328171Y841190D01*
X328493Y841060D01*
X328851Y840950D01*
X329245Y840860D01*
X329674Y840790D01*
X330140Y840740D01*
X331180Y840700D01*
Y835700D01*
X330642Y835690D01*
X329674Y835610D01*
X329245Y835540D01*
X328851Y835450D01*
X328493Y835340D01*
X328171Y835210D01*
X327885Y835060D01*
X327635Y834890D01*
X327421Y834700D01*
Y841700D01*
X327635Y841510D01*
D02*
G37*
G36*
X701010Y876742D02*
X701090Y875775D01*
X701160Y875345D01*
X701250Y874951D01*
X701360Y874593D01*
X701490Y874271D01*
X701640Y873985D01*
X701810Y873735D01*
X702000Y873521D01*
X695000D01*
X695190Y873735D01*
X695360Y873985D01*
X695510Y874271D01*
X695640Y874593D01*
X695750Y874951D01*
X695840Y875345D01*
X695910Y875775D01*
X695960Y876240D01*
X696000Y877280D01*
X701000D01*
X701010Y876742D01*
D02*
G37*
G36*
X581160Y904265D02*
X580990Y904015D01*
X580840Y903729D01*
X580710Y903407D01*
X580600Y903049D01*
X580510Y902655D01*
X580440Y902225D01*
X580390Y901760D01*
X580350Y900720D01*
X575350D01*
X575340Y901258D01*
X575260Y902225D01*
X575190Y902655D01*
X575100Y903049D01*
X574990Y903407D01*
X574860Y903729D01*
X574710Y904015D01*
X574540Y904265D01*
X574350Y904479D01*
X581350D01*
X581160Y904265D01*
D02*
G37*
G36*
X701810Y916965D02*
X701640Y916715D01*
X701490Y916429D01*
X701360Y916107D01*
X701250Y915749D01*
X701160Y915355D01*
X701090Y914926D01*
X701040Y914460D01*
X701000Y913420D01*
X696000D01*
X695990Y913958D01*
X695910Y914926D01*
X695840Y915355D01*
X695750Y915749D01*
X695640Y916107D01*
X695510Y916429D01*
X695360Y916715D01*
X695190Y916965D01*
X695000Y917179D01*
X702000D01*
X701810Y916965D01*
D02*
G37*
G36*
X155179Y853750D02*
X154965Y853940D01*
X154715Y854110D01*
X154429Y854260D01*
X154107Y854390D01*
X153749Y854500D01*
X153355Y854590D01*
X152926Y854660D01*
X152460Y854710D01*
X151420Y854750D01*
Y859750D01*
X151958Y859760D01*
X152926Y859840D01*
X153355Y859910D01*
X153749Y860000D01*
X154107Y860110D01*
X154429Y860240D01*
X154715Y860390D01*
X154965Y860560D01*
X155179Y860750D01*
Y853750D01*
D02*
G37*
G36*
X536179Y834700D02*
X535965Y834890D01*
X535715Y835060D01*
X535429Y835210D01*
X535107Y835340D01*
X534749Y835450D01*
X534355Y835540D01*
X533926Y835610D01*
X533460Y835660D01*
X532420Y835700D01*
Y840700D01*
X532958Y840710D01*
X533926Y840790D01*
X534355Y840860D01*
X534749Y840950D01*
X535107Y841060D01*
X535429Y841190D01*
X535715Y841340D01*
X535965Y841510D01*
X536179Y841700D01*
Y834700D01*
D02*
G37*
G36*
X765215Y847025D02*
X764960Y846698D01*
X764735Y846351D01*
X764540Y845982D01*
X764375Y845591D01*
X764240Y845179D01*
X764135Y844746D01*
X764060Y844291D01*
X764015Y843815D01*
X764000Y843317D01*
X760000D01*
X759985Y843815D01*
X759940Y844291D01*
X759865Y844746D01*
X759760Y845179D01*
X759625Y845591D01*
X759460Y845982D01*
X759265Y846351D01*
X759040Y846698D01*
X758785Y847025D01*
X758500Y847329D01*
X765500D01*
X765215Y847025D01*
D02*
G37*
G36*
X3785Y860560D02*
X4035Y860390D01*
X4321Y860240D01*
X4643Y860110D01*
X5001Y860000D01*
X5395Y859910D01*
X5824Y859840D01*
X6290Y859790D01*
X7330Y859750D01*
Y854750D01*
X6792Y854740D01*
X5824Y854660D01*
X5395Y854590D01*
X5001Y854500D01*
X4643Y854390D01*
X4321Y854260D01*
X4035Y854110D01*
X3785Y853940D01*
X3571Y853750D01*
Y860750D01*
X3785Y860560D01*
D02*
G37*
G36*
X618460Y616392D02*
X618540Y615424D01*
X618610Y614995D01*
X618700Y614601D01*
X618810Y614243D01*
X618940Y613921D01*
X619090Y613635D01*
X619260Y613385D01*
X619450Y613171D01*
X612450D01*
X612640Y613385D01*
X612810Y613635D01*
X612960Y613921D01*
X613090Y614243D01*
X613200Y614601D01*
X613290Y614995D01*
X613360Y615424D01*
X613410Y615890D01*
X613450Y616930D01*
X618450D01*
X618460Y616392D01*
D02*
G37*
G36*
X764510Y667192D02*
X764590Y666225D01*
X764660Y665795D01*
X764750Y665401D01*
X764860Y665043D01*
X764990Y664721D01*
X765140Y664435D01*
X765310Y664185D01*
X765500Y663971D01*
X758500D01*
X758690Y664185D01*
X758860Y664435D01*
X759010Y664721D01*
X759140Y665043D01*
X759250Y665401D01*
X759340Y665795D01*
X759410Y666225D01*
X759460Y666690D01*
X759500Y667730D01*
X764500D01*
X764510Y667192D01*
D02*
G37*
G36*
X765310Y682015D02*
X765140Y681765D01*
X764990Y681479D01*
X764860Y681157D01*
X764750Y680799D01*
X764660Y680405D01*
X764590Y679976D01*
X764540Y679510D01*
X764500Y678470D01*
X759500D01*
X759490Y679008D01*
X759410Y679976D01*
X759340Y680405D01*
X759250Y680799D01*
X759140Y681157D01*
X759010Y681479D01*
X758860Y681765D01*
X758690Y682015D01*
X758500Y682229D01*
X765500D01*
X765310Y682015D01*
D02*
G37*
G36*
X219210Y504215D02*
X219040Y503965D01*
X218890Y503679D01*
X218760Y503357D01*
X218650Y502999D01*
X218560Y502605D01*
X218490Y502175D01*
X218440Y501710D01*
X218400Y500670D01*
X213400D01*
X213390Y501208D01*
X213310Y502175D01*
X213240Y502605D01*
X213150Y502999D01*
X213040Y503357D01*
X212910Y503679D01*
X212760Y503965D01*
X212590Y504215D01*
X212400Y504429D01*
X219400D01*
X219210Y504215D01*
D02*
G37*
G36*
X218410Y387792D02*
X218490Y386824D01*
X218560Y386395D01*
X218650Y386001D01*
X218760Y385643D01*
X218890Y385321D01*
X219040Y385035D01*
X219210Y384785D01*
X219400Y384571D01*
X212400D01*
X212590Y384785D01*
X212760Y385035D01*
X212910Y385321D01*
X213040Y385643D01*
X213150Y386001D01*
X213240Y386395D01*
X213310Y386824D01*
X213360Y387290D01*
X213400Y388330D01*
X218400D01*
X218410Y387792D01*
D02*
G37*
G36*
X834360D02*
X834440Y386824D01*
X834510Y386395D01*
X834600Y386001D01*
X834710Y385643D01*
X834840Y385321D01*
X834990Y385035D01*
X835160Y384785D01*
X835350Y384571D01*
X828350D01*
X828540Y384785D01*
X828710Y385035D01*
X828860Y385321D01*
X828990Y385643D01*
X829100Y386001D01*
X829190Y386395D01*
X829260Y386824D01*
X829310Y387290D01*
X829350Y388330D01*
X834350D01*
X834360Y387792D01*
D02*
G37*
G36*
X835160Y415315D02*
X834990Y415065D01*
X834840Y414779D01*
X834710Y414457D01*
X834600Y414099D01*
X834510Y413705D01*
X834440Y413275D01*
X834390Y412810D01*
X834350Y411770D01*
X829350D01*
X829340Y412308D01*
X829260Y413275D01*
X829190Y413705D01*
X829100Y414099D01*
X828990Y414457D01*
X828860Y414779D01*
X828710Y415065D01*
X828540Y415315D01*
X828350Y415529D01*
X835350D01*
X835160Y415315D01*
D02*
G37*
G36*
X619260Y707415D02*
X619090Y707165D01*
X618940Y706879D01*
X618810Y706557D01*
X618700Y706199D01*
X618610Y705805D01*
X618540Y705376D01*
X618490Y704910D01*
X618450Y703870D01*
X613450D01*
X613440Y704408D01*
X613360Y705376D01*
X613290Y705805D01*
X613200Y706199D01*
X613090Y706557D01*
X612960Y706879D01*
X612810Y707165D01*
X612640Y707415D01*
X612450Y707629D01*
X619450D01*
X619260Y707415D01*
D02*
G37*
G36*
X384785Y816110D02*
X385035Y815940D01*
X385321Y815790D01*
X385643Y815660D01*
X386001Y815550D01*
X386395Y815460D01*
X386824Y815390D01*
X387290Y815340D01*
X388330Y815300D01*
Y810300D01*
X387792Y810290D01*
X386824Y810210D01*
X386395Y810140D01*
X386001Y810050D01*
X385643Y809940D01*
X385321Y809810D01*
X385035Y809660D01*
X384785Y809490D01*
X384571Y809300D01*
Y816300D01*
X384785Y816110D01*
D02*
G37*
G36*
X491729Y809300D02*
X491515Y809490D01*
X491265Y809660D01*
X490979Y809810D01*
X490657Y809940D01*
X490299Y810050D01*
X489905Y810140D01*
X489476Y810210D01*
X489010Y810260D01*
X487970Y810300D01*
Y815300D01*
X488508Y815310D01*
X489476Y815390D01*
X489905Y815460D01*
X490299Y815550D01*
X490657Y815660D01*
X490979Y815790D01*
X491265Y815940D01*
X491515Y816110D01*
X491729Y816300D01*
Y809300D01*
D02*
G37*
G36*
X644660Y821715D02*
X644490Y821465D01*
X644340Y821179D01*
X644210Y820857D01*
X644100Y820499D01*
X644010Y820105D01*
X643940Y819676D01*
X643890Y819210D01*
X643850Y818170D01*
X638850D01*
X638840Y818708D01*
X638760Y819676D01*
X638690Y820105D01*
X638600Y820499D01*
X638490Y820857D01*
X638360Y821179D01*
X638210Y821465D01*
X638040Y821715D01*
X637850Y821929D01*
X644850D01*
X644660Y821715D01*
D02*
G37*
G36*
X745460Y787842D02*
X745540Y786874D01*
X745610Y786445D01*
X745700Y786051D01*
X745810Y785693D01*
X745940Y785371D01*
X746090Y785085D01*
X746260Y784835D01*
X746450Y784621D01*
X739450D01*
X739640Y784835D01*
X739810Y785085D01*
X739960Y785371D01*
X740090Y785693D01*
X740200Y786051D01*
X740290Y786445D01*
X740360Y786874D01*
X740410Y787340D01*
X740450Y788380D01*
X745450D01*
X745460Y787842D01*
D02*
G37*
G36*
X618460D02*
X618540Y786874D01*
X618610Y786445D01*
X618700Y786051D01*
X618810Y785693D01*
X618940Y785371D01*
X619090Y785085D01*
X619260Y784835D01*
X619450Y784621D01*
X612450D01*
X612640Y784835D01*
X612810Y785085D01*
X612960Y785371D01*
X613090Y785693D01*
X613200Y786051D01*
X613290Y786445D01*
X613360Y786874D01*
X613410Y787340D01*
X613450Y788380D01*
X618450D01*
X618460Y787842D01*
D02*
G37*
G36*
X643860D02*
X643940Y786874D01*
X644010Y786445D01*
X644100Y786051D01*
X644210Y785693D01*
X644340Y785371D01*
X644490Y785085D01*
X644660Y784835D01*
X644850Y784621D01*
X637850D01*
X638040Y784835D01*
X638210Y785085D01*
X638360Y785371D01*
X638490Y785693D01*
X638600Y786051D01*
X638690Y786445D01*
X638760Y786874D01*
X638810Y787340D01*
X638850Y788380D01*
X643850D01*
X643860Y787842D01*
D02*
G37*
G36*
X726410D02*
X726490Y786874D01*
X726560Y786445D01*
X726650Y786051D01*
X726760Y785693D01*
X726890Y785371D01*
X727040Y785085D01*
X727210Y784835D01*
X727400Y784621D01*
X720400D01*
X720590Y784835D01*
X720760Y785085D01*
X720910Y785371D01*
X721040Y785693D01*
X721150Y786051D01*
X721240Y786445D01*
X721310Y786874D01*
X721360Y787340D01*
X721400Y788380D01*
X726400D01*
X726410Y787842D01*
D02*
G37*
G36*
X327635Y1139960D02*
X327885Y1139790D01*
X328171Y1139640D01*
X328493Y1139510D01*
X328851Y1139400D01*
X329245Y1139310D01*
X329674Y1139240D01*
X330140Y1139190D01*
X331180Y1139150D01*
Y1134150D01*
X330642Y1134140D01*
X329674Y1134060D01*
X329245Y1133990D01*
X328851Y1133900D01*
X328493Y1133790D01*
X328171Y1133660D01*
X327885Y1133510D01*
X327635Y1133340D01*
X327421Y1133150D01*
Y1140150D01*
X327635Y1139960D01*
D02*
G37*
G36*
X415529Y1133150D02*
X415315Y1133340D01*
X415065Y1133510D01*
X414779Y1133660D01*
X414457Y1133790D01*
X414099Y1133900D01*
X413705Y1133990D01*
X413275Y1134060D01*
X412810Y1134110D01*
X411770Y1134150D01*
Y1139150D01*
X412308Y1139160D01*
X413275Y1139240D01*
X413705Y1139310D01*
X414099Y1139400D01*
X414457Y1139510D01*
X414779Y1139640D01*
X415065Y1139790D01*
X415315Y1139960D01*
X415529Y1140150D01*
Y1133150D01*
D02*
G37*
G36*
X504160Y1162492D02*
X504240Y1161525D01*
X504310Y1161095D01*
X504400Y1160701D01*
X504510Y1160343D01*
X504640Y1160021D01*
X504790Y1159735D01*
X504960Y1159485D01*
X505150Y1159271D01*
X498150D01*
X498340Y1159485D01*
X498510Y1159735D01*
X498660Y1160021D01*
X498790Y1160343D01*
X498900Y1160701D01*
X498990Y1161095D01*
X499060Y1161525D01*
X499110Y1161990D01*
X499150Y1163030D01*
X504150D01*
X504160Y1162492D01*
D02*
G37*
G36*
X402829Y1120450D02*
X402615Y1120640D01*
X402365Y1120810D01*
X402079Y1120960D01*
X401757Y1121090D01*
X401399Y1121200D01*
X401005Y1121290D01*
X400575Y1121360D01*
X400110Y1121410D01*
X399070Y1121450D01*
Y1126450D01*
X399608Y1126460D01*
X400575Y1126540D01*
X401005Y1126610D01*
X401399Y1126700D01*
X401757Y1126810D01*
X402079Y1126940D01*
X402365Y1127090D01*
X402615Y1127260D01*
X402829Y1127450D01*
Y1120450D01*
D02*
G37*
G36*
X586710Y1118042D02*
X586790Y1117075D01*
X586860Y1116645D01*
X586950Y1116251D01*
X587060Y1115893D01*
X587190Y1115571D01*
X587340Y1115285D01*
X587510Y1115035D01*
X587700Y1114821D01*
X580700D01*
X580890Y1115035D01*
X581060Y1115285D01*
X581210Y1115571D01*
X581340Y1115893D01*
X581450Y1116251D01*
X581540Y1116645D01*
X581610Y1117075D01*
X581660Y1117540D01*
X581700Y1118580D01*
X586700D01*
X586710Y1118042D01*
D02*
G37*
G36*
X695460Y1120165D02*
X695290Y1119915D01*
X695140Y1119629D01*
X695010Y1119307D01*
X694900Y1118949D01*
X694810Y1118555D01*
X694740Y1118126D01*
X694690Y1117660D01*
X694650Y1116620D01*
X689650D01*
X689640Y1117158D01*
X689560Y1118126D01*
X689490Y1118555D01*
X689400Y1118949D01*
X689290Y1119307D01*
X689160Y1119629D01*
X689010Y1119915D01*
X688840Y1120165D01*
X688650Y1120379D01*
X695650D01*
X695460Y1120165D01*
D02*
G37*
G36*
X308585Y1127260D02*
X308835Y1127090D01*
X309121Y1126940D01*
X309443Y1126810D01*
X309801Y1126700D01*
X310195Y1126610D01*
X310625Y1126540D01*
X311090Y1126490D01*
X312130Y1126450D01*
Y1121450D01*
X311592Y1121440D01*
X310625Y1121360D01*
X310195Y1121290D01*
X309801Y1121200D01*
X309443Y1121090D01*
X309121Y1120960D01*
X308835Y1120810D01*
X308585Y1120640D01*
X308371Y1120450D01*
Y1127450D01*
X308585Y1127260D01*
D02*
G37*
G36*
X905485Y1178060D02*
X905735Y1177890D01*
X906021Y1177740D01*
X906343Y1177610D01*
X906701Y1177500D01*
X907095Y1177410D01*
X907524Y1177340D01*
X907990Y1177290D01*
X909030Y1177250D01*
X909030Y1172250D01*
X908492Y1172240D01*
X907524Y1172160D01*
X907095Y1172090D01*
X906701Y1172000D01*
X906343Y1171890D01*
X906021Y1171760D01*
X905735Y1171610D01*
X905485Y1171440D01*
X905271Y1171250D01*
X905271Y1178250D01*
X905485Y1178060D01*
D02*
G37*
G36*
X587510Y1228115D02*
X587340Y1227865D01*
X587190Y1227579D01*
X587060Y1227257D01*
X586950Y1226899D01*
X586860Y1226505D01*
X586790Y1226076D01*
X586740Y1225610D01*
X586700Y1224570D01*
X581700D01*
X581690Y1225108D01*
X581610Y1226076D01*
X581540Y1226505D01*
X581450Y1226899D01*
X581340Y1227257D01*
X581210Y1227579D01*
X581060Y1227865D01*
X580890Y1228115D01*
X580700Y1228329D01*
X587700D01*
X587510Y1228115D01*
D02*
G37*
G36*
X810235Y1305060D02*
X810485Y1304890D01*
X810771Y1304740D01*
X811093Y1304610D01*
X811451Y1304500D01*
X811845Y1304410D01*
X812274Y1304340D01*
X812740Y1304290D01*
X813780Y1304250D01*
Y1299250D01*
X813242Y1299240D01*
X812274Y1299160D01*
X811845Y1299090D01*
X811451Y1299000D01*
X811093Y1298890D01*
X810771Y1298760D01*
X810485Y1298610D01*
X810235Y1298440D01*
X810021Y1298250D01*
Y1305250D01*
X810235Y1305060D01*
D02*
G37*
G36*
X840979Y1298250D02*
X840765Y1298440D01*
X840515Y1298610D01*
X840229Y1298760D01*
X839907Y1298890D01*
X839549Y1299000D01*
X839155Y1299090D01*
X838726Y1299160D01*
X838260Y1299210D01*
X837220Y1299250D01*
Y1304250D01*
X837758Y1304260D01*
X838726Y1304340D01*
X839155Y1304410D01*
X839549Y1304500D01*
X839907Y1304610D01*
X840229Y1304740D01*
X840515Y1304890D01*
X840765Y1305060D01*
X840979Y1305250D01*
Y1298250D01*
D02*
G37*
G36*
X504960Y1196365D02*
X504790Y1196115D01*
X504640Y1195829D01*
X504510Y1195507D01*
X504400Y1195149D01*
X504310Y1194755D01*
X504240Y1194325D01*
X504190Y1193860D01*
X504150Y1192820D01*
X499150D01*
X499140Y1193358D01*
X499060Y1194325D01*
X498990Y1194755D01*
X498900Y1195149D01*
X498790Y1195507D01*
X498660Y1195829D01*
X498510Y1196115D01*
X498340Y1196365D01*
X498150Y1196579D01*
X505150D01*
X504960Y1196365D01*
D02*
G37*
G36*
X974329Y1171250D02*
X974115Y1171440D01*
X973865Y1171610D01*
X973579Y1171760D01*
X973257Y1171890D01*
X972899Y1172000D01*
X972505Y1172090D01*
X972076Y1172160D01*
X971610Y1172210D01*
X970570Y1172250D01*
Y1177250D01*
X971108Y1177260D01*
X972076Y1177340D01*
X972505Y1177410D01*
X972899Y1177500D01*
X973257Y1177610D01*
X973579Y1177740D01*
X973865Y1177890D01*
X974115Y1178060D01*
X974329Y1178250D01*
Y1171250D01*
D02*
G37*
G36*
X587510Y1183665D02*
X587340Y1183415D01*
X587190Y1183129D01*
X587060Y1182807D01*
X586950Y1182449D01*
X586860Y1182055D01*
X586790Y1181626D01*
X586740Y1181160D01*
X586700Y1180120D01*
X581700D01*
X581690Y1180658D01*
X581610Y1181626D01*
X581540Y1182055D01*
X581450Y1182449D01*
X581340Y1182807D01*
X581210Y1183129D01*
X581060Y1183415D01*
X580890Y1183665D01*
X580700Y1183879D01*
X587700D01*
X587510Y1183665D01*
D02*
G37*
G36*
X586710Y1194242D02*
X586790Y1193275D01*
X586860Y1192845D01*
X586950Y1192451D01*
X587060Y1192093D01*
X587190Y1191771D01*
X587340Y1191485D01*
X587510Y1191235D01*
X587700Y1191021D01*
X580700D01*
X580890Y1191235D01*
X581060Y1191485D01*
X581210Y1191771D01*
X581340Y1192093D01*
X581450Y1192451D01*
X581540Y1192845D01*
X581610Y1193275D01*
X581660Y1193740D01*
X581700Y1194780D01*
X586700D01*
X586710Y1194242D01*
D02*
G37*
G36*
X1292360Y961415D02*
X1292190Y961165D01*
X1292040Y960879D01*
X1291910Y960557D01*
X1291800Y960199D01*
X1291710Y959805D01*
X1291640Y959376D01*
X1291590Y958910D01*
X1291550Y957870D01*
X1286550D01*
X1286540Y958408D01*
X1286460Y959376D01*
X1286390Y959805D01*
X1286300Y960199D01*
X1286190Y960557D01*
X1286060Y960879D01*
X1285910Y961165D01*
X1285740Y961415D01*
X1285550Y961629D01*
X1292550D01*
X1292360Y961415D01*
D02*
G37*
G36*
X869900Y972900D02*
X869614Y972883D01*
X869317Y972827D01*
X869009Y972730D01*
X868689Y972595D01*
X868359Y972419D01*
X868016Y972205D01*
X867663Y971950D01*
X867298Y971656D01*
X866535Y970949D01*
X862999Y974485D01*
X863372Y974872D01*
X864000Y975613D01*
X864255Y975966D01*
X864469Y976309D01*
X864645Y976639D01*
X864781Y976959D01*
X864877Y977267D01*
X864933Y977564D01*
X864950Y977850D01*
X869900Y972900D01*
D02*
G37*
G36*
X694660Y1054542D02*
X694740Y1053575D01*
X694810Y1053145D01*
X694900Y1052751D01*
X695010Y1052393D01*
X695140Y1052071D01*
X695290Y1051785D01*
X695460Y1051535D01*
X695650Y1051321D01*
X688650D01*
X688840Y1051535D01*
X689010Y1051785D01*
X689160Y1052071D01*
X689290Y1052393D01*
X689400Y1052751D01*
X689490Y1053145D01*
X689560Y1053575D01*
X689610Y1054040D01*
X689650Y1055080D01*
X694650D01*
X694660Y1054542D01*
D02*
G37*
G36*
X390129Y949000D02*
X389824Y949285D01*
X389498Y949540D01*
X389151Y949765D01*
X388782Y949960D01*
X388391Y950125D01*
X387979Y950260D01*
X387546Y950365D01*
X387091Y950440D01*
X386615Y950485D01*
X386117Y950500D01*
Y954500D01*
X386615Y954515D01*
X387091Y954560D01*
X387546Y954635D01*
X387979Y954740D01*
X388391Y954875D01*
X388782Y955040D01*
X389151Y955235D01*
X389498Y955460D01*
X389824Y955715D01*
X390129Y956000D01*
Y949000D01*
D02*
G37*
G36*
X1291560Y921192D02*
X1291640Y920225D01*
X1291710Y919795D01*
X1291800Y919401D01*
X1291910Y919043D01*
X1292040Y918721D01*
X1292190Y918435D01*
X1292360Y918185D01*
X1292550Y917971D01*
X1285550D01*
X1285740Y918185D01*
X1285910Y918435D01*
X1286060Y918721D01*
X1286190Y919043D01*
X1286300Y919401D01*
X1286390Y919795D01*
X1286460Y920225D01*
X1286510Y920690D01*
X1286550Y921730D01*
X1291550D01*
X1291560Y921192D01*
D02*
G37*
G36*
X845151Y949565D02*
X844778Y949178D01*
X844150Y948437D01*
X843895Y948084D01*
X843681Y947741D01*
X843505Y947411D01*
X843370Y947091D01*
X843273Y946783D01*
X843217Y946486D01*
X843200Y946200D01*
X838250Y951150D01*
X838536Y951167D01*
X838833Y951223D01*
X839141Y951320D01*
X839461Y951455D01*
X839791Y951631D01*
X840134Y951845D01*
X840487Y952100D01*
X840852Y952394D01*
X841615Y953101D01*
X845151Y949565D01*
D02*
G37*
G36*
X276926Y955715D02*
X277252Y955460D01*
X277599Y955235D01*
X277968Y955040D01*
X278359Y954875D01*
X278771Y954740D01*
X279204Y954635D01*
X279659Y954560D01*
X280135Y954515D01*
X280633Y954500D01*
Y950500D01*
X280135Y950485D01*
X279659Y950440D01*
X279204Y950365D01*
X278771Y950260D01*
X278359Y950125D01*
X277968Y949960D01*
X277599Y949765D01*
X277252Y949540D01*
X276926Y949285D01*
X276621Y949000D01*
Y956000D01*
X276926Y955715D01*
D02*
G37*
G36*
X346685Y1063760D02*
X346935Y1063590D01*
X347221Y1063440D01*
X347543Y1063310D01*
X347901Y1063200D01*
X348295Y1063110D01*
X348725Y1063040D01*
X349190Y1062990D01*
X350230Y1062950D01*
Y1057950D01*
X349692Y1057940D01*
X348725Y1057860D01*
X348295Y1057790D01*
X347901Y1057700D01*
X347543Y1057590D01*
X347221Y1057460D01*
X346935Y1057310D01*
X346685Y1057140D01*
X346471Y1056950D01*
Y1063950D01*
X346685Y1063760D01*
D02*
G37*
G36*
X155179Y1082350D02*
X154965Y1082540D01*
X154715Y1082710D01*
X154429Y1082860D01*
X154107Y1082990D01*
X153749Y1083100D01*
X153355Y1083190D01*
X152926Y1083260D01*
X152460Y1083310D01*
X151420Y1083350D01*
Y1088350D01*
X151958Y1088360D01*
X152926Y1088440D01*
X153355Y1088510D01*
X153749Y1088600D01*
X154107Y1088710D01*
X154429Y1088840D01*
X154715Y1088990D01*
X154965Y1089160D01*
X155179Y1089350D01*
Y1082350D01*
D02*
G37*
G36*
X276835Y1101860D02*
X277085Y1101690D01*
X277371Y1101540D01*
X277693Y1101410D01*
X278051Y1101300D01*
X278445Y1101210D01*
X278874Y1101140D01*
X279340Y1101090D01*
X280380Y1101050D01*
Y1096050D01*
X279842Y1096040D01*
X278874Y1095960D01*
X278445Y1095890D01*
X278051Y1095800D01*
X277693Y1095690D01*
X277371Y1095560D01*
X277085Y1095410D01*
X276835Y1095240D01*
X276621Y1095050D01*
Y1102050D01*
X276835Y1101860D01*
D02*
G37*
G36*
X402829Y1095050D02*
X402615Y1095240D01*
X402365Y1095410D01*
X402079Y1095560D01*
X401757Y1095690D01*
X401399Y1095800D01*
X401005Y1095890D01*
X400575Y1095960D01*
X400110Y1096010D01*
X399070Y1096050D01*
Y1101050D01*
X399608Y1101060D01*
X400575Y1101140D01*
X401005Y1101210D01*
X401399Y1101300D01*
X401757Y1101410D01*
X402079Y1101540D01*
X402365Y1101690D01*
X402615Y1101860D01*
X402829Y1102050D01*
Y1095050D01*
D02*
G37*
G36*
X3785Y1089160D02*
X4035Y1088990D01*
X4321Y1088840D01*
X4643Y1088710D01*
X5001Y1088600D01*
X5395Y1088510D01*
X5824Y1088440D01*
X6290Y1088390D01*
X7330Y1088350D01*
Y1083350D01*
X6792Y1083340D01*
X5824Y1083260D01*
X5395Y1083190D01*
X5001Y1083100D01*
X4643Y1082990D01*
X4321Y1082860D01*
X4035Y1082710D01*
X3785Y1082540D01*
X3571Y1082350D01*
Y1089350D01*
X3785Y1089160D01*
D02*
G37*
G36*
X459979Y1056950D02*
X459765Y1057140D01*
X459515Y1057310D01*
X459229Y1057460D01*
X458907Y1057590D01*
X458549Y1057700D01*
X458155Y1057790D01*
X457725Y1057860D01*
X457260Y1057910D01*
X456220Y1057950D01*
Y1062950D01*
X456758Y1062960D01*
X457725Y1063040D01*
X458155Y1063110D01*
X458549Y1063200D01*
X458907Y1063310D01*
X459229Y1063440D01*
X459515Y1063590D01*
X459765Y1063760D01*
X459979Y1063950D01*
Y1056950D01*
D02*
G37*
G36*
X740385Y1063760D02*
X740635Y1063590D01*
X740921Y1063440D01*
X741243Y1063310D01*
X741601Y1063200D01*
X741995Y1063110D01*
X742424Y1063040D01*
X742890Y1062990D01*
X743930Y1062950D01*
Y1057950D01*
X743392Y1057940D01*
X742424Y1057860D01*
X741995Y1057790D01*
X741601Y1057700D01*
X741243Y1057590D01*
X740921Y1057460D01*
X740635Y1057310D01*
X740385Y1057140D01*
X740171Y1056950D01*
Y1063950D01*
X740385Y1063760D01*
D02*
G37*
G36*
X783829Y1056950D02*
X783615Y1057140D01*
X783365Y1057310D01*
X783079Y1057460D01*
X782757Y1057590D01*
X782399Y1057700D01*
X782005Y1057790D01*
X781575Y1057860D01*
X781110Y1057910D01*
X780070Y1057950D01*
Y1062950D01*
X780608Y1062960D01*
X781575Y1063040D01*
X782005Y1063110D01*
X782399Y1063200D01*
X782757Y1063310D01*
X783079Y1063440D01*
X783365Y1063590D01*
X783615Y1063760D01*
X783829Y1063950D01*
Y1056950D01*
D02*
G37*
D10*
X0Y1085850D02*
X158750D01*
X0Y857250D02*
X158750D01*
X736600Y1060450D02*
X787400D01*
X323850Y838200D02*
X539750D01*
X304800Y825500D02*
X527050D01*
X577850D02*
Y908050D01*
X806450Y1301750D02*
X844550D01*
X215900Y381000D02*
Y508000D01*
X831850Y381000D02*
Y419100D01*
X615950Y609600D02*
Y711200D01*
X762000Y660400D02*
Y685800D01*
X1289050Y914400D02*
Y965200D01*
X641350Y781050D02*
Y825500D01*
X615950Y781050D02*
Y838200D01*
X723900Y781050D02*
Y825500D01*
X742950Y781050D02*
Y838200D01*
X901700Y1174750D02*
X977900D01*
X901700Y1174750D02*
X901700Y1174750D01*
X838200Y946150D02*
X869950Y977900D01*
X698500Y869950D02*
Y920750D01*
X273050Y1098550D02*
X406400D01*
X501650Y1155700D02*
Y1200150D01*
X381000Y812800D02*
X495300D01*
X692150Y1047750D02*
Y1123950D01*
X323850Y1136650D02*
X419100D01*
X304800Y1123950D02*
X406400D01*
X342900Y1060450D02*
X463550D01*
X584200Y1111250D02*
Y1187450D01*
Y1231900D01*
D11*
X0Y1301750D02*
X76200D01*
X0Y590550D02*
X63500D01*
D12*
X273050Y952500D02*
X393700D01*
X762000Y825500D02*
Y850900D01*
D13*
X0Y393700D02*
X63500D01*
D14*
X957850Y695200D02*
D03*
Y574800D02*
D03*
D15*
X910750Y647500D02*
D03*
Y622500D02*
D03*
X930750D02*
D03*
Y647500D02*
D03*
X127000Y1181100D02*
D03*
X76200D02*
D03*
X25400D02*
D03*
X203200Y1104900D02*
D03*
X127000D02*
D03*
X76200D02*
D03*
X25400D02*
D03*
X127000Y951700D02*
D03*
X76200D02*
D03*
X25400D02*
D03*
X203200Y875500D02*
D03*
X127000D02*
D03*
X76200D02*
D03*
X25400D02*
D03*
X787400Y647700D02*
D03*
Y596900D02*
D03*
Y546100D02*
D03*
X863600Y723900D02*
D03*
Y647700D02*
D03*
Y596900D02*
D03*
Y546100D02*
D03*
X660400Y647700D02*
D03*
Y596900D02*
D03*
Y546100D02*
D03*
X736600Y723900D02*
D03*
Y647700D02*
D03*
Y596900D02*
D03*
Y546100D02*
D03*
X1390650Y781050D02*
D03*
Y806450D02*
D03*
X1365250Y781050D02*
D03*
Y806450D02*
D03*
X1390650Y844550D02*
D03*
Y869950D02*
D03*
X1365250Y844550D02*
D03*
Y869950D02*
D03*
X1390650Y958850D02*
D03*
Y984250D02*
D03*
X1365250Y958850D02*
D03*
Y984250D02*
D03*
Y1060450D02*
D03*
X1390650D02*
D03*
Y1035050D02*
D03*
Y1085850D02*
D03*
X1365250Y1035050D02*
D03*
Y1085850D02*
D03*
X641350Y1200150D02*
D03*
Y1174750D02*
D03*
X666750Y1200150D02*
D03*
Y1174750D02*
D03*
D16*
X590550Y670000D02*
D03*
Y645000D02*
D03*
Y625000D02*
D03*
Y600000D02*
D03*
X907600Y41700D02*
D03*
Y21700D02*
D03*
X933800D02*
D03*
Y41700D02*
D03*
X381000Y457200D02*
D03*
Y482600D02*
D03*
X355600Y457200D02*
D03*
Y482600D02*
D03*
X330200Y457200D02*
D03*
Y482600D02*
D03*
X304800D02*
D03*
Y457200D02*
D03*
X279400Y482600D02*
D03*
Y457200D02*
D03*
X508000D02*
D03*
Y482600D02*
D03*
X482600Y457200D02*
D03*
Y482600D02*
D03*
X457200Y457200D02*
D03*
Y482600D02*
D03*
X431800D02*
D03*
Y457200D02*
D03*
X406400Y482600D02*
D03*
Y457200D02*
D03*
X635000D02*
D03*
Y482600D02*
D03*
X609600Y457200D02*
D03*
Y482600D02*
D03*
X584200Y457200D02*
D03*
Y482600D02*
D03*
X558800D02*
D03*
Y457200D02*
D03*
X533400Y482600D02*
D03*
Y457200D02*
D03*
X762000D02*
D03*
Y482600D02*
D03*
X736600Y457200D02*
D03*
Y482600D02*
D03*
X711200Y457200D02*
D03*
Y482600D02*
D03*
X685800D02*
D03*
Y457200D02*
D03*
X660400Y482600D02*
D03*
Y457200D02*
D03*
X977900Y1320800D02*
D03*
X952500D02*
D03*
X977900Y1346200D02*
D03*
X952500D02*
D03*
Y482600D02*
D03*
X977900D02*
D03*
X952500Y457200D02*
D03*
X977900D02*
D03*
Y749300D02*
D03*
X952500D02*
D03*
X977900Y774700D02*
D03*
X952500D02*
D03*
X768350Y1368500D02*
D03*
Y1343500D02*
D03*
Y1323500D02*
D03*
Y1298500D02*
D03*
X1549400Y254000D02*
D03*
Y279400D02*
D03*
X1574800Y254000D02*
D03*
Y279400D02*
D03*
X1600200Y254000D02*
D03*
Y279400D02*
D03*
X1625600D02*
D03*
Y254000D02*
D03*
X1651000Y279400D02*
D03*
Y254000D02*
D03*
X1422400D02*
D03*
Y279400D02*
D03*
X1447800Y254000D02*
D03*
Y279400D02*
D03*
X1473200Y254000D02*
D03*
Y279400D02*
D03*
X1498600D02*
D03*
Y254000D02*
D03*
X1524000Y279400D02*
D03*
Y254000D02*
D03*
X1295400D02*
D03*
Y279400D02*
D03*
X1320800Y254000D02*
D03*
Y279400D02*
D03*
X1346200Y254000D02*
D03*
Y279400D02*
D03*
X1371600D02*
D03*
Y254000D02*
D03*
X1397000Y279400D02*
D03*
Y254000D02*
D03*
X1168400D02*
D03*
Y279400D02*
D03*
X1193800Y254000D02*
D03*
Y279400D02*
D03*
X1219200Y254000D02*
D03*
Y279400D02*
D03*
X1244600D02*
D03*
Y254000D02*
D03*
X1270000Y279400D02*
D03*
Y254000D02*
D03*
X1549400Y457200D02*
D03*
Y482600D02*
D03*
X1574800Y457200D02*
D03*
Y482600D02*
D03*
X1600200Y457200D02*
D03*
Y482600D02*
D03*
X1625600D02*
D03*
Y457200D02*
D03*
X1651000Y482600D02*
D03*
Y457200D02*
D03*
X1422400D02*
D03*
Y482600D02*
D03*
X1447800Y457200D02*
D03*
Y482600D02*
D03*
X1473200Y457200D02*
D03*
Y482600D02*
D03*
X1498600D02*
D03*
Y457200D02*
D03*
X1524000Y482600D02*
D03*
Y457200D02*
D03*
X1295400D02*
D03*
Y482600D02*
D03*
X1320800Y457200D02*
D03*
Y482600D02*
D03*
X1346200Y457200D02*
D03*
Y482600D02*
D03*
X1371600D02*
D03*
Y457200D02*
D03*
X1397000Y482600D02*
D03*
Y457200D02*
D03*
X1168400D02*
D03*
Y482600D02*
D03*
X1193800Y457200D02*
D03*
Y482600D02*
D03*
X1219200Y457200D02*
D03*
Y482600D02*
D03*
X1244600D02*
D03*
Y457200D02*
D03*
X1270000Y482600D02*
D03*
Y457200D02*
D03*
D17*
X563450Y700700D02*
D03*
Y569300D02*
D03*
X741250Y1399200D02*
D03*
Y1267800D02*
D03*
D18*
X195000Y1900000D02*
D03*
Y1850000D02*
D03*
X-31750Y1784750D02*
D03*
Y1809750D02*
D03*
D19*
X171000Y2000000D02*
D03*
X195000Y1976000D02*
D03*
X219000Y2000000D02*
D03*
X195000Y2024000D02*
D03*
X178000Y2017000D02*
D03*
X212000D02*
D03*
Y1983000D02*
D03*
X178000D02*
D03*
X951000Y2000000D02*
D03*
X975000Y1976000D02*
D03*
X999000Y2000000D02*
D03*
X975000Y2024000D02*
D03*
X958000Y2017000D02*
D03*
X992000D02*
D03*
Y1983000D02*
D03*
X958000D02*
D03*
Y1583000D02*
D03*
X992000D02*
D03*
Y1617000D02*
D03*
X958000D02*
D03*
X975000Y1624000D02*
D03*
X999000Y1600000D02*
D03*
X975000Y1576000D02*
D03*
X951000Y1600000D02*
D03*
X178000Y1583000D02*
D03*
X212000D02*
D03*
Y1617000D02*
D03*
X178000D02*
D03*
X195000Y1624000D02*
D03*
X219000Y1600000D02*
D03*
X195000Y1576000D02*
D03*
X171000Y1600000D02*
D03*
X213700Y-240300D02*
D03*
X247700D02*
D03*
Y-206300D02*
D03*
X213700D02*
D03*
X230700Y-199300D02*
D03*
X254700Y-223300D02*
D03*
X230700Y-247300D02*
D03*
X206700Y-223300D02*
D03*
X793700Y-240300D02*
D03*
X827700D02*
D03*
Y-206300D02*
D03*
X793700D02*
D03*
X810700Y-199300D02*
D03*
X834700Y-223300D02*
D03*
X810700Y-247300D02*
D03*
X786700Y-223300D02*
D03*
X793700Y249700D02*
D03*
X827700D02*
D03*
Y283700D02*
D03*
X793700D02*
D03*
X810700Y290700D02*
D03*
X834700Y266700D02*
D03*
X810700Y242700D02*
D03*
X786700Y266700D02*
D03*
X213700Y249700D02*
D03*
X247700D02*
D03*
Y283700D02*
D03*
X213700D02*
D03*
X230700Y290700D02*
D03*
X254700Y266700D02*
D03*
X230700Y242700D02*
D03*
X206700Y266700D02*
D03*
X1174750Y990601D02*
D03*
Y876300D02*
D03*
X984250Y876300D02*
D03*
Y990600D02*
D03*
X883000Y-242000D02*
D03*
X876000Y-225000D02*
D03*
X883000Y-208000D02*
D03*
X900000Y-249000D02*
D03*
X917000Y-242000D02*
D03*
X900000Y-201000D02*
D03*
X924000Y-225000D02*
D03*
X917000Y-208000D02*
D03*
X58000Y-242000D02*
D03*
X51000Y-225000D02*
D03*
X58000Y-208000D02*
D03*
X75000Y-249000D02*
D03*
X92000Y-242000D02*
D03*
X75000Y-201000D02*
D03*
X99000Y-225000D02*
D03*
X92000Y-208000D02*
D03*
X858000Y308000D02*
D03*
X851000Y325000D02*
D03*
X858000Y342000D02*
D03*
X875000Y301000D02*
D03*
X892000Y308000D02*
D03*
X875000Y349000D02*
D03*
X899000Y325000D02*
D03*
X892000Y342000D02*
D03*
X58000Y308000D02*
D03*
X51000Y325000D02*
D03*
X58000Y342000D02*
D03*
X75000Y301000D02*
D03*
X92000Y308000D02*
D03*
X75000Y349000D02*
D03*
X99000Y325000D02*
D03*
X92000Y342000D02*
D03*
X858000Y1408000D02*
D03*
X851000Y1425000D02*
D03*
X858000Y1442000D02*
D03*
X875000Y1401000D02*
D03*
X892000Y1408000D02*
D03*
X875000Y1449000D02*
D03*
X899000Y1425000D02*
D03*
X892000Y1442000D02*
D03*
X58000Y1408000D02*
D03*
X51000Y1425000D02*
D03*
X58000Y1442000D02*
D03*
X75000Y1401000D02*
D03*
X92000Y1408000D02*
D03*
X75000Y1449000D02*
D03*
X99000Y1425000D02*
D03*
X92000Y1442000D02*
D03*
X858000Y1983000D02*
D03*
X851000Y2000000D02*
D03*
X858000Y2017000D02*
D03*
X875000Y1976000D02*
D03*
X892000Y1983000D02*
D03*
X875000Y2024000D02*
D03*
X899000Y2000000D02*
D03*
X892000Y2017000D02*
D03*
X58000Y1983000D02*
D03*
X51000Y2000000D02*
D03*
X58000Y2017000D02*
D03*
X75000Y1976000D02*
D03*
X92000Y1983000D02*
D03*
X75000Y2024000D02*
D03*
X99000Y2000000D02*
D03*
X92000Y2017000D02*
D03*
X158750Y1085850D02*
D03*
Y857250D02*
D03*
X0Y1085850D02*
D03*
Y857250D02*
D03*
X736600Y1060450D02*
D03*
X539750Y838200D02*
D03*
X527050Y825500D02*
D03*
X692150Y1047750D02*
D03*
X787400Y1060450D02*
D03*
X577850Y825500D02*
D03*
Y908050D02*
D03*
X844550Y1301750D02*
D03*
X806450D02*
D03*
X76200D02*
D03*
X0D02*
D03*
X393700Y952500D02*
D03*
X304800Y825500D02*
D03*
X323850Y838200D02*
D03*
X63500Y590550D02*
D03*
X0D02*
D03*
X215900Y381000D02*
D03*
Y508000D02*
D03*
X0Y393700D02*
D03*
X831850Y381000D02*
D03*
Y419100D02*
D03*
X63500Y393700D02*
D03*
X615950Y609600D02*
D03*
X762000Y685800D02*
D03*
Y660400D02*
D03*
X1289050Y965200D02*
D03*
Y914400D02*
D03*
X615950Y711200D02*
D03*
X723900Y781050D02*
D03*
X742950D02*
D03*
X641350D02*
D03*
X615950D02*
D03*
X641350Y825500D02*
D03*
X615950Y838200D02*
D03*
X723900Y825500D02*
D03*
X742950Y838200D02*
D03*
X869950Y977900D02*
D03*
X901700Y1174750D02*
D03*
X977900Y1174750D02*
D03*
X838200Y946150D02*
D03*
X698500Y869950D02*
D03*
Y920750D02*
D03*
X762000Y850900D02*
D03*
Y825500D02*
D03*
X273050Y952500D02*
D03*
X342900Y1060450D02*
D03*
X273050Y1098550D02*
D03*
X406400D02*
D03*
X501650Y1200150D02*
D03*
Y1155700D02*
D03*
X419100Y1136650D02*
D03*
X381000Y812800D02*
D03*
X495300D02*
D03*
X692150Y1123950D02*
D03*
X323850Y1136650D02*
D03*
X304800Y1123950D02*
D03*
X406400D02*
D03*
X463550Y1060450D02*
D03*
X584200Y1111250D02*
D03*
Y1187450D02*
D03*
Y1231900D02*
D03*
D20*
X195000Y2000000D02*
D03*
X975000D02*
D03*
Y1600000D02*
D03*
X195000D02*
D03*
X230700Y-223300D02*
D03*
Y266700D02*
D03*
X810700Y-223300D02*
D03*
Y266700D02*
D03*
X900000Y-225000D02*
D03*
X75000D02*
D03*
X875000Y325000D02*
D03*
X75000D02*
D03*
X875000Y1425000D02*
D03*
X75000D02*
D03*
X875000Y2000000D02*
D03*
X75000D02*
D03*
D21*
X203200Y1181100D02*
D03*
X203200Y951700D02*
D03*
D22*
X787400Y723900D02*
D03*
X660400D02*
D03*
D23*
X0Y50800D02*
D03*
Y0D02*
D03*
Y-50800D02*
D03*
D24*
X1263650Y965201D02*
D03*
Y939800D02*
D03*
Y914400D02*
D03*
Y889000D02*
D03*
X1238250Y977900D02*
D03*
Y952500D02*
D03*
Y927100D02*
D03*
Y901740D02*
D03*
X895350Y901700D02*
D03*
Y927100D02*
D03*
Y952500D02*
D03*
Y977900D02*
D03*
X920750Y888999D02*
D03*
Y914400D02*
D03*
Y939800D02*
D03*
Y965160D02*
D03*
X0Y1028700D02*
D03*
X127000Y447840D02*
D03*
X0Y800100D02*
D03*
X666750Y1073150D02*
D03*
X641350D02*
D03*
Y1098550D02*
D03*
Y1047750D02*
D03*
X666750Y1098550D02*
D03*
Y1047750D02*
D03*
X590550D02*
D03*
Y1073150D02*
D03*
X977900Y1200150D02*
D03*
X952500D02*
D03*
X927100D02*
D03*
X901700D02*
D03*
X876300D02*
D03*
X850900D02*
D03*
X825500D02*
D03*
X800100D02*
D03*
X774700D02*
D03*
X749300D02*
D03*
X723900D02*
D03*
Y1047750D02*
D03*
X749300D02*
D03*
X774700D02*
D03*
X800100D02*
D03*
X825500D02*
D03*
X850900D02*
D03*
X876300D02*
D03*
X901700D02*
D03*
X927100D02*
D03*
X952500D02*
D03*
X977900D02*
D03*
X1003300D02*
D03*
D25*
X50000Y1028700D02*
D03*
Y800100D02*
D03*
X1003300Y1200150D02*
D03*
D26*
X127000Y497840D02*
D03*
D27*
X1180000Y650000D02*
D03*
X1220000D02*
D03*
X1190000D02*
D03*
X1200000D02*
D03*
X1210000D02*
D03*
X1580000D02*
D03*
X1620000D02*
D03*
X1590000D02*
D03*
X1600000D02*
D03*
X1610000D02*
D03*
X1580000Y520000D02*
D03*
X1620000D02*
D03*
X1590000D02*
D03*
X1600000D02*
D03*
X1610000D02*
D03*
X1180000D02*
D03*
X1220000D02*
D03*
X1190000D02*
D03*
X1200000D02*
D03*
X1210000D02*
D03*
X1180000Y220000D02*
D03*
X1220000D02*
D03*
X1190000D02*
D03*
X1200000D02*
D03*
X1210000D02*
D03*
X1580000D02*
D03*
X1620000D02*
D03*
X1590000D02*
D03*
X1600000D02*
D03*
X1610000D02*
D03*
X1180000Y1200000D02*
D03*
X1220000D02*
D03*
X1190000D02*
D03*
X1200000D02*
D03*
X1210000D02*
D03*
X1580000D02*
D03*
X1620000D02*
D03*
X1590000D02*
D03*
X1600000D02*
D03*
X1610000D02*
D03*
X1050000Y1930000D02*
D03*
Y1970000D02*
D03*
Y1940000D02*
D03*
Y1950000D02*
D03*
Y1960000D02*
D03*
Y1430000D02*
D03*
Y1470000D02*
D03*
Y1440000D02*
D03*
Y1450000D02*
D03*
Y1460000D02*
D03*
Y930000D02*
D03*
Y970000D02*
D03*
Y940000D02*
D03*
Y950000D02*
D03*
Y960000D02*
D03*
Y430000D02*
D03*
Y470000D02*
D03*
Y440000D02*
D03*
Y450000D02*
D03*
Y460000D02*
D03*
Y-70000D02*
D03*
Y-30000D02*
D03*
Y-60000D02*
D03*
Y-50000D02*
D03*
Y-40000D02*
D03*
X1070000D02*
D03*
Y-50000D02*
D03*
Y-60000D02*
D03*
Y-30000D02*
D03*
Y-70000D02*
D03*
X1190000Y200000D02*
D03*
X1200000D02*
D03*
X1210000D02*
D03*
X1180000D02*
D03*
X1220000D02*
D03*
X1590000D02*
D03*
X1600000D02*
D03*
X1610000D02*
D03*
X1580000D02*
D03*
X1620000D02*
D03*
X1590000Y540000D02*
D03*
X1600000D02*
D03*
X1610000D02*
D03*
X1580000D02*
D03*
X1620000D02*
D03*
X1190000D02*
D03*
X1200000D02*
D03*
X1210000D02*
D03*
X1180000D02*
D03*
X1220000D02*
D03*
X1190000Y630000D02*
D03*
X1200000D02*
D03*
X1210000D02*
D03*
X1180000D02*
D03*
X1220000D02*
D03*
X1590000D02*
D03*
X1600000D02*
D03*
X1610000D02*
D03*
X1580000D02*
D03*
X1620000D02*
D03*
X1590000Y1220000D02*
D03*
X1600000D02*
D03*
X1610000D02*
D03*
X1580000D02*
D03*
X1620000D02*
D03*
X1190000D02*
D03*
X1200000D02*
D03*
X1210000D02*
D03*
X1180000D02*
D03*
X1220000D02*
D03*
X1070000Y1940000D02*
D03*
Y1950000D02*
D03*
Y1960000D02*
D03*
Y1930000D02*
D03*
Y1970000D02*
D03*
Y1440000D02*
D03*
Y1450000D02*
D03*
Y1460000D02*
D03*
Y1430000D02*
D03*
Y1470000D02*
D03*
Y940000D02*
D03*
Y950000D02*
D03*
Y960000D02*
D03*
Y930000D02*
D03*
Y970000D02*
D03*
Y440000D02*
D03*
Y450000D02*
D03*
Y460000D02*
D03*
Y430000D02*
D03*
Y470000D02*
D03*
M02*
