G04 Layer_Color=2752767*
%FSLAX44Y44*%
%MOMM*%
G71*
G01*
G75*
%ADD81C,0.0508*%
%ADD82C,0.0677*%
%ADD83C,0.0339*%
D81*
X955818Y693168D02*
Y697232D01*
X959882D01*
Y693168D01*
X955818D01*
Y572768D02*
Y576832D01*
X959882D01*
Y572768D01*
X955818D01*
X590550Y667968D02*
X588518Y672032D01*
X592582D01*
X590550Y667968D01*
X561418Y698668D02*
Y702732D01*
X565482D01*
Y698668D01*
X561418D01*
Y567268D02*
Y571332D01*
X565482D01*
Y567268D01*
X561418D01*
X590550Y642968D02*
X588518Y647032D01*
X592582D01*
X590550Y642968D01*
Y622968D02*
X588518Y627032D01*
X592582D01*
X590550Y622968D01*
Y597968D02*
X588518Y602032D01*
X592582D01*
X590550Y597968D01*
X195000Y1897968D02*
X196016Y1898984D01*
X197032D01*
X196016Y1900000D01*
X197032Y1901016D01*
X196016D01*
X195000Y1902032D01*
X193984Y1901016D01*
X192968D01*
X193984Y1900000D01*
X192968Y1898984D01*
X193984D01*
X195000Y1897968D01*
Y1847968D02*
X196016Y1848984D01*
X197032D01*
X196016Y1850000D01*
X197032Y1851016D01*
X196016D01*
X195000Y1852032D01*
X193984Y1851016D01*
X192968D01*
X193984Y1850000D01*
X192968Y1848984D01*
X193984D01*
X195000Y1847968D01*
X168968Y1997968D02*
X169984Y2000000D01*
X168968Y2002032D01*
X171000Y2001016D01*
X173032Y2002032D01*
X172016Y2000000D01*
X173032Y1997968D01*
X171000Y1998984D01*
X168968Y1997968D01*
X192968Y1973968D02*
X193984Y1976000D01*
X192968Y1978032D01*
X195000Y1977016D01*
X197032Y1978032D01*
X196016Y1976000D01*
X197032Y1973968D01*
X195000Y1974984D01*
X192968Y1973968D01*
X216968Y1997968D02*
X217984Y2000000D01*
X216968Y2002032D01*
X219000Y2001016D01*
X221032Y2002032D01*
X220016Y2000000D01*
X221032Y1997968D01*
X219000Y1998984D01*
X216968Y1997968D01*
X192968Y2021968D02*
X193984Y2024000D01*
X192968Y2026032D01*
X195000Y2025016D01*
X197032Y2026032D01*
X196016Y2024000D01*
X197032Y2021968D01*
X195000Y2022984D01*
X192968Y2021968D01*
X175968Y2014968D02*
X176984Y2017000D01*
X175968Y2019032D01*
X178000Y2018016D01*
X180032Y2019032D01*
X179016Y2017000D01*
X180032Y2014968D01*
X178000Y2015984D01*
X175968Y2014968D01*
X209968D02*
X210984Y2017000D01*
X209968Y2019032D01*
X212000Y2018016D01*
X214032Y2019032D01*
X213016Y2017000D01*
X214032Y2014968D01*
X212000Y2015984D01*
X209968Y2014968D01*
Y1980968D02*
X210984Y1983000D01*
X209968Y1985032D01*
X212000Y1984016D01*
X214032Y1985032D01*
X213016Y1983000D01*
X214032Y1980968D01*
X212000Y1981984D01*
X209968Y1980968D01*
X175968D02*
X176984Y1983000D01*
X175968Y1985032D01*
X178000Y1984016D01*
X180032Y1985032D01*
X179016Y1983000D01*
X180032Y1980968D01*
X178000Y1981984D01*
X175968Y1980968D01*
X193984Y1998984D02*
Y1997968D01*
X196016D01*
Y1998984D01*
X197032D01*
Y2001016D01*
X196016D01*
Y2002032D01*
X193984D01*
Y2001016D01*
X192968D01*
Y1998984D01*
X193984D01*
X948968Y1997968D02*
X949984Y2000000D01*
X948968Y2002032D01*
X951000Y2001016D01*
X953032Y2002032D01*
X952016Y2000000D01*
X953032Y1997968D01*
X951000Y1998984D01*
X948968Y1997968D01*
X972968Y1973968D02*
X973984Y1976000D01*
X972968Y1978032D01*
X975000Y1977016D01*
X977032Y1978032D01*
X976016Y1976000D01*
X977032Y1973968D01*
X975000Y1974984D01*
X972968Y1973968D01*
X996968Y1997968D02*
X997984Y2000000D01*
X996968Y2002032D01*
X999000Y2001016D01*
X1001032Y2002032D01*
X1000016Y2000000D01*
X1001032Y1997968D01*
X999000Y1998984D01*
X996968Y1997968D01*
X972968Y2021968D02*
X973984Y2024000D01*
X972968Y2026032D01*
X975000Y2025016D01*
X977032Y2026032D01*
X976016Y2024000D01*
X977032Y2021968D01*
X975000Y2022984D01*
X972968Y2021968D01*
X955968Y2014968D02*
X956984Y2017000D01*
X955968Y2019032D01*
X958000Y2018016D01*
X960032Y2019032D01*
X959016Y2017000D01*
X960032Y2014968D01*
X958000Y2015984D01*
X955968Y2014968D01*
X989968D02*
X990984Y2017000D01*
X989968Y2019032D01*
X992000Y2018016D01*
X994032Y2019032D01*
X993016Y2017000D01*
X994032Y2014968D01*
X992000Y2015984D01*
X989968Y2014968D01*
Y1980968D02*
X990984Y1983000D01*
X989968Y1985032D01*
X992000Y1984016D01*
X994032Y1985032D01*
X993016Y1983000D01*
X994032Y1980968D01*
X992000Y1981984D01*
X989968Y1980968D01*
X955968D02*
X956984Y1983000D01*
X955968Y1985032D01*
X958000Y1984016D01*
X960032Y1985032D01*
X959016Y1983000D01*
X960032Y1980968D01*
X958000Y1981984D01*
X955968Y1980968D01*
X973984Y1998984D02*
Y1997968D01*
X976016D01*
Y1998984D01*
X977032D01*
Y2001016D01*
X976016D01*
Y2002032D01*
X973984D01*
Y2001016D01*
X972968D01*
Y1998984D01*
X973984D01*
Y1598984D02*
Y1597968D01*
X976016D01*
Y1598984D01*
X977032D01*
Y1601016D01*
X976016D01*
Y1602032D01*
X973984D01*
Y1601016D01*
X972968D01*
Y1598984D01*
X973984D01*
X955968Y1580968D02*
X956984Y1583000D01*
X955968Y1585032D01*
X958000Y1584016D01*
X960032Y1585032D01*
X959016Y1583000D01*
X960032Y1580968D01*
X958000Y1581984D01*
X955968Y1580968D01*
X989968D02*
X990984Y1583000D01*
X989968Y1585032D01*
X992000Y1584016D01*
X994032Y1585032D01*
X993016Y1583000D01*
X994032Y1580968D01*
X992000Y1581984D01*
X989968Y1580968D01*
Y1614968D02*
X990984Y1617000D01*
X989968Y1619032D01*
X992000Y1618016D01*
X994032Y1619032D01*
X993016Y1617000D01*
X994032Y1614968D01*
X992000Y1615984D01*
X989968Y1614968D01*
X955968D02*
X956984Y1617000D01*
X955968Y1619032D01*
X958000Y1618016D01*
X960032Y1619032D01*
X959016Y1617000D01*
X960032Y1614968D01*
X958000Y1615984D01*
X955968Y1614968D01*
X972968Y1621968D02*
X973984Y1624000D01*
X972968Y1626032D01*
X975000Y1625016D01*
X977032Y1626032D01*
X976016Y1624000D01*
X977032Y1621968D01*
X975000Y1622984D01*
X972968Y1621968D01*
X996968Y1597968D02*
X997984Y1600000D01*
X996968Y1602032D01*
X999000Y1601016D01*
X1001032Y1602032D01*
X1000016Y1600000D01*
X1001032Y1597968D01*
X999000Y1598984D01*
X996968Y1597968D01*
X972968Y1573968D02*
X973984Y1576000D01*
X972968Y1578032D01*
X975000Y1577016D01*
X977032Y1578032D01*
X976016Y1576000D01*
X977032Y1573968D01*
X975000Y1574984D01*
X972968Y1573968D01*
X948968Y1597968D02*
X949984Y1600000D01*
X948968Y1602032D01*
X951000Y1601016D01*
X953032Y1602032D01*
X952016Y1600000D01*
X953032Y1597968D01*
X951000Y1598984D01*
X948968Y1597968D01*
X193984Y1598984D02*
Y1597968D01*
X196016D01*
Y1598984D01*
X197032D01*
Y1601016D01*
X196016D01*
Y1602032D01*
X193984D01*
Y1601016D01*
X192968D01*
Y1598984D01*
X193984D01*
X175968Y1580968D02*
X176984Y1583000D01*
X175968Y1585032D01*
X178000Y1584016D01*
X180032Y1585032D01*
X179016Y1583000D01*
X180032Y1580968D01*
X178000Y1581984D01*
X175968Y1580968D01*
X209968D02*
X210984Y1583000D01*
X209968Y1585032D01*
X212000Y1584016D01*
X214032Y1585032D01*
X213016Y1583000D01*
X214032Y1580968D01*
X212000Y1581984D01*
X209968Y1580968D01*
Y1614968D02*
X210984Y1617000D01*
X209968Y1619032D01*
X212000Y1618016D01*
X214032Y1619032D01*
X213016Y1617000D01*
X214032Y1614968D01*
X212000Y1615984D01*
X209968Y1614968D01*
X175968D02*
X176984Y1617000D01*
X175968Y1619032D01*
X178000Y1618016D01*
X180032Y1619032D01*
X179016Y1617000D01*
X180032Y1614968D01*
X178000Y1615984D01*
X175968Y1614968D01*
X192968Y1621968D02*
X193984Y1624000D01*
X192968Y1626032D01*
X195000Y1625016D01*
X197032Y1626032D01*
X196016Y1624000D01*
X197032Y1621968D01*
X195000Y1622984D01*
X192968Y1621968D01*
X216968Y1597968D02*
X217984Y1600000D01*
X216968Y1602032D01*
X219000Y1601016D01*
X221032Y1602032D01*
X220016Y1600000D01*
X221032Y1597968D01*
X219000Y1598984D01*
X216968Y1597968D01*
X192968Y1573968D02*
X193984Y1576000D01*
X192968Y1578032D01*
X195000Y1577016D01*
X197032Y1578032D01*
X196016Y1576000D01*
X197032Y1573968D01*
X195000Y1574984D01*
X192968Y1573968D01*
X168968Y1597968D02*
X169984Y1600000D01*
X168968Y1602032D01*
X171000Y1601016D01*
X173032Y1602032D01*
X172016Y1600000D01*
X173032Y1597968D01*
X171000Y1598984D01*
X168968Y1597968D01*
X907600Y39668D02*
X905568Y43732D01*
X909632D01*
X907600Y39668D01*
Y19668D02*
X905568Y23732D01*
X909632D01*
X907600Y19668D01*
X933800D02*
X931768Y23732D01*
X935832D01*
X933800Y19668D01*
Y39668D02*
X931768Y43732D01*
X935832D01*
X933800Y39668D01*
X229684Y-224316D02*
Y-225332D01*
X231716D01*
Y-224316D01*
X232732D01*
Y-222284D01*
X231716D01*
Y-221268D01*
X229684D01*
Y-222284D01*
X228668D01*
Y-224316D01*
X229684D01*
Y265684D02*
Y264668D01*
X231716D01*
Y265684D01*
X232732D01*
Y267716D01*
X231716D01*
Y268732D01*
X229684D01*
Y267716D01*
X228668D01*
Y265684D01*
X229684D01*
X809684Y-224316D02*
Y-225332D01*
X811716D01*
Y-224316D01*
X812732D01*
Y-222284D01*
X811716D01*
Y-221268D01*
X809684D01*
Y-222284D01*
X808668D01*
Y-224316D01*
X809684D01*
Y265684D02*
Y264668D01*
X811716D01*
Y265684D01*
X812732D01*
Y267716D01*
X811716D01*
Y268732D01*
X809684D01*
Y267716D01*
X808668D01*
Y265684D01*
X809684D01*
X211668Y-242332D02*
X212684Y-240300D01*
X211668Y-238268D01*
X213700Y-239284D01*
X215732Y-238268D01*
X214716Y-240300D01*
X215732Y-242332D01*
X213700Y-241316D01*
X211668Y-242332D01*
X245668D02*
X246684Y-240300D01*
X245668Y-238268D01*
X247700Y-239284D01*
X249732Y-238268D01*
X248716Y-240300D01*
X249732Y-242332D01*
X247700Y-241316D01*
X245668Y-242332D01*
Y-208332D02*
X246684Y-206300D01*
X245668Y-204268D01*
X247700Y-205284D01*
X249732Y-204268D01*
X248716Y-206300D01*
X249732Y-208332D01*
X247700Y-207316D01*
X245668Y-208332D01*
X211668D02*
X212684Y-206300D01*
X211668Y-204268D01*
X213700Y-205284D01*
X215732Y-204268D01*
X214716Y-206300D01*
X215732Y-208332D01*
X213700Y-207316D01*
X211668Y-208332D01*
X228668Y-201332D02*
X229684Y-199300D01*
X228668Y-197268D01*
X230700Y-198284D01*
X232732Y-197268D01*
X231716Y-199300D01*
X232732Y-201332D01*
X230700Y-200316D01*
X228668Y-201332D01*
X252668Y-225332D02*
X253684Y-223300D01*
X252668Y-221268D01*
X254700Y-222284D01*
X256732Y-221268D01*
X255716Y-223300D01*
X256732Y-225332D01*
X254700Y-224316D01*
X252668Y-225332D01*
X228668Y-249332D02*
X229684Y-247300D01*
X228668Y-245268D01*
X230700Y-246284D01*
X232732Y-245268D01*
X231716Y-247300D01*
X232732Y-249332D01*
X230700Y-248316D01*
X228668Y-249332D01*
X204668Y-225332D02*
X205684Y-223300D01*
X204668Y-221268D01*
X206700Y-222284D01*
X208732Y-221268D01*
X207716Y-223300D01*
X208732Y-225332D01*
X206700Y-224316D01*
X204668Y-225332D01*
X791668Y-242332D02*
X792684Y-240300D01*
X791668Y-238268D01*
X793700Y-239284D01*
X795732Y-238268D01*
X794716Y-240300D01*
X795732Y-242332D01*
X793700Y-241316D01*
X791668Y-242332D01*
X825668D02*
X826684Y-240300D01*
X825668Y-238268D01*
X827700Y-239284D01*
X829732Y-238268D01*
X828716Y-240300D01*
X829732Y-242332D01*
X827700Y-241316D01*
X825668Y-242332D01*
Y-208332D02*
X826684Y-206300D01*
X825668Y-204268D01*
X827700Y-205284D01*
X829732Y-204268D01*
X828716Y-206300D01*
X829732Y-208332D01*
X827700Y-207316D01*
X825668Y-208332D01*
X791668D02*
X792684Y-206300D01*
X791668Y-204268D01*
X793700Y-205284D01*
X795732Y-204268D01*
X794716Y-206300D01*
X795732Y-208332D01*
X793700Y-207316D01*
X791668Y-208332D01*
X808668Y-201332D02*
X809684Y-199300D01*
X808668Y-197268D01*
X810700Y-198284D01*
X812732Y-197268D01*
X811716Y-199300D01*
X812732Y-201332D01*
X810700Y-200316D01*
X808668Y-201332D01*
X832668Y-225332D02*
X833684Y-223300D01*
X832668Y-221268D01*
X834700Y-222284D01*
X836732Y-221268D01*
X835716Y-223300D01*
X836732Y-225332D01*
X834700Y-224316D01*
X832668Y-225332D01*
X808668Y-249332D02*
X809684Y-247300D01*
X808668Y-245268D01*
X810700Y-246284D01*
X812732Y-245268D01*
X811716Y-247300D01*
X812732Y-249332D01*
X810700Y-248316D01*
X808668Y-249332D01*
X784668Y-225332D02*
X785684Y-223300D01*
X784668Y-221268D01*
X786700Y-222284D01*
X788732Y-221268D01*
X787716Y-223300D01*
X788732Y-225332D01*
X786700Y-224316D01*
X784668Y-225332D01*
X791668Y247668D02*
X792684Y249700D01*
X791668Y251732D01*
X793700Y250716D01*
X795732Y251732D01*
X794716Y249700D01*
X795732Y247668D01*
X793700Y248684D01*
X791668Y247668D01*
X825668D02*
X826684Y249700D01*
X825668Y251732D01*
X827700Y250716D01*
X829732Y251732D01*
X828716Y249700D01*
X829732Y247668D01*
X827700Y248684D01*
X825668Y247668D01*
Y281668D02*
X826684Y283700D01*
X825668Y285732D01*
X827700Y284716D01*
X829732Y285732D01*
X828716Y283700D01*
X829732Y281668D01*
X827700Y282684D01*
X825668Y281668D01*
X791668D02*
X792684Y283700D01*
X791668Y285732D01*
X793700Y284716D01*
X795732Y285732D01*
X794716Y283700D01*
X795732Y281668D01*
X793700Y282684D01*
X791668Y281668D01*
X808668Y288668D02*
X809684Y290700D01*
X808668Y292732D01*
X810700Y291716D01*
X812732Y292732D01*
X811716Y290700D01*
X812732Y288668D01*
X810700Y289684D01*
X808668Y288668D01*
X832668Y264668D02*
X833684Y266700D01*
X832668Y268732D01*
X834700Y267716D01*
X836732Y268732D01*
X835716Y266700D01*
X836732Y264668D01*
X834700Y265684D01*
X832668Y264668D01*
X808668Y240668D02*
X809684Y242700D01*
X808668Y244732D01*
X810700Y243716D01*
X812732Y244732D01*
X811716Y242700D01*
X812732Y240668D01*
X810700Y241684D01*
X808668Y240668D01*
X784668Y264668D02*
X785684Y266700D01*
X784668Y268732D01*
X786700Y267716D01*
X788732Y268732D01*
X787716Y266700D01*
X788732Y264668D01*
X786700Y265684D01*
X784668Y264668D01*
X211668Y247668D02*
X212684Y249700D01*
X211668Y251732D01*
X213700Y250716D01*
X215732Y251732D01*
X214716Y249700D01*
X215732Y247668D01*
X213700Y248684D01*
X211668Y247668D01*
X245668D02*
X246684Y249700D01*
X245668Y251732D01*
X247700Y250716D01*
X249732Y251732D01*
X248716Y249700D01*
X249732Y247668D01*
X247700Y248684D01*
X245668Y247668D01*
Y281668D02*
X246684Y283700D01*
X245668Y285732D01*
X247700Y284716D01*
X249732Y285732D01*
X248716Y283700D01*
X249732Y281668D01*
X247700Y282684D01*
X245668Y281668D01*
X211668D02*
X212684Y283700D01*
X211668Y285732D01*
X213700Y284716D01*
X215732Y285732D01*
X214716Y283700D01*
X215732Y281668D01*
X213700Y282684D01*
X211668Y281668D01*
X228668Y288668D02*
X229684Y290700D01*
X228668Y292732D01*
X230700Y291716D01*
X232732Y292732D01*
X231716Y290700D01*
X232732Y288668D01*
X230700Y289684D01*
X228668Y288668D01*
X252668Y264668D02*
X253684Y266700D01*
X252668Y268732D01*
X254700Y267716D01*
X256732Y268732D01*
X255716Y266700D01*
X256732Y264668D01*
X254700Y265684D01*
X252668Y264668D01*
X228668Y240668D02*
X229684Y242700D01*
X228668Y244732D01*
X230700Y243716D01*
X232732Y244732D01*
X231716Y242700D01*
X232732Y240668D01*
X230700Y241684D01*
X228668Y240668D01*
X204668Y264668D02*
X205684Y266700D01*
X204668Y268732D01*
X206700Y267716D01*
X208732Y268732D01*
X207716Y266700D01*
X208732Y264668D01*
X206700Y265684D01*
X204668Y264668D01*
X977900Y1318768D02*
X975868Y1322832D01*
X979932D01*
X977900Y1318768D01*
X952500D02*
X950468Y1322832D01*
X954532D01*
X952500Y1318768D01*
X977900Y1344168D02*
X975868Y1348232D01*
X979932D01*
X977900Y1344168D01*
X952500D02*
X950468Y1348232D01*
X954532D01*
X952500Y1344168D01*
Y480568D02*
X950468Y484632D01*
X954532D01*
X952500Y480568D01*
X977900D02*
X975868Y484632D01*
X979932D01*
X977900Y480568D01*
X952500Y455168D02*
X950468Y459232D01*
X954532D01*
X952500Y455168D01*
X977900D02*
X975868Y459232D01*
X979932D01*
X977900Y455168D01*
Y747268D02*
X975868Y751332D01*
X979932D01*
X977900Y747268D01*
X952500D02*
X950468Y751332D01*
X954532D01*
X952500Y747268D01*
X977900Y772668D02*
X975868Y776732D01*
X979932D01*
X977900Y772668D01*
X952500D02*
X950468Y776732D01*
X954532D01*
X952500Y772668D01*
X-2032Y48768D02*
X-1016D01*
X0Y49784D01*
X1016Y48768D01*
X2032D01*
Y49784D01*
X1016Y50800D01*
X2032Y51816D01*
Y52832D01*
X1016D01*
X0Y51816D01*
X-1016Y52832D01*
X-2032D01*
Y51816D01*
X-1016Y50800D01*
X-2032Y49784D01*
Y48768D01*
Y-2032D02*
X-1016D01*
X0Y-1016D01*
X1016Y-2032D01*
X2032D01*
Y-1016D01*
X1016Y0D01*
X2032Y1016D01*
Y2032D01*
X1016D01*
X0Y1016D01*
X-1016Y2032D01*
X-2032D01*
Y1016D01*
X-1016Y0D01*
X-2032Y-1016D01*
Y-2032D01*
Y-52832D02*
X-1016D01*
X0Y-51816D01*
X1016Y-52832D01*
X2032D01*
Y-51816D01*
X1016Y-50800D01*
X2032Y-49784D01*
Y-48768D01*
X1016D01*
X0Y-49784D01*
X-1016Y-48768D01*
X-2032D01*
Y-49784D01*
X-1016Y-50800D01*
X-2032Y-51816D01*
Y-52832D01*
X1172718Y990601D02*
X1174750Y992633D01*
X1176782Y990601D01*
X1174750Y988568D01*
X1172718Y990601D01*
X1261618Y963168D02*
X1262634Y965201D01*
X1261618Y967233D01*
X1263650Y966217D01*
X1265682Y967233D01*
X1264666Y965201D01*
X1265682Y963168D01*
X1263650Y964184D01*
X1261618Y963168D01*
Y937768D02*
X1262634Y939800D01*
X1261618Y941832D01*
X1263650Y940816D01*
X1265682Y941832D01*
X1264666Y939800D01*
X1265682Y937768D01*
X1263650Y938784D01*
X1261618Y937768D01*
Y912368D02*
X1262634Y914400D01*
X1261618Y916432D01*
X1263650Y915416D01*
X1265682Y916432D01*
X1264666Y914400D01*
X1265682Y912368D01*
X1263650Y913384D01*
X1261618Y912368D01*
Y886968D02*
X1262634Y889000D01*
X1261618Y891032D01*
X1263650Y890016D01*
X1265682Y891032D01*
X1264666Y889000D01*
X1265682Y886968D01*
X1263650Y887984D01*
X1261618Y886968D01*
X1236218Y975869D02*
X1237234Y977900D01*
X1236218Y979932D01*
X1238250Y978916D01*
X1240282Y979932D01*
X1239266Y977900D01*
X1240282Y975869D01*
X1238250Y976885D01*
X1236218Y975869D01*
Y950468D02*
X1237234Y952500D01*
X1236218Y954532D01*
X1238250Y953516D01*
X1240282Y954532D01*
X1239266Y952500D01*
X1240282Y950468D01*
X1238250Y951484D01*
X1236218Y950468D01*
Y925068D02*
X1237234Y927100D01*
X1236218Y929132D01*
X1238250Y928116D01*
X1240282Y929132D01*
X1239266Y927100D01*
X1240282Y925068D01*
X1238250Y926084D01*
X1236218Y925068D01*
Y899708D02*
X1237234Y901740D01*
X1236218Y903772D01*
X1238250Y902756D01*
X1240282Y903772D01*
X1239266Y901740D01*
X1240282Y899708D01*
X1238250Y900724D01*
X1236218Y899708D01*
X1172718Y876300D02*
X1174750Y878332D01*
X1176782Y876300D01*
X1174750Y874268D01*
X1172718Y876300D01*
X982218Y876300D02*
X984250Y878332D01*
X986282Y876300D01*
X984250Y874268D01*
X982218Y876300D01*
X893318Y899668D02*
X894334Y901700D01*
X893318Y903732D01*
X895350Y902716D01*
X897382Y903732D01*
X896366Y901700D01*
X897382Y899668D01*
X895350Y900684D01*
X893318Y899668D01*
Y925068D02*
X894334Y927100D01*
X893318Y929132D01*
X895350Y928116D01*
X897382Y929132D01*
X896366Y927100D01*
X897382Y925068D01*
X895350Y926084D01*
X893318Y925068D01*
Y950468D02*
X894334Y952500D01*
X893318Y954532D01*
X895350Y953516D01*
X897382Y954532D01*
X896366Y952500D01*
X897382Y950468D01*
X895350Y951484D01*
X893318Y950468D01*
Y975868D02*
X894334Y977900D01*
X893318Y979932D01*
X895350Y978916D01*
X897382Y979932D01*
X896366Y977900D01*
X897382Y975868D01*
X895350Y976884D01*
X893318Y975868D01*
X918718Y886967D02*
X919734Y888999D01*
X918718Y891031D01*
X920750Y890015D01*
X922782Y891031D01*
X921766Y888999D01*
X922782Y886967D01*
X920750Y887983D01*
X918718Y886967D01*
Y912368D02*
X919734Y914400D01*
X918718Y916432D01*
X920750Y915416D01*
X922782Y916432D01*
X921766Y914400D01*
X922782Y912368D01*
X920750Y913384D01*
X918718Y912368D01*
Y937768D02*
X919734Y939800D01*
X918718Y941832D01*
X920750Y940816D01*
X922782Y941832D01*
X921766Y939800D01*
X922782Y937768D01*
X920750Y938784D01*
X918718Y937768D01*
Y963128D02*
X919734Y965160D01*
X918718Y967192D01*
X920750Y966176D01*
X922782Y967192D01*
X921766Y965160D01*
X922782Y963128D01*
X920750Y964144D01*
X918718Y963128D01*
X982218Y990600D02*
X984250Y992632D01*
X986282Y990600D01*
X984250Y988568D01*
X982218Y990600D01*
X50000Y1026668D02*
X47968Y1030732D01*
X52032D01*
X50000Y1026668D01*
X0D02*
X-2032Y1030732D01*
X2032D01*
X0Y1026668D01*
X127000Y495808D02*
X124968Y499872D01*
X129032D01*
X127000Y495808D01*
Y445808D02*
X124968Y449872D01*
X129032D01*
X127000Y445808D01*
X50000Y798068D02*
X47968Y802132D01*
X52032D01*
X50000Y798068D01*
X0D02*
X-2032Y802132D01*
X2032D01*
X0Y798068D01*
X880968Y-244032D02*
X881984Y-242000D01*
X880968Y-239968D01*
X883000Y-240984D01*
X885032Y-239968D01*
X884016Y-242000D01*
X885032Y-244032D01*
X883000Y-243016D01*
X880968Y-244032D01*
X898984Y-226016D02*
Y-227032D01*
X901016D01*
Y-226016D01*
X902032D01*
Y-223984D01*
X901016D01*
Y-222968D01*
X898984D01*
Y-223984D01*
X897968D01*
Y-226016D01*
X898984D01*
X873968Y-227032D02*
X874984Y-225000D01*
X873968Y-222968D01*
X876000Y-223984D01*
X878032Y-222968D01*
X877016Y-225000D01*
X878032Y-227032D01*
X876000Y-226016D01*
X873968Y-227032D01*
X880968Y-210032D02*
X881984Y-208000D01*
X880968Y-205968D01*
X883000Y-206984D01*
X885032Y-205968D01*
X884016Y-208000D01*
X885032Y-210032D01*
X883000Y-209016D01*
X880968Y-210032D01*
X897968Y-251032D02*
X898984Y-249000D01*
X897968Y-246968D01*
X900000Y-247984D01*
X902032Y-246968D01*
X901016Y-249000D01*
X902032Y-251032D01*
X900000Y-250016D01*
X897968Y-251032D01*
X914968Y-244032D02*
X915984Y-242000D01*
X914968Y-239968D01*
X917000Y-240984D01*
X919032Y-239968D01*
X918016Y-242000D01*
X919032Y-244032D01*
X917000Y-243016D01*
X914968Y-244032D01*
X897968Y-203032D02*
X898984Y-201000D01*
X897968Y-198968D01*
X900000Y-199984D01*
X902032Y-198968D01*
X901016Y-201000D01*
X902032Y-203032D01*
X900000Y-202016D01*
X897968Y-203032D01*
X921968Y-227032D02*
X922984Y-225000D01*
X921968Y-222968D01*
X924000Y-223984D01*
X926032Y-222968D01*
X925016Y-225000D01*
X926032Y-227032D01*
X924000Y-226016D01*
X921968Y-227032D01*
X914968Y-210032D02*
X915984Y-208000D01*
X914968Y-205968D01*
X917000Y-206984D01*
X919032Y-205968D01*
X918016Y-208000D01*
X919032Y-210032D01*
X917000Y-209016D01*
X914968Y-210032D01*
X55968Y-244032D02*
X56984Y-242000D01*
X55968Y-239968D01*
X58000Y-240984D01*
X60032Y-239968D01*
X59016Y-242000D01*
X60032Y-244032D01*
X58000Y-243016D01*
X55968Y-244032D01*
X73984Y-226016D02*
Y-227032D01*
X76016D01*
Y-226016D01*
X77032D01*
Y-223984D01*
X76016D01*
Y-222968D01*
X73984D01*
Y-223984D01*
X72968D01*
Y-226016D01*
X73984D01*
X48968Y-227032D02*
X49984Y-225000D01*
X48968Y-222968D01*
X51000Y-223984D01*
X53032Y-222968D01*
X52016Y-225000D01*
X53032Y-227032D01*
X51000Y-226016D01*
X48968Y-227032D01*
X55968Y-210032D02*
X56984Y-208000D01*
X55968Y-205968D01*
X58000Y-206984D01*
X60032Y-205968D01*
X59016Y-208000D01*
X60032Y-210032D01*
X58000Y-209016D01*
X55968Y-210032D01*
X72968Y-251032D02*
X73984Y-249000D01*
X72968Y-246968D01*
X75000Y-247984D01*
X77032Y-246968D01*
X76016Y-249000D01*
X77032Y-251032D01*
X75000Y-250016D01*
X72968Y-251032D01*
X89968Y-244032D02*
X90984Y-242000D01*
X89968Y-239968D01*
X92000Y-240984D01*
X94032Y-239968D01*
X93016Y-242000D01*
X94032Y-244032D01*
X92000Y-243016D01*
X89968Y-244032D01*
X72968Y-203032D02*
X73984Y-201000D01*
X72968Y-198968D01*
X75000Y-199984D01*
X77032Y-198968D01*
X76016Y-201000D01*
X77032Y-203032D01*
X75000Y-202016D01*
X72968Y-203032D01*
X96968Y-227032D02*
X97984Y-225000D01*
X96968Y-222968D01*
X99000Y-223984D01*
X101032Y-222968D01*
X100016Y-225000D01*
X101032Y-227032D01*
X99000Y-226016D01*
X96968Y-227032D01*
X89968Y-210032D02*
X90984Y-208000D01*
X89968Y-205968D01*
X92000Y-206984D01*
X94032Y-205968D01*
X93016Y-208000D01*
X94032Y-210032D01*
X92000Y-209016D01*
X89968Y-210032D01*
X855968Y305968D02*
X856984Y308000D01*
X855968Y310032D01*
X858000Y309016D01*
X860032Y310032D01*
X859016Y308000D01*
X860032Y305968D01*
X858000Y306984D01*
X855968Y305968D01*
X873984Y323984D02*
Y322968D01*
X876016D01*
Y323984D01*
X877032D01*
Y326016D01*
X876016D01*
Y327032D01*
X873984D01*
Y326016D01*
X872968D01*
Y323984D01*
X873984D01*
X848968Y322968D02*
X849984Y325000D01*
X848968Y327032D01*
X851000Y326016D01*
X853032Y327032D01*
X852016Y325000D01*
X853032Y322968D01*
X851000Y323984D01*
X848968Y322968D01*
X855968Y339968D02*
X856984Y342000D01*
X855968Y344032D01*
X858000Y343016D01*
X860032Y344032D01*
X859016Y342000D01*
X860032Y339968D01*
X858000Y340984D01*
X855968Y339968D01*
X872968Y298968D02*
X873984Y301000D01*
X872968Y303032D01*
X875000Y302016D01*
X877032Y303032D01*
X876016Y301000D01*
X877032Y298968D01*
X875000Y299984D01*
X872968Y298968D01*
X889968Y305968D02*
X890984Y308000D01*
X889968Y310032D01*
X892000Y309016D01*
X894032Y310032D01*
X893016Y308000D01*
X894032Y305968D01*
X892000Y306984D01*
X889968Y305968D01*
X872968Y346968D02*
X873984Y349000D01*
X872968Y351032D01*
X875000Y350016D01*
X877032Y351032D01*
X876016Y349000D01*
X877032Y346968D01*
X875000Y347984D01*
X872968Y346968D01*
X896968Y322968D02*
X897984Y325000D01*
X896968Y327032D01*
X899000Y326016D01*
X901032Y327032D01*
X900016Y325000D01*
X901032Y322968D01*
X899000Y323984D01*
X896968Y322968D01*
X889968Y339968D02*
X890984Y342000D01*
X889968Y344032D01*
X892000Y343016D01*
X894032Y344032D01*
X893016Y342000D01*
X894032Y339968D01*
X892000Y340984D01*
X889968Y339968D01*
X55968Y305968D02*
X56984Y308000D01*
X55968Y310032D01*
X58000Y309016D01*
X60032Y310032D01*
X59016Y308000D01*
X60032Y305968D01*
X58000Y306984D01*
X55968Y305968D01*
X73984Y323984D02*
Y322968D01*
X76016D01*
Y323984D01*
X77032D01*
Y326016D01*
X76016D01*
Y327032D01*
X73984D01*
Y326016D01*
X72968D01*
Y323984D01*
X73984D01*
X48968Y322968D02*
X49984Y325000D01*
X48968Y327032D01*
X51000Y326016D01*
X53032Y327032D01*
X52016Y325000D01*
X53032Y322968D01*
X51000Y323984D01*
X48968Y322968D01*
X55968Y339968D02*
X56984Y342000D01*
X55968Y344032D01*
X58000Y343016D01*
X60032Y344032D01*
X59016Y342000D01*
X60032Y339968D01*
X58000Y340984D01*
X55968Y339968D01*
X72968Y298968D02*
X73984Y301000D01*
X72968Y303032D01*
X75000Y302016D01*
X77032Y303032D01*
X76016Y301000D01*
X77032Y298968D01*
X75000Y299984D01*
X72968Y298968D01*
X89968Y305968D02*
X90984Y308000D01*
X89968Y310032D01*
X92000Y309016D01*
X94032Y310032D01*
X93016Y308000D01*
X94032Y305968D01*
X92000Y306984D01*
X89968Y305968D01*
X72968Y346968D02*
X73984Y349000D01*
X72968Y351032D01*
X75000Y350016D01*
X77032Y351032D01*
X76016Y349000D01*
X77032Y346968D01*
X75000Y347984D01*
X72968Y346968D01*
X96968Y322968D02*
X97984Y325000D01*
X96968Y327032D01*
X99000Y326016D01*
X101032Y327032D01*
X100016Y325000D01*
X101032Y322968D01*
X99000Y323984D01*
X96968Y322968D01*
X89968Y339968D02*
X90984Y342000D01*
X89968Y344032D01*
X92000Y343016D01*
X94032Y344032D01*
X93016Y342000D01*
X94032Y339968D01*
X92000Y340984D01*
X89968Y339968D01*
X855968Y1405968D02*
X856984Y1408000D01*
X855968Y1410032D01*
X858000Y1409016D01*
X860032Y1410032D01*
X859016Y1408000D01*
X860032Y1405968D01*
X858000Y1406984D01*
X855968Y1405968D01*
X873984Y1423984D02*
Y1422968D01*
X876016D01*
Y1423984D01*
X877032D01*
Y1426016D01*
X876016D01*
Y1427032D01*
X873984D01*
Y1426016D01*
X872968D01*
Y1423984D01*
X873984D01*
X848968Y1422968D02*
X849984Y1425000D01*
X848968Y1427032D01*
X851000Y1426016D01*
X853032Y1427032D01*
X852016Y1425000D01*
X853032Y1422968D01*
X851000Y1423984D01*
X848968Y1422968D01*
X855968Y1439968D02*
X856984Y1442000D01*
X855968Y1444032D01*
X858000Y1443016D01*
X860032Y1444032D01*
X859016Y1442000D01*
X860032Y1439968D01*
X858000Y1440984D01*
X855968Y1439968D01*
X872968Y1398968D02*
X873984Y1401000D01*
X872968Y1403032D01*
X875000Y1402016D01*
X877032Y1403032D01*
X876016Y1401000D01*
X877032Y1398968D01*
X875000Y1399984D01*
X872968Y1398968D01*
X889968Y1405968D02*
X890984Y1408000D01*
X889968Y1410032D01*
X892000Y1409016D01*
X894032Y1410032D01*
X893016Y1408000D01*
X894032Y1405968D01*
X892000Y1406984D01*
X889968Y1405968D01*
X872968Y1446968D02*
X873984Y1449000D01*
X872968Y1451032D01*
X875000Y1450016D01*
X877032Y1451032D01*
X876016Y1449000D01*
X877032Y1446968D01*
X875000Y1447984D01*
X872968Y1446968D01*
X896968Y1422968D02*
X897984Y1425000D01*
X896968Y1427032D01*
X899000Y1426016D01*
X901032Y1427032D01*
X900016Y1425000D01*
X901032Y1422968D01*
X899000Y1423984D01*
X896968Y1422968D01*
X889968Y1439968D02*
X890984Y1442000D01*
X889968Y1444032D01*
X892000Y1443016D01*
X894032Y1444032D01*
X893016Y1442000D01*
X894032Y1439968D01*
X892000Y1440984D01*
X889968Y1439968D01*
X55968Y1405968D02*
X56984Y1408000D01*
X55968Y1410032D01*
X58000Y1409016D01*
X60032Y1410032D01*
X59016Y1408000D01*
X60032Y1405968D01*
X58000Y1406984D01*
X55968Y1405968D01*
X73984Y1423984D02*
Y1422968D01*
X76016D01*
Y1423984D01*
X77032D01*
Y1426016D01*
X76016D01*
Y1427032D01*
X73984D01*
Y1426016D01*
X72968D01*
Y1423984D01*
X73984D01*
X48968Y1422968D02*
X49984Y1425000D01*
X48968Y1427032D01*
X51000Y1426016D01*
X53032Y1427032D01*
X52016Y1425000D01*
X53032Y1422968D01*
X51000Y1423984D01*
X48968Y1422968D01*
X55968Y1439968D02*
X56984Y1442000D01*
X55968Y1444032D01*
X58000Y1443016D01*
X60032Y1444032D01*
X59016Y1442000D01*
X60032Y1439968D01*
X58000Y1440984D01*
X55968Y1439968D01*
X72968Y1398968D02*
X73984Y1401000D01*
X72968Y1403032D01*
X75000Y1402016D01*
X77032Y1403032D01*
X76016Y1401000D01*
X77032Y1398968D01*
X75000Y1399984D01*
X72968Y1398968D01*
X89968Y1405968D02*
X90984Y1408000D01*
X89968Y1410032D01*
X92000Y1409016D01*
X94032Y1410032D01*
X93016Y1408000D01*
X94032Y1405968D01*
X92000Y1406984D01*
X89968Y1405968D01*
X72968Y1446968D02*
X73984Y1449000D01*
X72968Y1451032D01*
X75000Y1450016D01*
X77032Y1451032D01*
X76016Y1449000D01*
X77032Y1446968D01*
X75000Y1447984D01*
X72968Y1446968D01*
X96968Y1422968D02*
X97984Y1425000D01*
X96968Y1427032D01*
X99000Y1426016D01*
X101032Y1427032D01*
X100016Y1425000D01*
X101032Y1422968D01*
X99000Y1423984D01*
X96968Y1422968D01*
X89968Y1439968D02*
X90984Y1442000D01*
X89968Y1444032D01*
X92000Y1443016D01*
X94032Y1444032D01*
X93016Y1442000D01*
X94032Y1439968D01*
X92000Y1440984D01*
X89968Y1439968D01*
X855968Y1980968D02*
X856984Y1983000D01*
X855968Y1985032D01*
X858000Y1984016D01*
X860032Y1985032D01*
X859016Y1983000D01*
X860032Y1980968D01*
X858000Y1981984D01*
X855968Y1980968D01*
X873984Y1998984D02*
Y1997968D01*
X876016D01*
Y1998984D01*
X877032D01*
Y2001016D01*
X876016D01*
Y2002032D01*
X873984D01*
Y2001016D01*
X872968D01*
Y1998984D01*
X873984D01*
X848968Y1997968D02*
X849984Y2000000D01*
X848968Y2002032D01*
X851000Y2001016D01*
X853032Y2002032D01*
X852016Y2000000D01*
X853032Y1997968D01*
X851000Y1998984D01*
X848968Y1997968D01*
X855968Y2014968D02*
X856984Y2017000D01*
X855968Y2019032D01*
X858000Y2018016D01*
X860032Y2019032D01*
X859016Y2017000D01*
X860032Y2014968D01*
X858000Y2015984D01*
X855968Y2014968D01*
X872968Y1973968D02*
X873984Y1976000D01*
X872968Y1978032D01*
X875000Y1977016D01*
X877032Y1978032D01*
X876016Y1976000D01*
X877032Y1973968D01*
X875000Y1974984D01*
X872968Y1973968D01*
X889968Y1980968D02*
X890984Y1983000D01*
X889968Y1985032D01*
X892000Y1984016D01*
X894032Y1985032D01*
X893016Y1983000D01*
X894032Y1980968D01*
X892000Y1981984D01*
X889968Y1980968D01*
X872968Y2021968D02*
X873984Y2024000D01*
X872968Y2026032D01*
X875000Y2025016D01*
X877032Y2026032D01*
X876016Y2024000D01*
X877032Y2021968D01*
X875000Y2022984D01*
X872968Y2021968D01*
X896968Y1997968D02*
X897984Y2000000D01*
X896968Y2002032D01*
X899000Y2001016D01*
X901032Y2002032D01*
X900016Y2000000D01*
X901032Y1997968D01*
X899000Y1998984D01*
X896968Y1997968D01*
X889968Y2014968D02*
X890984Y2017000D01*
X889968Y2019032D01*
X892000Y2018016D01*
X894032Y2019032D01*
X893016Y2017000D01*
X894032Y2014968D01*
X892000Y2015984D01*
X889968Y2014968D01*
X55968Y1980968D02*
X56984Y1983000D01*
X55968Y1985032D01*
X58000Y1984016D01*
X60032Y1985032D01*
X59016Y1983000D01*
X60032Y1980968D01*
X58000Y1981984D01*
X55968Y1980968D01*
X73984Y1998984D02*
Y1997968D01*
X76016D01*
Y1998984D01*
X77032D01*
Y2001016D01*
X76016D01*
Y2002032D01*
X73984D01*
Y2001016D01*
X72968D01*
Y1998984D01*
X73984D01*
X48968Y1997968D02*
X49984Y2000000D01*
X48968Y2002032D01*
X51000Y2001016D01*
X53032Y2002032D01*
X52016Y2000000D01*
X53032Y1997968D01*
X51000Y1998984D01*
X48968Y1997968D01*
X55968Y2014968D02*
X56984Y2017000D01*
X55968Y2019032D01*
X58000Y2018016D01*
X60032Y2019032D01*
X59016Y2017000D01*
X60032Y2014968D01*
X58000Y2015984D01*
X55968Y2014968D01*
X72968Y1973968D02*
X73984Y1976000D01*
X72968Y1978032D01*
X75000Y1977016D01*
X77032Y1978032D01*
X76016Y1976000D01*
X77032Y1973968D01*
X75000Y1974984D01*
X72968Y1973968D01*
X89968Y1980968D02*
X90984Y1983000D01*
X89968Y1985032D01*
X92000Y1984016D01*
X94032Y1985032D01*
X93016Y1983000D01*
X94032Y1980968D01*
X92000Y1981984D01*
X89968Y1980968D01*
X72968Y2021968D02*
X73984Y2024000D01*
X72968Y2026032D01*
X75000Y2025016D01*
X77032Y2026032D01*
X76016Y2024000D01*
X77032Y2021968D01*
X75000Y2022984D01*
X72968Y2021968D01*
X96968Y1997968D02*
X97984Y2000000D01*
X96968Y2002032D01*
X99000Y2001016D01*
X101032Y2002032D01*
X100016Y2000000D01*
X101032Y1997968D01*
X99000Y1998984D01*
X96968Y1997968D01*
X89968Y2014968D02*
X90984Y2017000D01*
X89968Y2019032D01*
X92000Y2018016D01*
X94032Y2019032D01*
X93016Y2017000D01*
X94032Y2014968D01*
X92000Y2015984D01*
X89968Y2014968D01*
X1554734Y780034D02*
Y779018D01*
X1556766D01*
Y780034D01*
X1557782D01*
Y782066D01*
X1556766D01*
Y783082D01*
X1554734D01*
Y782066D01*
X1553718D01*
Y780034D01*
X1554734D01*
Y868934D02*
Y867918D01*
X1556766D01*
Y868934D01*
X1557782D01*
Y870966D01*
X1556766D01*
Y871982D01*
X1554734D01*
Y870966D01*
X1553718D01*
Y868934D01*
X1554734D01*
Y957834D02*
Y956818D01*
X1556766D01*
Y957834D01*
X1557782D01*
Y959866D01*
X1556766D01*
Y960882D01*
X1554734D01*
Y959866D01*
X1553718D01*
Y957834D01*
X1554734D01*
Y1084834D02*
Y1083818D01*
X1556766D01*
Y1084834D01*
X1557782D01*
Y1086866D01*
X1556766D01*
Y1087882D01*
X1554734D01*
Y1086866D01*
X1553718D01*
Y1084834D01*
X1554734D01*
X666750Y1071118D02*
X664718Y1075182D01*
X668782D01*
X666750Y1071118D01*
X641350D02*
X639318Y1075182D01*
X643382D01*
X641350Y1071118D01*
Y1096518D02*
X639318Y1100582D01*
X643382D01*
X641350Y1096518D01*
Y1045718D02*
X639318Y1049782D01*
X643382D01*
X641350Y1045718D01*
X666750Y1096518D02*
X664718Y1100582D01*
X668782D01*
X666750Y1096518D01*
Y1045718D02*
X664718Y1049782D01*
X668782D01*
X666750Y1045718D01*
X590550D02*
X588518Y1049782D01*
X592582D01*
X590550Y1045718D01*
Y1071118D02*
X588518Y1075182D01*
X592582D01*
X590550Y1071118D01*
X768350Y1366468D02*
X766318Y1370532D01*
X770382D01*
X768350Y1366468D01*
X739218Y1397168D02*
Y1401232D01*
X743282D01*
Y1397168D01*
X739218D01*
Y1265768D02*
Y1269832D01*
X743282D01*
Y1265768D01*
X739218D01*
X768350Y1341468D02*
X766318Y1345532D01*
X770382D01*
X768350Y1341468D01*
Y1321468D02*
X766318Y1325532D01*
X770382D01*
X768350Y1321468D01*
Y1296468D02*
X766318Y1300532D01*
X770382D01*
X768350Y1296468D01*
X1003300Y1198118D02*
X1001268Y1202182D01*
X1005332D01*
X1003300Y1198118D01*
X977900D02*
X975868Y1202182D01*
X979932D01*
X977900Y1198118D01*
X952500D02*
X950468Y1202182D01*
X954532D01*
X952500Y1198118D01*
X927100D02*
X925068Y1202182D01*
X929132D01*
X927100Y1198118D01*
X901700D02*
X899668Y1202182D01*
X903732D01*
X901700Y1198118D01*
X876300D02*
X874268Y1202182D01*
X878332D01*
X876300Y1198118D01*
X850900D02*
X848868Y1202182D01*
X852932D01*
X850900Y1198118D01*
X825500D02*
X823468Y1202182D01*
X827532D01*
X825500Y1198118D01*
X800100D02*
X798068Y1202182D01*
X802132D01*
X800100Y1198118D01*
X774700D02*
X772668Y1202182D01*
X776732D01*
X774700Y1198118D01*
X749300D02*
X747268Y1202182D01*
X751332D01*
X749300Y1198118D01*
X723900D02*
X721868Y1202182D01*
X725932D01*
X723900Y1198118D01*
Y1045718D02*
X721868Y1049782D01*
X725932D01*
X723900Y1045718D01*
X749300D02*
X747268Y1049782D01*
X751332D01*
X749300Y1045718D01*
X774700D02*
X772668Y1049782D01*
X776732D01*
X774700Y1045718D01*
X800100D02*
X798068Y1049782D01*
X802132D01*
X800100Y1045718D01*
X825500D02*
X823468Y1049782D01*
X827532D01*
X825500Y1045718D01*
X850900D02*
X848868Y1049782D01*
X852932D01*
X850900Y1045718D01*
X876300D02*
X874268Y1049782D01*
X878332D01*
X876300Y1045718D01*
X901700D02*
X899668Y1049782D01*
X903732D01*
X901700Y1045718D01*
X927100D02*
X925068Y1049782D01*
X929132D01*
X927100Y1045718D01*
X952500D02*
X950468Y1049782D01*
X954532D01*
X952500Y1045718D01*
X977900D02*
X975868Y1049782D01*
X979932D01*
X977900Y1045718D01*
X1003300D02*
X1001268Y1049782D01*
X1005332D01*
X1003300Y1045718D01*
X1549400Y251968D02*
X1547368Y256032D01*
X1551432D01*
X1549400Y251968D01*
Y277368D02*
X1547368Y281432D01*
X1551432D01*
X1549400Y277368D01*
X1574800Y251968D02*
X1572768Y256032D01*
X1576832D01*
X1574800Y251968D01*
Y277368D02*
X1572768Y281432D01*
X1576832D01*
X1574800Y277368D01*
X1600200Y251968D02*
X1598168Y256032D01*
X1602232D01*
X1600200Y251968D01*
Y277368D02*
X1598168Y281432D01*
X1602232D01*
X1600200Y277368D01*
X1625600D02*
X1623568Y281432D01*
X1627632D01*
X1625600Y277368D01*
Y251968D02*
X1623568Y256032D01*
X1627632D01*
X1625600Y251968D01*
X1651000Y277368D02*
X1648968Y281432D01*
X1653032D01*
X1651000Y277368D01*
Y251968D02*
X1648968Y256032D01*
X1653032D01*
X1651000Y251968D01*
X1422400D02*
X1420368Y256032D01*
X1424432D01*
X1422400Y251968D01*
Y277368D02*
X1420368Y281432D01*
X1424432D01*
X1422400Y277368D01*
X1447800Y251968D02*
X1445768Y256032D01*
X1449832D01*
X1447800Y251968D01*
Y277368D02*
X1445768Y281432D01*
X1449832D01*
X1447800Y277368D01*
X1473200Y251968D02*
X1471168Y256032D01*
X1475232D01*
X1473200Y251968D01*
Y277368D02*
X1471168Y281432D01*
X1475232D01*
X1473200Y277368D01*
X1498600D02*
X1496568Y281432D01*
X1500632D01*
X1498600Y277368D01*
Y251968D02*
X1496568Y256032D01*
X1500632D01*
X1498600Y251968D01*
X1524000Y277368D02*
X1521968Y281432D01*
X1526032D01*
X1524000Y277368D01*
Y251968D02*
X1521968Y256032D01*
X1526032D01*
X1524000Y251968D01*
X1295400D02*
X1293368Y256032D01*
X1297432D01*
X1295400Y251968D01*
Y277368D02*
X1293368Y281432D01*
X1297432D01*
X1295400Y277368D01*
X1320800Y251968D02*
X1318768Y256032D01*
X1322832D01*
X1320800Y251968D01*
Y277368D02*
X1318768Y281432D01*
X1322832D01*
X1320800Y277368D01*
X1346200Y251968D02*
X1344168Y256032D01*
X1348232D01*
X1346200Y251968D01*
Y277368D02*
X1344168Y281432D01*
X1348232D01*
X1346200Y277368D01*
X1371600D02*
X1369568Y281432D01*
X1373632D01*
X1371600Y277368D01*
Y251968D02*
X1369568Y256032D01*
X1373632D01*
X1371600Y251968D01*
X1397000Y277368D02*
X1394968Y281432D01*
X1399032D01*
X1397000Y277368D01*
Y251968D02*
X1394968Y256032D01*
X1399032D01*
X1397000Y251968D01*
X1168400D02*
X1166368Y256032D01*
X1170432D01*
X1168400Y251968D01*
Y277368D02*
X1166368Y281432D01*
X1170432D01*
X1168400Y277368D01*
X1193800Y251968D02*
X1191768Y256032D01*
X1195832D01*
X1193800Y251968D01*
Y277368D02*
X1191768Y281432D01*
X1195832D01*
X1193800Y277368D01*
X1219200Y251968D02*
X1217168Y256032D01*
X1221232D01*
X1219200Y251968D01*
Y277368D02*
X1217168Y281432D01*
X1221232D01*
X1219200Y277368D01*
X1244600D02*
X1242568Y281432D01*
X1246632D01*
X1244600Y277368D01*
Y251968D02*
X1242568Y256032D01*
X1246632D01*
X1244600Y251968D01*
X1270000Y277368D02*
X1267968Y281432D01*
X1272032D01*
X1270000Y277368D01*
Y251968D02*
X1267968Y256032D01*
X1272032D01*
X1270000Y251968D01*
X1549400Y455168D02*
X1547368Y459232D01*
X1551432D01*
X1549400Y455168D01*
Y480568D02*
X1547368Y484632D01*
X1551432D01*
X1549400Y480568D01*
X1574800Y455168D02*
X1572768Y459232D01*
X1576832D01*
X1574800Y455168D01*
Y480568D02*
X1572768Y484632D01*
X1576832D01*
X1574800Y480568D01*
X1600200Y455168D02*
X1598168Y459232D01*
X1602232D01*
X1600200Y455168D01*
Y480568D02*
X1598168Y484632D01*
X1602232D01*
X1600200Y480568D01*
X1625600D02*
X1623568Y484632D01*
X1627632D01*
X1625600Y480568D01*
Y455168D02*
X1623568Y459232D01*
X1627632D01*
X1625600Y455168D01*
X1651000Y480568D02*
X1648968Y484632D01*
X1653032D01*
X1651000Y480568D01*
Y455168D02*
X1648968Y459232D01*
X1653032D01*
X1651000Y455168D01*
X1422400D02*
X1420368Y459232D01*
X1424432D01*
X1422400Y455168D01*
Y480568D02*
X1420368Y484632D01*
X1424432D01*
X1422400Y480568D01*
X1447800Y455168D02*
X1445768Y459232D01*
X1449832D01*
X1447800Y455168D01*
Y480568D02*
X1445768Y484632D01*
X1449832D01*
X1447800Y480568D01*
X1473200Y455168D02*
X1471168Y459232D01*
X1475232D01*
X1473200Y455168D01*
Y480568D02*
X1471168Y484632D01*
X1475232D01*
X1473200Y480568D01*
X1498600D02*
X1496568Y484632D01*
X1500632D01*
X1498600Y480568D01*
Y455168D02*
X1496568Y459232D01*
X1500632D01*
X1498600Y455168D01*
X1524000Y480568D02*
X1521968Y484632D01*
X1526032D01*
X1524000Y480568D01*
Y455168D02*
X1521968Y459232D01*
X1526032D01*
X1524000Y455168D01*
X1295400D02*
X1293368Y459232D01*
X1297432D01*
X1295400Y455168D01*
Y480568D02*
X1293368Y484632D01*
X1297432D01*
X1295400Y480568D01*
X1320800Y455168D02*
X1318768Y459232D01*
X1322832D01*
X1320800Y455168D01*
Y480568D02*
X1318768Y484632D01*
X1322832D01*
X1320800Y480568D01*
X1346200Y455168D02*
X1344168Y459232D01*
X1348232D01*
X1346200Y455168D01*
Y480568D02*
X1344168Y484632D01*
X1348232D01*
X1346200Y480568D01*
X1371600D02*
X1369568Y484632D01*
X1373632D01*
X1371600Y480568D01*
Y455168D02*
X1369568Y459232D01*
X1373632D01*
X1371600Y455168D01*
X1397000Y480568D02*
X1394968Y484632D01*
X1399032D01*
X1397000Y480568D01*
Y455168D02*
X1394968Y459232D01*
X1399032D01*
X1397000Y455168D01*
X1168400D02*
X1166368Y459232D01*
X1170432D01*
X1168400Y455168D01*
Y480568D02*
X1166368Y484632D01*
X1170432D01*
X1168400Y480568D01*
X1193800Y455168D02*
X1191768Y459232D01*
X1195832D01*
X1193800Y455168D01*
Y480568D02*
X1191768Y484632D01*
X1195832D01*
X1193800Y480568D01*
X1219200Y455168D02*
X1217168Y459232D01*
X1221232D01*
X1219200Y455168D01*
Y480568D02*
X1217168Y484632D01*
X1221232D01*
X1219200Y480568D01*
X1244600D02*
X1242568Y484632D01*
X1246632D01*
X1244600Y480568D01*
Y455168D02*
X1242568Y459232D01*
X1246632D01*
X1244600Y455168D01*
X1270000Y480568D02*
X1267968Y484632D01*
X1272032D01*
X1270000Y480568D01*
Y455168D02*
X1267968Y459232D01*
X1272032D01*
X1270000Y455168D01*
X1177968Y647968D02*
Y652032D01*
X1182032D01*
Y647968D01*
X1177968D01*
X1178984Y648984D02*
Y651016D01*
X1181016D01*
Y648984D01*
X1178984D01*
X1217968Y647968D02*
Y652032D01*
X1222032D01*
Y647968D01*
X1217968D01*
X1218984Y648984D02*
Y651016D01*
X1221016D01*
Y648984D01*
X1218984D01*
X1187968Y647968D02*
Y652032D01*
X1192032D01*
Y647968D01*
X1187968D01*
X1188984Y648984D02*
Y651016D01*
X1191016D01*
Y648984D01*
X1188984D01*
X1197968Y647968D02*
Y652032D01*
X1202032D01*
Y647968D01*
X1197968D01*
X1198984Y648984D02*
Y651016D01*
X1201016D01*
Y648984D01*
X1198984D01*
X1207968Y647968D02*
Y652032D01*
X1212032D01*
Y647968D01*
X1207968D01*
X1208984Y648984D02*
Y651016D01*
X1211016D01*
Y648984D01*
X1208984D01*
X1577968Y647968D02*
Y652032D01*
X1582032D01*
Y647968D01*
X1577968D01*
X1578984Y648984D02*
Y651016D01*
X1581016D01*
Y648984D01*
X1578984D01*
X1617968Y647968D02*
Y652032D01*
X1622032D01*
Y647968D01*
X1617968D01*
X1618984Y648984D02*
Y651016D01*
X1621016D01*
Y648984D01*
X1618984D01*
X1587968Y647968D02*
Y652032D01*
X1592032D01*
Y647968D01*
X1587968D01*
X1588984Y648984D02*
Y651016D01*
X1591016D01*
Y648984D01*
X1588984D01*
X1597968Y647968D02*
Y652032D01*
X1602032D01*
Y647968D01*
X1597968D01*
X1598984Y648984D02*
Y651016D01*
X1601016D01*
Y648984D01*
X1598984D01*
X1607968Y647968D02*
Y652032D01*
X1612032D01*
Y647968D01*
X1607968D01*
X1608984Y648984D02*
Y651016D01*
X1611016D01*
Y648984D01*
X1608984D01*
X1577968Y517968D02*
Y522032D01*
X1582032D01*
Y517968D01*
X1577968D01*
X1578984Y518984D02*
Y521016D01*
X1581016D01*
Y518984D01*
X1578984D01*
X1617968Y517968D02*
Y522032D01*
X1622032D01*
Y517968D01*
X1617968D01*
X1618984Y518984D02*
Y521016D01*
X1621016D01*
Y518984D01*
X1618984D01*
X1587968Y517968D02*
Y522032D01*
X1592032D01*
Y517968D01*
X1587968D01*
X1588984Y518984D02*
Y521016D01*
X1591016D01*
Y518984D01*
X1588984D01*
X1597968Y517968D02*
Y522032D01*
X1602032D01*
Y517968D01*
X1597968D01*
X1598984Y518984D02*
Y521016D01*
X1601016D01*
Y518984D01*
X1598984D01*
X1607968Y517968D02*
Y522032D01*
X1612032D01*
Y517968D01*
X1607968D01*
X1608984Y518984D02*
Y521016D01*
X1611016D01*
Y518984D01*
X1608984D01*
X1177968Y517968D02*
Y522032D01*
X1182032D01*
Y517968D01*
X1177968D01*
X1178984Y518984D02*
Y521016D01*
X1181016D01*
Y518984D01*
X1178984D01*
X1217968Y517968D02*
Y522032D01*
X1222032D01*
Y517968D01*
X1217968D01*
X1218984Y518984D02*
Y521016D01*
X1221016D01*
Y518984D01*
X1218984D01*
X1187968Y517968D02*
Y522032D01*
X1192032D01*
Y517968D01*
X1187968D01*
X1188984Y518984D02*
Y521016D01*
X1191016D01*
Y518984D01*
X1188984D01*
X1197968Y517968D02*
Y522032D01*
X1202032D01*
Y517968D01*
X1197968D01*
X1198984Y518984D02*
Y521016D01*
X1201016D01*
Y518984D01*
X1198984D01*
X1207968Y517968D02*
Y522032D01*
X1212032D01*
Y517968D01*
X1207968D01*
X1208984Y518984D02*
Y521016D01*
X1211016D01*
Y518984D01*
X1208984D01*
X1177968Y217968D02*
Y222032D01*
X1182032D01*
Y217968D01*
X1177968D01*
X1178984Y218984D02*
Y221016D01*
X1181016D01*
Y218984D01*
X1178984D01*
X1217968Y217968D02*
Y222032D01*
X1222032D01*
Y217968D01*
X1217968D01*
X1218984Y218984D02*
Y221016D01*
X1221016D01*
Y218984D01*
X1218984D01*
X1187968Y217968D02*
Y222032D01*
X1192032D01*
Y217968D01*
X1187968D01*
X1188984Y218984D02*
Y221016D01*
X1191016D01*
Y218984D01*
X1188984D01*
X1197968Y217968D02*
Y222032D01*
X1202032D01*
Y217968D01*
X1197968D01*
X1198984Y218984D02*
Y221016D01*
X1201016D01*
Y218984D01*
X1198984D01*
X1207968Y217968D02*
Y222032D01*
X1212032D01*
Y217968D01*
X1207968D01*
X1208984Y218984D02*
Y221016D01*
X1211016D01*
Y218984D01*
X1208984D01*
X1577968Y217968D02*
Y222032D01*
X1582032D01*
Y217968D01*
X1577968D01*
X1578984Y218984D02*
Y221016D01*
X1581016D01*
Y218984D01*
X1578984D01*
X1617968Y217968D02*
Y222032D01*
X1622032D01*
Y217968D01*
X1617968D01*
X1618984Y218984D02*
Y221016D01*
X1621016D01*
Y218984D01*
X1618984D01*
X1587968Y217968D02*
Y222032D01*
X1592032D01*
Y217968D01*
X1587968D01*
X1588984Y218984D02*
Y221016D01*
X1591016D01*
Y218984D01*
X1588984D01*
X1597968Y217968D02*
Y222032D01*
X1602032D01*
Y217968D01*
X1597968D01*
X1598984Y218984D02*
Y221016D01*
X1601016D01*
Y218984D01*
X1598984D01*
X1607968Y217968D02*
Y222032D01*
X1612032D01*
Y217968D01*
X1607968D01*
X1608984Y218984D02*
Y221016D01*
X1611016D01*
Y218984D01*
X1608984D01*
X1177968Y1197968D02*
Y1202032D01*
X1182032D01*
Y1197968D01*
X1177968D01*
X1178984Y1198984D02*
Y1201016D01*
X1181016D01*
Y1198984D01*
X1178984D01*
X1217968Y1197968D02*
Y1202032D01*
X1222032D01*
Y1197968D01*
X1217968D01*
X1218984Y1198984D02*
Y1201016D01*
X1221016D01*
Y1198984D01*
X1218984D01*
X1187968Y1197968D02*
Y1202032D01*
X1192032D01*
Y1197968D01*
X1187968D01*
X1188984Y1198984D02*
Y1201016D01*
X1191016D01*
Y1198984D01*
X1188984D01*
X1197968Y1197968D02*
Y1202032D01*
X1202032D01*
Y1197968D01*
X1197968D01*
X1198984Y1198984D02*
Y1201016D01*
X1201016D01*
Y1198984D01*
X1198984D01*
X1207968Y1197968D02*
Y1202032D01*
X1212032D01*
Y1197968D01*
X1207968D01*
X1208984Y1198984D02*
Y1201016D01*
X1211016D01*
Y1198984D01*
X1208984D01*
X1577968Y1197968D02*
Y1202032D01*
X1582032D01*
Y1197968D01*
X1577968D01*
X1578984Y1198984D02*
Y1201016D01*
X1581016D01*
Y1198984D01*
X1578984D01*
X1617968Y1197968D02*
Y1202032D01*
X1622032D01*
Y1197968D01*
X1617968D01*
X1618984Y1198984D02*
Y1201016D01*
X1621016D01*
Y1198984D01*
X1618984D01*
X1587968Y1197968D02*
Y1202032D01*
X1592032D01*
Y1197968D01*
X1587968D01*
X1588984Y1198984D02*
Y1201016D01*
X1591016D01*
Y1198984D01*
X1588984D01*
X1597968Y1197968D02*
Y1202032D01*
X1602032D01*
Y1197968D01*
X1597968D01*
X1598984Y1198984D02*
Y1201016D01*
X1601016D01*
Y1198984D01*
X1598984D01*
X1607968Y1197968D02*
Y1202032D01*
X1612032D01*
Y1197968D01*
X1607968D01*
X1608984Y1198984D02*
Y1201016D01*
X1611016D01*
Y1198984D01*
X1608984D01*
X1047968Y1927968D02*
Y1932032D01*
X1052032D01*
Y1927968D01*
X1047968D01*
X1048984Y1928984D02*
Y1931016D01*
X1051016D01*
Y1928984D01*
X1048984D01*
X1047968Y1967968D02*
Y1972032D01*
X1052032D01*
Y1967968D01*
X1047968D01*
X1048984Y1968984D02*
Y1971016D01*
X1051016D01*
Y1968984D01*
X1048984D01*
X1047968Y1937968D02*
Y1942032D01*
X1052032D01*
Y1937968D01*
X1047968D01*
X1048984Y1938984D02*
Y1941016D01*
X1051016D01*
Y1938984D01*
X1048984D01*
X1047968Y1947968D02*
Y1952032D01*
X1052032D01*
Y1947968D01*
X1047968D01*
X1048984Y1948984D02*
Y1951016D01*
X1051016D01*
Y1948984D01*
X1048984D01*
X1047968Y1957968D02*
Y1962032D01*
X1052032D01*
Y1957968D01*
X1047968D01*
X1048984Y1958984D02*
Y1961016D01*
X1051016D01*
Y1958984D01*
X1048984D01*
X1047968Y1427968D02*
Y1432032D01*
X1052032D01*
Y1427968D01*
X1047968D01*
X1048984Y1428984D02*
Y1431016D01*
X1051016D01*
Y1428984D01*
X1048984D01*
X1047968Y1467968D02*
Y1472032D01*
X1052032D01*
Y1467968D01*
X1047968D01*
X1048984Y1468984D02*
Y1471016D01*
X1051016D01*
Y1468984D01*
X1048984D01*
X1047968Y1437968D02*
Y1442032D01*
X1052032D01*
Y1437968D01*
X1047968D01*
X1048984Y1438984D02*
Y1441016D01*
X1051016D01*
Y1438984D01*
X1048984D01*
X1047968Y1447968D02*
Y1452032D01*
X1052032D01*
Y1447968D01*
X1047968D01*
X1048984Y1448984D02*
Y1451016D01*
X1051016D01*
Y1448984D01*
X1048984D01*
X1047968Y1457968D02*
Y1462032D01*
X1052032D01*
Y1457968D01*
X1047968D01*
X1048984Y1458984D02*
Y1461016D01*
X1051016D01*
Y1458984D01*
X1048984D01*
X1047968Y927968D02*
Y932032D01*
X1052032D01*
Y927968D01*
X1047968D01*
X1048984Y928984D02*
Y931016D01*
X1051016D01*
Y928984D01*
X1048984D01*
X1047968Y967968D02*
Y972032D01*
X1052032D01*
Y967968D01*
X1047968D01*
X1048984Y968984D02*
Y971016D01*
X1051016D01*
Y968984D01*
X1048984D01*
X1047968Y937968D02*
Y942032D01*
X1052032D01*
Y937968D01*
X1047968D01*
X1048984Y938984D02*
Y941016D01*
X1051016D01*
Y938984D01*
X1048984D01*
X1047968Y947968D02*
Y952032D01*
X1052032D01*
Y947968D01*
X1047968D01*
X1048984Y948984D02*
Y951016D01*
X1051016D01*
Y948984D01*
X1048984D01*
X1047968Y957968D02*
Y962032D01*
X1052032D01*
Y957968D01*
X1047968D01*
X1048984Y958984D02*
Y961016D01*
X1051016D01*
Y958984D01*
X1048984D01*
X1047968Y427968D02*
Y432032D01*
X1052032D01*
Y427968D01*
X1047968D01*
X1048984Y428984D02*
Y431016D01*
X1051016D01*
Y428984D01*
X1048984D01*
X1047968Y467968D02*
Y472032D01*
X1052032D01*
Y467968D01*
X1047968D01*
X1048984Y468984D02*
Y471016D01*
X1051016D01*
Y468984D01*
X1048984D01*
X1047968Y437968D02*
Y442032D01*
X1052032D01*
Y437968D01*
X1047968D01*
X1048984Y438984D02*
Y441016D01*
X1051016D01*
Y438984D01*
X1048984D01*
X1047968Y447968D02*
Y452032D01*
X1052032D01*
Y447968D01*
X1047968D01*
X1048984Y448984D02*
Y451016D01*
X1051016D01*
Y448984D01*
X1048984D01*
X1047968Y457968D02*
Y462032D01*
X1052032D01*
Y457968D01*
X1047968D01*
X1048984Y458984D02*
Y461016D01*
X1051016D01*
Y458984D01*
X1048984D01*
X1047968Y-72032D02*
Y-67968D01*
X1052032D01*
Y-72032D01*
X1047968D01*
X1048984Y-71016D02*
Y-68984D01*
X1051016D01*
Y-71016D01*
X1048984D01*
X1047968Y-32032D02*
Y-27968D01*
X1052032D01*
Y-32032D01*
X1047968D01*
X1048984Y-31016D02*
Y-28984D01*
X1051016D01*
Y-31016D01*
X1048984D01*
X1047968Y-62032D02*
Y-57968D01*
X1052032D01*
Y-62032D01*
X1047968D01*
X1048984Y-61016D02*
Y-58984D01*
X1051016D01*
Y-61016D01*
X1048984D01*
X1047968Y-52032D02*
Y-47968D01*
X1052032D01*
Y-52032D01*
X1047968D01*
X1048984Y-51016D02*
Y-48984D01*
X1051016D01*
Y-51016D01*
X1048984D01*
X1047968Y-42032D02*
Y-37968D01*
X1052032D01*
Y-42032D01*
X1047968D01*
X1048984Y-41016D02*
Y-38984D01*
X1051016D01*
Y-41016D01*
X1048984D01*
X1067968Y-42032D02*
Y-37968D01*
X1072032D01*
Y-42032D01*
X1067968D01*
X1068984Y-41016D02*
Y-38984D01*
X1071016D01*
Y-41016D01*
X1068984D01*
X1067968Y-52032D02*
Y-47968D01*
X1072032D01*
Y-52032D01*
X1067968D01*
X1068984Y-51016D02*
Y-48984D01*
X1071016D01*
Y-51016D01*
X1068984D01*
X1067968Y-62032D02*
Y-57968D01*
X1072032D01*
Y-62032D01*
X1067968D01*
X1068984Y-61016D02*
Y-58984D01*
X1071016D01*
Y-61016D01*
X1068984D01*
X1067968Y-32032D02*
Y-27968D01*
X1072032D01*
Y-32032D01*
X1067968D01*
X1068984Y-31016D02*
Y-28984D01*
X1071016D01*
Y-31016D01*
X1068984D01*
X1067968Y-72032D02*
Y-67968D01*
X1072032D01*
Y-72032D01*
X1067968D01*
X1068984Y-71016D02*
Y-68984D01*
X1071016D01*
Y-71016D01*
X1068984D01*
X1187968Y197968D02*
Y202032D01*
X1192032D01*
Y197968D01*
X1187968D01*
X1188984Y198984D02*
Y201016D01*
X1191016D01*
Y198984D01*
X1188984D01*
X1197968Y197968D02*
Y202032D01*
X1202032D01*
Y197968D01*
X1197968D01*
X1198984Y198984D02*
Y201016D01*
X1201016D01*
Y198984D01*
X1198984D01*
X1207968Y197968D02*
Y202032D01*
X1212032D01*
Y197968D01*
X1207968D01*
X1208984Y198984D02*
Y201016D01*
X1211016D01*
Y198984D01*
X1208984D01*
X1177968Y197968D02*
Y202032D01*
X1182032D01*
Y197968D01*
X1177968D01*
X1178984Y198984D02*
Y201016D01*
X1181016D01*
Y198984D01*
X1178984D01*
X1217968Y197968D02*
Y202032D01*
X1222032D01*
Y197968D01*
X1217968D01*
X1218984Y198984D02*
Y201016D01*
X1221016D01*
Y198984D01*
X1218984D01*
X1587968Y197968D02*
Y202032D01*
X1592032D01*
Y197968D01*
X1587968D01*
X1588984Y198984D02*
Y201016D01*
X1591016D01*
Y198984D01*
X1588984D01*
X1597968Y197968D02*
Y202032D01*
X1602032D01*
Y197968D01*
X1597968D01*
X1598984Y198984D02*
Y201016D01*
X1601016D01*
Y198984D01*
X1598984D01*
X1607968Y197968D02*
Y202032D01*
X1612032D01*
Y197968D01*
X1607968D01*
X1608984Y198984D02*
Y201016D01*
X1611016D01*
Y198984D01*
X1608984D01*
X1577968Y197968D02*
Y202032D01*
X1582032D01*
Y197968D01*
X1577968D01*
X1578984Y198984D02*
Y201016D01*
X1581016D01*
Y198984D01*
X1578984D01*
X1617968Y197968D02*
Y202032D01*
X1622032D01*
Y197968D01*
X1617968D01*
X1618984Y198984D02*
Y201016D01*
X1621016D01*
Y198984D01*
X1618984D01*
X1587968Y537968D02*
Y542032D01*
X1592032D01*
Y537968D01*
X1587968D01*
X1588984Y538984D02*
Y541016D01*
X1591016D01*
Y538984D01*
X1588984D01*
X1597968Y537968D02*
Y542032D01*
X1602032D01*
Y537968D01*
X1597968D01*
X1598984Y538984D02*
Y541016D01*
X1601016D01*
Y538984D01*
X1598984D01*
X1607968Y537968D02*
Y542032D01*
X1612032D01*
Y537968D01*
X1607968D01*
X1608984Y538984D02*
Y541016D01*
X1611016D01*
Y538984D01*
X1608984D01*
X1577968Y537968D02*
Y542032D01*
X1582032D01*
Y537968D01*
X1577968D01*
X1578984Y538984D02*
Y541016D01*
X1581016D01*
Y538984D01*
X1578984D01*
X1617968Y537968D02*
Y542032D01*
X1622032D01*
Y537968D01*
X1617968D01*
X1618984Y538984D02*
Y541016D01*
X1621016D01*
Y538984D01*
X1618984D01*
X1187968Y537968D02*
Y542032D01*
X1192032D01*
Y537968D01*
X1187968D01*
X1188984Y538984D02*
Y541016D01*
X1191016D01*
Y538984D01*
X1188984D01*
X1197968Y537968D02*
Y542032D01*
X1202032D01*
Y537968D01*
X1197968D01*
X1198984Y538984D02*
Y541016D01*
X1201016D01*
Y538984D01*
X1198984D01*
X1207968Y537968D02*
Y542032D01*
X1212032D01*
Y537968D01*
X1207968D01*
X1208984Y538984D02*
Y541016D01*
X1211016D01*
Y538984D01*
X1208984D01*
X1177968Y537968D02*
Y542032D01*
X1182032D01*
Y537968D01*
X1177968D01*
X1178984Y538984D02*
Y541016D01*
X1181016D01*
Y538984D01*
X1178984D01*
X1217968Y537968D02*
Y542032D01*
X1222032D01*
Y537968D01*
X1217968D01*
X1218984Y538984D02*
Y541016D01*
X1221016D01*
Y538984D01*
X1218984D01*
X1187968Y627968D02*
Y632032D01*
X1192032D01*
Y627968D01*
X1187968D01*
X1188984Y628984D02*
Y631016D01*
X1191016D01*
Y628984D01*
X1188984D01*
X1197968Y627968D02*
Y632032D01*
X1202032D01*
Y627968D01*
X1197968D01*
X1198984Y628984D02*
Y631016D01*
X1201016D01*
Y628984D01*
X1198984D01*
X1207968Y627968D02*
Y632032D01*
X1212032D01*
Y627968D01*
X1207968D01*
X1208984Y628984D02*
Y631016D01*
X1211016D01*
Y628984D01*
X1208984D01*
X1177968Y627968D02*
Y632032D01*
X1182032D01*
Y627968D01*
X1177968D01*
X1178984Y628984D02*
Y631016D01*
X1181016D01*
Y628984D01*
X1178984D01*
X1217968Y627968D02*
Y632032D01*
X1222032D01*
Y627968D01*
X1217968D01*
X1218984Y628984D02*
Y631016D01*
X1221016D01*
Y628984D01*
X1218984D01*
X1587968Y627968D02*
Y632032D01*
X1592032D01*
Y627968D01*
X1587968D01*
X1588984Y628984D02*
Y631016D01*
X1591016D01*
Y628984D01*
X1588984D01*
X1597968Y627968D02*
Y632032D01*
X1602032D01*
Y627968D01*
X1597968D01*
X1598984Y628984D02*
Y631016D01*
X1601016D01*
Y628984D01*
X1598984D01*
X1607968Y627968D02*
Y632032D01*
X1612032D01*
Y627968D01*
X1607968D01*
X1608984Y628984D02*
Y631016D01*
X1611016D01*
Y628984D01*
X1608984D01*
X1577968Y627968D02*
Y632032D01*
X1582032D01*
Y627968D01*
X1577968D01*
X1578984Y628984D02*
Y631016D01*
X1581016D01*
Y628984D01*
X1578984D01*
X1617968Y627968D02*
Y632032D01*
X1622032D01*
Y627968D01*
X1617968D01*
X1618984Y628984D02*
Y631016D01*
X1621016D01*
Y628984D01*
X1618984D01*
X1587968Y1217968D02*
Y1222032D01*
X1592032D01*
Y1217968D01*
X1587968D01*
X1588984Y1218984D02*
Y1221016D01*
X1591016D01*
Y1218984D01*
X1588984D01*
X1597968Y1217968D02*
Y1222032D01*
X1602032D01*
Y1217968D01*
X1597968D01*
X1598984Y1218984D02*
Y1221016D01*
X1601016D01*
Y1218984D01*
X1598984D01*
X1607968Y1217968D02*
Y1222032D01*
X1612032D01*
Y1217968D01*
X1607968D01*
X1608984Y1218984D02*
Y1221016D01*
X1611016D01*
Y1218984D01*
X1608984D01*
X1577968Y1217968D02*
Y1222032D01*
X1582032D01*
Y1217968D01*
X1577968D01*
X1578984Y1218984D02*
Y1221016D01*
X1581016D01*
Y1218984D01*
X1578984D01*
X1617968Y1217968D02*
Y1222032D01*
X1622032D01*
Y1217968D01*
X1617968D01*
X1618984Y1218984D02*
Y1221016D01*
X1621016D01*
Y1218984D01*
X1618984D01*
X1187968Y1217968D02*
Y1222032D01*
X1192032D01*
Y1217968D01*
X1187968D01*
X1188984Y1218984D02*
Y1221016D01*
X1191016D01*
Y1218984D01*
X1188984D01*
X1197968Y1217968D02*
Y1222032D01*
X1202032D01*
Y1217968D01*
X1197968D01*
X1198984Y1218984D02*
Y1221016D01*
X1201016D01*
Y1218984D01*
X1198984D01*
X1207968Y1217968D02*
Y1222032D01*
X1212032D01*
Y1217968D01*
X1207968D01*
X1208984Y1218984D02*
Y1221016D01*
X1211016D01*
Y1218984D01*
X1208984D01*
X1177968Y1217968D02*
Y1222032D01*
X1182032D01*
Y1217968D01*
X1177968D01*
X1178984Y1218984D02*
Y1221016D01*
X1181016D01*
Y1218984D01*
X1178984D01*
X1217968Y1217968D02*
Y1222032D01*
X1222032D01*
Y1217968D01*
X1217968D01*
X1218984Y1218984D02*
Y1221016D01*
X1221016D01*
Y1218984D01*
X1218984D01*
X1067968Y1937968D02*
Y1942032D01*
X1072032D01*
Y1937968D01*
X1067968D01*
X1068984Y1938984D02*
Y1941016D01*
X1071016D01*
Y1938984D01*
X1068984D01*
X1067968Y1947968D02*
Y1952032D01*
X1072032D01*
Y1947968D01*
X1067968D01*
X1068984Y1948984D02*
Y1951016D01*
X1071016D01*
Y1948984D01*
X1068984D01*
X1067968Y1957968D02*
Y1962032D01*
X1072032D01*
Y1957968D01*
X1067968D01*
X1068984Y1958984D02*
Y1961016D01*
X1071016D01*
Y1958984D01*
X1068984D01*
X1067968Y1927968D02*
Y1932032D01*
X1072032D01*
Y1927968D01*
X1067968D01*
X1068984Y1928984D02*
Y1931016D01*
X1071016D01*
Y1928984D01*
X1068984D01*
X1067968Y1967968D02*
Y1972032D01*
X1072032D01*
Y1967968D01*
X1067968D01*
X1068984Y1968984D02*
Y1971016D01*
X1071016D01*
Y1968984D01*
X1068984D01*
X1067968Y1437968D02*
Y1442032D01*
X1072032D01*
Y1437968D01*
X1067968D01*
X1068984Y1438984D02*
Y1441016D01*
X1071016D01*
Y1438984D01*
X1068984D01*
X1067968Y1447968D02*
Y1452032D01*
X1072032D01*
Y1447968D01*
X1067968D01*
X1068984Y1448984D02*
Y1451016D01*
X1071016D01*
Y1448984D01*
X1068984D01*
X1067968Y1457968D02*
Y1462032D01*
X1072032D01*
Y1457968D01*
X1067968D01*
X1068984Y1458984D02*
Y1461016D01*
X1071016D01*
Y1458984D01*
X1068984D01*
X1067968Y1427968D02*
Y1432032D01*
X1072032D01*
Y1427968D01*
X1067968D01*
X1068984Y1428984D02*
Y1431016D01*
X1071016D01*
Y1428984D01*
X1068984D01*
X1067968Y1467968D02*
Y1472032D01*
X1072032D01*
Y1467968D01*
X1067968D01*
X1068984Y1468984D02*
Y1471016D01*
X1071016D01*
Y1468984D01*
X1068984D01*
X1067968Y937968D02*
Y942032D01*
X1072032D01*
Y937968D01*
X1067968D01*
X1068984Y938984D02*
Y941016D01*
X1071016D01*
Y938984D01*
X1068984D01*
X1067968Y947968D02*
Y952032D01*
X1072032D01*
Y947968D01*
X1067968D01*
X1068984Y948984D02*
Y951016D01*
X1071016D01*
Y948984D01*
X1068984D01*
X1067968Y957968D02*
Y962032D01*
X1072032D01*
Y957968D01*
X1067968D01*
X1068984Y958984D02*
Y961016D01*
X1071016D01*
Y958984D01*
X1068984D01*
X1067968Y927968D02*
Y932032D01*
X1072032D01*
Y927968D01*
X1067968D01*
X1068984Y928984D02*
Y931016D01*
X1071016D01*
Y928984D01*
X1068984D01*
X1067968Y967968D02*
Y972032D01*
X1072032D01*
Y967968D01*
X1067968D01*
X1068984Y968984D02*
Y971016D01*
X1071016D01*
Y968984D01*
X1068984D01*
X1067968Y437968D02*
Y442032D01*
X1072032D01*
Y437968D01*
X1067968D01*
X1068984Y438984D02*
Y441016D01*
X1071016D01*
Y438984D01*
X1068984D01*
X1067968Y447968D02*
Y452032D01*
X1072032D01*
Y447968D01*
X1067968D01*
X1068984Y448984D02*
Y451016D01*
X1071016D01*
Y448984D01*
X1068984D01*
X1067968Y457968D02*
Y462032D01*
X1072032D01*
Y457968D01*
X1067968D01*
X1068984Y458984D02*
Y461016D01*
X1071016D01*
Y458984D01*
X1068984D01*
X1067968Y427968D02*
Y432032D01*
X1072032D01*
Y427968D01*
X1067968D01*
X1068984Y428984D02*
Y431016D01*
X1071016D01*
Y428984D01*
X1068984D01*
X1067968Y467968D02*
Y472032D01*
X1072032D01*
Y467968D01*
X1067968D01*
X1068984Y468984D02*
Y471016D01*
X1071016D01*
Y468984D01*
X1068984D01*
D82*
X912782Y647500D02*
G03*
X912782Y647500I-2032J0D01*
G01*
Y622500D02*
G03*
X912782Y622500I-2032J0D01*
G01*
X932782D02*
G03*
X932782Y622500I-2032J0D01*
G01*
Y647500D02*
G03*
X932782Y647500I-2032J0D01*
G01*
X-29718Y1784750D02*
G03*
X-29718Y1784750I-2032J0D01*
G01*
Y1809750D02*
G03*
X-29718Y1809750I-2032J0D01*
G01*
X383032Y457200D02*
G03*
X383032Y457200I-2032J0D01*
G01*
Y482600D02*
G03*
X383032Y482600I-2032J0D01*
G01*
X357632Y457200D02*
G03*
X357632Y457200I-2032J0D01*
G01*
Y482600D02*
G03*
X357632Y482600I-2032J0D01*
G01*
X332232Y457200D02*
G03*
X332232Y457200I-2032J0D01*
G01*
Y482600D02*
G03*
X332232Y482600I-2032J0D01*
G01*
X306832D02*
G03*
X306832Y482600I-2032J0D01*
G01*
Y457200D02*
G03*
X306832Y457200I-2032J0D01*
G01*
X281432Y482600D02*
G03*
X281432Y482600I-2032J0D01*
G01*
Y457200D02*
G03*
X281432Y457200I-2032J0D01*
G01*
X510032D02*
G03*
X510032Y457200I-2032J0D01*
G01*
Y482600D02*
G03*
X510032Y482600I-2032J0D01*
G01*
X484632Y457200D02*
G03*
X484632Y457200I-2032J0D01*
G01*
Y482600D02*
G03*
X484632Y482600I-2032J0D01*
G01*
X459232Y457200D02*
G03*
X459232Y457200I-2032J0D01*
G01*
Y482600D02*
G03*
X459232Y482600I-2032J0D01*
G01*
X433832D02*
G03*
X433832Y482600I-2032J0D01*
G01*
Y457200D02*
G03*
X433832Y457200I-2032J0D01*
G01*
X408432Y482600D02*
G03*
X408432Y482600I-2032J0D01*
G01*
Y457200D02*
G03*
X408432Y457200I-2032J0D01*
G01*
X637032D02*
G03*
X637032Y457200I-2032J0D01*
G01*
Y482600D02*
G03*
X637032Y482600I-2032J0D01*
G01*
X611632Y457200D02*
G03*
X611632Y457200I-2032J0D01*
G01*
Y482600D02*
G03*
X611632Y482600I-2032J0D01*
G01*
X586232Y457200D02*
G03*
X586232Y457200I-2032J0D01*
G01*
Y482600D02*
G03*
X586232Y482600I-2032J0D01*
G01*
X560832D02*
G03*
X560832Y482600I-2032J0D01*
G01*
Y457200D02*
G03*
X560832Y457200I-2032J0D01*
G01*
X535432Y482600D02*
G03*
X535432Y482600I-2032J0D01*
G01*
Y457200D02*
G03*
X535432Y457200I-2032J0D01*
G01*
X764032D02*
G03*
X764032Y457200I-2032J0D01*
G01*
Y482600D02*
G03*
X764032Y482600I-2032J0D01*
G01*
X738632Y457200D02*
G03*
X738632Y457200I-2032J0D01*
G01*
Y482600D02*
G03*
X738632Y482600I-2032J0D01*
G01*
X713232Y457200D02*
G03*
X713232Y457200I-2032J0D01*
G01*
Y482600D02*
G03*
X713232Y482600I-2032J0D01*
G01*
X687832D02*
G03*
X687832Y482600I-2032J0D01*
G01*
Y457200D02*
G03*
X687832Y457200I-2032J0D01*
G01*
X662432Y482600D02*
G03*
X662432Y482600I-2032J0D01*
G01*
Y457200D02*
G03*
X662432Y457200I-2032J0D01*
G01*
X205232Y1181100D02*
G03*
X205232Y1181100I-2032J0D01*
G01*
X129032D02*
G03*
X129032Y1181100I-2032J0D01*
G01*
X78232D02*
G03*
X78232Y1181100I-2032J0D01*
G01*
X27432D02*
G03*
X27432Y1181100I-2032J0D01*
G01*
X205232Y1104900D02*
G03*
X205232Y1104900I-2032J0D01*
G01*
X129032D02*
G03*
X129032Y1104900I-2032J0D01*
G01*
X78232D02*
G03*
X78232Y1104900I-2032J0D01*
G01*
X27432D02*
G03*
X27432Y1104900I-2032J0D01*
G01*
X205232Y951700D02*
G03*
X205232Y951700I-2032J0D01*
G01*
X129032D02*
G03*
X129032Y951700I-2032J0D01*
G01*
X78232D02*
G03*
X78232Y951700I-2032J0D01*
G01*
X27432D02*
G03*
X27432Y951700I-2032J0D01*
G01*
X205232Y875500D02*
G03*
X205232Y875500I-2032J0D01*
G01*
X129032D02*
G03*
X129032Y875500I-2032J0D01*
G01*
X78232D02*
G03*
X78232Y875500I-2032J0D01*
G01*
X27432D02*
G03*
X27432Y875500I-2032J0D01*
G01*
X789432Y723900D02*
G03*
X789432Y723900I-2032J0D01*
G01*
Y647700D02*
G03*
X789432Y647700I-2032J0D01*
G01*
Y596900D02*
G03*
X789432Y596900I-2032J0D01*
G01*
Y546100D02*
G03*
X789432Y546100I-2032J0D01*
G01*
X865632Y723900D02*
G03*
X865632Y723900I-2032J0D01*
G01*
Y647700D02*
G03*
X865632Y647700I-2032J0D01*
G01*
Y596900D02*
G03*
X865632Y596900I-2032J0D01*
G01*
Y546100D02*
G03*
X865632Y546100I-2032J0D01*
G01*
X662432Y723900D02*
G03*
X662432Y723900I-2032J0D01*
G01*
Y647700D02*
G03*
X662432Y647700I-2032J0D01*
G01*
Y596900D02*
G03*
X662432Y596900I-2032J0D01*
G01*
Y546100D02*
G03*
X662432Y546100I-2032J0D01*
G01*
X738632Y723900D02*
G03*
X738632Y723900I-2032J0D01*
G01*
Y647700D02*
G03*
X738632Y647700I-2032J0D01*
G01*
Y596900D02*
G03*
X738632Y596900I-2032J0D01*
G01*
Y546100D02*
G03*
X738632Y546100I-2032J0D01*
G01*
X1392682Y781050D02*
G03*
X1392682Y781050I-2032J0D01*
G01*
Y806450D02*
G03*
X1392682Y806450I-2032J0D01*
G01*
X1367282Y781050D02*
G03*
X1367282Y781050I-2032J0D01*
G01*
Y806450D02*
G03*
X1367282Y806450I-2032J0D01*
G01*
X1392682Y844550D02*
G03*
X1392682Y844550I-2032J0D01*
G01*
Y869950D02*
G03*
X1392682Y869950I-2032J0D01*
G01*
X1367282Y844550D02*
G03*
X1367282Y844550I-2032J0D01*
G01*
Y869950D02*
G03*
X1367282Y869950I-2032J0D01*
G01*
X1392682Y958850D02*
G03*
X1392682Y958850I-2032J0D01*
G01*
Y984250D02*
G03*
X1392682Y984250I-2032J0D01*
G01*
X1367282Y958850D02*
G03*
X1367282Y958850I-2032J0D01*
G01*
Y984250D02*
G03*
X1367282Y984250I-2032J0D01*
G01*
Y1060450D02*
G03*
X1367282Y1060450I-2032J0D01*
G01*
X1392682D02*
G03*
X1392682Y1060450I-2032J0D01*
G01*
Y1035050D02*
G03*
X1392682Y1035050I-2032J0D01*
G01*
Y1085850D02*
G03*
X1392682Y1085850I-2032J0D01*
G01*
X1367282Y1035050D02*
G03*
X1367282Y1035050I-2032J0D01*
G01*
Y1085850D02*
G03*
X1367282Y1085850I-2032J0D01*
G01*
X643382Y1200150D02*
G03*
X643382Y1200150I-2032J0D01*
G01*
Y1174750D02*
G03*
X643382Y1174750I-2032J0D01*
G01*
X668782Y1200150D02*
G03*
X668782Y1200150I-2032J0D01*
G01*
Y1174750D02*
G03*
X668782Y1174750I-2032J0D01*
G01*
X160782Y1085850D02*
G03*
X160782Y1085850I-2032J0D01*
G01*
Y857250D02*
G03*
X160782Y857250I-2032J0D01*
G01*
X2032Y1085850D02*
G03*
X2032Y1085850I-2032J0D01*
G01*
Y857250D02*
G03*
X2032Y857250I-2032J0D01*
G01*
X738632Y1060450D02*
G03*
X738632Y1060450I-2032J0D01*
G01*
X541782Y838200D02*
G03*
X541782Y838200I-2032J0D01*
G01*
X529082Y825500D02*
G03*
X529082Y825500I-2032J0D01*
G01*
X694182Y1047750D02*
G03*
X694182Y1047750I-2032J0D01*
G01*
X789432Y1060450D02*
G03*
X789432Y1060450I-2032J0D01*
G01*
X579882Y825500D02*
G03*
X579882Y825500I-2032J0D01*
G01*
Y908050D02*
G03*
X579882Y908050I-2032J0D01*
G01*
X846582Y1301750D02*
G03*
X846582Y1301750I-2032J0D01*
G01*
X808482D02*
G03*
X808482Y1301750I-2032J0D01*
G01*
X78232D02*
G03*
X78232Y1301750I-2032J0D01*
G01*
X2032D02*
G03*
X2032Y1301750I-2032J0D01*
G01*
X395732Y952500D02*
G03*
X395732Y952500I-2032J0D01*
G01*
X306832Y825500D02*
G03*
X306832Y825500I-2032J0D01*
G01*
X325882Y838200D02*
G03*
X325882Y838200I-2032J0D01*
G01*
X65532Y590550D02*
G03*
X65532Y590550I-2032J0D01*
G01*
X2032D02*
G03*
X2032Y590550I-2032J0D01*
G01*
X217932Y381000D02*
G03*
X217932Y381000I-2032J0D01*
G01*
Y508000D02*
G03*
X217932Y508000I-2032J0D01*
G01*
X2032Y393700D02*
G03*
X2032Y393700I-2032J0D01*
G01*
X833882Y381000D02*
G03*
X833882Y381000I-2032J0D01*
G01*
Y419100D02*
G03*
X833882Y419100I-2032J0D01*
G01*
X65532Y393700D02*
G03*
X65532Y393700I-2032J0D01*
G01*
X617982Y609600D02*
G03*
X617982Y609600I-2032J0D01*
G01*
X764032Y685800D02*
G03*
X764032Y685800I-2032J0D01*
G01*
Y660400D02*
G03*
X764032Y660400I-2032J0D01*
G01*
X1291082Y965200D02*
G03*
X1291082Y965200I-2032J0D01*
G01*
Y914400D02*
G03*
X1291082Y914400I-2032J0D01*
G01*
X617982Y711200D02*
G03*
X617982Y711200I-2032J0D01*
G01*
X725932Y781050D02*
G03*
X725932Y781050I-2032J0D01*
G01*
X744982D02*
G03*
X744982Y781050I-2032J0D01*
G01*
X643382D02*
G03*
X643382Y781050I-2032J0D01*
G01*
X617982D02*
G03*
X617982Y781050I-2032J0D01*
G01*
X643382Y825500D02*
G03*
X643382Y825500I-2032J0D01*
G01*
X617982Y838200D02*
G03*
X617982Y838200I-2032J0D01*
G01*
X725932Y825500D02*
G03*
X725932Y825500I-2032J0D01*
G01*
X744982Y838200D02*
G03*
X744982Y838200I-2032J0D01*
G01*
X871982Y977900D02*
G03*
X871982Y977900I-2032J0D01*
G01*
X903732Y1174750D02*
G03*
X903732Y1174750I-2032J0D01*
G01*
X979932Y1174750D02*
G03*
X979932Y1174750I-2032J0D01*
G01*
X840232Y946150D02*
G03*
X840232Y946150I-2032J0D01*
G01*
X700532Y869950D02*
G03*
X700532Y869950I-2032J0D01*
G01*
Y920750D02*
G03*
X700532Y920750I-2032J0D01*
G01*
X764032Y850900D02*
G03*
X764032Y850900I-2032J0D01*
G01*
Y825500D02*
G03*
X764032Y825500I-2032J0D01*
G01*
X275082Y952500D02*
G03*
X275082Y952500I-2032J0D01*
G01*
X344932Y1060450D02*
G03*
X344932Y1060450I-2032J0D01*
G01*
X275082Y1098550D02*
G03*
X275082Y1098550I-2032J0D01*
G01*
X408432D02*
G03*
X408432Y1098550I-2032J0D01*
G01*
X503682Y1200150D02*
G03*
X503682Y1200150I-2032J0D01*
G01*
Y1155700D02*
G03*
X503682Y1155700I-2032J0D01*
G01*
X421132Y1136650D02*
G03*
X421132Y1136650I-2032J0D01*
G01*
X383032Y812800D02*
G03*
X383032Y812800I-2032J0D01*
G01*
X497332D02*
G03*
X497332Y812800I-2032J0D01*
G01*
X694182Y1123950D02*
G03*
X694182Y1123950I-2032J0D01*
G01*
X325882Y1136650D02*
G03*
X325882Y1136650I-2032J0D01*
G01*
X306832Y1123950D02*
G03*
X306832Y1123950I-2032J0D01*
G01*
X408432D02*
G03*
X408432Y1123950I-2032J0D01*
G01*
X465582Y1060450D02*
G03*
X465582Y1060450I-2032J0D01*
G01*
X586232Y1111250D02*
G03*
X586232Y1111250I-2032J0D01*
G01*
Y1187450D02*
G03*
X586232Y1187450I-2032J0D01*
G01*
Y1231900D02*
G03*
X586232Y1231900I-2032J0D01*
G01*
D83*
X159766Y1085850D02*
G03*
X159766Y1085850I-1016J0D01*
G01*
Y857250D02*
G03*
X159766Y857250I-1016J0D01*
G01*
X1016Y1085850D02*
G03*
X1016Y1085850I-1016J0D01*
G01*
Y857250D02*
G03*
X1016Y857250I-1016J0D01*
G01*
X737616Y1060450D02*
G03*
X737616Y1060450I-1016J0D01*
G01*
X540766Y838200D02*
G03*
X540766Y838200I-1016J0D01*
G01*
X528066Y825500D02*
G03*
X528066Y825500I-1016J0D01*
G01*
X693166Y1047750D02*
G03*
X693166Y1047750I-1016J0D01*
G01*
X788416Y1060450D02*
G03*
X788416Y1060450I-1016J0D01*
G01*
X578866Y825500D02*
G03*
X578866Y825500I-1016J0D01*
G01*
Y908050D02*
G03*
X578866Y908050I-1016J0D01*
G01*
X845566Y1301750D02*
G03*
X845566Y1301750I-1016J0D01*
G01*
X807466D02*
G03*
X807466Y1301750I-1016J0D01*
G01*
X77216D02*
G03*
X77216Y1301750I-1016J0D01*
G01*
X1016D02*
G03*
X1016Y1301750I-1016J0D01*
G01*
X394716Y952500D02*
G03*
X394716Y952500I-1016J0D01*
G01*
X305816Y825500D02*
G03*
X305816Y825500I-1016J0D01*
G01*
X324866Y838200D02*
G03*
X324866Y838200I-1016J0D01*
G01*
X64516Y590550D02*
G03*
X64516Y590550I-1016J0D01*
G01*
X1016D02*
G03*
X1016Y590550I-1016J0D01*
G01*
X216916Y381000D02*
G03*
X216916Y381000I-1016J0D01*
G01*
Y508000D02*
G03*
X216916Y508000I-1016J0D01*
G01*
X1016Y393700D02*
G03*
X1016Y393700I-1016J0D01*
G01*
X832866Y381000D02*
G03*
X832866Y381000I-1016J0D01*
G01*
Y419100D02*
G03*
X832866Y419100I-1016J0D01*
G01*
X64516Y393700D02*
G03*
X64516Y393700I-1016J0D01*
G01*
X616966Y609600D02*
G03*
X616966Y609600I-1016J0D01*
G01*
X763016Y685800D02*
G03*
X763016Y685800I-1016J0D01*
G01*
Y660400D02*
G03*
X763016Y660400I-1016J0D01*
G01*
X1290066Y965200D02*
G03*
X1290066Y965200I-1016J0D01*
G01*
Y914400D02*
G03*
X1290066Y914400I-1016J0D01*
G01*
X616966Y711200D02*
G03*
X616966Y711200I-1016J0D01*
G01*
X724916Y781050D02*
G03*
X724916Y781050I-1016J0D01*
G01*
X743966D02*
G03*
X743966Y781050I-1016J0D01*
G01*
X642366D02*
G03*
X642366Y781050I-1016J0D01*
G01*
X616966D02*
G03*
X616966Y781050I-1016J0D01*
G01*
X642366Y825500D02*
G03*
X642366Y825500I-1016J0D01*
G01*
X616966Y838200D02*
G03*
X616966Y838200I-1016J0D01*
G01*
X724916Y825500D02*
G03*
X724916Y825500I-1016J0D01*
G01*
X743966Y838200D02*
G03*
X743966Y838200I-1016J0D01*
G01*
X870966Y977900D02*
G03*
X870966Y977900I-1016J0D01*
G01*
X902716Y1174750D02*
G03*
X902716Y1174750I-1016J0D01*
G01*
X978916Y1174750D02*
G03*
X978916Y1174750I-1016J0D01*
G01*
X839216Y946150D02*
G03*
X839216Y946150I-1016J0D01*
G01*
X699516Y869950D02*
G03*
X699516Y869950I-1016J0D01*
G01*
Y920750D02*
G03*
X699516Y920750I-1016J0D01*
G01*
X763016Y850900D02*
G03*
X763016Y850900I-1016J0D01*
G01*
Y825500D02*
G03*
X763016Y825500I-1016J0D01*
G01*
X274066Y952500D02*
G03*
X274066Y952500I-1016J0D01*
G01*
X343916Y1060450D02*
G03*
X343916Y1060450I-1016J0D01*
G01*
X274066Y1098550D02*
G03*
X274066Y1098550I-1016J0D01*
G01*
X407416D02*
G03*
X407416Y1098550I-1016J0D01*
G01*
X502666Y1200150D02*
G03*
X502666Y1200150I-1016J0D01*
G01*
Y1155700D02*
G03*
X502666Y1155700I-1016J0D01*
G01*
X420116Y1136650D02*
G03*
X420116Y1136650I-1016J0D01*
G01*
X382016Y812800D02*
G03*
X382016Y812800I-1016J0D01*
G01*
X496316D02*
G03*
X496316Y812800I-1016J0D01*
G01*
X693166Y1123950D02*
G03*
X693166Y1123950I-1016J0D01*
G01*
X324866Y1136650D02*
G03*
X324866Y1136650I-1016J0D01*
G01*
X305816Y1123950D02*
G03*
X305816Y1123950I-1016J0D01*
G01*
X407416D02*
G03*
X407416Y1123950I-1016J0D01*
G01*
X464566Y1060450D02*
G03*
X464566Y1060450I-1016J0D01*
G01*
X585216Y1111250D02*
G03*
X585216Y1111250I-1016J0D01*
G01*
Y1187450D02*
G03*
X585216Y1187450I-1016J0D01*
G01*
Y1231900D02*
G03*
X585216Y1231900I-1016J0D01*
G01*
M02*
