G04 Layer_Color=65535*
%FSLAX44Y44*%
%MOMM*%
G71*
G01*
G75*
%ADD11C,0.5000*%
%ADD44C,0.2540*%
%ADD45C,0.3000*%
%ADD46C,0.2000*%
%ADD47C,0.1000*%
%ADD48C,0.1270*%
G36*
X299143Y645995D02*
X299514Y645948D01*
X299976Y645856D01*
X300485Y645763D01*
X301087Y645624D01*
X301642Y645486D01*
X302290Y645254D01*
X302892Y645023D01*
X303540Y644699D01*
X304188Y644329D01*
X304836Y643912D01*
X305437Y643403D01*
X305993Y642848D01*
X306039Y642802D01*
X306131Y642709D01*
X306270Y642524D01*
X306455Y642246D01*
X306687Y641922D01*
X306918Y641552D01*
X307196Y641089D01*
X307474Y640534D01*
X307751Y639932D01*
X308029Y639284D01*
X308260Y638544D01*
X308492Y637757D01*
X308677Y636878D01*
X308816Y635952D01*
X308908Y634980D01*
X308955Y633916D01*
Y633870D01*
Y633685D01*
Y633361D01*
X308908Y632898D01*
X291554D01*
Y632852D01*
Y632713D01*
X291600Y632528D01*
Y632250D01*
X291646Y631926D01*
X291739Y631556D01*
X291878Y630723D01*
X292155Y629797D01*
X292526Y628779D01*
X293035Y627854D01*
X293682Y627020D01*
X293729D01*
X293775Y626928D01*
X294053Y626697D01*
X294469Y626372D01*
X295025Y626049D01*
X295765Y625678D01*
X296598Y625354D01*
X297524Y625123D01*
X298033Y625077D01*
X298588Y625030D01*
X298958D01*
X299375Y625077D01*
X299884Y625169D01*
X300439Y625308D01*
X301087Y625493D01*
X301689Y625771D01*
X302290Y626141D01*
X302337Y626187D01*
X302568Y626372D01*
X302846Y626650D01*
X303170Y627020D01*
X303540Y627529D01*
X303956Y628177D01*
X304373Y628918D01*
X304743Y629797D01*
X308816Y629288D01*
Y629242D01*
X308769Y629149D01*
X308723Y628964D01*
X308631Y628686D01*
X308492Y628409D01*
X308353Y628039D01*
X307983Y627252D01*
X307520Y626372D01*
X306872Y625447D01*
X306131Y624568D01*
X305206Y623735D01*
X305160D01*
X305067Y623642D01*
X304928Y623549D01*
X304743Y623411D01*
X304466Y623272D01*
X304188Y623133D01*
X303818Y622948D01*
X303401Y622763D01*
X302938Y622578D01*
X302475Y622393D01*
X301318Y622115D01*
X300023Y621884D01*
X298588Y621791D01*
X298079D01*
X297755Y621837D01*
X297339Y621884D01*
X296829Y621976D01*
X296274Y622069D01*
X295672Y622161D01*
X294377Y622531D01*
X293682Y622809D01*
X293035Y623087D01*
X292340Y623457D01*
X291693Y623873D01*
X291091Y624336D01*
X290489Y624892D01*
X290443Y624938D01*
X290350Y625030D01*
X290212Y625216D01*
X290026Y625493D01*
X289795Y625817D01*
X289564Y626187D01*
X289286Y626650D01*
X289008Y627159D01*
X288731Y627761D01*
X288453Y628409D01*
X288222Y629149D01*
X287990Y629936D01*
X287805Y630769D01*
X287666Y631695D01*
X287574Y632667D01*
X287527Y633685D01*
Y633731D01*
Y633962D01*
Y634240D01*
X287574Y634656D01*
X287620Y635165D01*
X287666Y635721D01*
X287759Y636369D01*
X287898Y637017D01*
X288268Y638498D01*
X288499Y639238D01*
X288777Y640025D01*
X289147Y640765D01*
X289564Y641459D01*
X290026Y642154D01*
X290536Y642802D01*
X290582Y642848D01*
X290674Y642940D01*
X290860Y643079D01*
X291091Y643311D01*
X291369Y643542D01*
X291739Y643820D01*
X292155Y644144D01*
X292664Y644421D01*
X293174Y644745D01*
X293775Y645023D01*
X294423Y645301D01*
X295117Y645532D01*
X295858Y645763D01*
X296644Y645902D01*
X297477Y645995D01*
X298357Y646041D01*
X298820D01*
X299143Y645995D01*
D02*
G37*
G36*
X378789D02*
X379160Y645948D01*
X379622Y645856D01*
X380131Y645763D01*
X380733Y645624D01*
X381288Y645486D01*
X381936Y645254D01*
X382538Y645023D01*
X383186Y644699D01*
X383834Y644329D01*
X384482Y643912D01*
X385083Y643403D01*
X385639Y642848D01*
X385685Y642802D01*
X385777Y642709D01*
X385916Y642524D01*
X386101Y642246D01*
X386333Y641922D01*
X386564Y641552D01*
X386842Y641089D01*
X387119Y640534D01*
X387397Y639932D01*
X387675Y639284D01*
X387906Y638544D01*
X388138Y637757D01*
X388323Y636878D01*
X388461Y635952D01*
X388554Y634980D01*
X388600Y633916D01*
Y633870D01*
Y633685D01*
Y633361D01*
X388554Y632898D01*
X371199D01*
Y632852D01*
Y632713D01*
X371246Y632528D01*
Y632250D01*
X371292Y631926D01*
X371385Y631556D01*
X371524Y630723D01*
X371801Y629797D01*
X372171Y628779D01*
X372680Y627854D01*
X373328Y627020D01*
X373375D01*
X373421Y626928D01*
X373699Y626697D01*
X374115Y626372D01*
X374670Y626049D01*
X375411Y625678D01*
X376244Y625354D01*
X377169Y625123D01*
X377678Y625077D01*
X378234Y625030D01*
X378604D01*
X379021Y625077D01*
X379530Y625169D01*
X380085Y625308D01*
X380733Y625493D01*
X381335Y625771D01*
X381936Y626141D01*
X381982Y626187D01*
X382214Y626372D01*
X382491Y626650D01*
X382816Y627020D01*
X383186Y627529D01*
X383602Y628177D01*
X384019Y628918D01*
X384389Y629797D01*
X388461Y629288D01*
Y629242D01*
X388415Y629149D01*
X388369Y628964D01*
X388276Y628686D01*
X388138Y628409D01*
X387999Y628039D01*
X387629Y627252D01*
X387166Y626372D01*
X386518Y625447D01*
X385777Y624568D01*
X384852Y623735D01*
X384805D01*
X384713Y623642D01*
X384574Y623549D01*
X384389Y623411D01*
X384111Y623272D01*
X383834Y623133D01*
X383463Y622948D01*
X383047Y622763D01*
X382584Y622578D01*
X382121Y622393D01*
X380964Y622115D01*
X379669Y621884D01*
X378234Y621791D01*
X377725D01*
X377401Y621837D01*
X376984Y621884D01*
X376475Y621976D01*
X375920Y622069D01*
X375318Y622161D01*
X374022Y622531D01*
X373328Y622809D01*
X372680Y623087D01*
X371986Y623457D01*
X371338Y623873D01*
X370737Y624336D01*
X370135Y624892D01*
X370089Y624938D01*
X369996Y625030D01*
X369857Y625216D01*
X369672Y625493D01*
X369441Y625817D01*
X369210Y626187D01*
X368932Y626650D01*
X368654Y627159D01*
X368377Y627761D01*
X368099Y628409D01*
X367867Y629149D01*
X367636Y629936D01*
X367451Y630769D01*
X367312Y631695D01*
X367220Y632667D01*
X367173Y633685D01*
Y633731D01*
Y633962D01*
Y634240D01*
X367220Y634656D01*
X367266Y635165D01*
X367312Y635721D01*
X367405Y636369D01*
X367543Y637017D01*
X367914Y638498D01*
X368145Y639238D01*
X368423Y640025D01*
X368793Y640765D01*
X369210Y641459D01*
X369672Y642154D01*
X370181Y642802D01*
X370228Y642848D01*
X370320Y642940D01*
X370505Y643079D01*
X370737Y643311D01*
X371014Y643542D01*
X371385Y643820D01*
X371801Y644144D01*
X372310Y644421D01*
X372819Y644745D01*
X373421Y645023D01*
X374069Y645301D01*
X374763Y645532D01*
X375503Y645763D01*
X376290Y645902D01*
X377123Y645995D01*
X378003Y646041D01*
X378465D01*
X378789Y645995D01*
D02*
G37*
G36*
X323810Y622300D02*
X320061D01*
X311315Y645532D01*
X315480D01*
X320478Y631602D01*
Y631556D01*
X320524Y631510D01*
X320570Y631371D01*
X320617Y631232D01*
X320756Y630769D01*
X320941Y630167D01*
X321172Y629473D01*
X321450Y628686D01*
X321681Y627807D01*
X321959Y626928D01*
X322005Y627020D01*
X322051Y627252D01*
X322190Y627622D01*
X322329Y628177D01*
X322561Y628779D01*
X322792Y629566D01*
X323116Y630399D01*
X323440Y631324D01*
X328577Y645532D01*
X332649D01*
X323810Y622300D01*
D02*
G37*
G36*
X-1206D02*
X-5278D01*
Y649095D01*
X-14627Y622300D01*
X-18422D01*
X-27678Y649558D01*
Y622300D01*
X-31750D01*
Y654325D01*
X-25410D01*
X-17820Y631602D01*
Y631556D01*
X-17774Y631463D01*
X-17728Y631324D01*
X-17635Y631093D01*
X-17450Y630538D01*
X-17219Y629843D01*
X-16987Y629057D01*
X-16709Y628270D01*
X-16478Y627529D01*
X-16293Y626882D01*
X-16247Y626974D01*
X-16200Y627206D01*
X-16062Y627622D01*
X-15876Y628177D01*
X-15645Y628918D01*
X-15321Y629797D01*
X-14997Y630815D01*
X-14581Y632019D01*
X-6898Y654325D01*
X-1206D01*
Y622300D01*
D02*
G37*
G36*
X121757Y645532D02*
X125737D01*
Y642478D01*
X121757D01*
Y628825D01*
Y628733D01*
Y628548D01*
Y628270D01*
X121803Y627946D01*
X121849Y627206D01*
X121896Y626882D01*
X121942Y626650D01*
X121988Y626558D01*
X122127Y626372D01*
X122312Y626141D01*
X122636Y625910D01*
X122729Y625863D01*
X122960Y625771D01*
X123377Y625678D01*
X123978Y625632D01*
X124441D01*
X124672Y625678D01*
X124996D01*
X125366Y625725D01*
X125737Y625771D01*
X126246Y622300D01*
X126153D01*
X125968Y622254D01*
X125644Y622207D01*
X125228Y622161D01*
X124765Y622069D01*
X124256Y622022D01*
X123238Y621976D01*
X122867D01*
X122497Y622022D01*
X122035Y622069D01*
X121479Y622115D01*
X120924Y622254D01*
X120415Y622393D01*
X119906Y622624D01*
X119859Y622670D01*
X119720Y622763D01*
X119535Y622902D01*
X119258Y623133D01*
X119026Y623364D01*
X118749Y623688D01*
X118471Y624012D01*
X118286Y624429D01*
Y624475D01*
X118193Y624660D01*
X118147Y624984D01*
X118055Y625447D01*
X117962Y626049D01*
X117916Y626419D01*
Y626835D01*
X117869Y627344D01*
X117823Y627854D01*
Y628409D01*
Y629057D01*
Y642478D01*
X114908D01*
Y645532D01*
X117823D01*
Y651271D01*
X121757Y653631D01*
Y645532D01*
D02*
G37*
G36*
X340100Y622300D02*
X336166D01*
Y645532D01*
X340100D01*
Y622300D01*
D02*
G37*
G36*
X270219Y654279D02*
X271145Y654232D01*
X272070Y654140D01*
X272996Y654001D01*
X273783Y653862D01*
X273829D01*
X273922Y653816D01*
X274060D01*
X274245Y653723D01*
X274755Y653585D01*
X275402Y653353D01*
X276143Y653029D01*
X276930Y652613D01*
X277716Y652150D01*
X278457Y651548D01*
X278503Y651502D01*
X278549Y651456D01*
X278688Y651317D01*
X278873Y651178D01*
X279336Y650715D01*
X279891Y650067D01*
X280493Y649280D01*
X281141Y648355D01*
X281743Y647291D01*
X282252Y646087D01*
Y646041D01*
X282298Y645948D01*
X282390Y645763D01*
X282437Y645486D01*
X282576Y645162D01*
X282668Y644791D01*
X282761Y644375D01*
X282900Y643866D01*
X283038Y643357D01*
X283131Y642755D01*
X283362Y641459D01*
X283501Y640025D01*
X283547Y638451D01*
Y638405D01*
Y638312D01*
Y638081D01*
Y637850D01*
X283501Y637526D01*
Y637155D01*
X283455Y636276D01*
X283316Y635258D01*
X283177Y634194D01*
X282946Y633083D01*
X282668Y631972D01*
Y631926D01*
X282622Y631833D01*
X282576Y631695D01*
X282529Y631510D01*
X282344Y631000D01*
X282066Y630353D01*
X281789Y629612D01*
X281419Y628872D01*
X280956Y628085D01*
X280493Y627344D01*
X280447Y627252D01*
X280262Y627020D01*
X279984Y626697D01*
X279614Y626280D01*
X279197Y625817D01*
X278688Y625354D01*
X278179Y624845D01*
X277577Y624429D01*
X277485Y624383D01*
X277300Y624244D01*
X276976Y624059D01*
X276513Y623827D01*
X275958Y623549D01*
X275310Y623318D01*
X274569Y623041D01*
X273736Y622809D01*
X273644D01*
X273505Y622763D01*
X273366Y622716D01*
X272903Y622670D01*
X272255Y622578D01*
X271515Y622485D01*
X270636Y622393D01*
X269664Y622346D01*
X268599Y622300D01*
X257076D01*
Y654325D01*
X269386D01*
X270219Y654279D01*
D02*
G37*
G36*
X16010Y645995D02*
X16704Y645948D01*
X17491Y645856D01*
X18277Y645717D01*
X19064Y645532D01*
X19805Y645301D01*
X19897Y645254D01*
X20129Y645162D01*
X20452Y645023D01*
X20869Y644838D01*
X21332Y644560D01*
X21795Y644282D01*
X22211Y643912D01*
X22581Y643542D01*
X22628Y643496D01*
X22720Y643357D01*
X22859Y643126D01*
X23044Y642848D01*
X23275Y642431D01*
X23461Y642015D01*
X23646Y641506D01*
X23785Y640904D01*
Y640858D01*
X23831Y640719D01*
X23877Y640441D01*
X23923Y640071D01*
Y639562D01*
X23970Y638960D01*
X24016Y638174D01*
Y637294D01*
Y632019D01*
Y631972D01*
Y631787D01*
Y631510D01*
Y631139D01*
Y630723D01*
Y630214D01*
X24062Y629103D01*
Y627946D01*
X24109Y626789D01*
X24155Y626280D01*
Y625817D01*
X24201Y625401D01*
X24247Y625077D01*
Y625030D01*
X24294Y624845D01*
X24340Y624568D01*
X24479Y624197D01*
X24571Y623781D01*
X24756Y623318D01*
X24988Y622809D01*
X25219Y622300D01*
X21100D01*
X21054Y622346D01*
X21008Y622531D01*
X20915Y622763D01*
X20776Y623133D01*
X20638Y623549D01*
X20545Y624059D01*
X20452Y624614D01*
X20360Y625216D01*
X20314D01*
X20267Y625123D01*
X19990Y624892D01*
X19573Y624568D01*
X19018Y624151D01*
X18324Y623735D01*
X17629Y623272D01*
X16889Y622855D01*
X16102Y622531D01*
X16010Y622485D01*
X15732Y622439D01*
X15316Y622300D01*
X14806Y622161D01*
X14159Y622022D01*
X13418Y621930D01*
X12585Y621837D01*
X11752Y621791D01*
X11382D01*
X11104Y621837D01*
X10780D01*
X10410Y621884D01*
X9577Y622022D01*
X8651Y622254D01*
X7633Y622578D01*
X6708Y623041D01*
X5875Y623642D01*
X5782Y623735D01*
X5551Y623966D01*
X5227Y624383D01*
X4857Y624938D01*
X4486Y625632D01*
X4162Y626419D01*
X3931Y627391D01*
X3885Y627854D01*
X3838Y628409D01*
Y628501D01*
Y628686D01*
X3885Y629010D01*
X3931Y629427D01*
X4024Y629936D01*
X4162Y630445D01*
X4347Y631000D01*
X4579Y631510D01*
X4625Y631556D01*
X4718Y631741D01*
X4903Y632019D01*
X5134Y632342D01*
X5412Y632713D01*
X5782Y633083D01*
X6152Y633453D01*
X6615Y633777D01*
X6661Y633823D01*
X6847Y633916D01*
X7078Y634101D01*
X7448Y634286D01*
X7865Y634471D01*
X8374Y634703D01*
X8883Y634888D01*
X9484Y635073D01*
X9531D01*
X9716Y635119D01*
X9994Y635212D01*
X10364Y635258D01*
X10826Y635351D01*
X11428Y635443D01*
X12122Y635582D01*
X12955Y635675D01*
X13002D01*
X13187Y635721D01*
X13418D01*
X13742Y635767D01*
X14112Y635813D01*
X14575Y635906D01*
X15084Y635952D01*
X15639Y636045D01*
X16750Y636276D01*
X17953Y636508D01*
X19018Y636785D01*
X19527Y636924D01*
X19990Y637063D01*
Y637109D01*
Y637202D01*
X20036Y637479D01*
Y637803D01*
Y637989D01*
Y638081D01*
Y638127D01*
Y638174D01*
Y638451D01*
X19990Y638914D01*
X19897Y639423D01*
X19758Y639978D01*
X19527Y640534D01*
X19249Y641043D01*
X18879Y641459D01*
X18833Y641506D01*
X18601Y641691D01*
X18231Y641876D01*
X17768Y642154D01*
X17120Y642385D01*
X16380Y642616D01*
X15454Y642755D01*
X14390Y642802D01*
X13927D01*
X13464Y642755D01*
X12816Y642663D01*
X12169Y642570D01*
X11474Y642385D01*
X10826Y642154D01*
X10271Y641830D01*
X10225Y641783D01*
X10040Y641645D01*
X9808Y641413D01*
X9531Y641043D01*
X9253Y640580D01*
X8929Y639978D01*
X8651Y639238D01*
X8374Y638405D01*
X4533Y638914D01*
Y638960D01*
X4579Y639007D01*
Y639146D01*
X4625Y639331D01*
X4764Y639747D01*
X4949Y640349D01*
X5181Y640950D01*
X5458Y641598D01*
X5828Y642246D01*
X6245Y642848D01*
X6291Y642894D01*
X6476Y643079D01*
X6754Y643357D01*
X7124Y643727D01*
X7633Y644097D01*
X8235Y644467D01*
X8929Y644884D01*
X9716Y645208D01*
X9762D01*
X9808Y645254D01*
X9947Y645301D01*
X10132Y645347D01*
X10595Y645486D01*
X11243Y645624D01*
X11983Y645763D01*
X12909Y645902D01*
X13881Y645995D01*
X14992Y646041D01*
X15501D01*
X16010Y645995D01*
D02*
G37*
G36*
X180253D02*
X180947Y645948D01*
X181734Y645856D01*
X182521Y645717D01*
X183308Y645532D01*
X184048Y645301D01*
X184141Y645254D01*
X184372Y645162D01*
X184696Y645023D01*
X185112Y644838D01*
X185575Y644560D01*
X186038Y644282D01*
X186455Y643912D01*
X186825Y643542D01*
X186871Y643496D01*
X186964Y643357D01*
X187102Y643126D01*
X187288Y642848D01*
X187519Y642431D01*
X187704Y642015D01*
X187889Y641506D01*
X188028Y640904D01*
Y640858D01*
X188074Y640719D01*
X188121Y640441D01*
X188167Y640071D01*
Y639562D01*
X188213Y638960D01*
X188259Y638174D01*
Y637294D01*
Y632019D01*
Y631972D01*
Y631787D01*
Y631510D01*
Y631139D01*
Y630723D01*
Y630214D01*
X188306Y629103D01*
Y627946D01*
X188352Y626789D01*
X188398Y626280D01*
Y625817D01*
X188444Y625401D01*
X188491Y625077D01*
Y625030D01*
X188537Y624845D01*
X188583Y624568D01*
X188722Y624197D01*
X188815Y623781D01*
X189000Y623318D01*
X189231Y622809D01*
X189463Y622300D01*
X185344D01*
X185298Y622346D01*
X185251Y622531D01*
X185159Y622763D01*
X185020Y623133D01*
X184881Y623549D01*
X184788Y624059D01*
X184696Y624614D01*
X184603Y625216D01*
X184557D01*
X184511Y625123D01*
X184233Y624892D01*
X183817Y624568D01*
X183261Y624151D01*
X182567Y623735D01*
X181873Y623272D01*
X181133Y622855D01*
X180346Y622531D01*
X180253Y622485D01*
X179975Y622439D01*
X179559Y622300D01*
X179050Y622161D01*
X178402Y622022D01*
X177662Y621930D01*
X176829Y621837D01*
X175996Y621791D01*
X175625D01*
X175348Y621837D01*
X175024D01*
X174653Y621884D01*
X173820Y622022D01*
X172895Y622254D01*
X171877Y622578D01*
X170951Y623041D01*
X170118Y623642D01*
X170026Y623735D01*
X169794Y623966D01*
X169470Y624383D01*
X169100Y624938D01*
X168730Y625632D01*
X168406Y626419D01*
X168174Y627391D01*
X168128Y627854D01*
X168082Y628409D01*
Y628501D01*
Y628686D01*
X168128Y629010D01*
X168174Y629427D01*
X168267Y629936D01*
X168406Y630445D01*
X168591Y631000D01*
X168822Y631510D01*
X168869Y631556D01*
X168961Y631741D01*
X169146Y632019D01*
X169378Y632342D01*
X169655Y632713D01*
X170026Y633083D01*
X170396Y633453D01*
X170859Y633777D01*
X170905Y633823D01*
X171090Y633916D01*
X171321Y634101D01*
X171692Y634286D01*
X172108Y634471D01*
X172617Y634703D01*
X173126Y634888D01*
X173728Y635073D01*
X173774D01*
X173959Y635119D01*
X174237Y635212D01*
X174607Y635258D01*
X175070Y635351D01*
X175672Y635443D01*
X176366Y635582D01*
X177199Y635675D01*
X177245D01*
X177430Y635721D01*
X177662D01*
X177985Y635767D01*
X178356Y635813D01*
X178818Y635906D01*
X179328Y635952D01*
X179883Y636045D01*
X180994Y636276D01*
X182197Y636508D01*
X183261Y636785D01*
X183770Y636924D01*
X184233Y637063D01*
Y637109D01*
Y637202D01*
X184279Y637479D01*
Y637803D01*
Y637989D01*
Y638081D01*
Y638127D01*
Y638174D01*
Y638451D01*
X184233Y638914D01*
X184141Y639423D01*
X184002Y639978D01*
X183770Y640534D01*
X183493Y641043D01*
X183123Y641459D01*
X183076Y641506D01*
X182845Y641691D01*
X182475Y641876D01*
X182012Y642154D01*
X181364Y642385D01*
X180623Y642616D01*
X179698Y642755D01*
X178633Y642802D01*
X178171D01*
X177708Y642755D01*
X177060Y642663D01*
X176412Y642570D01*
X175718Y642385D01*
X175070Y642154D01*
X174515Y641830D01*
X174468Y641783D01*
X174283Y641645D01*
X174052Y641413D01*
X173774Y641043D01*
X173496Y640580D01*
X173172Y639978D01*
X172895Y639238D01*
X172617Y638405D01*
X168776Y638914D01*
Y638960D01*
X168822Y639007D01*
Y639146D01*
X168869Y639331D01*
X169007Y639747D01*
X169193Y640349D01*
X169424Y640950D01*
X169702Y641598D01*
X170072Y642246D01*
X170488Y642848D01*
X170535Y642894D01*
X170720Y643079D01*
X170997Y643357D01*
X171368Y643727D01*
X171877Y644097D01*
X172478Y644467D01*
X173172Y644884D01*
X173959Y645208D01*
X174006D01*
X174052Y645254D01*
X174191Y645301D01*
X174376Y645347D01*
X174839Y645486D01*
X175487Y645624D01*
X176227Y645763D01*
X177153Y645902D01*
X178124Y645995D01*
X179235Y646041D01*
X179744D01*
X180253Y645995D01*
D02*
G37*
G36*
X163778D02*
X164287Y645902D01*
X164889Y645717D01*
X165536Y645486D01*
X166277Y645162D01*
X167064Y644745D01*
X165629Y641135D01*
X165583Y641182D01*
X165398Y641274D01*
X165120Y641413D01*
X164750Y641552D01*
X164333Y641691D01*
X163824Y641830D01*
X163315Y641922D01*
X162806Y641969D01*
X162575D01*
X162343Y641922D01*
X162019Y641876D01*
X161695Y641783D01*
X161279Y641645D01*
X160862Y641459D01*
X160492Y641182D01*
X160446Y641135D01*
X160307Y641043D01*
X160168Y640858D01*
X159937Y640626D01*
X159705Y640303D01*
X159474Y639932D01*
X159243Y639516D01*
X159058Y639007D01*
X159011Y638914D01*
X158965Y638636D01*
X158872Y638220D01*
X158734Y637665D01*
X158595Y636970D01*
X158502Y636184D01*
X158456Y635351D01*
X158410Y634425D01*
Y622300D01*
X154476D01*
Y645532D01*
X158039D01*
Y642015D01*
X158086Y642061D01*
X158271Y642385D01*
X158502Y642802D01*
X158872Y643311D01*
X159243Y643820D01*
X159659Y644375D01*
X160076Y644838D01*
X160492Y645208D01*
X160538Y645254D01*
X160677Y645347D01*
X160955Y645486D01*
X161233Y645624D01*
X161603Y645763D01*
X162066Y645902D01*
X162528Y645995D01*
X163037Y646041D01*
X163361D01*
X163778Y645995D01*
D02*
G37*
G36*
X61039D02*
X61733Y645948D01*
X62474Y645856D01*
X63260Y645671D01*
X64093Y645486D01*
X64880Y645208D01*
X64926D01*
X64973Y645162D01*
X65204Y645069D01*
X65574Y644884D01*
X66037Y644653D01*
X66546Y644329D01*
X67055Y643959D01*
X67518Y643542D01*
X67934Y643079D01*
X67981Y643033D01*
X68073Y642848D01*
X68259Y642524D01*
X68490Y642154D01*
X68721Y641598D01*
X68953Y640997D01*
X69138Y640303D01*
X69323Y639516D01*
X65482Y639007D01*
Y639099D01*
X65436Y639284D01*
X65343Y639608D01*
X65204Y640025D01*
X64973Y640441D01*
X64695Y640904D01*
X64371Y641367D01*
X63908Y641783D01*
X63862Y641830D01*
X63677Y641922D01*
X63399Y642107D01*
X62983Y642292D01*
X62520Y642478D01*
X61918Y642663D01*
X61178Y642755D01*
X60391Y642802D01*
X59928D01*
X59465Y642755D01*
X58864Y642709D01*
X58262Y642570D01*
X57614Y642431D01*
X57013Y642200D01*
X56504Y641876D01*
X56457Y641830D01*
X56319Y641737D01*
X56133Y641552D01*
X55948Y641274D01*
X55717Y640997D01*
X55532Y640626D01*
X55393Y640210D01*
X55347Y639793D01*
Y639747D01*
Y639655D01*
X55393Y639516D01*
Y639331D01*
X55532Y638868D01*
X55809Y638405D01*
X55856Y638359D01*
X55902Y638312D01*
X55995Y638174D01*
X56180Y638035D01*
X56365Y637896D01*
X56642Y637711D01*
X56967Y637572D01*
X57337Y637387D01*
X57383D01*
X57476Y637341D01*
X57661Y637294D01*
X57985Y637155D01*
X58447Y637017D01*
X59049Y636878D01*
X59419Y636739D01*
X59836Y636646D01*
X60299Y636508D01*
X60808Y636369D01*
X60854D01*
X60993Y636323D01*
X61224Y636276D01*
X61502Y636184D01*
X61826Y636091D01*
X62242Y635998D01*
X63122Y635721D01*
X64093Y635443D01*
X65065Y635119D01*
X65944Y634795D01*
X66315Y634656D01*
X66639Y634518D01*
X66731Y634471D01*
X66916Y634379D01*
X67194Y634240D01*
X67611Y634008D01*
X68027Y633731D01*
X68444Y633361D01*
X68860Y632944D01*
X69230Y632481D01*
X69277Y632435D01*
X69369Y632250D01*
X69554Y631972D01*
X69739Y631556D01*
X69878Y631047D01*
X70063Y630491D01*
X70156Y629843D01*
X70202Y629103D01*
Y629010D01*
Y628779D01*
X70156Y628409D01*
X70063Y627900D01*
X69925Y627344D01*
X69693Y626743D01*
X69415Y626049D01*
X69045Y625401D01*
X68999Y625308D01*
X68814Y625123D01*
X68582Y624799D01*
X68212Y624429D01*
X67703Y624012D01*
X67148Y623549D01*
X66500Y623133D01*
X65713Y622716D01*
X65667D01*
X65621Y622670D01*
X65343Y622578D01*
X64880Y622439D01*
X64278Y622254D01*
X63538Y622069D01*
X62705Y621930D01*
X61826Y621837D01*
X60808Y621791D01*
X60391D01*
X60067Y621837D01*
X59697D01*
X59234Y621884D01*
X58771Y621930D01*
X58262Y622022D01*
X57152Y622254D01*
X55995Y622578D01*
X54884Y623041D01*
X54375Y623318D01*
X53912Y623642D01*
X53866Y623688D01*
X53819Y623735D01*
X53542Y624012D01*
X53125Y624429D01*
X52663Y625077D01*
X52154Y625863D01*
X51644Y626789D01*
X51228Y627946D01*
X50904Y629242D01*
X54791Y629843D01*
Y629797D01*
Y629751D01*
X54884Y629473D01*
X54977Y629010D01*
X55162Y628501D01*
X55393Y627946D01*
X55671Y627344D01*
X56087Y626743D01*
X56596Y626234D01*
X56689Y626187D01*
X56874Y626049D01*
X57244Y625863D01*
X57707Y625632D01*
X58309Y625401D01*
X59003Y625216D01*
X59836Y625077D01*
X60808Y625030D01*
X61270D01*
X61733Y625077D01*
X62335Y625169D01*
X62983Y625308D01*
X63677Y625493D01*
X64278Y625725D01*
X64834Y626095D01*
X64880Y626141D01*
X65065Y626280D01*
X65250Y626511D01*
X65528Y626835D01*
X65759Y627206D01*
X65991Y627668D01*
X66130Y628131D01*
X66176Y628686D01*
Y628733D01*
Y628918D01*
X66130Y629149D01*
X66037Y629473D01*
X65898Y629797D01*
X65667Y630121D01*
X65389Y630491D01*
X64973Y630769D01*
X64926Y630815D01*
X64788Y630862D01*
X64556Y631000D01*
X64186Y631139D01*
X63631Y631324D01*
X63307Y631463D01*
X62936Y631556D01*
X62520Y631695D01*
X62057Y631833D01*
X61548Y631972D01*
X60946Y632111D01*
X60900D01*
X60761Y632157D01*
X60530Y632204D01*
X60252Y632296D01*
X59882Y632389D01*
X59465Y632528D01*
X58586Y632759D01*
X57568Y633083D01*
X56596Y633361D01*
X55671Y633685D01*
X55254Y633870D01*
X54930Y634008D01*
X54838Y634055D01*
X54653Y634147D01*
X54375Y634333D01*
X54005Y634564D01*
X53588Y634888D01*
X53172Y635258D01*
X52755Y635675D01*
X52385Y636184D01*
X52339Y636230D01*
X52246Y636415D01*
X52107Y636739D01*
X51968Y637109D01*
X51830Y637572D01*
X51691Y638127D01*
X51598Y638683D01*
X51552Y639331D01*
Y639423D01*
Y639608D01*
X51598Y639886D01*
X51644Y640303D01*
X51737Y640719D01*
X51830Y641228D01*
X52015Y641691D01*
X52246Y642200D01*
X52292Y642246D01*
X52385Y642431D01*
X52524Y642663D01*
X52755Y642987D01*
X53033Y643311D01*
X53357Y643727D01*
X53727Y644097D01*
X54190Y644421D01*
X54236Y644467D01*
X54375Y644514D01*
X54560Y644653D01*
X54838Y644791D01*
X55208Y644977D01*
X55624Y645162D01*
X56133Y645347D01*
X56689Y645532D01*
X56781Y645578D01*
X56967Y645624D01*
X57290Y645717D01*
X57707Y645810D01*
X58216Y645902D01*
X58771Y645948D01*
X59419Y646041D01*
X60530D01*
X61039Y645995D01*
D02*
G37*
G36*
X340100Y649836D02*
X336166D01*
Y654325D01*
X340100D01*
Y649836D01*
D02*
G37*
G36*
X99774Y654834D02*
X100098D01*
X100978Y654741D01*
X101950Y654603D01*
X102968Y654371D01*
X104078Y654093D01*
X105096Y653723D01*
X105143D01*
X105235Y653677D01*
X105374Y653585D01*
X105559Y653492D01*
X106022Y653260D01*
X106624Y652844D01*
X107318Y652381D01*
X108012Y651780D01*
X108660Y651085D01*
X109262Y650299D01*
Y650252D01*
X109308Y650206D01*
X109400Y650067D01*
X109493Y649928D01*
X109724Y649466D01*
X110002Y648864D01*
X110326Y648124D01*
X110557Y647244D01*
X110789Y646319D01*
X110881Y645301D01*
X106809Y644977D01*
Y645023D01*
Y645115D01*
X106762Y645254D01*
X106716Y645486D01*
X106577Y645995D01*
X106392Y646689D01*
X106115Y647429D01*
X105698Y648170D01*
X105189Y648864D01*
X104541Y649512D01*
X104448Y649558D01*
X104217Y649743D01*
X103754Y650021D01*
X103153Y650299D01*
X102366Y650576D01*
X101440Y650854D01*
X100283Y651039D01*
X98988Y651085D01*
X98340D01*
X98062Y651039D01*
X97692Y650993D01*
X96859Y650900D01*
X95933Y650715D01*
X95008Y650484D01*
X94128Y650114D01*
X93758Y649882D01*
X93388Y649651D01*
X93295Y649604D01*
X93110Y649419D01*
X92832Y649095D01*
X92555Y648725D01*
X92231Y648216D01*
X91953Y647661D01*
X91768Y647013D01*
X91676Y646272D01*
Y646180D01*
Y645995D01*
X91722Y645671D01*
X91814Y645301D01*
X91953Y644838D01*
X92185Y644375D01*
X92462Y643912D01*
X92879Y643449D01*
X92925Y643403D01*
X93156Y643264D01*
X93342Y643126D01*
X93527Y643033D01*
X93804Y642894D01*
X94128Y642709D01*
X94545Y642570D01*
X95008Y642385D01*
X95517Y642200D01*
X96118Y641969D01*
X96766Y641783D01*
X97507Y641552D01*
X98340Y641367D01*
X99265Y641135D01*
X99312D01*
X99497Y641089D01*
X99774Y641043D01*
X100098Y640950D01*
X100515Y640858D01*
X101024Y640719D01*
X101533Y640580D01*
X102088Y640441D01*
X103292Y640117D01*
X104448Y639793D01*
X105004Y639608D01*
X105513Y639423D01*
X105976Y639284D01*
X106346Y639099D01*
X106392D01*
X106485Y639053D01*
X106624Y638960D01*
X106809Y638868D01*
X107318Y638590D01*
X107919Y638220D01*
X108614Y637711D01*
X109308Y637155D01*
X109956Y636508D01*
X110511Y635813D01*
X110557Y635721D01*
X110742Y635490D01*
X110927Y635073D01*
X111205Y634518D01*
X111437Y633870D01*
X111668Y633083D01*
X111807Y632204D01*
X111853Y631278D01*
Y631232D01*
Y631185D01*
Y631047D01*
Y630862D01*
X111761Y630353D01*
X111668Y629705D01*
X111483Y628964D01*
X111251Y628177D01*
X110881Y627344D01*
X110372Y626465D01*
Y626419D01*
X110326Y626372D01*
X110094Y626095D01*
X109771Y625678D01*
X109308Y625216D01*
X108706Y624660D01*
X107966Y624059D01*
X107133Y623503D01*
X106161Y622994D01*
X106115D01*
X106022Y622948D01*
X105883Y622902D01*
X105698Y622809D01*
X105420Y622716D01*
X105096Y622578D01*
X104356Y622393D01*
X103477Y622161D01*
X102412Y621930D01*
X101255Y621791D01*
X100006Y621745D01*
X99265D01*
X98895Y621791D01*
X98478D01*
X98016Y621837D01*
X97460Y621884D01*
X96303Y622069D01*
X95100Y622254D01*
X93897Y622578D01*
X92740Y622994D01*
X92694D01*
X92601Y623041D01*
X92462Y623133D01*
X92277Y623226D01*
X91722Y623503D01*
X91074Y623920D01*
X90333Y624475D01*
X89547Y625123D01*
X88806Y625910D01*
X88112Y626789D01*
Y626835D01*
X88020Y626928D01*
X87973Y627067D01*
X87834Y627252D01*
X87742Y627483D01*
X87603Y627761D01*
X87279Y628455D01*
X86955Y629334D01*
X86677Y630306D01*
X86492Y631417D01*
X86400Y632574D01*
X90380Y632944D01*
Y632898D01*
Y632852D01*
X90426Y632713D01*
Y632528D01*
X90519Y632111D01*
X90657Y631510D01*
X90843Y630908D01*
X91028Y630214D01*
X91352Y629566D01*
X91676Y628964D01*
X91722Y628918D01*
X91861Y628733D01*
X92092Y628409D01*
X92462Y628085D01*
X92925Y627668D01*
X93434Y627252D01*
X94128Y626835D01*
X94869Y626465D01*
X94915D01*
X94961Y626419D01*
X95100Y626372D01*
X95239Y626326D01*
X95702Y626187D01*
X96303Y626002D01*
X97044Y625817D01*
X97877Y625678D01*
X98802Y625586D01*
X99821Y625540D01*
X100237D01*
X100700Y625586D01*
X101255Y625632D01*
X101903Y625725D01*
X102644Y625817D01*
X103384Y626002D01*
X104078Y626234D01*
X104171Y626280D01*
X104402Y626372D01*
X104726Y626558D01*
X105143Y626743D01*
X105559Y627067D01*
X106022Y627391D01*
X106485Y627761D01*
X106855Y628224D01*
X106901Y628270D01*
X106994Y628455D01*
X107133Y628686D01*
X107318Y629057D01*
X107503Y629427D01*
X107642Y629890D01*
X107734Y630399D01*
X107781Y630954D01*
Y631000D01*
Y631232D01*
X107734Y631510D01*
X107688Y631880D01*
X107549Y632250D01*
X107410Y632713D01*
X107179Y633176D01*
X106855Y633592D01*
X106809Y633638D01*
X106670Y633777D01*
X106485Y633962D01*
X106161Y634240D01*
X105791Y634518D01*
X105281Y634842D01*
X104680Y635165D01*
X103986Y635443D01*
X103939Y635490D01*
X103708Y635536D01*
X103338Y635675D01*
X103106Y635721D01*
X102782Y635813D01*
X102458Y635952D01*
X102042Y636045D01*
X101579Y636184D01*
X101024Y636323D01*
X100469Y636461D01*
X99821Y636646D01*
X99080Y636832D01*
X98293Y637017D01*
X98247D01*
X98108Y637063D01*
X97877Y637109D01*
X97599Y637202D01*
X97229Y637294D01*
X96812Y637387D01*
X95887Y637665D01*
X94869Y637989D01*
X93804Y638312D01*
X92879Y638636D01*
X92462Y638821D01*
X92092Y639007D01*
X92046D01*
X92000Y639053D01*
X91722Y639238D01*
X91305Y639469D01*
X90843Y639840D01*
X90287Y640256D01*
X89732Y640765D01*
X89177Y641367D01*
X88714Y642015D01*
X88667Y642107D01*
X88529Y642339D01*
X88343Y642709D01*
X88158Y643172D01*
X87973Y643773D01*
X87788Y644467D01*
X87649Y645208D01*
X87603Y645995D01*
Y646041D01*
Y646087D01*
Y646226D01*
Y646411D01*
X87696Y646874D01*
X87788Y647476D01*
X87927Y648170D01*
X88158Y648957D01*
X88482Y649743D01*
X88945Y650530D01*
Y650576D01*
X88991Y650623D01*
X89223Y650900D01*
X89547Y651271D01*
X89963Y651733D01*
X90519Y652242D01*
X91213Y652798D01*
X92046Y653307D01*
X92971Y653770D01*
X93018D01*
X93110Y653816D01*
X93249Y653862D01*
X93434Y653955D01*
X93666Y654047D01*
X93989Y654140D01*
X94684Y654325D01*
X95563Y654510D01*
X96581Y654695D01*
X97646Y654834D01*
X98849Y654880D01*
X99450D01*
X99774Y654834D01*
D02*
G37*
G36*
X38640Y645995D02*
X39334Y645948D01*
X40075Y645856D01*
X40861Y645671D01*
X41694Y645486D01*
X42481Y645208D01*
X42527D01*
X42574Y645162D01*
X42805Y645069D01*
X43175Y644884D01*
X43638Y644653D01*
X44147Y644329D01*
X44656Y643959D01*
X45119Y643542D01*
X45536Y643079D01*
X45582Y643033D01*
X45674Y642848D01*
X45859Y642524D01*
X46091Y642154D01*
X46322Y641598D01*
X46554Y640997D01*
X46739Y640303D01*
X46924Y639516D01*
X43083Y639007D01*
Y639099D01*
X43036Y639284D01*
X42944Y639608D01*
X42805Y640025D01*
X42574Y640441D01*
X42296Y640904D01*
X41972Y641367D01*
X41509Y641783D01*
X41463Y641830D01*
X41278Y641922D01*
X41000Y642107D01*
X40584Y642292D01*
X40121Y642478D01*
X39519Y642663D01*
X38779Y642755D01*
X37992Y642802D01*
X37529D01*
X37067Y642755D01*
X36465Y642709D01*
X35863Y642570D01*
X35215Y642431D01*
X34614Y642200D01*
X34105Y641876D01*
X34058Y641830D01*
X33920Y641737D01*
X33735Y641552D01*
X33549Y641274D01*
X33318Y640997D01*
X33133Y640626D01*
X32994Y640210D01*
X32948Y639793D01*
Y639747D01*
Y639655D01*
X32994Y639516D01*
Y639331D01*
X33133Y638868D01*
X33411Y638405D01*
X33457Y638359D01*
X33503Y638312D01*
X33596Y638174D01*
X33781Y638035D01*
X33966Y637896D01*
X34244Y637711D01*
X34567Y637572D01*
X34938Y637387D01*
X34984D01*
X35077Y637341D01*
X35262Y637294D01*
X35586Y637155D01*
X36048Y637017D01*
X36650Y636878D01*
X37020Y636739D01*
X37437Y636646D01*
X37900Y636508D01*
X38409Y636369D01*
X38455D01*
X38594Y636323D01*
X38825Y636276D01*
X39103Y636184D01*
X39427Y636091D01*
X39843Y635998D01*
X40723Y635721D01*
X41694Y635443D01*
X42666Y635119D01*
X43546Y634795D01*
X43916Y634656D01*
X44240Y634518D01*
X44332Y634471D01*
X44517Y634379D01*
X44795Y634240D01*
X45212Y634008D01*
X45628Y633731D01*
X46045Y633361D01*
X46461Y632944D01*
X46831Y632481D01*
X46878Y632435D01*
X46970Y632250D01*
X47155Y631972D01*
X47340Y631556D01*
X47479Y631047D01*
X47664Y630491D01*
X47757Y629843D01*
X47803Y629103D01*
Y629010D01*
Y628779D01*
X47757Y628409D01*
X47664Y627900D01*
X47526Y627344D01*
X47294Y626743D01*
X47017Y626049D01*
X46646Y625401D01*
X46600Y625308D01*
X46415Y625123D01*
X46184Y624799D01*
X45813Y624429D01*
X45304Y624012D01*
X44749Y623549D01*
X44101Y623133D01*
X43314Y622716D01*
X43268D01*
X43222Y622670D01*
X42944Y622578D01*
X42481Y622439D01*
X41880Y622254D01*
X41139Y622069D01*
X40306Y621930D01*
X39427Y621837D01*
X38409Y621791D01*
X37992D01*
X37668Y621837D01*
X37298D01*
X36835Y621884D01*
X36372Y621930D01*
X35863Y622022D01*
X34753Y622254D01*
X33596Y622578D01*
X32485Y623041D01*
X31976Y623318D01*
X31513Y623642D01*
X31467Y623688D01*
X31421Y623735D01*
X31143Y624012D01*
X30726Y624429D01*
X30264Y625077D01*
X29755Y625863D01*
X29246Y626789D01*
X28829Y627946D01*
X28505Y629242D01*
X32392Y629843D01*
Y629797D01*
Y629751D01*
X32485Y629473D01*
X32578Y629010D01*
X32763Y628501D01*
X32994Y627946D01*
X33272Y627344D01*
X33688Y626743D01*
X34197Y626234D01*
X34290Y626187D01*
X34475Y626049D01*
X34845Y625863D01*
X35308Y625632D01*
X35910Y625401D01*
X36604Y625216D01*
X37437Y625077D01*
X38409Y625030D01*
X38871D01*
X39334Y625077D01*
X39936Y625169D01*
X40584Y625308D01*
X41278Y625493D01*
X41880Y625725D01*
X42435Y626095D01*
X42481Y626141D01*
X42666Y626280D01*
X42851Y626511D01*
X43129Y626835D01*
X43361Y627206D01*
X43592Y627668D01*
X43731Y628131D01*
X43777Y628686D01*
Y628733D01*
Y628918D01*
X43731Y629149D01*
X43638Y629473D01*
X43499Y629797D01*
X43268Y630121D01*
X42990Y630491D01*
X42574Y630769D01*
X42527Y630815D01*
X42389Y630862D01*
X42157Y631000D01*
X41787Y631139D01*
X41232Y631324D01*
X40908Y631463D01*
X40538Y631556D01*
X40121Y631695D01*
X39658Y631833D01*
X39149Y631972D01*
X38547Y632111D01*
X38501D01*
X38362Y632157D01*
X38131Y632204D01*
X37853Y632296D01*
X37483Y632389D01*
X37067Y632528D01*
X36187Y632759D01*
X35169Y633083D01*
X34197Y633361D01*
X33272Y633685D01*
X32855Y633870D01*
X32531Y634008D01*
X32439Y634055D01*
X32254Y634147D01*
X31976Y634333D01*
X31606Y634564D01*
X31189Y634888D01*
X30773Y635258D01*
X30356Y635675D01*
X29986Y636184D01*
X29940Y636230D01*
X29847Y636415D01*
X29708Y636739D01*
X29569Y637109D01*
X29431Y637572D01*
X29292Y638127D01*
X29199Y638683D01*
X29153Y639331D01*
Y639423D01*
Y639608D01*
X29199Y639886D01*
X29246Y640303D01*
X29338Y640719D01*
X29431Y641228D01*
X29616Y641691D01*
X29847Y642200D01*
X29893Y642246D01*
X29986Y642431D01*
X30125Y642663D01*
X30356Y642987D01*
X30634Y643311D01*
X30958Y643727D01*
X31328Y644097D01*
X31791Y644421D01*
X31837Y644467D01*
X31976Y644514D01*
X32161Y644653D01*
X32439Y644791D01*
X32809Y644977D01*
X33225Y645162D01*
X33735Y645347D01*
X34290Y645532D01*
X34382Y645578D01*
X34567Y645624D01*
X34892Y645717D01*
X35308Y645810D01*
X35817Y645902D01*
X36372Y645948D01*
X37020Y646041D01*
X38131D01*
X38640Y645995D01*
D02*
G37*
G36*
X139805D02*
X140222Y645948D01*
X140685Y645856D01*
X141194Y645763D01*
X141796Y645671D01*
X143045Y645254D01*
X143693Y645023D01*
X144341Y644699D01*
X144989Y644375D01*
X145637Y643912D01*
X146238Y643449D01*
X146840Y642894D01*
X146886Y642848D01*
X146979Y642755D01*
X147118Y642570D01*
X147303Y642339D01*
X147534Y642015D01*
X147812Y641598D01*
X148089Y641135D01*
X148367Y640626D01*
X148645Y640071D01*
X148922Y639377D01*
X149200Y638683D01*
X149431Y637896D01*
X149617Y637063D01*
X149755Y636184D01*
X149848Y635258D01*
X149894Y634240D01*
Y634194D01*
Y634055D01*
Y633823D01*
Y633499D01*
X149848Y633129D01*
X149802Y632667D01*
Y632204D01*
X149709Y631695D01*
X149570Y630538D01*
X149293Y629381D01*
X148969Y628224D01*
X148506Y627159D01*
Y627113D01*
X148460Y627067D01*
X148367Y626928D01*
X148274Y626743D01*
X147951Y626280D01*
X147534Y625725D01*
X146979Y625077D01*
X146285Y624429D01*
X145498Y623781D01*
X144572Y623179D01*
X144526D01*
X144480Y623133D01*
X144341Y623041D01*
X144109Y622948D01*
X143878Y622855D01*
X143600Y622763D01*
X142906Y622485D01*
X142120Y622254D01*
X141148Y622022D01*
X140129Y621837D01*
X139019Y621791D01*
X138556D01*
X138186Y621837D01*
X137769Y621884D01*
X137306Y621976D01*
X136751Y622069D01*
X136196Y622161D01*
X134946Y622531D01*
X134252Y622809D01*
X133604Y623087D01*
X132956Y623457D01*
X132308Y623873D01*
X131707Y624336D01*
X131105Y624892D01*
X131059Y624938D01*
X130966Y625030D01*
X130827Y625216D01*
X130642Y625493D01*
X130411Y625817D01*
X130180Y626187D01*
X129902Y626650D01*
X129624Y627206D01*
X129347Y627807D01*
X129069Y628501D01*
X128837Y629242D01*
X128606Y630029D01*
X128421Y630908D01*
X128282Y631833D01*
X128189Y632852D01*
X128143Y633916D01*
Y634008D01*
Y634194D01*
X128189Y634518D01*
Y634980D01*
X128236Y635490D01*
X128328Y636137D01*
X128421Y636785D01*
X128606Y637526D01*
X128791Y638266D01*
X129023Y639053D01*
X129300Y639886D01*
X129670Y640673D01*
X130041Y641413D01*
X130550Y642154D01*
X131059Y642848D01*
X131707Y643449D01*
X131753Y643496D01*
X131846Y643542D01*
X132031Y643681D01*
X132262Y643866D01*
X132540Y644051D01*
X132910Y644282D01*
X133280Y644514D01*
X133743Y644745D01*
X134252Y644977D01*
X134807Y645208D01*
X136057Y645624D01*
X137492Y645948D01*
X138232Y645995D01*
X139019Y646041D01*
X139482D01*
X139805Y645995D01*
D02*
G37*
G36*
X229494D02*
X229864Y645948D01*
X230327Y645856D01*
X230836Y645763D01*
X231437Y645624D01*
X231993Y645486D01*
X232641Y645254D01*
X233242Y645023D01*
X233890Y644699D01*
X234538Y644329D01*
X235186Y643912D01*
X235788Y643403D01*
X236343Y642848D01*
X236389Y642802D01*
X236482Y642709D01*
X236621Y642524D01*
X236806Y642246D01*
X237037Y641922D01*
X237269Y641552D01*
X237546Y641089D01*
X237824Y640534D01*
X238102Y639932D01*
X238379Y639284D01*
X238611Y638544D01*
X238842Y637757D01*
X239027Y636878D01*
X239166Y635952D01*
X239259Y634980D01*
X239305Y633916D01*
Y633870D01*
Y633685D01*
Y633361D01*
X239259Y632898D01*
X221904D01*
Y632852D01*
Y632713D01*
X221950Y632528D01*
Y632250D01*
X221997Y631926D01*
X222089Y631556D01*
X222228Y630723D01*
X222506Y629797D01*
X222876Y628779D01*
X223385Y627854D01*
X224033Y627020D01*
X224079D01*
X224125Y626928D01*
X224403Y626697D01*
X224820Y626372D01*
X225375Y626049D01*
X226115Y625678D01*
X226949Y625354D01*
X227874Y625123D01*
X228383Y625077D01*
X228939Y625030D01*
X229309D01*
X229725Y625077D01*
X230234Y625169D01*
X230790Y625308D01*
X231437Y625493D01*
X232039Y625771D01*
X232641Y626141D01*
X232687Y626187D01*
X232918Y626372D01*
X233196Y626650D01*
X233520Y627020D01*
X233890Y627529D01*
X234307Y628177D01*
X234723Y628918D01*
X235094Y629797D01*
X239166Y629288D01*
Y629242D01*
X239120Y629149D01*
X239074Y628964D01*
X238981Y628686D01*
X238842Y628409D01*
X238703Y628039D01*
X238333Y627252D01*
X237870Y626372D01*
X237222Y625447D01*
X236482Y624568D01*
X235556Y623735D01*
X235510D01*
X235417Y623642D01*
X235279Y623549D01*
X235094Y623411D01*
X234816Y623272D01*
X234538Y623133D01*
X234168Y622948D01*
X233752Y622763D01*
X233289Y622578D01*
X232826Y622393D01*
X231669Y622115D01*
X230373Y621884D01*
X228939Y621791D01*
X228429D01*
X228106Y621837D01*
X227689Y621884D01*
X227180Y621976D01*
X226625Y622069D01*
X226023Y622161D01*
X224727Y622531D01*
X224033Y622809D01*
X223385Y623087D01*
X222691Y623457D01*
X222043Y623873D01*
X221441Y624336D01*
X220840Y624892D01*
X220793Y624938D01*
X220701Y625030D01*
X220562Y625216D01*
X220377Y625493D01*
X220145Y625817D01*
X219914Y626187D01*
X219636Y626650D01*
X219359Y627159D01*
X219081Y627761D01*
X218803Y628409D01*
X218572Y629149D01*
X218341Y629936D01*
X218155Y630769D01*
X218017Y631695D01*
X217924Y632667D01*
X217878Y633685D01*
Y633731D01*
Y633962D01*
Y634240D01*
X217924Y634656D01*
X217970Y635165D01*
X218017Y635721D01*
X218109Y636369D01*
X218248Y637017D01*
X218618Y638498D01*
X218850Y639238D01*
X219127Y640025D01*
X219498Y640765D01*
X219914Y641459D01*
X220377Y642154D01*
X220886Y642802D01*
X220932Y642848D01*
X221025Y642940D01*
X221210Y643079D01*
X221441Y643311D01*
X221719Y643542D01*
X222089Y643820D01*
X222506Y644144D01*
X223015Y644421D01*
X223524Y644745D01*
X224125Y645023D01*
X224773Y645301D01*
X225468Y645532D01*
X226208Y645763D01*
X226995Y645902D01*
X227828Y645995D01*
X228707Y646041D01*
X229170D01*
X229494Y645995D01*
D02*
G37*
G36*
X356159D02*
X356437D01*
X356807Y645948D01*
X357686Y645810D01*
X358658Y645578D01*
X359676Y645208D01*
X360694Y644745D01*
X361666Y644097D01*
X361712D01*
X361759Y644005D01*
X362036Y643727D01*
X362453Y643311D01*
X362962Y642709D01*
X363471Y641969D01*
X363980Y641043D01*
X364443Y639978D01*
X364767Y638729D01*
X360926Y638127D01*
Y638174D01*
X360879Y638220D01*
X360833Y638498D01*
X360694Y638914D01*
X360463Y639423D01*
X360231Y639978D01*
X359861Y640580D01*
X359445Y641135D01*
X358982Y641598D01*
X358936Y641645D01*
X358750Y641783D01*
X358427Y641969D01*
X358056Y642200D01*
X357547Y642431D01*
X356992Y642616D01*
X356344Y642755D01*
X355650Y642802D01*
X355372D01*
X355141Y642755D01*
X354632Y642709D01*
X353937Y642524D01*
X353197Y642292D01*
X352364Y641922D01*
X351577Y641367D01*
X351207Y641043D01*
X350837Y640673D01*
Y640626D01*
X350744Y640580D01*
X350652Y640441D01*
X350559Y640256D01*
X350420Y640025D01*
X350235Y639747D01*
X350096Y639423D01*
X349911Y639053D01*
X349726Y638590D01*
X349587Y638081D01*
X349402Y637526D01*
X349263Y636924D01*
X349171Y636276D01*
X349078Y635536D01*
X348986Y634749D01*
Y633916D01*
Y633870D01*
Y633731D01*
Y633453D01*
X349032Y633176D01*
Y632759D01*
X349078Y632342D01*
X349217Y631324D01*
X349402Y630214D01*
X349726Y629057D01*
X350143Y628039D01*
X350420Y627529D01*
X350744Y627113D01*
X350837Y627020D01*
X351068Y626789D01*
X351485Y626465D01*
X351994Y626095D01*
X352688Y625678D01*
X353475Y625354D01*
X354400Y625123D01*
X354909Y625077D01*
X355418Y625030D01*
X355511D01*
X355789Y625077D01*
X356251Y625123D01*
X356760Y625216D01*
X357362Y625354D01*
X358010Y625632D01*
X358658Y625956D01*
X359260Y626419D01*
X359352Y626465D01*
X359491Y626697D01*
X359769Y627020D01*
X360093Y627529D01*
X360417Y628131D01*
X360787Y628872D01*
X361064Y629797D01*
X361250Y630815D01*
X365137Y630306D01*
Y630260D01*
X365091Y630121D01*
X365044Y629936D01*
X364998Y629658D01*
X364906Y629288D01*
X364813Y628918D01*
X364489Y627992D01*
X364073Y627020D01*
X363471Y625956D01*
X362730Y624938D01*
X362314Y624475D01*
X361851Y624012D01*
X361805Y623966D01*
X361712Y623920D01*
X361573Y623827D01*
X361388Y623688D01*
X361157Y623503D01*
X360833Y623318D01*
X360463Y623133D01*
X360093Y622902D01*
X359167Y622485D01*
X358056Y622161D01*
X356853Y621884D01*
X356159Y621837D01*
X355465Y621791D01*
X355002D01*
X354678Y621837D01*
X354262Y621884D01*
X353799Y621976D01*
X353290Y622069D01*
X352734Y622161D01*
X351485Y622531D01*
X350883Y622809D01*
X350235Y623087D01*
X349587Y623457D01*
X348986Y623873D01*
X348384Y624336D01*
X347829Y624892D01*
X347782Y624938D01*
X347690Y625030D01*
X347551Y625216D01*
X347366Y625447D01*
X347181Y625771D01*
X346903Y626187D01*
X346672Y626650D01*
X346394Y627159D01*
X346116Y627761D01*
X345885Y628455D01*
X345607Y629149D01*
X345422Y629982D01*
X345237Y630815D01*
X345098Y631787D01*
X345006Y632759D01*
X344959Y633823D01*
Y633870D01*
Y634008D01*
Y634194D01*
Y634471D01*
X345006Y634795D01*
Y635165D01*
X345052Y635582D01*
X345098Y636045D01*
X345237Y637063D01*
X345468Y638174D01*
X345746Y639284D01*
X346163Y640395D01*
Y640441D01*
X346209Y640534D01*
X346301Y640673D01*
X346394Y640858D01*
X346672Y641367D01*
X347088Y641969D01*
X347644Y642663D01*
X348292Y643357D01*
X349078Y644051D01*
X349958Y644606D01*
X350004D01*
X350096Y644653D01*
X350235Y644745D01*
X350420Y644838D01*
X350652Y644930D01*
X350929Y645069D01*
X351624Y645347D01*
X352410Y645578D01*
X353382Y645810D01*
X354400Y645995D01*
X355511Y646041D01*
X355881D01*
X356159Y645995D01*
D02*
G37*
G36*
X203531D02*
X203855Y645948D01*
X204272Y645856D01*
X204735Y645763D01*
X205244Y645624D01*
X205753Y645439D01*
X206308Y645208D01*
X206863Y644930D01*
X207465Y644606D01*
X208020Y644236D01*
X208576Y643773D01*
X209131Y643264D01*
X209640Y642663D01*
Y645532D01*
X213250D01*
Y625447D01*
Y625401D01*
Y625216D01*
Y624938D01*
Y624568D01*
X213204Y624151D01*
Y623642D01*
X213157Y623087D01*
X213111Y622485D01*
X212972Y621236D01*
X212787Y619940D01*
X212648Y619338D01*
X212509Y618783D01*
X212324Y618274D01*
X212139Y617811D01*
Y617765D01*
X212093Y617718D01*
X211908Y617441D01*
X211677Y617024D01*
X211306Y616515D01*
X210797Y615960D01*
X210196Y615358D01*
X209455Y614757D01*
X208622Y614248D01*
X208576D01*
X208529Y614201D01*
X208391Y614109D01*
X208206Y614062D01*
X207974Y613923D01*
X207696Y613831D01*
X207002Y613600D01*
X206169Y613322D01*
X205151Y613137D01*
X203994Y612952D01*
X202745Y612905D01*
X202328D01*
X202050Y612952D01*
X201680D01*
X201310Y612998D01*
X200847Y613044D01*
X200338Y613137D01*
X199274Y613368D01*
X198163Y613692D01*
X197052Y614155D01*
X196034Y614803D01*
X195988Y614849D01*
X195942Y614895D01*
X195618Y615173D01*
X195247Y615590D01*
X194785Y616191D01*
X194322Y616978D01*
X193905Y617950D01*
X193767Y618505D01*
X193674Y619107D01*
X193582Y619708D01*
Y620403D01*
X197423Y619893D01*
Y619801D01*
X197469Y619616D01*
X197561Y619292D01*
X197654Y618875D01*
X197839Y618459D01*
X198071Y618042D01*
X198348Y617626D01*
X198718Y617302D01*
X198811Y617256D01*
X198996Y617117D01*
X199320Y616932D01*
X199783Y616746D01*
X200338Y616515D01*
X201032Y616330D01*
X201865Y616191D01*
X202745Y616145D01*
X203207D01*
X203670Y616191D01*
X204318Y616284D01*
X204966Y616423D01*
X205660Y616608D01*
X206354Y616885D01*
X206956Y617256D01*
X207002Y617302D01*
X207187Y617441D01*
X207465Y617718D01*
X207789Y618042D01*
X208113Y618505D01*
X208437Y619014D01*
X208761Y619616D01*
X208992Y620310D01*
Y620356D01*
X209039Y620541D01*
X209085Y620912D01*
X209131Y621374D01*
X209177Y621698D01*
Y622069D01*
X209224Y622485D01*
Y622948D01*
Y623457D01*
X209270Y624059D01*
Y624660D01*
Y625354D01*
X209224Y625308D01*
X209131Y625216D01*
X208992Y625077D01*
X208807Y624892D01*
X208576Y624660D01*
X208252Y624383D01*
X207882Y624105D01*
X207511Y623827D01*
X206539Y623272D01*
X205475Y622763D01*
X204874Y622578D01*
X204226Y622439D01*
X203531Y622346D01*
X202837Y622300D01*
X202606D01*
X202374Y622346D01*
X202050D01*
X201634Y622393D01*
X201171Y622485D01*
X200662Y622578D01*
X200107Y622716D01*
X199505Y622902D01*
X198904Y623133D01*
X198302Y623411D01*
X197654Y623735D01*
X197052Y624151D01*
X196451Y624614D01*
X195895Y625123D01*
X195386Y625725D01*
X195340Y625771D01*
X195294Y625863D01*
X195155Y626095D01*
X194970Y626326D01*
X194785Y626697D01*
X194553Y627067D01*
X194322Y627529D01*
X194090Y628085D01*
X193859Y628640D01*
X193628Y629288D01*
X193396Y629936D01*
X193211Y630676D01*
X192887Y632250D01*
X192841Y633129D01*
X192795Y634008D01*
Y634055D01*
Y634147D01*
Y634333D01*
Y634564D01*
X192841Y634888D01*
Y635212D01*
X192934Y636045D01*
X193072Y636970D01*
X193304Y637989D01*
X193582Y639053D01*
X193998Y640117D01*
Y640164D01*
X194044Y640256D01*
X194137Y640395D01*
X194229Y640580D01*
X194507Y641089D01*
X194877Y641737D01*
X195386Y642431D01*
X195988Y643126D01*
X196682Y643866D01*
X197469Y644467D01*
X197515D01*
X197561Y644514D01*
X197700Y644606D01*
X197885Y644699D01*
X198348Y644977D01*
X198996Y645254D01*
X199783Y645532D01*
X200708Y645810D01*
X201726Y645995D01*
X202837Y646041D01*
X203254D01*
X203531Y645995D01*
D02*
G37*
%LPC*%
G36*
X298403Y642802D02*
X298125D01*
X297940Y642755D01*
X297431Y642709D01*
X296829Y642570D01*
X296089Y642339D01*
X295302Y642015D01*
X294562Y641552D01*
X293821Y640950D01*
X293729Y640858D01*
X293544Y640626D01*
X293220Y640210D01*
X292896Y639655D01*
X292526Y639007D01*
X292202Y638174D01*
X291924Y637202D01*
X291785Y636137D01*
X304789D01*
Y636184D01*
Y636276D01*
X304743Y636415D01*
Y636600D01*
X304651Y637155D01*
X304512Y637757D01*
X304280Y638498D01*
X304049Y639192D01*
X303679Y639886D01*
X303262Y640488D01*
Y640534D01*
X303170Y640580D01*
X302938Y640858D01*
X302522Y641228D01*
X301966Y641645D01*
X301272Y642061D01*
X300439Y642431D01*
X299467Y642709D01*
X298958Y642755D01*
X298403Y642802D01*
D02*
G37*
G36*
X378049D02*
X377771D01*
X377586Y642755D01*
X377077Y642709D01*
X376475Y642570D01*
X375735Y642339D01*
X374948Y642015D01*
X374208Y641552D01*
X373467Y640950D01*
X373375Y640858D01*
X373190Y640626D01*
X372865Y640210D01*
X372542Y639655D01*
X372171Y639007D01*
X371847Y638174D01*
X371570Y637202D01*
X371431Y636137D01*
X384435D01*
Y636184D01*
Y636276D01*
X384389Y636415D01*
Y636600D01*
X384296Y637155D01*
X384158Y637757D01*
X383926Y638498D01*
X383695Y639192D01*
X383325Y639886D01*
X382908Y640488D01*
Y640534D01*
X382816Y640580D01*
X382584Y640858D01*
X382168Y641228D01*
X381612Y641645D01*
X380918Y642061D01*
X380085Y642431D01*
X379113Y642709D01*
X378604Y642755D01*
X378049Y642802D01*
D02*
G37*
G36*
X268738Y650530D02*
X261334D01*
Y626095D01*
X268923D01*
X269247Y626141D01*
X269942Y626187D01*
X270728Y626234D01*
X271561Y626326D01*
X272394Y626465D01*
X273088Y626650D01*
X273181Y626697D01*
X273412Y626743D01*
X273736Y626882D01*
X274153Y627067D01*
X274616Y627344D01*
X275078Y627622D01*
X275541Y627946D01*
X276004Y628316D01*
X276050Y628409D01*
X276235Y628594D01*
X276513Y628918D01*
X276837Y629381D01*
X277207Y629982D01*
X277624Y630676D01*
X277994Y631463D01*
X278318Y632342D01*
Y632389D01*
X278364Y632481D01*
X278410Y632620D01*
X278457Y632805D01*
X278503Y633037D01*
X278596Y633361D01*
X278688Y633685D01*
X278781Y634055D01*
X278920Y634980D01*
X279058Y636045D01*
X279151Y637248D01*
X279197Y638544D01*
Y638590D01*
Y638775D01*
Y639007D01*
X279151Y639377D01*
Y639793D01*
X279105Y640256D01*
X279058Y640811D01*
X279012Y641367D01*
X278781Y642616D01*
X278503Y643912D01*
X278087Y645115D01*
X277809Y645717D01*
X277531Y646226D01*
Y646272D01*
X277439Y646365D01*
X277346Y646504D01*
X277253Y646689D01*
X276883Y647152D01*
X276420Y647707D01*
X275819Y648309D01*
X275125Y648910D01*
X274338Y649419D01*
X273505Y649836D01*
X273412Y649882D01*
X273181Y649928D01*
X272764Y650067D01*
X272163Y650206D01*
X271422Y650299D01*
X270497Y650437D01*
X269942Y650484D01*
X269340D01*
X268738Y650530D01*
D02*
G37*
G36*
X20036Y633962D02*
X19990D01*
X19943Y633916D01*
X19805Y633870D01*
X19619Y633823D01*
X19388Y633731D01*
X19110Y633638D01*
X18786Y633546D01*
X18416Y633453D01*
X18000Y633314D01*
X17491Y633222D01*
X16982Y633083D01*
X16380Y632944D01*
X15732Y632805D01*
X15084Y632667D01*
X14344Y632574D01*
X13557Y632435D01*
X13464D01*
X13187Y632389D01*
X12724Y632296D01*
X12215Y632204D01*
X11659Y632111D01*
X11104Y631972D01*
X10595Y631833D01*
X10132Y631648D01*
X10086D01*
X9947Y631556D01*
X9762Y631463D01*
X9577Y631324D01*
X9022Y630954D01*
X8559Y630399D01*
Y630353D01*
X8466Y630260D01*
X8420Y630075D01*
X8327Y629843D01*
X8235Y629566D01*
X8142Y629288D01*
X8096Y628918D01*
X8050Y628548D01*
Y628501D01*
Y628270D01*
X8096Y627992D01*
X8189Y627622D01*
X8327Y627206D01*
X8559Y626789D01*
X8837Y626326D01*
X9207Y625910D01*
X9253Y625863D01*
X9438Y625771D01*
X9716Y625586D01*
X10086Y625401D01*
X10595Y625216D01*
X11197Y625030D01*
X11891Y624938D01*
X12724Y624892D01*
X13094D01*
X13557Y624938D01*
X14066Y625030D01*
X14714Y625123D01*
X15362Y625308D01*
X16056Y625540D01*
X16750Y625863D01*
X16843Y625910D01*
X17028Y626049D01*
X17352Y626280D01*
X17722Y626604D01*
X18139Y626974D01*
X18601Y627437D01*
X18972Y627992D01*
X19342Y628594D01*
X19388Y628640D01*
X19434Y628825D01*
X19527Y629149D01*
X19666Y629566D01*
X19805Y630121D01*
X19897Y630769D01*
X19943Y631556D01*
X19990Y632481D01*
X20036Y633962D01*
D02*
G37*
G36*
X184279D02*
X184233D01*
X184187Y633916D01*
X184048Y633870D01*
X183863Y633823D01*
X183631Y633731D01*
X183354Y633638D01*
X183030Y633546D01*
X182660Y633453D01*
X182243Y633314D01*
X181734Y633222D01*
X181225Y633083D01*
X180623Y632944D01*
X179975Y632805D01*
X179328Y632667D01*
X178587Y632574D01*
X177800Y632435D01*
X177708D01*
X177430Y632389D01*
X176967Y632296D01*
X176458Y632204D01*
X175903Y632111D01*
X175348Y631972D01*
X174839Y631833D01*
X174376Y631648D01*
X174329D01*
X174191Y631556D01*
X174006Y631463D01*
X173820Y631324D01*
X173265Y630954D01*
X172802Y630399D01*
Y630353D01*
X172710Y630260D01*
X172663Y630075D01*
X172571Y629843D01*
X172478Y629566D01*
X172386Y629288D01*
X172339Y628918D01*
X172293Y628548D01*
Y628501D01*
Y628270D01*
X172339Y627992D01*
X172432Y627622D01*
X172571Y627206D01*
X172802Y626789D01*
X173080Y626326D01*
X173450Y625910D01*
X173496Y625863D01*
X173682Y625771D01*
X173959Y625586D01*
X174329Y625401D01*
X174839Y625216D01*
X175440Y625030D01*
X176134Y624938D01*
X176967Y624892D01*
X177338D01*
X177800Y624938D01*
X178309Y625030D01*
X178957Y625123D01*
X179605Y625308D01*
X180299Y625540D01*
X180994Y625863D01*
X181086Y625910D01*
X181271Y626049D01*
X181595Y626280D01*
X181966Y626604D01*
X182382Y626974D01*
X182845Y627437D01*
X183215Y627992D01*
X183585Y628594D01*
X183631Y628640D01*
X183678Y628825D01*
X183770Y629149D01*
X183909Y629566D01*
X184048Y630121D01*
X184141Y630769D01*
X184187Y631556D01*
X184233Y632481D01*
X184279Y633962D01*
D02*
G37*
G36*
X139019Y642802D02*
X138741D01*
X138510Y642755D01*
X138001Y642709D01*
X137306Y642524D01*
X136520Y642246D01*
X135687Y641876D01*
X134900Y641321D01*
X134483Y640950D01*
X134113Y640580D01*
Y640534D01*
X134021Y640488D01*
X133928Y640349D01*
X133789Y640164D01*
X133650Y639932D01*
X133512Y639655D01*
X133327Y639284D01*
X133141Y638914D01*
X132956Y638451D01*
X132771Y637989D01*
X132632Y637433D01*
X132493Y636832D01*
X132355Y636184D01*
X132262Y635490D01*
X132216Y634703D01*
X132170Y633916D01*
Y633870D01*
Y633731D01*
Y633499D01*
X132216Y633176D01*
Y632805D01*
X132262Y632389D01*
X132401Y631417D01*
X132632Y630306D01*
X133003Y629196D01*
X133465Y628131D01*
X133789Y627668D01*
X134113Y627206D01*
X134159D01*
X134206Y627113D01*
X134483Y626882D01*
X134900Y626511D01*
X135455Y626141D01*
X136150Y625725D01*
X136982Y625354D01*
X137954Y625123D01*
X138463Y625077D01*
X139019Y625030D01*
X139296D01*
X139528Y625077D01*
X140037Y625169D01*
X140731Y625308D01*
X141472Y625586D01*
X142305Y625956D01*
X143091Y626511D01*
X143508Y626882D01*
X143878Y627252D01*
X143924Y627298D01*
X143971Y627344D01*
X144063Y627483D01*
X144202Y627668D01*
X144341Y627900D01*
X144526Y628177D01*
X144711Y628548D01*
X144896Y628918D01*
X145081Y629381D01*
X145220Y629890D01*
X145405Y630445D01*
X145544Y631047D01*
X145683Y631741D01*
X145775Y632435D01*
X145868Y633222D01*
Y634055D01*
Y634101D01*
Y634240D01*
Y634471D01*
X145822Y634749D01*
Y635119D01*
X145775Y635536D01*
X145637Y636508D01*
X145405Y637526D01*
X145035Y638636D01*
X144526Y639655D01*
X144248Y640164D01*
X143878Y640580D01*
Y640626D01*
X143785Y640673D01*
X143508Y640950D01*
X143091Y641274D01*
X142536Y641691D01*
X141842Y642107D01*
X141009Y642478D01*
X140083Y642709D01*
X139574Y642755D01*
X139019Y642802D01*
D02*
G37*
G36*
X228753D02*
X228476D01*
X228291Y642755D01*
X227782Y642709D01*
X227180Y642570D01*
X226439Y642339D01*
X225653Y642015D01*
X224912Y641552D01*
X224172Y640950D01*
X224079Y640858D01*
X223894Y640626D01*
X223570Y640210D01*
X223246Y639655D01*
X222876Y639007D01*
X222552Y638174D01*
X222274Y637202D01*
X222136Y636137D01*
X235140D01*
Y636184D01*
Y636276D01*
X235094Y636415D01*
Y636600D01*
X235001Y637155D01*
X234862Y637757D01*
X234631Y638498D01*
X234399Y639192D01*
X234029Y639886D01*
X233613Y640488D01*
Y640534D01*
X233520Y640580D01*
X233289Y640858D01*
X232872Y641228D01*
X232317Y641645D01*
X231623Y642061D01*
X230790Y642431D01*
X229818Y642709D01*
X229309Y642755D01*
X228753Y642802D01*
D02*
G37*
G36*
X203624D02*
X202883D01*
X202698Y642755D01*
X202189Y642709D01*
X201588Y642524D01*
X200847Y642292D01*
X200107Y641876D01*
X199366Y641367D01*
X198996Y640997D01*
X198626Y640626D01*
Y640580D01*
X198533Y640534D01*
X198441Y640395D01*
X198348Y640210D01*
X198209Y640025D01*
X198071Y639747D01*
X197885Y639423D01*
X197747Y639053D01*
X197561Y638636D01*
X197376Y638127D01*
X197237Y637618D01*
X197099Y637063D01*
X197006Y636415D01*
X196914Y635767D01*
X196821Y635073D01*
Y634286D01*
Y634240D01*
Y634101D01*
Y633870D01*
X196867Y633546D01*
Y633176D01*
X196914Y632713D01*
X197052Y631741D01*
X197284Y630630D01*
X197561Y629566D01*
X198024Y628501D01*
X198302Y628039D01*
X198626Y627622D01*
X198718Y627529D01*
X198950Y627298D01*
X199320Y626974D01*
X199875Y626604D01*
X200523Y626187D01*
X201310Y625863D01*
X202189Y625632D01*
X202652Y625586D01*
X203161Y625540D01*
X203439D01*
X203624Y625586D01*
X204133Y625632D01*
X204781Y625817D01*
X205475Y626049D01*
X206262Y626419D01*
X207002Y626928D01*
X207373Y627252D01*
X207743Y627622D01*
Y627668D01*
X207835Y627715D01*
X207928Y627854D01*
X208020Y628039D01*
X208159Y628224D01*
X208344Y628501D01*
X208483Y628825D01*
X208668Y629242D01*
X208853Y629658D01*
X208992Y630121D01*
X209177Y630676D01*
X209316Y631278D01*
X209409Y631880D01*
X209501Y632574D01*
X209594Y633361D01*
Y634147D01*
Y634194D01*
Y634333D01*
Y634564D01*
X209548Y634842D01*
Y635212D01*
X209501Y635628D01*
X209363Y636554D01*
X209131Y637618D01*
X208807Y638683D01*
X208344Y639747D01*
X208020Y640210D01*
X207696Y640626D01*
Y640673D01*
X207604Y640719D01*
X207373Y640950D01*
X206956Y641321D01*
X206401Y641737D01*
X205753Y642107D01*
X204966Y642478D01*
X204087Y642709D01*
X203624Y642802D01*
D02*
G37*
%LPD*%
D11*
X790850Y1368650D02*
G03*
X790850Y1368650I-2500J0D01*
G01*
X613050Y670150D02*
G03*
X613050Y670150I-2500J0D01*
G01*
D44*
X1020150Y1162050D02*
X1056640D01*
X1020150Y1086450D02*
Y1162050D01*
Y1086450D02*
X1056640D01*
X444300Y547500D02*
Y722500D01*
X-80700D02*
X444300D01*
X-80700Y547500D02*
Y722500D01*
Y547500D02*
X444300D01*
X431800Y635000D02*
X444300D01*
X581500Y1282700D02*
X717550D01*
Y1384300D01*
X581500D02*
X717550D01*
X571500Y1333500D02*
X581500D01*
X-58500Y1223500D02*
X581500D01*
X-58500D02*
Y1443500D01*
X581500D01*
Y1223500D02*
Y1443500D01*
X266700Y241300D02*
Y292100D01*
Y241300D02*
X774700D01*
Y292100D01*
X266700D02*
X774700D01*
X195700Y301700D02*
X1067104D01*
X1067122Y-283244D02*
Y301718D01*
X195756Y-283244D02*
X1067122D01*
X195700Y-283300D02*
X195756Y-283244D01*
X195700Y-283300D02*
Y301700D01*
X860700Y-28300D02*
Y91700D01*
Y-28300D02*
X1000700D01*
Y91700D01*
X860700D02*
X1000700D01*
X-100000Y-300000D02*
X1050000D01*
Y2130000D01*
X-100000D02*
X1050000D01*
X-100000Y-300000D02*
Y2130000D01*
X1670050Y220000D02*
Y520000D01*
X1149350D02*
X1670050D01*
X1149350Y220000D02*
X1670050D01*
X1149350D02*
Y520000D01*
X1110000Y650000D02*
Y1200000D01*
X1700000D01*
Y650000D02*
Y1200000D01*
X1110000Y650000D02*
X1700000D01*
X1015000Y1810000D02*
X1025000D01*
X135000Y2055000D02*
X1025000D01*
X135000Y1565000D02*
Y2055000D01*
X1025000Y1565000D02*
Y2055000D01*
X135000Y1565000D02*
X1025000D01*
X975000Y1960000D02*
X1045000D01*
X975000Y1650000D02*
Y1960000D01*
Y1650000D02*
X1040000D01*
X1045000D01*
Y1960000D01*
Y1890000D02*
X1105000D01*
Y1730000D02*
Y1890000D01*
X1045000Y1730000D02*
X1105000D01*
X1045000Y1940000D02*
X1105000Y1940000D01*
X1045000Y1920000D02*
X1105000Y1920000D01*
Y1940000D01*
Y1670000D02*
Y1690000D01*
X1045000Y1670000D02*
X1105000Y1670000D01*
X1045000Y1690000D02*
X1105000Y1690000D01*
X175000Y1920000D02*
X215000D01*
Y1830000D02*
Y1920000D01*
X175000Y1830000D02*
X215000D01*
X175000D02*
Y1920000D01*
X230000Y1840000D02*
Y1860000D01*
X220000Y1850000D02*
X240000D01*
X230000Y1890000D02*
Y1910000D01*
X1604007Y313685D02*
X1598928D01*
X1601467D01*
Y300989D01*
X1598928Y298450D01*
X1596389D01*
X1593850Y300989D01*
X1609085Y298450D02*
X1614163D01*
X1611624D01*
Y313685D01*
X1609085Y311146D01*
X1629398Y298450D02*
Y313685D01*
X1621781Y306068D01*
X1631938D01*
X1604007Y434335D02*
X1598928D01*
X1601467D01*
Y421639D01*
X1598928Y419100D01*
X1596389D01*
X1593850Y421639D01*
X1609085Y419100D02*
X1614163D01*
X1611624D01*
Y434335D01*
X1609085Y431796D01*
X1621781D02*
X1624320Y434335D01*
X1629398D01*
X1631938Y431796D01*
Y429257D01*
X1629398Y426717D01*
X1626859D01*
X1629398D01*
X1631938Y424178D01*
Y421639D01*
X1629398Y419100D01*
X1624320D01*
X1621781Y421639D01*
X-44450Y1482085D02*
Y1471928D01*
X-39372Y1466850D01*
X-34293Y1471928D01*
Y1482085D01*
X-19058Y1479546D02*
X-21597Y1482085D01*
X-26676D01*
X-29215Y1479546D01*
Y1469389D01*
X-26676Y1466850D01*
X-21597D01*
X-19058Y1469389D01*
X-13980Y1466850D02*
X-8902D01*
X-11441D01*
Y1482085D01*
X-13980Y1479546D01*
X72500Y1571235D02*
Y1561078D01*
X77578Y1556000D01*
X82657Y1561078D01*
Y1571235D01*
X97892Y1568696D02*
X95353Y1571235D01*
X90274D01*
X87735Y1568696D01*
Y1558539D01*
X90274Y1556000D01*
X95353D01*
X97892Y1558539D01*
X113127Y1556000D02*
X102970D01*
X113127Y1566157D01*
Y1568696D01*
X110588Y1571235D01*
X105509D01*
X102970Y1568696D01*
X713740Y1026155D02*
Y1013459D01*
X716279Y1010920D01*
X721357D01*
X723897Y1013459D01*
Y1026155D01*
X728975Y1010920D02*
X734053D01*
X731514D01*
Y1026155D01*
X728975Y1023616D01*
X795017Y1341115D02*
X789938D01*
X792477D01*
Y1328419D01*
X789938Y1325880D01*
X787399D01*
X784860Y1328419D01*
X800095Y1325880D02*
X805173D01*
X802634D01*
Y1341115D01*
X800095Y1338576D01*
X822948Y1341115D02*
X817869Y1338576D01*
X812791Y1333497D01*
Y1328419D01*
X815330Y1325880D01*
X820408D01*
X822948Y1328419D01*
Y1330958D01*
X820408Y1333497D01*
X812791D01*
X523237Y728975D02*
X518158D01*
X520698D01*
Y716279D01*
X518158Y713740D01*
X515619D01*
X513080Y716279D01*
X538472Y728975D02*
X533393Y726436D01*
X528315Y721357D01*
Y716279D01*
X530854Y713740D01*
X535933D01*
X538472Y716279D01*
Y718818D01*
X535933Y721357D01*
X528315D01*
X235400Y310000D02*
Y325235D01*
X243018D01*
X245557Y322696D01*
Y317617D01*
X243018Y315078D01*
X235400D01*
X240478D02*
X245557Y310000D01*
X250635D02*
Y325235D01*
X258253D01*
X260792Y322696D01*
Y317617D01*
X258253Y315078D01*
X250635D01*
X265870Y325235D02*
X270949D01*
X268409D01*
Y310000D01*
X265870D01*
X270949D01*
X288723D02*
X278566D01*
X288723Y320157D01*
Y322696D01*
X286184Y325235D01*
X281105D01*
X278566Y322696D01*
X895350Y770885D02*
Y755650D01*
X905507D01*
X910585Y770885D02*
Y755650D01*
X918203D01*
X920742Y758189D01*
Y768346D01*
X918203Y770885D01*
X910585D01*
X925820Y755650D02*
X930899D01*
X928359D01*
Y770885D01*
X925820Y768346D01*
X1000757Y726435D02*
X995678D01*
X998217D01*
Y713739D01*
X995678Y711200D01*
X993139D01*
X990600Y713739D01*
X1005835Y726435D02*
X1015992D01*
Y723896D01*
X1005835Y713739D01*
Y711200D01*
X88900Y1054100D02*
Y1069335D01*
X96517D01*
X99057Y1066796D01*
Y1061718D01*
X96517Y1059178D01*
X88900D01*
X93978D02*
X99057Y1054100D01*
X104135Y1069335D02*
Y1054100D01*
X114292D01*
X126988D02*
Y1069335D01*
X119370Y1061718D01*
X129527D01*
X889000Y1342385D02*
Y1327150D01*
X899157D01*
X904235Y1342385D02*
Y1327150D01*
X911853D01*
X914392Y1329689D01*
Y1339846D01*
X911853Y1342385D01*
X904235D01*
X919470Y1339846D02*
X922009Y1342385D01*
X927088D01*
X929627Y1339846D01*
Y1337307D01*
X927088Y1334767D01*
X924548D01*
X927088D01*
X929627Y1332228D01*
Y1329689D01*
X927088Y1327150D01*
X922009D01*
X919470Y1329689D01*
X889000Y478785D02*
Y463550D01*
X899157D01*
X904235Y478785D02*
Y463550D01*
X911853D01*
X914392Y466089D01*
Y476246D01*
X911853Y478785D01*
X904235D01*
X929627Y463550D02*
X919470D01*
X929627Y473707D01*
Y476246D01*
X927088Y478785D01*
X922009D01*
X919470Y476246D01*
X88900Y825500D02*
Y840735D01*
X96517D01*
X99057Y838196D01*
Y833118D01*
X96517Y830578D01*
X88900D01*
X93978D02*
X99057Y825500D01*
X104135Y840735D02*
Y825500D01*
X114292D01*
X119370Y838196D02*
X121909Y840735D01*
X126988D01*
X129527Y838196D01*
Y835657D01*
X126988Y833118D01*
X124448D01*
X126988D01*
X129527Y830578D01*
Y828039D01*
X126988Y825500D01*
X121909D01*
X119370Y828039D01*
X99057Y1035046D02*
X96517Y1037585D01*
X91439D01*
X88900Y1035046D01*
Y1024889D01*
X91439Y1022350D01*
X96517D01*
X99057Y1024889D01*
X114292Y1022350D02*
X104135D01*
X114292Y1032507D01*
Y1035046D01*
X111753Y1037585D01*
X106674D01*
X104135Y1035046D01*
X119370Y1024889D02*
X121909Y1022350D01*
X126988D01*
X129527Y1024889D01*
Y1035046D01*
X126988Y1037585D01*
X121909D01*
X119370Y1035046D01*
Y1032507D01*
X121909Y1029967D01*
X129527D01*
X121924Y378457D02*
X119385Y375918D01*
Y370839D01*
X121924Y368300D01*
X132081D01*
X134620Y370839D01*
Y375918D01*
X132081Y378457D01*
X134620Y393692D02*
Y383535D01*
X124463Y393692D01*
X121924D01*
X119385Y391153D01*
Y386074D01*
X121924Y383535D01*
X119385Y398770D02*
Y408927D01*
X121924D01*
X132081Y398770D01*
X134620D01*
X99057Y806446D02*
X96517Y808985D01*
X91439D01*
X88900Y806446D01*
Y796289D01*
X91439Y793750D01*
X96517D01*
X99057Y796289D01*
X104135Y793750D02*
X109213D01*
X106674D01*
Y808985D01*
X104135Y806446D01*
X116831Y793750D02*
X121909D01*
X119370D01*
Y808985D01*
X116831Y806446D01*
X235400Y400000D02*
Y415235D01*
X243018D01*
X245557Y412696D01*
Y407617D01*
X243018Y405078D01*
X235400D01*
X240478D02*
X245557Y400000D01*
X250635D02*
Y415235D01*
X258253D01*
X260792Y412696D01*
Y407617D01*
X258253Y405078D01*
X250635D01*
X265870Y415235D02*
X270949D01*
X268409D01*
Y400000D01*
X265870D01*
X270949D01*
X278566D02*
X283644D01*
X281105D01*
Y415235D01*
X278566Y412696D01*
X854707Y942335D02*
X849628D01*
X852168D01*
Y929639D01*
X849628Y927100D01*
X847089D01*
X844550Y929639D01*
X859785Y927100D02*
X864864D01*
X862324D01*
Y942335D01*
X859785Y939796D01*
X12705Y1785617D02*
Y1780538D01*
Y1783078D01*
X25401D01*
X27940Y1780538D01*
Y1777999D01*
X25401Y1775460D01*
X27940Y1790695D02*
Y1795773D01*
Y1793234D01*
X12705D01*
X15244Y1790695D01*
X12705Y1813548D02*
Y1803391D01*
X20322D01*
X17783Y1808469D01*
Y1811008D01*
X20322Y1813548D01*
X25401D01*
X27940Y1811008D01*
Y1805930D01*
X25401Y1803391D01*
X1339850Y1022350D02*
X1324615D01*
Y1029967D01*
X1327154Y1032507D01*
X1332233D01*
X1334772Y1029967D01*
Y1022350D01*
X1339850Y1040124D02*
Y1045203D01*
X1337311Y1047742D01*
X1332233D01*
X1329693Y1045203D01*
Y1040124D01*
X1332233Y1037585D01*
X1337311D01*
X1339850Y1040124D01*
X1329693Y1052820D02*
X1337311D01*
X1339850Y1055359D01*
X1337311Y1057898D01*
X1339850Y1060438D01*
X1337311Y1062977D01*
X1329693D01*
X1339850Y1075673D02*
Y1070594D01*
X1337311Y1068055D01*
X1332233D01*
X1329693Y1070594D01*
Y1075673D01*
X1332233Y1078212D01*
X1334772D01*
Y1068055D01*
X1329693Y1083290D02*
X1339850D01*
X1334772D01*
X1332233Y1085829D01*
X1329693Y1088369D01*
Y1090908D01*
X1419865Y1032507D02*
Y1027428D01*
Y1029967D01*
X1432561D01*
X1435100Y1027428D01*
Y1024889D01*
X1432561Y1022350D01*
X1422404Y1037585D02*
X1419865Y1040124D01*
Y1045203D01*
X1422404Y1047742D01*
X1424943D01*
X1427482Y1045203D01*
Y1042663D01*
Y1045203D01*
X1430022Y1047742D01*
X1432561D01*
X1435100Y1045203D01*
Y1040124D01*
X1432561Y1037585D01*
X1324615Y946150D02*
X1339850D01*
X1332233D01*
Y956307D01*
X1324615D01*
X1339850D01*
X1324615Y961385D02*
X1339850D01*
Y969003D01*
X1337311Y971542D01*
X1327154D01*
X1324615Y969003D01*
Y961385D01*
Y976620D02*
X1339850D01*
Y984238D01*
X1337311Y986777D01*
X1327154D01*
X1324615Y984238D01*
Y976620D01*
X1419470Y956701D02*
Y951623D01*
Y954162D01*
X1432166D01*
X1434705Y951623D01*
Y949084D01*
X1432166Y946545D01*
X1434705Y969397D02*
X1419470D01*
X1427088Y961780D01*
Y971936D01*
X1339850Y831850D02*
X1324615D01*
Y839467D01*
X1327154Y842007D01*
X1332233D01*
X1334772Y839467D01*
Y831850D01*
X1329693Y847085D02*
X1337311D01*
X1339850Y849624D01*
X1337311Y852163D01*
X1339850Y854703D01*
X1337311Y857242D01*
X1329693D01*
Y862320D02*
X1339850D01*
X1334772D01*
X1332233Y864859D01*
X1329693Y867399D01*
Y869938D01*
X1419865Y843277D02*
Y838198D01*
Y840738D01*
X1432561D01*
X1435100Y838198D01*
Y835659D01*
X1432561Y833120D01*
X1419865Y858512D02*
Y848355D01*
X1427482D01*
X1424943Y853433D01*
Y855973D01*
X1427482Y858512D01*
X1432561D01*
X1435100Y855973D01*
Y850894D01*
X1432561Y848355D01*
X1339850Y768350D02*
X1324615D01*
Y775967D01*
X1327154Y778507D01*
X1332233D01*
X1334772Y775967D01*
Y768350D01*
Y773428D02*
X1339850Y778507D01*
Y783585D02*
Y791203D01*
X1337311Y793742D01*
X1334772Y791203D01*
Y786124D01*
X1332233Y783585D01*
X1329693Y786124D01*
Y793742D01*
X1327154Y801359D02*
X1329693D01*
Y798820D01*
Y803898D01*
Y801359D01*
X1337311D01*
X1339850Y803898D01*
X1419865Y777237D02*
Y772158D01*
Y774697D01*
X1432561D01*
X1435100Y772158D01*
Y769619D01*
X1432561Y767080D01*
X1422404Y782315D02*
X1419865Y784854D01*
Y789933D01*
X1422404Y792472D01*
X1424943D01*
X1427482Y789933D01*
X1430022Y792472D01*
X1432561D01*
X1435100Y789933D01*
Y784854D01*
X1432561Y782315D01*
X1430022D01*
X1427482Y784854D01*
X1424943Y782315D01*
X1422404D01*
X1427482Y784854D02*
Y789933D01*
X806450Y749300D02*
Y764535D01*
X814068D01*
X816607Y761996D01*
Y756917D01*
X814068Y754378D01*
X806450D01*
X811528D02*
X816607Y749300D01*
X821685Y764535D02*
Y749300D01*
X831842D01*
X847077D02*
X836920D01*
X847077Y759457D01*
Y761996D01*
X844538Y764535D01*
X839459D01*
X836920Y761996D01*
X679450Y749300D02*
Y764535D01*
X687067D01*
X689607Y761996D01*
Y756917D01*
X687067Y754378D01*
X679450D01*
X684528D02*
X689607Y749300D01*
X694685Y764535D02*
Y749300D01*
X704842D01*
X709920D02*
X714998D01*
X712459D01*
Y764535D01*
X709920Y761996D01*
X1045205Y1144270D02*
X1032509D01*
X1029970Y1141731D01*
Y1136653D01*
X1032509Y1134113D01*
X1045205D01*
X1042666Y1118878D02*
X1045205Y1121417D01*
Y1126496D01*
X1042666Y1129035D01*
X1040127D01*
X1037588Y1126496D01*
Y1121417D01*
X1035048Y1118878D01*
X1032509D01*
X1029970Y1121417D01*
Y1126496D01*
X1032509Y1129035D01*
X1045205Y1113800D02*
X1029970D01*
Y1106182D01*
X1032509Y1103643D01*
X1035048D01*
X1037588Y1106182D01*
Y1113800D01*
Y1106182D01*
X1040127Y1103643D01*
X1042666D01*
X1045205Y1106182D01*
Y1113800D01*
X744220Y1115060D02*
Y1125217D01*
X749298Y1130295D01*
X754377Y1125217D01*
Y1115060D01*
Y1122678D01*
X744220D01*
X759455Y1125217D02*
Y1115060D01*
Y1120138D01*
X761994Y1122678D01*
X764533Y1125217D01*
X767073D01*
X784847Y1130295D02*
Y1115060D01*
X777229D01*
X774690Y1117599D01*
Y1122678D01*
X777229Y1125217D01*
X784847D01*
X789925D02*
Y1117599D01*
X792464Y1115060D01*
X800082D01*
Y1125217D01*
X805160Y1115060D02*
X810239D01*
X807700D01*
Y1125217D01*
X805160D01*
X817856Y1115060D02*
Y1125217D01*
X825474D01*
X828013Y1122678D01*
Y1115060D01*
X835630D02*
X840709D01*
X843248Y1117599D01*
Y1122678D01*
X840709Y1125217D01*
X835630D01*
X833091Y1122678D01*
Y1117599D01*
X835630Y1115060D01*
X863561D02*
Y1130295D01*
X871179D01*
X873718Y1127756D01*
Y1122678D01*
X871179Y1120138D01*
X863561D01*
X878796Y1125217D02*
Y1115060D01*
Y1120138D01*
X881336Y1122678D01*
X883875Y1125217D01*
X886414D01*
X896571Y1115060D02*
X901649D01*
X904188Y1117599D01*
Y1122678D01*
X901649Y1125217D01*
X896571D01*
X894032Y1122678D01*
Y1117599D01*
X896571Y1115060D01*
X924502D02*
Y1130295D01*
X929580Y1125217D01*
X934658Y1130295D01*
Y1115060D01*
X939737D02*
X944815D01*
X942276D01*
Y1125217D01*
X939737D01*
X962589D02*
X954972D01*
X952433Y1122678D01*
Y1117599D01*
X954972Y1115060D01*
X962589D01*
X967668Y1125217D02*
Y1115060D01*
Y1120138D01*
X970207Y1122678D01*
X972746Y1125217D01*
X975285D01*
X985442Y1115060D02*
X990520D01*
X993059Y1117599D01*
Y1122678D01*
X990520Y1125217D01*
X985442D01*
X982903Y1122678D01*
Y1117599D01*
X985442Y1115060D01*
X57150Y76200D02*
X72385D01*
Y68583D01*
X69846Y66043D01*
X64767D01*
X62228Y68583D01*
Y76200D01*
X57150Y58426D02*
Y53347D01*
X59689Y50808D01*
X64767D01*
X67307Y53347D01*
Y58426D01*
X64767Y60965D01*
X59689D01*
X57150Y58426D01*
X67307Y45730D02*
X59689D01*
X57150Y43191D01*
X59689Y40651D01*
X57150Y38112D01*
X59689Y35573D01*
X67307D01*
X57150Y22877D02*
Y27956D01*
X59689Y30495D01*
X64767D01*
X67307Y27956D01*
Y22877D01*
X64767Y20338D01*
X62228D01*
Y30495D01*
X67307Y15260D02*
X57150D01*
X62228D01*
X64767Y12721D01*
X67307Y10181D01*
Y7642D01*
X72385Y-15210D02*
Y-20289D01*
Y-17750D01*
X57150D01*
Y-15210D01*
Y-20289D01*
Y-27906D02*
X72385D01*
X57150Y-38063D01*
X72385D01*
Y-68533D02*
Y-58376D01*
X64767D01*
X67307Y-63455D01*
Y-65994D01*
X64767Y-68533D01*
X59689D01*
X57150Y-65994D01*
Y-60916D01*
X59689Y-58376D01*
X72385Y-73611D02*
X62228D01*
X57150Y-78690D01*
X62228Y-83768D01*
X72385D01*
X1299215Y793750D02*
X1314450D01*
Y801367D01*
X1311911Y803907D01*
X1309372D01*
X1306832Y801367D01*
Y793750D01*
Y801367D01*
X1304293Y803907D01*
X1301754D01*
X1299215Y801367D01*
Y793750D01*
X1304293Y808985D02*
X1311911D01*
X1314450Y811524D01*
Y819142D01*
X1304293D01*
X1301754Y826759D02*
X1304293D01*
Y824220D01*
Y829298D01*
Y826759D01*
X1311911D01*
X1314450Y829298D01*
X1301754Y839455D02*
X1304293D01*
Y836916D01*
Y841994D01*
Y839455D01*
X1311911D01*
X1314450Y841994D01*
Y852151D02*
Y857230D01*
X1311911Y859769D01*
X1306832D01*
X1304293Y857230D01*
Y852151D01*
X1306832Y849612D01*
X1311911D01*
X1314450Y852151D01*
Y864847D02*
X1304293D01*
Y872465D01*
X1306832Y875004D01*
X1314450D01*
Y880082D02*
Y887700D01*
X1311911Y890239D01*
X1309372Y887700D01*
Y882621D01*
X1306832Y880082D01*
X1304293Y882621D01*
Y890239D01*
Y895317D02*
Y897856D01*
X1306832D01*
Y895317D01*
X1304293D01*
X1311911D02*
Y897856D01*
X1314450D01*
Y895317D01*
X1311911D01*
X1299215Y946150D02*
X1314450D01*
Y956307D01*
Y969003D02*
Y963924D01*
X1311911Y961385D01*
X1306832D01*
X1304293Y963924D01*
Y969003D01*
X1306832Y971542D01*
X1309372D01*
Y961385D01*
X1299215Y986777D02*
X1314450D01*
Y979159D01*
X1311911Y976620D01*
X1306832D01*
X1304293Y979159D01*
Y986777D01*
X1314450Y991855D02*
Y999473D01*
X1311911Y1002012D01*
X1309372Y999473D01*
Y994394D01*
X1306832Y991855D01*
X1304293Y994394D01*
Y1002012D01*
Y1007090D02*
Y1009630D01*
X1306832D01*
Y1007090D01*
X1304293D01*
X1311911D02*
Y1009630D01*
X1314450D01*
Y1007090D01*
X1311911D01*
X1530350Y1019807D02*
X1540507D01*
X1530350Y1009650D01*
X1540507D01*
X1545585D02*
X1550663D01*
X1548124D01*
Y1019807D01*
X1545585D01*
X1558281Y1004572D02*
Y1019807D01*
X1565898D01*
X1568438Y1017268D01*
Y1012189D01*
X1565898Y1009650D01*
X1558281D01*
X1591290Y1022346D02*
Y1019807D01*
X1588751D01*
X1593829D01*
X1591290D01*
Y1012189D01*
X1593829Y1009650D01*
X1601447D02*
X1606525D01*
X1603986D01*
Y1019807D01*
X1601447D01*
X1621760Y1009650D02*
X1616682D01*
X1614143Y1012189D01*
Y1017268D01*
X1616682Y1019807D01*
X1621760D01*
X1624300Y1017268D01*
Y1014728D01*
X1614143D01*
X1530350Y829307D02*
X1540507D01*
X1530350Y819150D01*
X1540507D01*
X1545585D02*
X1550663D01*
X1548124D01*
Y829307D01*
X1545585D01*
X1558281Y814072D02*
Y829307D01*
X1565898D01*
X1568438Y826768D01*
Y821689D01*
X1565898Y819150D01*
X1558281D01*
X1591290Y831846D02*
Y829307D01*
X1588751D01*
X1593829D01*
X1591290D01*
Y821689D01*
X1593829Y819150D01*
X1601447D02*
X1606525D01*
X1603986D01*
Y829307D01*
X1601447D01*
X1621760Y819150D02*
X1616682D01*
X1614143Y821689D01*
Y826768D01*
X1616682Y829307D01*
X1621760D01*
X1624300Y826768D01*
Y824228D01*
X1614143D01*
X975465Y-18300D02*
X990700D01*
Y-10682D01*
X988161Y-8143D01*
X985622D01*
X983083Y-10682D01*
Y-18300D01*
Y-10682D01*
X980543Y-8143D01*
X978004D01*
X975465Y-10682D01*
Y-18300D01*
Y-3065D02*
X990700D01*
Y4553D01*
X988161Y7092D01*
X978004D01*
X975465Y4553D01*
Y-3065D01*
X990700Y12170D02*
X975465D01*
X980543Y17249D01*
X975465Y22327D01*
X990700D01*
X975465Y42640D02*
X990700D01*
Y50258D01*
X988161Y52797D01*
X985622D01*
X983083Y50258D01*
Y42640D01*
Y50258D01*
X980543Y52797D01*
X978004D01*
X975465Y50258D01*
Y42640D01*
Y57875D02*
X990700D01*
Y65493D01*
X988161Y68032D01*
X978004D01*
X975465Y65493D01*
Y57875D01*
X990700Y73110D02*
X975465D01*
Y80728D01*
X978004Y83267D01*
X983083D01*
X985622Y80728D01*
Y73110D01*
X965700Y-18300D02*
X955543D01*
X950465Y-13222D01*
X955543Y-8143D01*
X965700D01*
X958083D01*
Y-18300D01*
X950465Y-3065D02*
X965700D01*
Y4553D01*
X963161Y7092D01*
X953004D01*
X950465Y4553D01*
Y-3065D01*
X965700Y12170D02*
X950465D01*
X955543Y17249D01*
X950465Y22327D01*
X965700D01*
Y42640D02*
X955543D01*
X950465Y47719D01*
X955543Y52797D01*
X965700D01*
X958083D01*
Y42640D01*
X950465Y57875D02*
X965700D01*
Y65493D01*
X963161Y68032D01*
X953004D01*
X950465Y65493D01*
Y57875D01*
X965700Y73110D02*
X950465D01*
Y80728D01*
X953004Y83267D01*
X958083D01*
X960622Y80728D01*
Y73110D01*
X870465Y-18300D02*
X883161D01*
X885700Y-15761D01*
Y-10682D01*
X883161Y-8143D01*
X870465D01*
X873004Y7092D02*
X870465Y4553D01*
Y-526D01*
X873004Y-3065D01*
X875543D01*
X878083Y-526D01*
Y4553D01*
X880622Y7092D01*
X883161D01*
X885700Y4553D01*
Y-526D01*
X883161Y-3065D01*
X870465Y12170D02*
X885700D01*
Y19788D01*
X883161Y22327D01*
X880622D01*
X878083Y19788D01*
Y12170D01*
Y19788D01*
X875543Y22327D01*
X873004D01*
X870465Y19788D01*
Y12170D01*
X885700Y42640D02*
X875543D01*
X870465Y47719D01*
X875543Y52797D01*
X885700D01*
X878083D01*
Y42640D01*
X885700Y57875D02*
X875543Y68032D01*
X870465Y73110D02*
X885700D01*
Y80728D01*
X883161Y83267D01*
X880622D01*
X878083Y80728D01*
Y73110D01*
Y80728D01*
X875543Y83267D01*
X873004D01*
X870465Y80728D01*
Y73110D01*
D45*
X1651770Y439420D02*
G03*
X1651770Y439420I-1500J0D01*
G01*
Y236220D02*
G03*
X1651770Y236220I-1500J0D01*
G01*
X609830Y1078230D02*
G03*
X609830Y1078230I-1500J0D01*
G01*
X624200Y1199800D02*
G03*
X624200Y1199800I-1500J0D01*
G01*
Y1098200D02*
G03*
X624200Y1098200I-1500J0D01*
G01*
X1410800Y1035400D02*
G03*
X1410800Y1035400I-1500J0D01*
G01*
Y959200D02*
G03*
X1410800Y959200I-1500J0D01*
G01*
Y844900D02*
G03*
X1410800Y844900I-1500J0D01*
G01*
Y781400D02*
G03*
X1410800Y781400I-1500J0D01*
G01*
X1039320Y775970D02*
G03*
X1039320Y775970I-1500J0D01*
G01*
Y483870D02*
G03*
X1039320Y483870I-1500J0D01*
G01*
Y1347470D02*
G03*
X1039320Y1347470I-1500J0D01*
G01*
X280900Y422910D02*
G03*
X280900Y422910I-1500J0D01*
G01*
X738100Y279400D02*
G03*
X738100Y279400I-1500J0D01*
G01*
Y254000D02*
G03*
X738100Y254000I-1500J0D01*
G01*
X763500D02*
G03*
X763500Y254000I-1500J0D01*
G01*
Y279400D02*
G03*
X763500Y279400I-1500J0D01*
G01*
X687300D02*
G03*
X687300Y279400I-1500J0D01*
G01*
Y254000D02*
G03*
X687300Y254000I-1500J0D01*
G01*
X712700D02*
G03*
X712700Y254000I-1500J0D01*
G01*
Y279400D02*
G03*
X712700Y279400I-1500J0D01*
G01*
X636500D02*
G03*
X636500Y279400I-1500J0D01*
G01*
Y254000D02*
G03*
X636500Y254000I-1500J0D01*
G01*
X661900D02*
G03*
X661900Y254000I-1500J0D01*
G01*
Y279400D02*
G03*
X661900Y279400I-1500J0D01*
G01*
X585700D02*
G03*
X585700Y279400I-1500J0D01*
G01*
Y254000D02*
G03*
X585700Y254000I-1500J0D01*
G01*
X611100D02*
G03*
X611100Y254000I-1500J0D01*
G01*
Y279400D02*
G03*
X611100Y279400I-1500J0D01*
G01*
X534900D02*
G03*
X534900Y279400I-1500J0D01*
G01*
Y254000D02*
G03*
X534900Y254000I-1500J0D01*
G01*
X560300D02*
G03*
X560300Y254000I-1500J0D01*
G01*
Y279400D02*
G03*
X560300Y279400I-1500J0D01*
G01*
X280900D02*
G03*
X280900Y279400I-1500J0D01*
G01*
Y254000D02*
G03*
X280900Y254000I-1500J0D01*
G01*
X306300D02*
G03*
X306300Y254000I-1500J0D01*
G01*
Y279400D02*
G03*
X306300Y279400I-1500J0D01*
G01*
X331700D02*
G03*
X331700Y279400I-1500J0D01*
G01*
Y254000D02*
G03*
X331700Y254000I-1500J0D01*
G01*
X357100D02*
G03*
X357100Y254000I-1500J0D01*
G01*
Y279400D02*
G03*
X357100Y279400I-1500J0D01*
G01*
X382500D02*
G03*
X382500Y279400I-1500J0D01*
G01*
Y254000D02*
G03*
X382500Y254000I-1500J0D01*
G01*
X407900D02*
G03*
X407900Y254000I-1500J0D01*
G01*
Y279400D02*
G03*
X407900Y279400I-1500J0D01*
G01*
X484100D02*
G03*
X484100Y279400I-1500J0D01*
G01*
Y254000D02*
G03*
X484100Y254000I-1500J0D01*
G01*
X509500D02*
G03*
X509500Y254000I-1500J0D01*
G01*
Y279400D02*
G03*
X509500Y279400I-1500J0D01*
G01*
X458700D02*
G03*
X458700Y279400I-1500J0D01*
G01*
Y254000D02*
G03*
X458700Y254000I-1500J0D01*
G01*
X433300D02*
G03*
X433300Y254000I-1500J0D01*
G01*
Y279400D02*
G03*
X433300Y279400I-1500J0D01*
G01*
X897980Y647570D02*
G03*
X897980Y647570I-1500J0D01*
G01*
X711200Y1034950D02*
X1056640D01*
X711200D02*
Y1212950D01*
X1056640D01*
Y1034950D02*
Y1212950D01*
D46*
X644250Y1270870D02*
G03*
X638250Y1264870I0J-6000D01*
G01*
X644250Y1267870D02*
G03*
X641250Y1264870I0J-3000D01*
G01*
X638250Y1401870D02*
G03*
X644250Y1395870I6000J0D01*
G01*
X641250Y1401870D02*
G03*
X644250Y1398870I3000J0D01*
G01*
X77500Y800100D02*
G03*
X77500Y800100I-52500J0D01*
G01*
X179500Y472840D02*
G03*
X179500Y472840I-52500J0D01*
G01*
X77500Y1028700D02*
G03*
X77500Y1028700I-52500J0D01*
G01*
X24304Y29258D02*
G03*
X24300Y72341I-25012J21539D01*
G01*
X21300Y30404D02*
G03*
X21300Y71196I-21979J20396D01*
G01*
X24304Y-21542D02*
G03*
X24300Y21541I-25012J21539D01*
G01*
X21300Y-20396D02*
G03*
X21300Y20396I-21979J20396D01*
G01*
X24304Y-72342D02*
G03*
X24300Y-29259I-25012J21539D01*
G01*
X21300Y-71196D02*
G03*
X21300Y-30404I-21979J20396D01*
G01*
X1066900Y747500D02*
G03*
X1066900Y776500I0J14500D01*
G01*
Y455400D02*
G03*
X1066900Y484400I0J14500D01*
G01*
Y1319000D02*
G03*
X1066900Y1348000I0J14500D01*
G01*
X245872Y510540D02*
G03*
X236728Y510540I-4572J0D01*
G01*
X512572D02*
G03*
X503428Y510540I-4572J0D01*
G01*
X804672D02*
G03*
X795528Y510540I-4572J0D01*
G01*
X466450Y572370D02*
G03*
X460450Y566370I0J-6000D01*
G01*
X466450Y569370D02*
G03*
X463450Y566370I0J-3000D01*
G01*
X460450Y703370D02*
G03*
X466450Y697370I6000J0D01*
G01*
X463450Y703370D02*
G03*
X466450Y700370I3000J0D01*
G01*
X1049068Y647500D02*
G03*
X1049068Y642500I-18J-2500D01*
G01*
Y627500D02*
G03*
X1049068Y622500I-18J-2500D01*
G01*
X1663300Y444500D02*
Y495300D01*
X1156100Y444500D02*
X1663300D01*
X1156100Y495300D02*
X1663300D01*
X1156100Y444500D02*
Y495300D01*
X1663300Y241300D02*
Y292100D01*
X1156100Y241300D02*
X1663300D01*
X1156100Y292100D02*
X1663300D01*
X1156100Y241300D02*
Y292100D01*
X778250Y1267870D02*
Y1292489D01*
Y1374250D02*
Y1398870D01*
X641250Y1277870D02*
Y1388870D01*
X638250Y1277870D02*
Y1388870D01*
X644250Y1270870D02*
X645750D01*
X641250Y1260870D02*
Y1264870D01*
X638250Y1260870D02*
X641250D01*
X638250Y1277870D02*
X645750D01*
X638250Y1388870D02*
X645750D01*
Y1267870D02*
Y1398870D01*
X644250Y1395870D02*
X645750D01*
X641250Y1401870D02*
Y1405870D01*
X638250D02*
X641250D01*
X638250Y1260870D02*
Y1264870D01*
Y1401870D02*
Y1405870D01*
X758749Y1398870D02*
X778250D01*
X758750Y1267870D02*
X778250D01*
X644250D02*
X723750D01*
X644250Y1398870D02*
X723751D01*
X600800Y1085850D02*
X602800Y1083850D01*
Y1062450D02*
Y1083850D01*
X600800Y1060450D02*
X602800Y1062450D01*
X578300D02*
X580300Y1060450D01*
X578300Y1062450D02*
Y1083850D01*
X580300Y1085850D01*
X600800D01*
X580300Y1060450D02*
X600800D01*
X578300Y1058450D02*
X580300Y1060450D01*
X578300Y1037050D02*
Y1058450D01*
Y1037050D02*
X580300Y1035050D01*
X600800D01*
X602800Y1037050D01*
Y1058450D01*
X600800Y1060450D02*
X602800Y1058450D01*
X633984Y1162050D02*
X674116D01*
Y1187450D02*
X679196Y1184910D01*
Y1164590D02*
Y1184910D01*
X674116Y1162050D02*
X679196Y1164590D01*
X633984Y1162050D02*
X674116D01*
X628904Y1164590D02*
X633984Y1162050D01*
X628904Y1164590D02*
Y1184910D01*
X633984Y1187450D01*
X674116Y1212850D02*
X679196Y1210310D01*
Y1189990D02*
Y1210310D01*
X674116Y1187450D02*
X679196Y1189990D01*
X628904D02*
X633984Y1187450D01*
X628904Y1189990D02*
Y1210310D01*
X633984Y1212850D01*
X674116D01*
X633984Y1111250D02*
X674116D01*
X628904Y1108710D02*
X633984Y1111250D01*
X628904Y1088390D02*
Y1108710D01*
Y1088390D02*
X633984Y1085850D01*
X674116D02*
X679196Y1088390D01*
Y1108710D01*
X674116Y1111250D02*
X679196Y1108710D01*
X628904Y1083310D02*
X633984Y1085850D01*
X628904Y1062990D02*
Y1083310D01*
Y1062990D02*
X633984Y1060450D01*
X674116D02*
X679196Y1062990D01*
Y1083310D01*
X674116Y1085850D02*
X679196Y1083310D01*
X633984Y1035050D02*
X674116D01*
X628904Y1057910D02*
X633984Y1060450D01*
X628904Y1037590D02*
Y1057910D01*
Y1037590D02*
X633984Y1035050D01*
X674116D01*
X679196Y1037590D01*
Y1057910D01*
X674116Y1060450D02*
X679196Y1057910D01*
X-12700Y-107950D02*
X12700D01*
X0Y-120650D02*
Y-95250D01*
Y95250D02*
Y120650D01*
X1250950Y927100D02*
Y939800D01*
X1244600Y933450D02*
X1257300D01*
X66000Y795100D02*
Y805100D01*
X61000Y800100D02*
X71000D01*
X122000Y513840D02*
X132000D01*
X127000Y508840D02*
Y518840D01*
X66000Y1023700D02*
Y1033700D01*
X61000Y1028700D02*
X71000D01*
X1060450Y856949D02*
Y1009950D01*
X883450Y856949D02*
X1060450D01*
X883450D02*
Y1009950D01*
X1060450D01*
X883050Y999450D02*
X883450D01*
X883050Y867449D02*
Y999450D01*
Y867449D02*
X883450D01*
X1098550Y856950D02*
Y1009950D01*
X1275550D01*
Y856950D02*
Y1009950D01*
X1098550Y856950D02*
X1275550D01*
Y867450D02*
X1275950D01*
Y999451D01*
X1275550D02*
X1275950D01*
X1357884Y1022350D02*
X1398016D01*
X1403096Y1024890D01*
Y1045210D01*
X1398016Y1047750D02*
X1403096Y1045210D01*
X1352804D02*
X1357884Y1047750D01*
X1352804Y1024890D02*
Y1045210D01*
Y1024890D02*
X1357884Y1022350D01*
X1398016Y1047750D02*
X1403096Y1050290D01*
Y1070610D01*
X1398016Y1073150D02*
X1403096Y1070610D01*
X1352804D02*
X1357884Y1073150D01*
X1352804Y1050290D02*
Y1070610D01*
Y1050290D02*
X1357884Y1047750D01*
Y1098550D02*
X1398016D01*
Y1073150D02*
X1403096Y1075690D01*
Y1096010D01*
X1398016Y1098550D02*
X1403096Y1096010D01*
X1357884Y1098550D02*
X1398016D01*
X1352804Y1096010D02*
X1357884Y1098550D01*
X1352804Y1075690D02*
Y1096010D01*
Y1075690D02*
X1357884Y1073150D01*
Y996950D02*
X1398016D01*
X1352804Y974090D02*
X1357884Y971550D01*
X1352804Y974090D02*
Y994410D01*
X1357884Y996950D01*
X1398016D01*
X1403096Y994410D01*
Y974090D02*
Y994410D01*
X1398016Y971550D02*
X1403096Y974090D01*
X1352804Y948690D02*
X1357884Y946150D01*
X1352804Y948690D02*
Y969010D01*
X1357884Y971550D01*
X1398016D02*
X1403096Y969010D01*
Y948690D02*
Y969010D01*
X1398016Y946150D02*
X1403096Y948690D01*
X1357884Y946150D02*
X1398016D01*
X1357884Y882650D02*
X1398016D01*
X1352804Y859790D02*
X1357884Y857250D01*
X1352804Y859790D02*
Y880110D01*
X1357884Y882650D01*
X1398016D01*
X1403096Y880110D01*
Y859790D02*
Y880110D01*
X1398016Y857250D02*
X1403096Y859790D01*
X1352804Y834390D02*
X1357884Y831850D01*
X1352804Y834390D02*
Y854710D01*
X1357884Y857250D01*
X1398016D02*
X1403096Y854710D01*
Y834390D02*
Y854710D01*
X1398016Y831850D02*
X1403096Y834390D01*
X1357884Y831850D02*
X1398016D01*
X1357884Y819150D02*
X1398016D01*
X1352804Y796290D02*
X1357884Y793750D01*
X1352804Y796290D02*
Y816610D01*
X1357884Y819150D01*
X1398016D01*
X1403096Y816610D01*
Y796290D02*
Y816610D01*
X1398016Y793750D02*
X1403096Y796290D01*
X1352804Y770890D02*
X1357884Y768350D01*
X1352804Y770890D02*
Y791210D01*
X1357884Y793750D01*
X1398016D02*
X1403096Y791210D01*
Y770890D02*
Y791210D01*
X1398016Y768350D02*
X1403096Y770890D01*
X1357884Y768350D02*
X1398016D01*
X-48000Y-86200D02*
Y86200D01*
X-34750Y60550D02*
Y76200D01*
X-43000Y60550D02*
Y86200D01*
X21300Y71196D02*
Y76200D01*
Y71196D02*
X24300Y72341D01*
Y29259D02*
X24304Y21542D01*
X21300Y30404D02*
X24300Y29259D01*
X21300Y20396D02*
Y30404D01*
X24300Y-21541D02*
X24304Y-29258D01*
X21300Y-20396D02*
X24300Y-21541D01*
X21300Y-30404D02*
Y-20396D01*
X-43000Y41050D02*
X-34750D01*
X-47732Y44750D02*
X-31634D01*
X-47732Y56850D02*
X-31634D01*
X-34750Y60550D02*
X-31634Y57240D01*
Y44360D02*
Y57240D01*
X-34750Y41050D02*
X-31634Y44360D01*
X-34750Y9750D02*
Y41050D01*
X-43000Y9750D02*
Y41050D01*
X-47732Y44750D02*
X-43000Y41050D01*
X-47732Y44750D02*
Y56850D01*
X-43000Y60550D01*
X-34750D01*
X21300Y71196D02*
X24300Y72341D01*
X-43000Y-9750D02*
X-34750D01*
X-47732Y-6050D02*
X-31634D01*
X-47732Y6050D02*
X-31634D01*
X-34750Y9750D02*
X-31634Y6440D01*
Y-6440D02*
Y6440D01*
X-34750Y-9750D02*
X-31634Y-6440D01*
X-34750Y-41050D02*
Y-9750D01*
X-43000Y-41050D02*
Y-9750D01*
X-47732Y-6050D02*
X-43000Y-9750D01*
X-47732Y-6050D02*
Y6050D01*
X-43000Y9750D01*
X-34750D01*
X21300Y20396D02*
X24300Y21541D01*
X-43000Y-60550D02*
X-34750D01*
X-47732Y-56850D02*
X-31634D01*
X-47732Y-44750D02*
X-31634D01*
X-34750Y-41050D02*
X-31634Y-44360D01*
Y-57240D02*
Y-44360D01*
X-34750Y-60550D02*
X-31634Y-57240D01*
X-47732Y-56850D02*
X-43000Y-60550D01*
X-47732Y-56850D02*
Y-44750D01*
X-43000Y-41050D01*
X-34750D01*
Y76200D02*
X24300D01*
Y72341D02*
Y76200D01*
X21300Y-30404D02*
X24300Y-29259D01*
X21300Y-71196D02*
X24300Y-72341D01*
X21300Y-71196D02*
X24300Y-72341D01*
X21300Y-76200D02*
Y-71196D01*
X24300Y-76200D02*
Y-72341D01*
X-34750Y-76200D02*
X24300D01*
X-34750D02*
Y-60550D01*
X-43000Y-86200D02*
Y-60550D01*
X-48000Y-86200D02*
X38000D01*
Y86200D01*
X-48000D02*
X38000D01*
X1004760Y755650D02*
Y759460D01*
Y764540D02*
Y768350D01*
X999680Y764540D02*
X1009840D01*
X999680D02*
X1004760Y759460D01*
X1009840Y764540D01*
X999680Y759460D02*
X1009840D01*
X985949Y740400D02*
X1046300D01*
X960549D02*
X969851D01*
X960549Y783600D02*
X969851D01*
X985949D02*
X1046300D01*
Y776500D02*
X1066900D01*
X1046300Y747500D02*
X1066900D01*
X940800Y740400D02*
X944451D01*
X940800Y783600D02*
X944451D01*
X1046300Y740400D02*
Y783600D01*
X940800Y740400D02*
Y783600D01*
X985949Y448300D02*
X1046300D01*
X960549D02*
X969851D01*
X960549Y491500D02*
X969851D01*
X985949D02*
X1046300D01*
Y484400D02*
X1066900D01*
X1046300Y455400D02*
X1066900D01*
X940800Y448300D02*
X944451D01*
X940800Y491500D02*
X944451D01*
X1046300Y448300D02*
Y491500D01*
X940800Y448300D02*
Y491500D01*
X999680Y467360D02*
X1009840D01*
X1004760D02*
X1009840Y472440D01*
X999680D02*
X1004760Y467360D01*
X999680Y472440D02*
X1009840D01*
X1004760D02*
Y476250D01*
Y463550D02*
Y467360D01*
Y1327150D02*
Y1330960D01*
Y1336040D02*
Y1339850D01*
X999680Y1336040D02*
X1009840D01*
X999680D02*
X1004760Y1330960D01*
X1009840Y1336040D01*
X999680Y1330960D02*
X1009840D01*
X985949Y1311900D02*
X1046300D01*
X960549D02*
X969851D01*
X960549Y1355100D02*
X969851D01*
X985949D02*
X1046300D01*
Y1348000D02*
X1066900D01*
X1046300Y1319000D02*
X1066900D01*
X940800Y1311900D02*
X944451D01*
X940800Y1355100D02*
X944451D01*
X1046300Y1311900D02*
Y1355100D01*
X940800Y1311900D02*
Y1355100D01*
X648000Y737500D02*
X749000D01*
X648000Y532500D02*
Y737500D01*
Y532500D02*
X749000D01*
Y737500D01*
X713500Y720000D02*
Y737500D01*
X683500Y720000D02*
X713500D01*
X683500D02*
Y737500D01*
X775000D02*
X876000D01*
X775000Y532500D02*
Y737500D01*
Y532500D02*
X876000D01*
Y737500D01*
X840500Y720000D02*
Y737500D01*
X810500Y720000D02*
X840500D01*
X810500D02*
Y737500D01*
X216800Y863100D02*
Y964100D01*
X11800D02*
X216800D01*
X11800Y863100D02*
Y964100D01*
Y863100D02*
X216800D01*
X199300Y898600D02*
X216800D01*
X199300D02*
Y928600D01*
X216800D01*
X216800Y1092500D02*
Y1193500D01*
X11800D02*
X216800D01*
X11800Y1092500D02*
Y1193500D01*
Y1092500D02*
X216800D01*
X199300Y1128000D02*
X216800D01*
X199300D02*
Y1158000D01*
X216800D01*
X279400Y437895D02*
X288036Y429259D01*
X270764D02*
X279400Y437895D01*
X759714Y431545D02*
Y437895D01*
X738886Y431545D02*
Y437895D01*
X240284Y453868D02*
X264414D01*
X240284Y485931D02*
X264414D01*
X237236Y454659D02*
X240284D01*
X237236D02*
Y485140D01*
X240284D01*
X307086Y431545D02*
Y437895D01*
X297180Y429259D02*
Y431545D01*
X327914D02*
Y437895D01*
X337820Y429259D02*
Y431545D01*
X776986Y453868D02*
X801116D01*
X776986Y485931D02*
X801116D01*
Y485140D02*
X804164D01*
X801116Y454659D02*
X804164D01*
Y485140D01*
X776986Y453868D02*
Y485931D01*
X728980Y431545D02*
X769620D01*
X330835Y501395D02*
X710565D01*
Y495083D02*
Y510540D01*
X745388Y491489D02*
X752475D01*
Y510540D01*
X774700Y501395D02*
X801116D01*
Y437895D02*
Y501395D01*
X528955Y437895D02*
X801116D01*
X264414Y453868D02*
Y485931D01*
X297180Y431545D02*
X337820D01*
X528955Y429259D02*
Y445517D01*
X487045Y429259D02*
Y445517D01*
X240284Y437895D02*
X487045D01*
X240284D02*
Y501395D01*
X288925D01*
X330835Y495083D02*
Y510540D01*
X288925Y491489D02*
X296013D01*
X288925D02*
Y510540D01*
X804672D02*
X811276D01*
X512572D02*
X795528D01*
X245872D02*
X503428D01*
X230124D02*
X236728D01*
X230124Y429259D02*
Y510540D01*
Y429259D02*
X297180D01*
X337820D02*
X728980D01*
Y431545D01*
X769620Y429259D02*
Y431545D01*
Y429259D02*
X811276D01*
Y510540D01*
X600450Y569370D02*
Y593989D01*
Y675750D02*
Y700370D01*
X463450Y579370D02*
Y690370D01*
X460450Y579370D02*
Y690370D01*
X466450Y572370D02*
X467950D01*
X463450Y562370D02*
Y566370D01*
X460450Y562370D02*
X463450D01*
X460450Y579370D02*
X467950D01*
X460450Y690370D02*
X467950D01*
Y569370D02*
Y700370D01*
X466450Y697370D02*
X467950D01*
X463450Y703370D02*
Y707370D01*
X460450D02*
X463450D01*
X460450Y562370D02*
Y566370D01*
Y703370D02*
Y707370D01*
X580950Y700370D02*
X600450D01*
X580950Y569370D02*
X600450D01*
X466450D02*
X545950D01*
X466450Y700370D02*
X545951D01*
X903550Y656467D02*
Y696300D01*
X1054170Y627500D02*
Y642500D01*
X1056433D02*
Y647500D01*
X1057370Y642500D02*
Y647500D01*
X1049068Y642500D02*
X1060550D01*
X1049068Y647500D02*
X1060550D01*
X1056433Y622500D02*
Y627500D01*
X1057370Y622500D02*
Y627500D01*
X1049068D02*
X1060550D01*
X1049068Y622500D02*
X1060550D01*
X975850Y695180D02*
X1060550D01*
Y574820D02*
Y695180D01*
X975850Y574820D02*
X1060550D01*
X903550Y573700D02*
X939884D01*
X903550Y579000D02*
X940347D01*
X947550Y589562D02*
Y680438D01*
X903550Y691000D02*
X940347D01*
X903550Y696300D02*
X939884D01*
X903550Y573700D02*
Y613533D01*
X753348Y1297007D02*
X746683Y1301768D01*
Y1294627D01*
X753348Y1297007D02*
X743350D01*
X751443Y1370101D02*
X751920Y1369149D01*
X753348Y1367721D01*
X743350D01*
X644464Y1222620D02*
X644940Y1221668D01*
X646368Y1220240D01*
X636370D01*
X644464Y1121020D02*
X644940Y1120068D01*
X646368Y1118640D01*
X636370D01*
X914050Y873150D02*
Y869151D01*
Y871150D01*
X926046D01*
X924047Y873150D01*
X1244950Y993750D02*
Y997749D01*
Y995750D01*
X1232954D01*
X1234953Y993750D01*
X1387536Y1012580D02*
X1387060Y1013532D01*
X1385632Y1014960D01*
X1395630D01*
X1387536Y936380D02*
X1387060Y937332D01*
X1385632Y938760D01*
X1395630D01*
X1388907Y822960D02*
X1388430Y823912D01*
X1387002Y825340D01*
X1397000D01*
X1388907Y759460D02*
X1388430Y760412D01*
X1387002Y761840D01*
X1397000D01*
X-26847Y48093D02*
Y54377D01*
X-22277Y50949D01*
Y52663D01*
X-21706Y53806D01*
X-21134Y54377D01*
X-19420Y54948D01*
X-18278D01*
X-16564Y54377D01*
X-15421Y53234D01*
X-14850Y51521D01*
Y49807D01*
X-15421Y48093D01*
X-15993Y47521D01*
X-17135Y46950D01*
X-24562Y-51900D02*
X-25134Y-50757D01*
X-26847Y-49043D01*
X-14850D01*
X970307Y765810D02*
X960310D01*
Y760812D01*
X961976Y759146D01*
X963642D01*
X965308Y760812D01*
Y765810D01*
Y760812D01*
X966974Y759146D01*
X968641D01*
X970307Y760812D01*
Y765810D01*
X985710D02*
X992374D01*
X995707Y762478D01*
X992374Y759146D01*
X985710D01*
X990708D01*
Y765810D01*
X985710Y473710D02*
X992374D01*
X995707Y470378D01*
X992374Y467046D01*
X985710D01*
X990708D01*
Y473710D01*
X970307D02*
X960310D01*
Y468712D01*
X961976Y467046D01*
X963642D01*
X965308Y468712D01*
Y473710D01*
Y468712D01*
X966974Y467046D01*
X968641D01*
X970307Y468712D01*
Y473710D01*
Y1337310D02*
X960310D01*
Y1332312D01*
X961976Y1330645D01*
X963642D01*
X965308Y1332312D01*
Y1337310D01*
Y1332312D01*
X966974Y1330645D01*
X968641D01*
X970307Y1332312D01*
Y1337310D01*
X985710D02*
X992374D01*
X995707Y1333978D01*
X992374Y1330645D01*
X985710D01*
X990708D01*
Y1337310D01*
X575548Y598507D02*
X568883Y603268D01*
Y596127D01*
X575548Y598507D02*
X565550D01*
X573643Y671601D02*
X574120Y670649D01*
X575548Y669221D01*
X565550D01*
D47*
X-56750Y1772250D02*
X-49250D01*
Y1822250D01*
X-56750D02*
X-49250D01*
D48*
X-56750Y1757250D02*
X5750D01*
X-56750D02*
Y1837250D01*
X5750D01*
Y1757250D02*
Y1837250D01*
X1171183Y500382D02*
X1176020Y507154D01*
X1168764D01*
X1171183Y500382D02*
Y510540D01*
X1164072Y500382D02*
X1165524Y500866D01*
X1166491Y502317D01*
X1166975Y504735D01*
Y506187D01*
X1166491Y508605D01*
X1165524Y510056D01*
X1164072Y510540D01*
X1163105D01*
X1161654Y510056D01*
X1160686Y508605D01*
X1160203Y506187D01*
Y504735D01*
X1160686Y502317D01*
X1161654Y500866D01*
X1163105Y500382D01*
X1164072D01*
X1663700Y429927D02*
X1662733Y429443D01*
X1661281Y427992D01*
Y438150D01*
X1171183Y297182D02*
X1176020Y303954D01*
X1168764D01*
X1171183Y297182D02*
Y307340D01*
X1164072Y297182D02*
X1165524Y297666D01*
X1166491Y299117D01*
X1166975Y301535D01*
Y302987D01*
X1166491Y305405D01*
X1165524Y306856D01*
X1164072Y307340D01*
X1163105D01*
X1161654Y306856D01*
X1160686Y305405D01*
X1160203Y302987D01*
Y301535D01*
X1160686Y299117D01*
X1161654Y297666D01*
X1163105Y297182D01*
X1164072D01*
X1663700Y226727D02*
X1662733Y226243D01*
X1661281Y224792D01*
Y234950D01*
X760487Y506728D02*
X755650Y499956D01*
X762906D01*
X760487Y506728D02*
Y496570D01*
X767598Y506728D02*
X766146Y506244D01*
X765179Y504793D01*
X764695Y502374D01*
Y500923D01*
X765179Y498505D01*
X766146Y497054D01*
X767598Y496570D01*
X768565D01*
X770016Y497054D01*
X770984Y498505D01*
X771467Y500923D01*
Y502374D01*
X770984Y504793D01*
X770016Y506244D01*
X768565Y506728D01*
X767598D01*
M02*
