G04 Layer_Color=128*
%FSLAX44Y44*%
%MOMM*%
G71*
G01*
G75*
%ADD83C,0.0508*%
D83*
X877700Y41700D02*
X886700D01*
X882200Y37200D02*
Y46200D01*
X877700Y21700D02*
X886700D01*
X882200Y17200D02*
Y26200D01*
X903900Y21700D02*
X912900D01*
X908400Y17200D02*
Y26200D01*
X903900Y41700D02*
X912900D01*
X908400Y37200D02*
Y46200D01*
X190300Y-223300D02*
X220300D01*
X205300Y-238300D02*
Y-208300D01*
X190300Y266700D02*
X220300D01*
X205300Y251700D02*
Y281700D01*
X770300Y-223300D02*
X800300D01*
X785300Y-238300D02*
Y-208300D01*
X770300Y266700D02*
X800300D01*
X785300Y251700D02*
Y281700D01*
X184300Y-240300D02*
X192300D01*
X188300Y-244300D02*
Y-236300D01*
X218300Y-240300D02*
X226300D01*
X222300Y-244300D02*
Y-236300D01*
X218300Y-206300D02*
X226300D01*
X222300Y-210300D02*
Y-202300D01*
X184300Y-206300D02*
X192300D01*
X188300Y-210300D02*
Y-202300D01*
X201300Y-199300D02*
X209300D01*
X205300Y-203300D02*
Y-195300D01*
X225300Y-223300D02*
X233300D01*
X229300Y-227300D02*
Y-219300D01*
X201300Y-247300D02*
X209300D01*
X205300Y-251300D02*
Y-243300D01*
X177300Y-223300D02*
X185300D01*
X181300Y-227300D02*
Y-219300D01*
X764300Y-240300D02*
X772300D01*
X768300Y-244300D02*
Y-236300D01*
X798300Y-240300D02*
X806300D01*
X802300Y-244300D02*
Y-236300D01*
X798300Y-206300D02*
X806300D01*
X802300Y-210300D02*
Y-202300D01*
X764300Y-206300D02*
X772300D01*
X768300Y-210300D02*
Y-202300D01*
X781300Y-199300D02*
X789300D01*
X785300Y-203300D02*
Y-195300D01*
X805300Y-223300D02*
X813300D01*
X809300Y-227300D02*
Y-219300D01*
X781300Y-247300D02*
X789300D01*
X785300Y-251300D02*
Y-243300D01*
X757300Y-223300D02*
X765300D01*
X761300Y-227300D02*
Y-219300D01*
X764300Y249700D02*
X772300D01*
X768300Y245700D02*
Y253700D01*
X798300Y249700D02*
X806300D01*
X802300Y245700D02*
Y253700D01*
X798300Y283700D02*
X806300D01*
X802300Y279700D02*
Y287700D01*
X764300Y283700D02*
X772300D01*
X768300Y279700D02*
Y287700D01*
X781300Y290700D02*
X789300D01*
X785300Y286700D02*
Y294700D01*
X805300Y266700D02*
X813300D01*
X809300Y262700D02*
Y270700D01*
X781300Y242700D02*
X789300D01*
X785300Y238700D02*
Y246700D01*
X757300Y266700D02*
X765300D01*
X761300Y262700D02*
Y270700D01*
X184300Y249700D02*
X192300D01*
X188300Y245700D02*
Y253700D01*
X218300Y249700D02*
X226300D01*
X222300Y245700D02*
Y253700D01*
X218300Y283700D02*
X226300D01*
X222300Y279700D02*
Y287700D01*
X184300Y283700D02*
X192300D01*
X188300Y279700D02*
Y287700D01*
X201300Y290700D02*
X209300D01*
X205300Y286700D02*
Y294700D01*
X225300Y266700D02*
X233300D01*
X229300Y262700D02*
Y270700D01*
X201300Y242700D02*
X209300D01*
X205300Y238700D02*
Y246700D01*
X177300Y266700D02*
X185300D01*
X181300Y262700D02*
Y270700D01*
X170700Y1510850D02*
X178700D01*
X174700Y1506850D02*
Y1514850D01*
X194700Y1486850D02*
X202700D01*
X198700Y1482850D02*
Y1490850D01*
X218700Y1510850D02*
X226700D01*
X222700Y1506850D02*
Y1514850D01*
X194700Y1534850D02*
X202700D01*
X198700Y1530850D02*
Y1538850D01*
X177700Y1527850D02*
X185700D01*
X181700Y1523850D02*
Y1531850D01*
X211700Y1527850D02*
X219700D01*
X215700Y1523850D02*
Y1531850D01*
X211700Y1493850D02*
X219700D01*
X215700Y1489850D02*
Y1497850D01*
X177700Y1493850D02*
X185700D01*
X181700Y1489850D02*
Y1497850D01*
X183700Y1510850D02*
X213700D01*
X198700Y1495850D02*
Y1525850D01*
X950700Y1510850D02*
X958700D01*
X954700Y1506850D02*
Y1514850D01*
X974700Y1486850D02*
X982700D01*
X978700Y1482850D02*
Y1490850D01*
X998700Y1510850D02*
X1006700D01*
X1002700Y1506850D02*
Y1514850D01*
X974700Y1534850D02*
X982700D01*
X978700Y1530850D02*
Y1538850D01*
X957700Y1527850D02*
X965700D01*
X961700Y1523850D02*
Y1531850D01*
X991700Y1527850D02*
X999700D01*
X995700Y1523850D02*
Y1531850D01*
X991700Y1493850D02*
X999700D01*
X995700Y1489850D02*
Y1497850D01*
X957700Y1493850D02*
X965700D01*
X961700Y1489850D02*
Y1497850D01*
X963700Y1510850D02*
X993700D01*
X978700Y1495850D02*
Y1525850D01*
X963700Y1930850D02*
X993700D01*
X978700Y1915850D02*
Y1945850D01*
X957700Y1913850D02*
X965700D01*
X961700Y1909850D02*
Y1917850D01*
X991700Y1913850D02*
X999700D01*
X995700Y1909850D02*
Y1917850D01*
X991700Y1947850D02*
X999700D01*
X995700Y1943850D02*
Y1951850D01*
X957700Y1947850D02*
X965700D01*
X961700Y1943850D02*
Y1951850D01*
X974700Y1954850D02*
X982700D01*
X978700Y1950850D02*
Y1958850D01*
X998700Y1930850D02*
X1006700D01*
X1002700Y1926850D02*
Y1934850D01*
X974700Y1906850D02*
X982700D01*
X978700Y1902850D02*
Y1910850D01*
X950700Y1930850D02*
X958700D01*
X954700Y1926850D02*
Y1934850D01*
X183700Y1930850D02*
X213700D01*
X198700Y1915850D02*
Y1945850D01*
X177700Y1913850D02*
X185700D01*
X181700Y1909850D02*
Y1917850D01*
X211700Y1913850D02*
X219700D01*
X215700Y1909850D02*
Y1917850D01*
X211700Y1947850D02*
X219700D01*
X215700Y1943850D02*
Y1951850D01*
X177700Y1947850D02*
X185700D01*
X181700Y1943850D02*
Y1951850D01*
X194700Y1954850D02*
X202700D01*
X198700Y1950850D02*
Y1958850D01*
X218700Y1930850D02*
X226700D01*
X222700Y1926850D02*
Y1934850D01*
X194700Y1906850D02*
X202700D01*
X198700Y1902850D02*
Y1910850D01*
X170700Y1930850D02*
X178700D01*
X174700Y1926850D02*
Y1934850D01*
X192700Y1760850D02*
X204700D01*
X198700Y1754850D02*
Y1766850D01*
X192700Y1810850D02*
X204700D01*
X198700Y1804850D02*
Y1816850D01*
X998800Y1200150D02*
X1007800D01*
X1003300Y1195650D02*
Y1204650D01*
X973400Y1200150D02*
X982400D01*
X977900Y1195650D02*
Y1204650D01*
X948000Y1200150D02*
X957000D01*
X952500Y1195650D02*
Y1204650D01*
X922600Y1200150D02*
X931600D01*
X927100Y1195650D02*
Y1204650D01*
X897200Y1200150D02*
X906200D01*
X901700Y1195650D02*
Y1204650D01*
X871800Y1200150D02*
X880800D01*
X876300Y1195650D02*
Y1204650D01*
X846400Y1200150D02*
X855400D01*
X850900Y1195650D02*
Y1204650D01*
X821000Y1200150D02*
X830000D01*
X825500Y1195650D02*
Y1204650D01*
X795600Y1200150D02*
X804600D01*
X800100Y1195650D02*
Y1204650D01*
X770200Y1200150D02*
X779200D01*
X774700Y1195650D02*
Y1204650D01*
X744800Y1200150D02*
X753800D01*
X749300Y1195650D02*
Y1204650D01*
X719400Y1200150D02*
X728400D01*
X723900Y1195650D02*
Y1204650D01*
X719400Y1047750D02*
X728400D01*
X723900Y1043250D02*
Y1052250D01*
X744800Y1047750D02*
X753800D01*
X749300Y1043250D02*
Y1052250D01*
X770200Y1047750D02*
X779200D01*
X774700Y1043250D02*
Y1052250D01*
X795600Y1047750D02*
X804600D01*
X800100Y1043250D02*
Y1052250D01*
X821000Y1047750D02*
X830000D01*
X825500Y1043250D02*
Y1052250D01*
X846400Y1047750D02*
X855400D01*
X850900Y1043250D02*
Y1052250D01*
X871800Y1047750D02*
X880800D01*
X876300Y1043250D02*
Y1052250D01*
X897200Y1047750D02*
X906200D01*
X901700Y1043250D02*
Y1052250D01*
X922600Y1047750D02*
X931600D01*
X927100Y1043250D02*
Y1052250D01*
X948000Y1047750D02*
X957000D01*
X952500Y1043250D02*
Y1052250D01*
X973400Y1047750D02*
X982400D01*
X977900Y1043250D02*
Y1052250D01*
X998800Y1047750D02*
X1007800D01*
X1003300Y1043250D02*
Y1052250D01*
X-10000Y1708350D02*
X0D01*
X-5000Y1703350D02*
Y1713350D01*
X-10000Y1733350D02*
X0D01*
X-5000Y1728350D02*
Y1738350D01*
X350600Y457200D02*
X360600D01*
X355600Y452200D02*
Y462200D01*
X350600Y482600D02*
X360600D01*
X355600Y477600D02*
Y487600D01*
X325200Y457200D02*
X335200D01*
X330200Y452200D02*
Y462200D01*
X325200Y482600D02*
X335200D01*
X330200Y477600D02*
Y487600D01*
X299800Y457200D02*
X309800D01*
X304800Y452200D02*
Y462200D01*
X299800Y482600D02*
X309800D01*
X304800Y477600D02*
Y487600D01*
X274400Y482600D02*
X284400D01*
X279400Y477600D02*
Y487600D01*
X274400Y457200D02*
X284400D01*
X279400Y452200D02*
Y462200D01*
X249000Y482600D02*
X259000D01*
X254000Y477600D02*
Y487600D01*
X249000Y457200D02*
X259000D01*
X254000Y452200D02*
Y462200D01*
X477600Y457200D02*
X487600D01*
X482600Y452200D02*
Y462200D01*
X477600Y482600D02*
X487600D01*
X482600Y477600D02*
Y487600D01*
X452200Y457200D02*
X462200D01*
X457200Y452200D02*
Y462200D01*
X452200Y482600D02*
X462200D01*
X457200Y477600D02*
Y487600D01*
X426800Y457200D02*
X436800D01*
X431800Y452200D02*
Y462200D01*
X426800Y482600D02*
X436800D01*
X431800Y477600D02*
Y487600D01*
X401400Y482600D02*
X411400D01*
X406400Y477600D02*
Y487600D01*
X401400Y457200D02*
X411400D01*
X406400Y452200D02*
Y462200D01*
X376000Y482600D02*
X386000D01*
X381000Y477600D02*
Y487600D01*
X376000Y457200D02*
X386000D01*
X381000Y452200D02*
Y462200D01*
X604600Y457200D02*
X614600D01*
X609600Y452200D02*
Y462200D01*
X604600Y482600D02*
X614600D01*
X609600Y477600D02*
Y487600D01*
X579200Y457200D02*
X589200D01*
X584200Y452200D02*
Y462200D01*
X579200Y482600D02*
X589200D01*
X584200Y477600D02*
Y487600D01*
X553800Y457200D02*
X563800D01*
X558800Y452200D02*
Y462200D01*
X553800Y482600D02*
X563800D01*
X558800Y477600D02*
Y487600D01*
X528400Y482600D02*
X538400D01*
X533400Y477600D02*
Y487600D01*
X528400Y457200D02*
X538400D01*
X533400Y452200D02*
Y462200D01*
X503000Y482600D02*
X513000D01*
X508000Y477600D02*
Y487600D01*
X503000Y457200D02*
X513000D01*
X508000Y452200D02*
Y462200D01*
X731600Y457200D02*
X741600D01*
X736600Y452200D02*
Y462200D01*
X731600Y482600D02*
X741600D01*
X736600Y477600D02*
Y487600D01*
X706200Y457200D02*
X716200D01*
X711200Y452200D02*
Y462200D01*
X706200Y482600D02*
X716200D01*
X711200Y477600D02*
Y487600D01*
X680800Y457200D02*
X690800D01*
X685800Y452200D02*
Y462200D01*
X680800Y482600D02*
X690800D01*
X685800Y477600D02*
Y487600D01*
X655400Y482600D02*
X665400D01*
X660400Y477600D02*
Y487600D01*
X655400Y457200D02*
X665400D01*
X660400Y452200D02*
Y462200D01*
X630000Y482600D02*
X640000D01*
X635000Y477600D02*
Y487600D01*
X630000Y457200D02*
X640000D01*
X635000Y452200D02*
Y462200D01*
X198200Y1187450D02*
X208200D01*
X203200Y1182450D02*
Y1192450D01*
X122000Y1187450D02*
X132000D01*
X127000Y1182450D02*
Y1192450D01*
X71200Y1187450D02*
X81200D01*
X76200Y1182450D02*
Y1192450D01*
X20400Y1187450D02*
X30400D01*
X25400Y1182450D02*
Y1192450D01*
X198200Y1111250D02*
X208200D01*
X203200Y1106250D02*
Y1116250D01*
X122000Y1111250D02*
X132000D01*
X127000Y1106250D02*
Y1116250D01*
X71200Y1111250D02*
X81200D01*
X76200Y1106250D02*
Y1116250D01*
X20400Y1111250D02*
X30400D01*
X25400Y1106250D02*
Y1116250D01*
X198200Y945350D02*
X208200D01*
X203200Y940350D02*
Y950350D01*
X122000Y945350D02*
X132000D01*
X127000Y940350D02*
Y950350D01*
X71200Y945350D02*
X81200D01*
X76200Y940350D02*
Y950350D01*
X20400Y945350D02*
X30400D01*
X25400Y940350D02*
Y950350D01*
X198200Y869150D02*
X208200D01*
X203200Y864150D02*
Y874150D01*
X122000Y869150D02*
X132000D01*
X127000Y864150D02*
Y874150D01*
X71200Y869150D02*
X81200D01*
X76200Y864150D02*
Y874150D01*
X20400Y869150D02*
X30400D01*
X25400Y864150D02*
Y874150D01*
X782400Y723900D02*
X792400D01*
X787400Y718900D02*
Y728900D01*
X782400Y647700D02*
X792400D01*
X787400Y642700D02*
Y652700D01*
X782400Y596900D02*
X792400D01*
X787400Y591900D02*
Y601900D01*
X782400Y546100D02*
X792400D01*
X787400Y541100D02*
Y551100D01*
X858600Y723900D02*
X868600D01*
X863600Y718900D02*
Y728900D01*
X858600Y647700D02*
X868600D01*
X863600Y642700D02*
Y652700D01*
X858600Y596900D02*
X868600D01*
X863600Y591900D02*
Y601900D01*
X858600Y546100D02*
X868600D01*
X863600Y541100D02*
Y551100D01*
X655400Y723900D02*
X665400D01*
X660400Y718900D02*
Y728900D01*
X655400Y647700D02*
X665400D01*
X660400Y642700D02*
Y652700D01*
X655400Y596900D02*
X665400D01*
X660400Y591900D02*
Y601900D01*
X655400Y546100D02*
X665400D01*
X660400Y541100D02*
Y551100D01*
X731600Y723900D02*
X741600D01*
X736600Y718900D02*
Y728900D01*
X731600Y647700D02*
X741600D01*
X736600Y642700D02*
Y652700D01*
X731600Y596900D02*
X741600D01*
X736600Y591900D02*
Y601900D01*
X731600Y546100D02*
X741600D01*
X736600Y541100D02*
Y551100D01*
X973400Y1320800D02*
X982400D01*
X977900Y1316300D02*
Y1325300D01*
X948000Y1320800D02*
X957000D01*
X952500Y1316300D02*
Y1325300D01*
X973400Y1346200D02*
X982400D01*
X977900Y1341700D02*
Y1350700D01*
X948000Y1346200D02*
X957000D01*
X952500Y1341700D02*
Y1350700D01*
X948000Y482600D02*
X957000D01*
X952500Y478100D02*
Y487100D01*
X973400Y482600D02*
X982400D01*
X977900Y478100D02*
Y487100D01*
X948000Y457200D02*
X957000D01*
X952500Y452700D02*
Y461700D01*
X973400Y457200D02*
X982400D01*
X977900Y452700D02*
Y461700D01*
X973400Y749300D02*
X982400D01*
X977900Y744800D02*
Y753800D01*
X948000Y749300D02*
X957000D01*
X952500Y744800D02*
Y753800D01*
X973400Y774700D02*
X982400D01*
X977900Y770200D02*
Y779200D01*
X948000Y774700D02*
X957000D01*
X952500Y770200D02*
Y779200D01*
X-7000Y50800D02*
X7000D01*
X0Y43800D02*
Y57800D01*
X-7000Y0D02*
X7000D01*
X0Y-7000D02*
Y7000D01*
X-7000Y-50800D02*
X7000D01*
X0Y-57800D02*
Y-43800D01*
X763850Y1298500D02*
X772850D01*
X768350Y1294000D02*
Y1303000D01*
X763850Y1323500D02*
X772850D01*
X768350Y1319000D02*
Y1328000D01*
X763850Y1343500D02*
X772850D01*
X768350Y1339000D02*
Y1348000D01*
X729750Y1267800D02*
X752750D01*
X741250Y1256300D02*
Y1279300D01*
X729750Y1399200D02*
X752750D01*
X741250Y1387700D02*
Y1410700D01*
X763850Y1368500D02*
X772850D01*
X768350Y1364000D02*
Y1373000D01*
X1385650Y781050D02*
X1395650D01*
X1390650Y776050D02*
Y786050D01*
X1385650Y806450D02*
X1395650D01*
X1390650Y801450D02*
Y811450D01*
X1360250Y781050D02*
X1370250D01*
X1365250Y776050D02*
Y786050D01*
X1360250Y806450D02*
X1370250D01*
X1365250Y801450D02*
Y811450D01*
X946350Y574800D02*
X969350D01*
X957850Y563300D02*
Y586300D01*
X925750Y647500D02*
X935750D01*
X930750Y642500D02*
Y652500D01*
X925750Y622500D02*
X935750D01*
X930750Y617500D02*
Y627500D01*
X905750Y622500D02*
X915750D01*
X910750Y617500D02*
Y627500D01*
X905750Y647500D02*
X915750D01*
X910750Y642500D02*
Y652500D01*
X946350Y695200D02*
X969350D01*
X957850Y683700D02*
Y706700D01*
X586050Y600000D02*
X595050D01*
X590550Y595500D02*
Y604500D01*
X586050Y625000D02*
X595050D01*
X590550Y620500D02*
Y629500D01*
X586050Y645000D02*
X595050D01*
X590550Y640500D02*
Y649500D01*
X551950Y569300D02*
X574950D01*
X563450Y557800D02*
Y580800D01*
X551950Y700700D02*
X574950D01*
X563450Y689200D02*
Y712200D01*
X586050Y670000D02*
X595050D01*
X590550Y665500D02*
Y674500D01*
X1385650Y844550D02*
X1395650D01*
X1390650Y839550D02*
Y849550D01*
X1385650Y869950D02*
X1395650D01*
X1390650Y864950D02*
Y874950D01*
X1360250Y844550D02*
X1370250D01*
X1365250Y839550D02*
Y849550D01*
X1360250Y869950D02*
X1370250D01*
X1365250Y864950D02*
Y874950D01*
X1385650Y958850D02*
X1395650D01*
X1390650Y953850D02*
Y963850D01*
X1385650Y984250D02*
X1395650D01*
X1390650Y979250D02*
Y989250D01*
X1360250Y958850D02*
X1370250D01*
X1365250Y953850D02*
Y963850D01*
X1360250Y984250D02*
X1370250D01*
X1365250Y979250D02*
Y989250D01*
X1360250Y1060450D02*
X1370250D01*
X1365250Y1055450D02*
Y1065450D01*
X1385650Y1060450D02*
X1395650D01*
X1390650Y1055450D02*
Y1065450D01*
X1385650Y1035050D02*
X1395650D01*
X1390650Y1030050D02*
Y1040050D01*
X1385650Y1085850D02*
X1395650D01*
X1390650Y1080850D02*
Y1090850D01*
X1360250Y1035050D02*
X1370250D01*
X1365250Y1030050D02*
Y1040050D01*
X1360250Y1085850D02*
X1370250D01*
X1365250Y1080850D02*
Y1090850D01*
X1158750Y990601D02*
X1190750D01*
X1174750Y974601D02*
Y1006600D01*
X1259650Y965201D02*
X1267650D01*
X1263650Y961200D02*
Y969200D01*
X1259650Y939800D02*
X1267650D01*
X1263650Y935800D02*
Y943800D01*
X1259650Y914400D02*
X1267650D01*
X1263650Y910400D02*
Y918400D01*
X1259650Y889000D02*
X1267650D01*
X1263650Y885000D02*
Y893000D01*
X1234250Y977900D02*
X1242250D01*
X1238250Y973901D02*
Y981900D01*
X1234250Y952500D02*
X1242250D01*
X1238250Y948500D02*
Y956500D01*
X1234250Y927100D02*
X1242250D01*
X1238250Y923100D02*
Y931100D01*
X1234250Y901740D02*
X1242250D01*
X1238250Y897740D02*
Y905740D01*
X1158750Y876300D02*
X1190750D01*
X1174750Y860300D02*
Y892300D01*
X968250Y876300D02*
X1000250D01*
X984250Y860300D02*
Y892299D01*
X891350Y901700D02*
X899350D01*
X895350Y897700D02*
Y905699D01*
X891350Y927100D02*
X899350D01*
X895350Y923100D02*
Y931100D01*
X891350Y952500D02*
X899350D01*
X895350Y948500D02*
Y956500D01*
X891350Y977900D02*
X899350D01*
X895350Y973900D02*
Y981900D01*
X916750Y888999D02*
X924750D01*
X920750Y885000D02*
Y892999D01*
X916750Y914400D02*
X924750D01*
X920750Y910400D02*
Y918400D01*
X916750Y939800D02*
X924750D01*
X920750Y935800D02*
Y943800D01*
X916750Y965160D02*
X924750D01*
X920750Y961160D02*
Y969160D01*
X968250Y990600D02*
X1000250D01*
X984250Y974600D02*
Y1006600D01*
X122500Y1059250D02*
X131500D01*
X127000Y1054750D02*
Y1063750D01*
X122500Y1009250D02*
X131500D01*
X127000Y1004750D02*
Y1013750D01*
X122500Y497840D02*
X131500D01*
X127000Y493340D02*
Y502340D01*
X122500Y447840D02*
X131500D01*
X127000Y443340D02*
Y452340D01*
X122500Y817950D02*
X131500D01*
X127000Y813450D02*
Y822450D01*
X122500Y767950D02*
X131500D01*
X127000Y763450D02*
Y772450D01*
X904000Y-242000D02*
X912000D01*
X908000Y-246000D02*
Y-238000D01*
X910000Y-225000D02*
X940000D01*
X925000Y-240000D02*
Y-210000D01*
X897000Y-225000D02*
X905000D01*
X901000Y-229000D02*
Y-221000D01*
X904000Y-208000D02*
X912000D01*
X908000Y-212000D02*
Y-204000D01*
X921000Y-249000D02*
X929000D01*
X925000Y-253000D02*
Y-245000D01*
X938000Y-242000D02*
X946000D01*
X942000Y-246000D02*
Y-238000D01*
X921000Y-201000D02*
X929000D01*
X925000Y-205000D02*
Y-197000D01*
X945000Y-225000D02*
X953000D01*
X949000Y-229000D02*
Y-221000D01*
X938000Y-208000D02*
X946000D01*
X942000Y-212000D02*
Y-204000D01*
X54000Y-242000D02*
X62000D01*
X58000Y-246000D02*
Y-238000D01*
X60000Y-225000D02*
X90000D01*
X75000Y-240000D02*
Y-210000D01*
X47000Y-225000D02*
X55000D01*
X51000Y-229000D02*
Y-221000D01*
X54000Y-208000D02*
X62000D01*
X58000Y-212000D02*
Y-204000D01*
X71000Y-249000D02*
X79000D01*
X75000Y-253000D02*
Y-245000D01*
X88000Y-242000D02*
X96000D01*
X92000Y-246000D02*
Y-238000D01*
X71000Y-201000D02*
X79000D01*
X75000Y-205000D02*
Y-197000D01*
X95000Y-225000D02*
X103000D01*
X99000Y-229000D02*
Y-221000D01*
X88000Y-208000D02*
X96000D01*
X92000Y-212000D02*
Y-204000D01*
X904000Y308000D02*
X912000D01*
X908000Y304000D02*
Y312000D01*
X910000Y325000D02*
X940000D01*
X925000Y310000D02*
Y340000D01*
X897000Y325000D02*
X905000D01*
X901000Y321000D02*
Y329000D01*
X904000Y342000D02*
X912000D01*
X908000Y338000D02*
Y346000D01*
X921000Y301000D02*
X929000D01*
X925000Y297000D02*
Y305000D01*
X938000Y308000D02*
X946000D01*
X942000Y304000D02*
Y312000D01*
X921000Y349000D02*
X929000D01*
X925000Y345000D02*
Y353000D01*
X945000Y325000D02*
X953000D01*
X949000Y321000D02*
Y329000D01*
X938000Y342000D02*
X946000D01*
X942000Y338000D02*
Y346000D01*
X54000Y308000D02*
X62000D01*
X58000Y304000D02*
Y312000D01*
X60000Y325000D02*
X90000D01*
X75000Y310000D02*
Y340000D01*
X47000Y325000D02*
X55000D01*
X51000Y321000D02*
Y329000D01*
X54000Y342000D02*
X62000D01*
X58000Y338000D02*
Y346000D01*
X71000Y301000D02*
X79000D01*
X75000Y297000D02*
Y305000D01*
X88000Y308000D02*
X96000D01*
X92000Y304000D02*
Y312000D01*
X71000Y349000D02*
X79000D01*
X75000Y345000D02*
Y353000D01*
X95000Y325000D02*
X103000D01*
X99000Y321000D02*
Y329000D01*
X88000Y342000D02*
X96000D01*
X92000Y338000D02*
Y346000D01*
X904000Y1433000D02*
X912000D01*
X908000Y1429000D02*
Y1437000D01*
X910000Y1450000D02*
X940000D01*
X925000Y1435000D02*
Y1465000D01*
X897000Y1450000D02*
X905000D01*
X901000Y1446000D02*
Y1454000D01*
X904000Y1467000D02*
X912000D01*
X908000Y1463000D02*
Y1471000D01*
X921000Y1426000D02*
X929000D01*
X925000Y1422000D02*
Y1430000D01*
X938000Y1433000D02*
X946000D01*
X942000Y1429000D02*
Y1437000D01*
X921000Y1474000D02*
X929000D01*
X925000Y1470000D02*
Y1478000D01*
X945000Y1450000D02*
X953000D01*
X949000Y1446000D02*
Y1454000D01*
X938000Y1467000D02*
X946000D01*
X942000Y1463000D02*
Y1471000D01*
X54000Y1433000D02*
X62000D01*
X58000Y1429000D02*
Y1437000D01*
X60000Y1450000D02*
X90000D01*
X75000Y1435000D02*
Y1465000D01*
X47000Y1450000D02*
X55000D01*
X51000Y1446000D02*
Y1454000D01*
X54000Y1467000D02*
X62000D01*
X58000Y1463000D02*
Y1471000D01*
X71000Y1426000D02*
X79000D01*
X75000Y1422000D02*
Y1430000D01*
X88000Y1433000D02*
X96000D01*
X92000Y1429000D02*
Y1437000D01*
X71000Y1474000D02*
X79000D01*
X75000Y1470000D02*
Y1478000D01*
X95000Y1450000D02*
X103000D01*
X99000Y1446000D02*
Y1454000D01*
X88000Y1467000D02*
X96000D01*
X92000Y1463000D02*
Y1471000D01*
X904000Y1883000D02*
X912000D01*
X908000Y1879000D02*
Y1887000D01*
X910000Y1900000D02*
X940000D01*
X925000Y1885000D02*
Y1915000D01*
X897000Y1900000D02*
X905000D01*
X901000Y1896000D02*
Y1904000D01*
X904000Y1917000D02*
X912000D01*
X908000Y1913000D02*
Y1921000D01*
X921000Y1876000D02*
X929000D01*
X925000Y1872000D02*
Y1880000D01*
X938000Y1883000D02*
X946000D01*
X942000Y1879000D02*
Y1887000D01*
X921000Y1924000D02*
X929000D01*
X925000Y1920000D02*
Y1928000D01*
X945000Y1900000D02*
X953000D01*
X949000Y1896000D02*
Y1904000D01*
X938000Y1917000D02*
X946000D01*
X942000Y1913000D02*
Y1921000D01*
X54000Y1883000D02*
X62000D01*
X58000Y1879000D02*
Y1887000D01*
X60000Y1900000D02*
X90000D01*
X75000Y1885000D02*
Y1915000D01*
X47000Y1900000D02*
X55000D01*
X51000Y1896000D02*
Y1904000D01*
X54000Y1917000D02*
X62000D01*
X58000Y1913000D02*
Y1921000D01*
X71000Y1876000D02*
X79000D01*
X75000Y1872000D02*
Y1880000D01*
X88000Y1883000D02*
X96000D01*
X92000Y1879000D02*
Y1887000D01*
X71000Y1924000D02*
X79000D01*
X75000Y1920000D02*
Y1928000D01*
X95000Y1900000D02*
X103000D01*
X99000Y1896000D02*
Y1904000D01*
X88000Y1917000D02*
X96000D01*
X92000Y1913000D02*
Y1921000D01*
X1540750Y781050D02*
X1570750D01*
X1555750Y766050D02*
Y796050D01*
X1540750Y869950D02*
X1570750D01*
X1555750Y854950D02*
Y884950D01*
X1540750Y958850D02*
X1570750D01*
X1555750Y943850D02*
Y973850D01*
X1540750Y1085850D02*
X1570750D01*
X1555750Y1070850D02*
Y1100850D01*
X1164590Y457200D02*
X1172210D01*
X1168400Y453390D02*
Y461010D01*
X1164590Y482600D02*
X1172210D01*
X1168400Y478790D02*
Y486410D01*
X1647190Y482600D02*
X1654810D01*
X1651000Y478790D02*
Y486410D01*
X1647190Y457200D02*
X1654810D01*
X1651000Y453390D02*
Y461010D01*
X1621790Y482600D02*
X1629410D01*
X1625600Y478790D02*
Y486410D01*
X1621790Y457200D02*
X1629410D01*
X1625600Y453390D02*
Y461010D01*
X1596390Y482600D02*
X1604010D01*
X1600200Y478790D02*
Y486410D01*
X1596390Y457200D02*
X1604010D01*
X1600200Y453390D02*
Y461010D01*
X1570990Y482600D02*
X1578610D01*
X1574800Y478790D02*
Y486410D01*
X1570990Y457200D02*
X1578610D01*
X1574800Y453390D02*
Y461010D01*
X1545590Y482600D02*
X1553210D01*
X1549400Y478790D02*
Y486410D01*
X1545590Y457200D02*
X1553210D01*
X1549400Y453390D02*
Y461010D01*
X1520190Y482600D02*
X1527810D01*
X1524000Y478790D02*
Y486410D01*
X1520190Y457200D02*
X1527810D01*
X1524000Y453390D02*
Y461010D01*
X1494790Y482600D02*
X1502410D01*
X1498600Y478790D02*
Y486410D01*
X1494790Y457200D02*
X1502410D01*
X1498600Y453390D02*
Y461010D01*
X1469390Y482600D02*
X1477010D01*
X1473200Y478790D02*
Y486410D01*
X1469390Y457200D02*
X1477010D01*
X1473200Y453390D02*
Y461010D01*
X1443990Y482600D02*
X1451610D01*
X1447800Y478790D02*
Y486410D01*
X1443990Y457200D02*
X1451610D01*
X1447800Y453390D02*
Y461010D01*
X1418590Y482600D02*
X1426210D01*
X1422400Y478790D02*
Y486410D01*
X1418590Y457200D02*
X1426210D01*
X1422400Y453390D02*
Y461010D01*
X1393190Y482600D02*
X1400810D01*
X1397000Y478790D02*
Y486410D01*
X1393190Y457200D02*
X1400810D01*
X1397000Y453390D02*
Y461010D01*
X1367790Y482600D02*
X1375410D01*
X1371600Y478790D02*
Y486410D01*
X1367790Y457200D02*
X1375410D01*
X1371600Y453390D02*
Y461010D01*
X1342390Y482600D02*
X1350010D01*
X1346200Y478790D02*
Y486410D01*
X1342390Y457200D02*
X1350010D01*
X1346200Y453390D02*
Y461010D01*
X1316990Y482600D02*
X1324610D01*
X1320800Y478790D02*
Y486410D01*
X1316990Y457200D02*
X1324610D01*
X1320800Y453390D02*
Y461010D01*
X1189990Y457200D02*
X1197610D01*
X1193800Y453390D02*
Y461010D01*
X1189990Y482600D02*
X1197610D01*
X1193800Y478790D02*
Y486410D01*
X1215390Y457200D02*
X1223010D01*
X1219200Y453390D02*
Y461010D01*
X1215390Y482600D02*
X1223010D01*
X1219200Y478790D02*
Y486410D01*
X1240790Y457200D02*
X1248410D01*
X1244600Y453390D02*
Y461010D01*
X1240790Y482600D02*
X1248410D01*
X1244600Y478790D02*
Y486410D01*
X1266190Y457200D02*
X1273810D01*
X1270000Y453390D02*
Y461010D01*
X1266190Y482600D02*
X1273810D01*
X1270000Y478790D02*
Y486410D01*
X1291590Y457200D02*
X1299210D01*
X1295400Y453390D02*
Y461010D01*
X1291590Y482600D02*
X1299210D01*
X1295400Y478790D02*
Y486410D01*
X1291590Y279400D02*
X1299210D01*
X1295400Y275590D02*
Y283210D01*
X1291590Y254000D02*
X1299210D01*
X1295400Y250190D02*
Y257810D01*
X1266190Y279400D02*
X1273810D01*
X1270000Y275590D02*
Y283210D01*
X1266190Y254000D02*
X1273810D01*
X1270000Y250190D02*
Y257810D01*
X1240790Y279400D02*
X1248410D01*
X1244600Y275590D02*
Y283210D01*
X1240790Y254000D02*
X1248410D01*
X1244600Y250190D02*
Y257810D01*
X1215390Y279400D02*
X1223010D01*
X1219200Y275590D02*
Y283210D01*
X1215390Y254000D02*
X1223010D01*
X1219200Y250190D02*
Y257810D01*
X1189990Y279400D02*
X1197610D01*
X1193800Y275590D02*
Y283210D01*
X1189990Y254000D02*
X1197610D01*
X1193800Y250190D02*
Y257810D01*
X1316990Y254000D02*
X1324610D01*
X1320800Y250190D02*
Y257810D01*
X1316990Y279400D02*
X1324610D01*
X1320800Y275590D02*
Y283210D01*
X1342390Y254000D02*
X1350010D01*
X1346200Y250190D02*
Y257810D01*
X1342390Y279400D02*
X1350010D01*
X1346200Y275590D02*
Y283210D01*
X1367790Y254000D02*
X1375410D01*
X1371600Y250190D02*
Y257810D01*
X1367790Y279400D02*
X1375410D01*
X1371600Y275590D02*
Y283210D01*
X1393190Y254000D02*
X1400810D01*
X1397000Y250190D02*
Y257810D01*
X1393190Y279400D02*
X1400810D01*
X1397000Y275590D02*
Y283210D01*
X1418590Y254000D02*
X1426210D01*
X1422400Y250190D02*
Y257810D01*
X1418590Y279400D02*
X1426210D01*
X1422400Y275590D02*
Y283210D01*
X1443990Y254000D02*
X1451610D01*
X1447800Y250190D02*
Y257810D01*
X1443990Y279400D02*
X1451610D01*
X1447800Y275590D02*
Y283210D01*
X1469390Y254000D02*
X1477010D01*
X1473200Y250190D02*
Y257810D01*
X1469390Y279400D02*
X1477010D01*
X1473200Y275590D02*
Y283210D01*
X1494790Y254000D02*
X1502410D01*
X1498600Y250190D02*
Y257810D01*
X1494790Y279400D02*
X1502410D01*
X1498600Y275590D02*
Y283210D01*
X1520190Y254000D02*
X1527810D01*
X1524000Y250190D02*
Y257810D01*
X1520190Y279400D02*
X1527810D01*
X1524000Y275590D02*
Y283210D01*
X1545590Y254000D02*
X1553210D01*
X1549400Y250190D02*
Y257810D01*
X1545590Y279400D02*
X1553210D01*
X1549400Y275590D02*
Y283210D01*
X1570990Y254000D02*
X1578610D01*
X1574800Y250190D02*
Y257810D01*
X1570990Y279400D02*
X1578610D01*
X1574800Y275590D02*
Y283210D01*
X1596390Y254000D02*
X1604010D01*
X1600200Y250190D02*
Y257810D01*
X1596390Y279400D02*
X1604010D01*
X1600200Y275590D02*
Y283210D01*
X1621790Y254000D02*
X1629410D01*
X1625600Y250190D02*
Y257810D01*
X1621790Y279400D02*
X1629410D01*
X1625600Y275590D02*
Y283210D01*
X1647190Y254000D02*
X1654810D01*
X1651000Y250190D02*
Y257810D01*
X1647190Y279400D02*
X1654810D01*
X1651000Y275590D02*
Y283210D01*
X1164590Y279400D02*
X1172210D01*
X1168400Y275590D02*
Y283210D01*
X1164590Y254000D02*
X1172210D01*
X1168400Y250190D02*
Y257810D01*
X661750Y1073150D02*
X671750D01*
X666750Y1068150D02*
Y1078150D01*
X636350Y1073150D02*
X646350D01*
X641350Y1068150D02*
Y1078150D01*
X636350Y1098550D02*
X646350D01*
X641350Y1093550D02*
Y1103550D01*
X636350Y1047750D02*
X646350D01*
X641350Y1042750D02*
Y1052750D01*
X661750Y1098550D02*
X671750D01*
X666750Y1093550D02*
Y1103550D01*
X661750Y1047750D02*
X671750D01*
X666750Y1042750D02*
Y1052750D01*
X636350Y1200150D02*
X646350D01*
X641350Y1195150D02*
Y1205150D01*
X636350Y1174750D02*
X646350D01*
X641350Y1169750D02*
Y1179750D01*
X661750Y1200150D02*
X671750D01*
X666750Y1195150D02*
Y1205150D01*
X661750Y1174750D02*
X671750D01*
X666750Y1169750D02*
Y1179750D01*
X567000Y1047750D02*
X576000D01*
X571500Y1043250D02*
Y1052250D01*
X541600Y1047750D02*
X550600D01*
X546100Y1043250D02*
Y1052250D01*
X193850Y508000D02*
X199850D01*
X196850Y505000D02*
Y511000D01*
X193850Y381000D02*
X199850D01*
X196850Y378000D02*
Y384000D01*
X828850Y381000D02*
X834850D01*
X831850Y378000D02*
Y384000D01*
X828850Y419100D02*
X834850D01*
X831850Y416100D02*
Y422100D01*
X536750Y1149350D02*
X542750D01*
X539750Y1146350D02*
Y1152350D01*
X536750Y1117600D02*
X542750D01*
X539750Y1114600D02*
Y1120600D01*
X-3000Y393700D02*
X3000D01*
X0Y390700D02*
Y396700D01*
X60500Y393700D02*
X66500D01*
X63500Y390700D02*
Y396700D01*
X612950Y609600D02*
X618950D01*
X615950Y606600D02*
Y612600D01*
X759000Y685800D02*
X765000D01*
X762000Y682800D02*
Y688800D01*
X759000Y660400D02*
X765000D01*
X762000Y657400D02*
Y663400D01*
X1285494Y965200D02*
X1292606D01*
X1289050Y961644D02*
Y968756D01*
X1285494Y914400D02*
X1292606D01*
X1289050Y910844D02*
Y917956D01*
X612950Y711200D02*
X618950D01*
X615950Y708200D02*
Y714200D01*
X720900Y781050D02*
X726900D01*
X723900Y778050D02*
Y784050D01*
X739950Y781050D02*
X745950D01*
X742950Y778050D02*
Y784050D01*
X638350Y781050D02*
X644350D01*
X641350Y778050D02*
Y784050D01*
X612950Y781050D02*
X618950D01*
X615950Y778050D02*
Y784050D01*
X638350Y825500D02*
X644350D01*
X641350Y822500D02*
Y828500D01*
X612950Y838200D02*
X618950D01*
X615950Y835200D02*
Y841200D01*
X720900Y825500D02*
X726900D01*
X723900Y822500D02*
Y828500D01*
X739950Y838200D02*
X745950D01*
X742950Y835200D02*
Y841200D01*
X866950Y977900D02*
X872950D01*
X869950Y974900D02*
Y980900D01*
X898700Y1174750D02*
X904700D01*
X901700Y1171750D02*
Y1177750D01*
X974900Y1174750D02*
X980900D01*
X977900Y1171750D02*
Y1177750D01*
X835200Y946150D02*
X841200D01*
X838200Y943150D02*
Y949150D01*
X695500Y869950D02*
X701500D01*
X698500Y866950D02*
Y872950D01*
X695500Y920750D02*
X701500D01*
X698500Y917750D02*
Y923750D01*
X759000Y850900D02*
X765000D01*
X762000Y847900D02*
Y853900D01*
X759000Y825500D02*
X765000D01*
X762000Y822500D02*
Y828500D01*
X568500Y908050D02*
X574500D01*
X571500Y905050D02*
Y911050D01*
X568500Y825500D02*
X574500D01*
X571500Y822500D02*
Y828500D01*
X485950Y825500D02*
X491950D01*
X488950Y822500D02*
Y828500D01*
X498650Y838200D02*
X504650D01*
X501650Y835200D02*
Y841200D01*
X511350Y1200150D02*
X517350D01*
X514350Y1197150D02*
Y1203150D01*
X511350Y1117600D02*
X517350D01*
X514350Y1114600D02*
Y1120600D01*
X270050Y1111250D02*
X276050D01*
X273050Y1108250D02*
Y1114250D01*
X378000Y1111250D02*
X384000D01*
X381000Y1108250D02*
Y1114250D01*
X270050Y946150D02*
X276050D01*
X273050Y943150D02*
Y949150D01*
X365300Y946150D02*
X371300D01*
X368300Y943150D02*
Y949150D01*
M02*
