G04 Layer_Color=2752767*
%FSLAX44Y44*%
%MOMM*%
G71*
G01*
G75*
%ADD83C,0.0508*%
%ADD84C,0.0677*%
%ADD85C,0.0339*%
D83*
X192968Y1897968D02*
Y1902032D01*
X197032D01*
Y1897968D01*
X192968D01*
Y1847968D02*
Y1852032D01*
X197032D01*
Y1847968D01*
X192968D01*
X195000Y1997968D02*
X192968Y2002032D01*
X197032D01*
X195000Y1997968D01*
X975000D02*
X972968Y2002032D01*
X977032D01*
X975000Y1997968D01*
Y1597968D02*
X972968Y1602032D01*
X977032D01*
X975000Y1597968D01*
X195000D02*
X192968Y1602032D01*
X197032D01*
X195000Y1597968D01*
X907600Y39668D02*
X908616Y40684D01*
X909632D01*
X908616Y41700D01*
X909632Y42716D01*
X908616D01*
X907600Y43732D01*
X906584Y42716D01*
X905568D01*
X906584Y41700D01*
X905568Y40684D01*
X906584D01*
X907600Y39668D01*
Y19668D02*
X908616Y20684D01*
X909632D01*
X908616Y21700D01*
X909632Y22716D01*
X908616D01*
X907600Y23732D01*
X906584Y22716D01*
X905568D01*
X906584Y21700D01*
X905568Y20684D01*
X906584D01*
X907600Y19668D01*
X933800D02*
X934816Y20684D01*
X935832D01*
X934816Y21700D01*
X935832Y22716D01*
X934816D01*
X933800Y23732D01*
X932784Y22716D01*
X931768D01*
X932784Y21700D01*
X931768Y20684D01*
X932784D01*
X933800Y19668D01*
Y39668D02*
X934816Y40684D01*
X935832D01*
X934816Y41700D01*
X935832Y42716D01*
X934816D01*
X933800Y43732D01*
X932784Y42716D01*
X931768D01*
X932784Y41700D01*
X931768Y40684D01*
X932784D01*
X933800Y39668D01*
X230700Y-225332D02*
X228668Y-221268D01*
X232732D01*
X230700Y-225332D01*
Y264668D02*
X228668Y268732D01*
X232732D01*
X230700Y264668D01*
X810700Y-225332D02*
X808668Y-221268D01*
X812732D01*
X810700Y-225332D01*
Y264668D02*
X808668Y268732D01*
X812732D01*
X810700Y264668D01*
X996950Y1198118D02*
X997966Y1199134D01*
X998982D01*
X997966Y1200150D01*
X998982Y1201166D01*
X997966D01*
X996950Y1202182D01*
X995934Y1201166D01*
X994918D01*
X995934Y1200150D01*
X994918Y1199134D01*
X995934D01*
X996950Y1198118D01*
X971550D02*
X972566Y1199134D01*
X973582D01*
X972566Y1200150D01*
X973582Y1201166D01*
X972566D01*
X971550Y1202182D01*
X970534Y1201166D01*
X969518D01*
X970534Y1200150D01*
X969518Y1199134D01*
X970534D01*
X971550Y1198118D01*
X946150D02*
X947166Y1199134D01*
X948182D01*
X947166Y1200150D01*
X948182Y1201166D01*
X947166D01*
X946150Y1202182D01*
X945134Y1201166D01*
X944118D01*
X945134Y1200150D01*
X944118Y1199134D01*
X945134D01*
X946150Y1198118D01*
X920750D02*
X921766Y1199134D01*
X922782D01*
X921766Y1200150D01*
X922782Y1201166D01*
X921766D01*
X920750Y1202182D01*
X919734Y1201166D01*
X918718D01*
X919734Y1200150D01*
X918718Y1199134D01*
X919734D01*
X920750Y1198118D01*
X895350D02*
X896366Y1199134D01*
X897382D01*
X896366Y1200150D01*
X897382Y1201166D01*
X896366D01*
X895350Y1202182D01*
X894334Y1201166D01*
X893318D01*
X894334Y1200150D01*
X893318Y1199134D01*
X894334D01*
X895350Y1198118D01*
X869950D02*
X870966Y1199134D01*
X871982D01*
X870966Y1200150D01*
X871982Y1201166D01*
X870966D01*
X869950Y1202182D01*
X868934Y1201166D01*
X867918D01*
X868934Y1200150D01*
X867918Y1199134D01*
X868934D01*
X869950Y1198118D01*
X844550D02*
X845566Y1199134D01*
X846582D01*
X845566Y1200150D01*
X846582Y1201166D01*
X845566D01*
X844550Y1202182D01*
X843534Y1201166D01*
X842518D01*
X843534Y1200150D01*
X842518Y1199134D01*
X843534D01*
X844550Y1198118D01*
X819150D02*
X820166Y1199134D01*
X821182D01*
X820166Y1200150D01*
X821182Y1201166D01*
X820166D01*
X819150Y1202182D01*
X818134Y1201166D01*
X817118D01*
X818134Y1200150D01*
X817118Y1199134D01*
X818134D01*
X819150Y1198118D01*
X793750D02*
X794766Y1199134D01*
X795782D01*
X794766Y1200150D01*
X795782Y1201166D01*
X794766D01*
X793750Y1202182D01*
X792734Y1201166D01*
X791718D01*
X792734Y1200150D01*
X791718Y1199134D01*
X792734D01*
X793750Y1198118D01*
X768350D02*
X769366Y1199134D01*
X770382D01*
X769366Y1200150D01*
X770382Y1201166D01*
X769366D01*
X768350Y1202182D01*
X767334Y1201166D01*
X766318D01*
X767334Y1200150D01*
X766318Y1199134D01*
X767334D01*
X768350Y1198118D01*
X742950D02*
X743966Y1199134D01*
X744982D01*
X743966Y1200150D01*
X744982Y1201166D01*
X743966D01*
X742950Y1202182D01*
X741934Y1201166D01*
X740918D01*
X741934Y1200150D01*
X740918Y1199134D01*
X741934D01*
X742950Y1198118D01*
X717550D02*
X718566Y1199134D01*
X719582D01*
X718566Y1200150D01*
X719582Y1201166D01*
X718566D01*
X717550Y1202182D01*
X716534Y1201166D01*
X715518D01*
X716534Y1200150D01*
X715518Y1199134D01*
X716534D01*
X717550Y1198118D01*
Y1045718D02*
X718566Y1046734D01*
X719582D01*
X718566Y1047750D01*
X719582Y1048766D01*
X718566D01*
X717550Y1049782D01*
X716534Y1048766D01*
X715518D01*
X716534Y1047750D01*
X715518Y1046734D01*
X716534D01*
X717550Y1045718D01*
X742950D02*
X743966Y1046734D01*
X744982D01*
X743966Y1047750D01*
X744982Y1048766D01*
X743966D01*
X742950Y1049782D01*
X741934Y1048766D01*
X740918D01*
X741934Y1047750D01*
X740918Y1046734D01*
X741934D01*
X742950Y1045718D01*
X768350D02*
X769366Y1046734D01*
X770382D01*
X769366Y1047750D01*
X770382Y1048766D01*
X769366D01*
X768350Y1049782D01*
X767334Y1048766D01*
X766318D01*
X767334Y1047750D01*
X766318Y1046734D01*
X767334D01*
X768350Y1045718D01*
X793750D02*
X794766Y1046734D01*
X795782D01*
X794766Y1047750D01*
X795782Y1048766D01*
X794766D01*
X793750Y1049782D01*
X792734Y1048766D01*
X791718D01*
X792734Y1047750D01*
X791718Y1046734D01*
X792734D01*
X793750Y1045718D01*
X819150D02*
X820166Y1046734D01*
X821182D01*
X820166Y1047750D01*
X821182Y1048766D01*
X820166D01*
X819150Y1049782D01*
X818134Y1048766D01*
X817118D01*
X818134Y1047750D01*
X817118Y1046734D01*
X818134D01*
X819150Y1045718D01*
X844550D02*
X845566Y1046734D01*
X846582D01*
X845566Y1047750D01*
X846582Y1048766D01*
X845566D01*
X844550Y1049782D01*
X843534Y1048766D01*
X842518D01*
X843534Y1047750D01*
X842518Y1046734D01*
X843534D01*
X844550Y1045718D01*
X869950D02*
X870966Y1046734D01*
X871982D01*
X870966Y1047750D01*
X871982Y1048766D01*
X870966D01*
X869950Y1049782D01*
X868934Y1048766D01*
X867918D01*
X868934Y1047750D01*
X867918Y1046734D01*
X868934D01*
X869950Y1045718D01*
X895350D02*
X896366Y1046734D01*
X897382D01*
X896366Y1047750D01*
X897382Y1048766D01*
X896366D01*
X895350Y1049782D01*
X894334Y1048766D01*
X893318D01*
X894334Y1047750D01*
X893318Y1046734D01*
X894334D01*
X895350Y1045718D01*
X920750D02*
X921766Y1046734D01*
X922782D01*
X921766Y1047750D01*
X922782Y1048766D01*
X921766D01*
X920750Y1049782D01*
X919734Y1048766D01*
X918718D01*
X919734Y1047750D01*
X918718Y1046734D01*
X919734D01*
X920750Y1045718D01*
X946150D02*
X947166Y1046734D01*
X948182D01*
X947166Y1047750D01*
X948182Y1048766D01*
X947166D01*
X946150Y1049782D01*
X945134Y1048766D01*
X944118D01*
X945134Y1047750D01*
X944118Y1046734D01*
X945134D01*
X946150Y1045718D01*
X971550D02*
X972566Y1046734D01*
X973582D01*
X972566Y1047750D01*
X973582Y1048766D01*
X972566D01*
X971550Y1049782D01*
X970534Y1048766D01*
X969518D01*
X970534Y1047750D01*
X969518Y1046734D01*
X970534D01*
X971550Y1045718D01*
X996950D02*
X997966Y1046734D01*
X998982D01*
X997966Y1047750D01*
X998982Y1048766D01*
X997966D01*
X996950Y1049782D01*
X995934Y1048766D01*
X994918D01*
X995934Y1047750D01*
X994918Y1046734D01*
X995934D01*
X996950Y1045718D01*
X-7032Y1806318D02*
X-6016Y1808350D01*
X-7032Y1810382D01*
X-5000Y1809366D01*
X-2968Y1810382D01*
X-3984Y1808350D01*
X-2968Y1806318D01*
X-5000Y1807334D01*
X-7032Y1806318D01*
Y1831318D02*
X-6016Y1833350D01*
X-7032Y1835382D01*
X-5000Y1834366D01*
X-2968Y1835382D01*
X-3984Y1833350D01*
X-2968Y1831318D01*
X-5000Y1832334D01*
X-7032Y1831318D01*
X378968Y455168D02*
X379984Y457200D01*
X378968Y459232D01*
X381000Y458216D01*
X383032Y459232D01*
X382016Y457200D01*
X383032Y455168D01*
X381000Y456184D01*
X378968Y455168D01*
Y480568D02*
X379984Y482600D01*
X378968Y484632D01*
X381000Y483616D01*
X383032Y484632D01*
X382016Y482600D01*
X383032Y480568D01*
X381000Y481584D01*
X378968Y480568D01*
X353568Y455168D02*
X354584Y457200D01*
X353568Y459232D01*
X355600Y458216D01*
X357632Y459232D01*
X356616Y457200D01*
X357632Y455168D01*
X355600Y456184D01*
X353568Y455168D01*
Y480568D02*
X354584Y482600D01*
X353568Y484632D01*
X355600Y483616D01*
X357632Y484632D01*
X356616Y482600D01*
X357632Y480568D01*
X355600Y481584D01*
X353568Y480568D01*
X328168Y455168D02*
X329184Y457200D01*
X328168Y459232D01*
X330200Y458216D01*
X332232Y459232D01*
X331216Y457200D01*
X332232Y455168D01*
X330200Y456184D01*
X328168Y455168D01*
Y480568D02*
X329184Y482600D01*
X328168Y484632D01*
X330200Y483616D01*
X332232Y484632D01*
X331216Y482600D01*
X332232Y480568D01*
X330200Y481584D01*
X328168Y480568D01*
X302768D02*
X303784Y482600D01*
X302768Y484632D01*
X304800Y483616D01*
X306832Y484632D01*
X305816Y482600D01*
X306832Y480568D01*
X304800Y481584D01*
X302768Y480568D01*
Y455168D02*
X303784Y457200D01*
X302768Y459232D01*
X304800Y458216D01*
X306832Y459232D01*
X305816Y457200D01*
X306832Y455168D01*
X304800Y456184D01*
X302768Y455168D01*
X277368Y480568D02*
X278384Y482600D01*
X277368Y484632D01*
X279400Y483616D01*
X281432Y484632D01*
X280416Y482600D01*
X281432Y480568D01*
X279400Y481584D01*
X277368Y480568D01*
Y455168D02*
X278384Y457200D01*
X277368Y459232D01*
X279400Y458216D01*
X281432Y459232D01*
X280416Y457200D01*
X281432Y455168D01*
X279400Y456184D01*
X277368Y455168D01*
X505968D02*
X506984Y457200D01*
X505968Y459232D01*
X508000Y458216D01*
X510032Y459232D01*
X509016Y457200D01*
X510032Y455168D01*
X508000Y456184D01*
X505968Y455168D01*
Y480568D02*
X506984Y482600D01*
X505968Y484632D01*
X508000Y483616D01*
X510032Y484632D01*
X509016Y482600D01*
X510032Y480568D01*
X508000Y481584D01*
X505968Y480568D01*
X480568Y455168D02*
X481584Y457200D01*
X480568Y459232D01*
X482600Y458216D01*
X484632Y459232D01*
X483616Y457200D01*
X484632Y455168D01*
X482600Y456184D01*
X480568Y455168D01*
Y480568D02*
X481584Y482600D01*
X480568Y484632D01*
X482600Y483616D01*
X484632Y484632D01*
X483616Y482600D01*
X484632Y480568D01*
X482600Y481584D01*
X480568Y480568D01*
X455168Y455168D02*
X456184Y457200D01*
X455168Y459232D01*
X457200Y458216D01*
X459232Y459232D01*
X458216Y457200D01*
X459232Y455168D01*
X457200Y456184D01*
X455168Y455168D01*
Y480568D02*
X456184Y482600D01*
X455168Y484632D01*
X457200Y483616D01*
X459232Y484632D01*
X458216Y482600D01*
X459232Y480568D01*
X457200Y481584D01*
X455168Y480568D01*
X429768D02*
X430784Y482600D01*
X429768Y484632D01*
X431800Y483616D01*
X433832Y484632D01*
X432816Y482600D01*
X433832Y480568D01*
X431800Y481584D01*
X429768Y480568D01*
Y455168D02*
X430784Y457200D01*
X429768Y459232D01*
X431800Y458216D01*
X433832Y459232D01*
X432816Y457200D01*
X433832Y455168D01*
X431800Y456184D01*
X429768Y455168D01*
X404368Y480568D02*
X405384Y482600D01*
X404368Y484632D01*
X406400Y483616D01*
X408432Y484632D01*
X407416Y482600D01*
X408432Y480568D01*
X406400Y481584D01*
X404368Y480568D01*
Y455168D02*
X405384Y457200D01*
X404368Y459232D01*
X406400Y458216D01*
X408432Y459232D01*
X407416Y457200D01*
X408432Y455168D01*
X406400Y456184D01*
X404368Y455168D01*
X632968D02*
X633984Y457200D01*
X632968Y459232D01*
X635000Y458216D01*
X637032Y459232D01*
X636016Y457200D01*
X637032Y455168D01*
X635000Y456184D01*
X632968Y455168D01*
Y480568D02*
X633984Y482600D01*
X632968Y484632D01*
X635000Y483616D01*
X637032Y484632D01*
X636016Y482600D01*
X637032Y480568D01*
X635000Y481584D01*
X632968Y480568D01*
X607568Y455168D02*
X608584Y457200D01*
X607568Y459232D01*
X609600Y458216D01*
X611632Y459232D01*
X610616Y457200D01*
X611632Y455168D01*
X609600Y456184D01*
X607568Y455168D01*
Y480568D02*
X608584Y482600D01*
X607568Y484632D01*
X609600Y483616D01*
X611632Y484632D01*
X610616Y482600D01*
X611632Y480568D01*
X609600Y481584D01*
X607568Y480568D01*
X582168Y455168D02*
X583184Y457200D01*
X582168Y459232D01*
X584200Y458216D01*
X586232Y459232D01*
X585216Y457200D01*
X586232Y455168D01*
X584200Y456184D01*
X582168Y455168D01*
Y480568D02*
X583184Y482600D01*
X582168Y484632D01*
X584200Y483616D01*
X586232Y484632D01*
X585216Y482600D01*
X586232Y480568D01*
X584200Y481584D01*
X582168Y480568D01*
X556768D02*
X557784Y482600D01*
X556768Y484632D01*
X558800Y483616D01*
X560832Y484632D01*
X559816Y482600D01*
X560832Y480568D01*
X558800Y481584D01*
X556768Y480568D01*
Y455168D02*
X557784Y457200D01*
X556768Y459232D01*
X558800Y458216D01*
X560832Y459232D01*
X559816Y457200D01*
X560832Y455168D01*
X558800Y456184D01*
X556768Y455168D01*
X531368Y480568D02*
X532384Y482600D01*
X531368Y484632D01*
X533400Y483616D01*
X535432Y484632D01*
X534416Y482600D01*
X535432Y480568D01*
X533400Y481584D01*
X531368Y480568D01*
Y455168D02*
X532384Y457200D01*
X531368Y459232D01*
X533400Y458216D01*
X535432Y459232D01*
X534416Y457200D01*
X535432Y455168D01*
X533400Y456184D01*
X531368Y455168D01*
X759968D02*
X760984Y457200D01*
X759968Y459232D01*
X762000Y458216D01*
X764032Y459232D01*
X763016Y457200D01*
X764032Y455168D01*
X762000Y456184D01*
X759968Y455168D01*
Y480568D02*
X760984Y482600D01*
X759968Y484632D01*
X762000Y483616D01*
X764032Y484632D01*
X763016Y482600D01*
X764032Y480568D01*
X762000Y481584D01*
X759968Y480568D01*
X734568Y455168D02*
X735584Y457200D01*
X734568Y459232D01*
X736600Y458216D01*
X738632Y459232D01*
X737616Y457200D01*
X738632Y455168D01*
X736600Y456184D01*
X734568Y455168D01*
Y480568D02*
X735584Y482600D01*
X734568Y484632D01*
X736600Y483616D01*
X738632Y484632D01*
X737616Y482600D01*
X738632Y480568D01*
X736600Y481584D01*
X734568Y480568D01*
X709168Y455168D02*
X710184Y457200D01*
X709168Y459232D01*
X711200Y458216D01*
X713232Y459232D01*
X712216Y457200D01*
X713232Y455168D01*
X711200Y456184D01*
X709168Y455168D01*
Y480568D02*
X710184Y482600D01*
X709168Y484632D01*
X711200Y483616D01*
X713232Y484632D01*
X712216Y482600D01*
X713232Y480568D01*
X711200Y481584D01*
X709168Y480568D01*
X683768D02*
X684784Y482600D01*
X683768Y484632D01*
X685800Y483616D01*
X687832Y484632D01*
X686816Y482600D01*
X687832Y480568D01*
X685800Y481584D01*
X683768Y480568D01*
Y455168D02*
X684784Y457200D01*
X683768Y459232D01*
X685800Y458216D01*
X687832Y459232D01*
X686816Y457200D01*
X687832Y455168D01*
X685800Y456184D01*
X683768Y455168D01*
X658368Y480568D02*
X659384Y482600D01*
X658368Y484632D01*
X660400Y483616D01*
X662432Y484632D01*
X661416Y482600D01*
X662432Y480568D01*
X660400Y481584D01*
X658368Y480568D01*
Y455168D02*
X659384Y457200D01*
X658368Y459232D01*
X660400Y458216D01*
X662432Y459232D01*
X661416Y457200D01*
X662432Y455168D01*
X660400Y456184D01*
X658368Y455168D01*
X201168Y1185418D02*
X202184Y1187450D01*
X201168Y1189482D01*
X203200Y1188466D01*
X205232Y1189482D01*
X204216Y1187450D01*
X205232Y1185418D01*
X203200Y1186434D01*
X201168Y1185418D01*
X124968D02*
X125984Y1187450D01*
X124968Y1189482D01*
X127000Y1188466D01*
X129032Y1189482D01*
X128016Y1187450D01*
X129032Y1185418D01*
X127000Y1186434D01*
X124968Y1185418D01*
X74168D02*
X75184Y1187450D01*
X74168Y1189482D01*
X76200Y1188466D01*
X78232Y1189482D01*
X77216Y1187450D01*
X78232Y1185418D01*
X76200Y1186434D01*
X74168Y1185418D01*
X23368D02*
X24384Y1187450D01*
X23368Y1189482D01*
X25400Y1188466D01*
X27432Y1189482D01*
X26416Y1187450D01*
X27432Y1185418D01*
X25400Y1186434D01*
X23368Y1185418D01*
X201168Y1109218D02*
X202184Y1111250D01*
X201168Y1113282D01*
X203200Y1112266D01*
X205232Y1113282D01*
X204216Y1111250D01*
X205232Y1109218D01*
X203200Y1110234D01*
X201168Y1109218D01*
X124968D02*
X125984Y1111250D01*
X124968Y1113282D01*
X127000Y1112266D01*
X129032Y1113282D01*
X128016Y1111250D01*
X129032Y1109218D01*
X127000Y1110234D01*
X124968Y1109218D01*
X74168D02*
X75184Y1111250D01*
X74168Y1113282D01*
X76200Y1112266D01*
X78232Y1113282D01*
X77216Y1111250D01*
X78232Y1109218D01*
X76200Y1110234D01*
X74168Y1109218D01*
X23368D02*
X24384Y1111250D01*
X23368Y1113282D01*
X25400Y1112266D01*
X27432Y1113282D01*
X26416Y1111250D01*
X27432Y1109218D01*
X25400Y1110234D01*
X23368Y1109218D01*
X201168Y943318D02*
X202184Y945350D01*
X201168Y947382D01*
X203200Y946366D01*
X205232Y947382D01*
X204216Y945350D01*
X205232Y943318D01*
X203200Y944334D01*
X201168Y943318D01*
X124968D02*
X125984Y945350D01*
X124968Y947382D01*
X127000Y946366D01*
X129032Y947382D01*
X128016Y945350D01*
X129032Y943318D01*
X127000Y944334D01*
X124968Y943318D01*
X74168D02*
X75184Y945350D01*
X74168Y947382D01*
X76200Y946366D01*
X78232Y947382D01*
X77216Y945350D01*
X78232Y943318D01*
X76200Y944334D01*
X74168Y943318D01*
X23368D02*
X24384Y945350D01*
X23368Y947382D01*
X25400Y946366D01*
X27432Y947382D01*
X26416Y945350D01*
X27432Y943318D01*
X25400Y944334D01*
X23368Y943318D01*
X201168Y867118D02*
X202184Y869150D01*
X201168Y871182D01*
X203200Y870166D01*
X205232Y871182D01*
X204216Y869150D01*
X205232Y867118D01*
X203200Y868134D01*
X201168Y867118D01*
X124968D02*
X125984Y869150D01*
X124968Y871182D01*
X127000Y870166D01*
X129032Y871182D01*
X128016Y869150D01*
X129032Y867118D01*
X127000Y868134D01*
X124968Y867118D01*
X74168D02*
X75184Y869150D01*
X74168Y871182D01*
X76200Y870166D01*
X78232Y871182D01*
X77216Y869150D01*
X78232Y867118D01*
X76200Y868134D01*
X74168Y867118D01*
X23368D02*
X24384Y869150D01*
X23368Y871182D01*
X25400Y870166D01*
X27432Y871182D01*
X26416Y869150D01*
X27432Y867118D01*
X25400Y868134D01*
X23368Y867118D01*
X785368Y721868D02*
X786384Y723900D01*
X785368Y725932D01*
X787400Y724916D01*
X789432Y725932D01*
X788416Y723900D01*
X789432Y721868D01*
X787400Y722884D01*
X785368Y721868D01*
Y645668D02*
X786384Y647700D01*
X785368Y649732D01*
X787400Y648716D01*
X789432Y649732D01*
X788416Y647700D01*
X789432Y645668D01*
X787400Y646684D01*
X785368Y645668D01*
Y594868D02*
X786384Y596900D01*
X785368Y598932D01*
X787400Y597916D01*
X789432Y598932D01*
X788416Y596900D01*
X789432Y594868D01*
X787400Y595884D01*
X785368Y594868D01*
Y544068D02*
X786384Y546100D01*
X785368Y548132D01*
X787400Y547116D01*
X789432Y548132D01*
X788416Y546100D01*
X789432Y544068D01*
X787400Y545084D01*
X785368Y544068D01*
X861568Y721868D02*
X862584Y723900D01*
X861568Y725932D01*
X863600Y724916D01*
X865632Y725932D01*
X864616Y723900D01*
X865632Y721868D01*
X863600Y722884D01*
X861568Y721868D01*
Y645668D02*
X862584Y647700D01*
X861568Y649732D01*
X863600Y648716D01*
X865632Y649732D01*
X864616Y647700D01*
X865632Y645668D01*
X863600Y646684D01*
X861568Y645668D01*
Y594868D02*
X862584Y596900D01*
X861568Y598932D01*
X863600Y597916D01*
X865632Y598932D01*
X864616Y596900D01*
X865632Y594868D01*
X863600Y595884D01*
X861568Y594868D01*
Y544068D02*
X862584Y546100D01*
X861568Y548132D01*
X863600Y547116D01*
X865632Y548132D01*
X864616Y546100D01*
X865632Y544068D01*
X863600Y545084D01*
X861568Y544068D01*
X658368Y721868D02*
X659384Y723900D01*
X658368Y725932D01*
X660400Y724916D01*
X662432Y725932D01*
X661416Y723900D01*
X662432Y721868D01*
X660400Y722884D01*
X658368Y721868D01*
Y645668D02*
X659384Y647700D01*
X658368Y649732D01*
X660400Y648716D01*
X662432Y649732D01*
X661416Y647700D01*
X662432Y645668D01*
X660400Y646684D01*
X658368Y645668D01*
Y594868D02*
X659384Y596900D01*
X658368Y598932D01*
X660400Y597916D01*
X662432Y598932D01*
X661416Y596900D01*
X662432Y594868D01*
X660400Y595884D01*
X658368Y594868D01*
Y544068D02*
X659384Y546100D01*
X658368Y548132D01*
X660400Y547116D01*
X662432Y548132D01*
X661416Y546100D01*
X662432Y544068D01*
X660400Y545084D01*
X658368Y544068D01*
X734568Y721868D02*
X735584Y723900D01*
X734568Y725932D01*
X736600Y724916D01*
X738632Y725932D01*
X737616Y723900D01*
X738632Y721868D01*
X736600Y722884D01*
X734568Y721868D01*
Y645668D02*
X735584Y647700D01*
X734568Y649732D01*
X736600Y648716D01*
X738632Y649732D01*
X737616Y647700D01*
X738632Y645668D01*
X736600Y646684D01*
X734568Y645668D01*
Y594868D02*
X735584Y596900D01*
X734568Y598932D01*
X736600Y597916D01*
X738632Y598932D01*
X737616Y596900D01*
X738632Y594868D01*
X736600Y595884D01*
X734568Y594868D01*
Y544068D02*
X735584Y546100D01*
X734568Y548132D01*
X736600Y547116D01*
X738632Y548132D01*
X737616Y546100D01*
X738632Y544068D01*
X736600Y545084D01*
X734568Y544068D01*
X977900Y1318768D02*
X978916Y1319784D01*
X979932D01*
X978916Y1320800D01*
X979932Y1321816D01*
X978916D01*
X977900Y1322832D01*
X976884Y1321816D01*
X975868D01*
X976884Y1320800D01*
X975868Y1319784D01*
X976884D01*
X977900Y1318768D01*
X952500D02*
X953516Y1319784D01*
X954532D01*
X953516Y1320800D01*
X954532Y1321816D01*
X953516D01*
X952500Y1322832D01*
X951484Y1321816D01*
X950468D01*
X951484Y1320800D01*
X950468Y1319784D01*
X951484D01*
X952500Y1318768D01*
X977900Y1344168D02*
X978916Y1345184D01*
X979932D01*
X978916Y1346200D01*
X979932Y1347216D01*
X978916D01*
X977900Y1348232D01*
X976884Y1347216D01*
X975868D01*
X976884Y1346200D01*
X975868Y1345184D01*
X976884D01*
X977900Y1344168D01*
X952500D02*
X953516Y1345184D01*
X954532D01*
X953516Y1346200D01*
X954532Y1347216D01*
X953516D01*
X952500Y1348232D01*
X951484Y1347216D01*
X950468D01*
X951484Y1346200D01*
X950468Y1345184D01*
X951484D01*
X952500Y1344168D01*
Y480568D02*
X953516Y481584D01*
X954532D01*
X953516Y482600D01*
X954532Y483616D01*
X953516D01*
X952500Y484632D01*
X951484Y483616D01*
X950468D01*
X951484Y482600D01*
X950468Y481584D01*
X951484D01*
X952500Y480568D01*
X977900D02*
X978916Y481584D01*
X979932D01*
X978916Y482600D01*
X979932Y483616D01*
X978916D01*
X977900Y484632D01*
X976884Y483616D01*
X975868D01*
X976884Y482600D01*
X975868Y481584D01*
X976884D01*
X977900Y480568D01*
X952500Y455168D02*
X953516Y456184D01*
X954532D01*
X953516Y457200D01*
X954532Y458216D01*
X953516D01*
X952500Y459232D01*
X951484Y458216D01*
X950468D01*
X951484Y457200D01*
X950468Y456184D01*
X951484D01*
X952500Y455168D01*
X977900D02*
X978916Y456184D01*
X979932D01*
X978916Y457200D01*
X979932Y458216D01*
X978916D01*
X977900Y459232D01*
X976884Y458216D01*
X975868D01*
X976884Y457200D01*
X975868Y456184D01*
X976884D01*
X977900Y455168D01*
Y747268D02*
X978916Y748284D01*
X979932D01*
X978916Y749300D01*
X979932Y750316D01*
X978916D01*
X977900Y751332D01*
X976884Y750316D01*
X975868D01*
X976884Y749300D01*
X975868Y748284D01*
X976884D01*
X977900Y747268D01*
X952500D02*
X953516Y748284D01*
X954532D01*
X953516Y749300D01*
X954532Y750316D01*
X953516D01*
X952500Y751332D01*
X951484Y750316D01*
X950468D01*
X951484Y749300D01*
X950468Y748284D01*
X951484D01*
X952500Y747268D01*
X977900Y772668D02*
X978916Y773684D01*
X979932D01*
X978916Y774700D01*
X979932Y775716D01*
X978916D01*
X977900Y776732D01*
X976884Y775716D01*
X975868D01*
X976884Y774700D01*
X975868Y773684D01*
X976884D01*
X977900Y772668D01*
X952500D02*
X953516Y773684D01*
X954532D01*
X953516Y774700D01*
X954532Y775716D01*
X953516D01*
X952500Y776732D01*
X951484Y775716D01*
X950468D01*
X951484Y774700D01*
X950468Y773684D01*
X951484D01*
X952500Y772668D01*
X-1016Y49784D02*
Y48768D01*
X1016D01*
Y49784D01*
X2032D01*
Y51816D01*
X1016D01*
Y52832D01*
X-1016D01*
Y51816D01*
X-2032D01*
Y49784D01*
X-1016D01*
Y-1016D02*
Y-2032D01*
X1016D01*
Y-1016D01*
X2032D01*
Y1016D01*
X1016D01*
Y2032D01*
X-1016D01*
Y1016D01*
X-2032D01*
Y-1016D01*
X-1016D01*
Y-51816D02*
Y-52832D01*
X1016D01*
Y-51816D01*
X2032D01*
Y-49784D01*
X1016D01*
Y-48768D01*
X-1016D01*
Y-49784D01*
X-2032D01*
Y-51816D01*
X-1016D01*
X768350Y1296468D02*
X769366Y1297484D01*
X770382D01*
X769366Y1298500D01*
X770382Y1299516D01*
X769366D01*
X768350Y1300532D01*
X767334Y1299516D01*
X766318D01*
X767334Y1298500D01*
X766318Y1297484D01*
X767334D01*
X768350Y1296468D01*
Y1321468D02*
X769366Y1322484D01*
X770382D01*
X769366Y1323500D01*
X770382Y1324516D01*
X769366D01*
X768350Y1325532D01*
X767334Y1324516D01*
X766318D01*
X767334Y1323500D01*
X766318Y1322484D01*
X767334D01*
X768350Y1321468D01*
Y1341468D02*
X769366Y1342484D01*
X770382D01*
X769366Y1343500D01*
X770382Y1344516D01*
X769366D01*
X768350Y1345532D01*
X767334Y1344516D01*
X766318D01*
X767334Y1343500D01*
X766318Y1342484D01*
X767334D01*
X768350Y1341468D01*
X739218Y1265768D02*
X740234D01*
X741250Y1266784D01*
X742266Y1265768D01*
X743282D01*
Y1266784D01*
X742266Y1267800D01*
X743282Y1268816D01*
Y1269832D01*
X742266D01*
X741250Y1268816D01*
X740234Y1269832D01*
X739218D01*
Y1268816D01*
X740234Y1267800D01*
X739218Y1266784D01*
Y1265768D01*
Y1397168D02*
X740234D01*
X741250Y1398184D01*
X742266Y1397168D01*
X743282D01*
Y1398184D01*
X742266Y1399200D01*
X743282Y1400216D01*
Y1401232D01*
X742266D01*
X741250Y1400216D01*
X740234Y1401232D01*
X739218D01*
Y1400216D01*
X740234Y1399200D01*
X739218Y1398184D01*
Y1397168D01*
X768350Y1366468D02*
X769366Y1367484D01*
X770382D01*
X769366Y1368500D01*
X770382Y1369516D01*
X769366D01*
X768350Y1370532D01*
X767334Y1369516D01*
X766318D01*
X767334Y1368500D01*
X766318Y1367484D01*
X767334D01*
X768350Y1366468D01*
X1388618Y779018D02*
X1389634Y781050D01*
X1388618Y783082D01*
X1390650Y782066D01*
X1392682Y783082D01*
X1391666Y781050D01*
X1392682Y779018D01*
X1390650Y780034D01*
X1388618Y779018D01*
Y804418D02*
X1389634Y806450D01*
X1388618Y808482D01*
X1390650Y807466D01*
X1392682Y808482D01*
X1391666Y806450D01*
X1392682Y804418D01*
X1390650Y805434D01*
X1388618Y804418D01*
X1363218Y779018D02*
X1364234Y781050D01*
X1363218Y783082D01*
X1365250Y782066D01*
X1367282Y783082D01*
X1366266Y781050D01*
X1367282Y779018D01*
X1365250Y780034D01*
X1363218Y779018D01*
Y804418D02*
X1364234Y806450D01*
X1363218Y808482D01*
X1365250Y807466D01*
X1367282Y808482D01*
X1366266Y806450D01*
X1367282Y804418D01*
X1365250Y805434D01*
X1363218Y804418D01*
X955818Y572768D02*
X956834D01*
X957850Y573784D01*
X958866Y572768D01*
X959882D01*
Y573784D01*
X958866Y574800D01*
X959882Y575816D01*
Y576832D01*
X958866D01*
X957850Y575816D01*
X956834Y576832D01*
X955818D01*
Y575816D01*
X956834Y574800D01*
X955818Y573784D01*
Y572768D01*
X928718Y645468D02*
X929734Y647500D01*
X928718Y649532D01*
X930750Y648516D01*
X932782Y649532D01*
X931766Y647500D01*
X932782Y645468D01*
X930750Y646484D01*
X928718Y645468D01*
Y620468D02*
X929734Y622500D01*
X928718Y624532D01*
X930750Y623516D01*
X932782Y624532D01*
X931766Y622500D01*
X932782Y620468D01*
X930750Y621484D01*
X928718Y620468D01*
X908718D02*
X909734Y622500D01*
X908718Y624532D01*
X910750Y623516D01*
X912782Y624532D01*
X911766Y622500D01*
X912782Y620468D01*
X910750Y621484D01*
X908718Y620468D01*
Y645468D02*
X909734Y647500D01*
X908718Y649532D01*
X910750Y648516D01*
X912782Y649532D01*
X911766Y647500D01*
X912782Y645468D01*
X910750Y646484D01*
X908718Y645468D01*
X955818Y693168D02*
X956834D01*
X957850Y694184D01*
X958866Y693168D01*
X959882D01*
Y694184D01*
X958866Y695200D01*
X959882Y696216D01*
Y697232D01*
X958866D01*
X957850Y696216D01*
X956834Y697232D01*
X955818D01*
Y696216D01*
X956834Y695200D01*
X955818Y694184D01*
Y693168D01*
X590550Y597968D02*
X591566Y598984D01*
X592582D01*
X591566Y600000D01*
X592582Y601016D01*
X591566D01*
X590550Y602032D01*
X589534Y601016D01*
X588518D01*
X589534Y600000D01*
X588518Y598984D01*
X589534D01*
X590550Y597968D01*
Y622968D02*
X591566Y623984D01*
X592582D01*
X591566Y625000D01*
X592582Y626016D01*
X591566D01*
X590550Y627032D01*
X589534Y626016D01*
X588518D01*
X589534Y625000D01*
X588518Y623984D01*
X589534D01*
X590550Y622968D01*
Y642968D02*
X591566Y643984D01*
X592582D01*
X591566Y645000D01*
X592582Y646016D01*
X591566D01*
X590550Y647032D01*
X589534Y646016D01*
X588518D01*
X589534Y645000D01*
X588518Y643984D01*
X589534D01*
X590550Y642968D01*
X561418Y567268D02*
X562434D01*
X563450Y568284D01*
X564466Y567268D01*
X565482D01*
Y568284D01*
X564466Y569300D01*
X565482Y570316D01*
Y571332D01*
X564466D01*
X563450Y570316D01*
X562434Y571332D01*
X561418D01*
Y570316D01*
X562434Y569300D01*
X561418Y568284D01*
Y567268D01*
Y698668D02*
X562434D01*
X563450Y699684D01*
X564466Y698668D01*
X565482D01*
Y699684D01*
X564466Y700700D01*
X565482Y701716D01*
Y702732D01*
X564466D01*
X563450Y701716D01*
X562434Y702732D01*
X561418D01*
Y701716D01*
X562434Y700700D01*
X561418Y699684D01*
Y698668D01*
X590550Y667968D02*
X591566Y668984D01*
X592582D01*
X591566Y670000D01*
X592582Y671016D01*
X591566D01*
X590550Y672032D01*
X589534Y671016D01*
X588518D01*
X589534Y670000D01*
X588518Y668984D01*
X589534D01*
X590550Y667968D01*
X1388618Y842518D02*
X1389634Y844550D01*
X1388618Y846582D01*
X1390650Y845566D01*
X1392682Y846582D01*
X1391666Y844550D01*
X1392682Y842518D01*
X1390650Y843534D01*
X1388618Y842518D01*
Y867918D02*
X1389634Y869950D01*
X1388618Y871982D01*
X1390650Y870966D01*
X1392682Y871982D01*
X1391666Y869950D01*
X1392682Y867918D01*
X1390650Y868934D01*
X1388618Y867918D01*
X1363218Y842518D02*
X1364234Y844550D01*
X1363218Y846582D01*
X1365250Y845566D01*
X1367282Y846582D01*
X1366266Y844550D01*
X1367282Y842518D01*
X1365250Y843534D01*
X1363218Y842518D01*
Y867918D02*
X1364234Y869950D01*
X1363218Y871982D01*
X1365250Y870966D01*
X1367282Y871982D01*
X1366266Y869950D01*
X1367282Y867918D01*
X1365250Y868934D01*
X1363218Y867918D01*
X1388618Y956818D02*
X1389634Y958850D01*
X1388618Y960882D01*
X1390650Y959866D01*
X1392682Y960882D01*
X1391666Y958850D01*
X1392682Y956818D01*
X1390650Y957834D01*
X1388618Y956818D01*
Y982218D02*
X1389634Y984250D01*
X1388618Y986282D01*
X1390650Y985266D01*
X1392682Y986282D01*
X1391666Y984250D01*
X1392682Y982218D01*
X1390650Y983234D01*
X1388618Y982218D01*
X1363218Y956818D02*
X1364234Y958850D01*
X1363218Y960882D01*
X1365250Y959866D01*
X1367282Y960882D01*
X1366266Y958850D01*
X1367282Y956818D01*
X1365250Y957834D01*
X1363218Y956818D01*
Y982218D02*
X1364234Y984250D01*
X1363218Y986282D01*
X1365250Y985266D01*
X1367282Y986282D01*
X1366266Y984250D01*
X1367282Y982218D01*
X1365250Y983234D01*
X1363218Y982218D01*
Y1058418D02*
X1364234Y1060450D01*
X1363218Y1062482D01*
X1365250Y1061466D01*
X1367282Y1062482D01*
X1366266Y1060450D01*
X1367282Y1058418D01*
X1365250Y1059434D01*
X1363218Y1058418D01*
X1388618D02*
X1389634Y1060450D01*
X1388618Y1062482D01*
X1390650Y1061466D01*
X1392682Y1062482D01*
X1391666Y1060450D01*
X1392682Y1058418D01*
X1390650Y1059434D01*
X1388618Y1058418D01*
Y1033018D02*
X1389634Y1035050D01*
X1388618Y1037082D01*
X1390650Y1036066D01*
X1392682Y1037082D01*
X1391666Y1035050D01*
X1392682Y1033018D01*
X1390650Y1034034D01*
X1388618Y1033018D01*
Y1083818D02*
X1389634Y1085850D01*
X1388618Y1087882D01*
X1390650Y1086866D01*
X1392682Y1087882D01*
X1391666Y1085850D01*
X1392682Y1083818D01*
X1390650Y1084834D01*
X1388618Y1083818D01*
X1363218Y1033018D02*
X1364234Y1035050D01*
X1363218Y1037082D01*
X1365250Y1036066D01*
X1367282Y1037082D01*
X1366266Y1035050D01*
X1367282Y1033018D01*
X1365250Y1034034D01*
X1363218Y1033018D01*
Y1083818D02*
X1364234Y1085850D01*
X1363218Y1087882D01*
X1365250Y1086866D01*
X1367282Y1087882D01*
X1366266Y1085850D01*
X1367282Y1083818D01*
X1365250Y1084834D01*
X1363218Y1083818D01*
X1172718Y990601D02*
X1174750Y992633D01*
X1176782Y990601D01*
X1174750Y988568D01*
X1172718Y990601D01*
Y876300D02*
X1174750Y878332D01*
X1176782Y876300D01*
X1174750Y874268D01*
X1172718Y876300D01*
X982218Y876300D02*
X984250Y878332D01*
X986282Y876300D01*
X984250Y874268D01*
X982218Y876300D01*
Y990600D02*
X984250Y992632D01*
X986282Y990600D01*
X984250Y988568D01*
X982218Y990600D01*
X127000Y1057218D02*
X128016Y1058234D01*
X129032D01*
X128016Y1059250D01*
X129032Y1060266D01*
X128016D01*
X127000Y1061282D01*
X125984Y1060266D01*
X124968D01*
X125984Y1059250D01*
X124968Y1058234D01*
X125984D01*
X127000Y1057218D01*
Y1007218D02*
X128016Y1008234D01*
X129032D01*
X128016Y1009250D01*
X129032Y1010266D01*
X128016D01*
X127000Y1011282D01*
X125984Y1010266D01*
X124968D01*
X125984Y1009250D01*
X124968Y1008234D01*
X125984D01*
X127000Y1007218D01*
X127000Y495808D02*
X128016Y496824D01*
X129032D01*
X128016Y497840D01*
X129032Y498856D01*
X128016D01*
X127000Y499872D01*
X125984Y498856D01*
X124968D01*
X125984Y497840D01*
X124968Y496824D01*
X125984D01*
X127000Y495808D01*
Y445808D02*
X128016Y446824D01*
X129032D01*
X128016Y447840D01*
X129032Y448856D01*
X128016D01*
X127000Y449872D01*
X125984Y448856D01*
X124968D01*
X125984Y447840D01*
X124968Y446824D01*
X125984D01*
X127000Y445808D01*
X127000Y815918D02*
X128016Y816934D01*
X129032D01*
X128016Y817950D01*
X129032Y818966D01*
X128016D01*
X127000Y819982D01*
X125984Y818966D01*
X124968D01*
X125984Y817950D01*
X124968Y816934D01*
X125984D01*
X127000Y815918D01*
Y765918D02*
X128016Y766934D01*
X129032D01*
X128016Y767950D01*
X129032Y768966D01*
X128016D01*
X127000Y769982D01*
X125984Y768966D01*
X124968D01*
X125984Y767950D01*
X124968Y766934D01*
X125984D01*
X127000Y765918D01*
X900000Y-227032D02*
X897968Y-222968D01*
X902032D01*
X900000Y-227032D01*
X75000D02*
X72968Y-222968D01*
X77032D01*
X75000Y-227032D01*
X875000Y322968D02*
X872968Y327032D01*
X877032D01*
X875000Y322968D01*
X75000D02*
X72968Y327032D01*
X77032D01*
X75000Y322968D01*
X875000Y1422968D02*
X872968Y1427032D01*
X877032D01*
X875000Y1422968D01*
X75000D02*
X72968Y1427032D01*
X77032D01*
X75000Y1422968D01*
X875000Y1997968D02*
X872968Y2002032D01*
X877032D01*
X875000Y1997968D01*
X75000D02*
X72968Y2002032D01*
X77032D01*
X75000Y1997968D01*
X1555750Y779018D02*
X1553718Y783082D01*
X1557782D01*
X1555750Y779018D01*
Y867918D02*
X1553718Y871982D01*
X1557782D01*
X1555750Y867918D01*
Y956818D02*
X1553718Y960882D01*
X1557782D01*
X1555750Y956818D01*
Y1083818D02*
X1553718Y1087882D01*
X1557782D01*
X1555750Y1083818D01*
X1166368Y455168D02*
Y459232D01*
X1170432D01*
Y455168D01*
X1166368D01*
X1167384Y456184D02*
Y458216D01*
X1169416D01*
Y456184D01*
X1167384D01*
X1166368Y480568D02*
Y484632D01*
X1170432D01*
Y480568D01*
X1166368D01*
X1167384Y481584D02*
Y483616D01*
X1169416D01*
Y481584D01*
X1167384D01*
X1648968Y480568D02*
Y484632D01*
X1653032D01*
Y480568D01*
X1648968D01*
X1649984Y481584D02*
Y483616D01*
X1652016D01*
Y481584D01*
X1649984D01*
X1648968Y455168D02*
Y459232D01*
X1653032D01*
Y455168D01*
X1648968D01*
X1649984Y456184D02*
Y458216D01*
X1652016D01*
Y456184D01*
X1649984D01*
X1623568Y480568D02*
Y484632D01*
X1627632D01*
Y480568D01*
X1623568D01*
X1624584Y481584D02*
Y483616D01*
X1626616D01*
Y481584D01*
X1624584D01*
X1623568Y455168D02*
Y459232D01*
X1627632D01*
Y455168D01*
X1623568D01*
X1624584Y456184D02*
Y458216D01*
X1626616D01*
Y456184D01*
X1624584D01*
X1598168Y480568D02*
Y484632D01*
X1602232D01*
Y480568D01*
X1598168D01*
X1599184Y481584D02*
Y483616D01*
X1601216D01*
Y481584D01*
X1599184D01*
X1598168Y455168D02*
Y459232D01*
X1602232D01*
Y455168D01*
X1598168D01*
X1599184Y456184D02*
Y458216D01*
X1601216D01*
Y456184D01*
X1599184D01*
X1572768Y480568D02*
Y484632D01*
X1576832D01*
Y480568D01*
X1572768D01*
X1573784Y481584D02*
Y483616D01*
X1575816D01*
Y481584D01*
X1573784D01*
X1572768Y455168D02*
Y459232D01*
X1576832D01*
Y455168D01*
X1572768D01*
X1573784Y456184D02*
Y458216D01*
X1575816D01*
Y456184D01*
X1573784D01*
X1547368Y480568D02*
Y484632D01*
X1551432D01*
Y480568D01*
X1547368D01*
X1548384Y481584D02*
Y483616D01*
X1550416D01*
Y481584D01*
X1548384D01*
X1547368Y455168D02*
Y459232D01*
X1551432D01*
Y455168D01*
X1547368D01*
X1548384Y456184D02*
Y458216D01*
X1550416D01*
Y456184D01*
X1548384D01*
X1521968Y480568D02*
Y484632D01*
X1526032D01*
Y480568D01*
X1521968D01*
X1522984Y481584D02*
Y483616D01*
X1525016D01*
Y481584D01*
X1522984D01*
X1521968Y455168D02*
Y459232D01*
X1526032D01*
Y455168D01*
X1521968D01*
X1522984Y456184D02*
Y458216D01*
X1525016D01*
Y456184D01*
X1522984D01*
X1496568Y480568D02*
Y484632D01*
X1500632D01*
Y480568D01*
X1496568D01*
X1497584Y481584D02*
Y483616D01*
X1499616D01*
Y481584D01*
X1497584D01*
X1496568Y455168D02*
Y459232D01*
X1500632D01*
Y455168D01*
X1496568D01*
X1497584Y456184D02*
Y458216D01*
X1499616D01*
Y456184D01*
X1497584D01*
X1471168Y480568D02*
Y484632D01*
X1475232D01*
Y480568D01*
X1471168D01*
X1472184Y481584D02*
Y483616D01*
X1474216D01*
Y481584D01*
X1472184D01*
X1471168Y455168D02*
Y459232D01*
X1475232D01*
Y455168D01*
X1471168D01*
X1472184Y456184D02*
Y458216D01*
X1474216D01*
Y456184D01*
X1472184D01*
X1445768Y480568D02*
Y484632D01*
X1449832D01*
Y480568D01*
X1445768D01*
X1446784Y481584D02*
Y483616D01*
X1448816D01*
Y481584D01*
X1446784D01*
X1445768Y455168D02*
Y459232D01*
X1449832D01*
Y455168D01*
X1445768D01*
X1446784Y456184D02*
Y458216D01*
X1448816D01*
Y456184D01*
X1446784D01*
X1420368Y480568D02*
Y484632D01*
X1424432D01*
Y480568D01*
X1420368D01*
X1421384Y481584D02*
Y483616D01*
X1423416D01*
Y481584D01*
X1421384D01*
X1420368Y455168D02*
Y459232D01*
X1424432D01*
Y455168D01*
X1420368D01*
X1421384Y456184D02*
Y458216D01*
X1423416D01*
Y456184D01*
X1421384D01*
X1394968Y480568D02*
Y484632D01*
X1399032D01*
Y480568D01*
X1394968D01*
X1395984Y481584D02*
Y483616D01*
X1398016D01*
Y481584D01*
X1395984D01*
X1394968Y455168D02*
Y459232D01*
X1399032D01*
Y455168D01*
X1394968D01*
X1395984Y456184D02*
Y458216D01*
X1398016D01*
Y456184D01*
X1395984D01*
X1369568Y480568D02*
Y484632D01*
X1373632D01*
Y480568D01*
X1369568D01*
X1370584Y481584D02*
Y483616D01*
X1372616D01*
Y481584D01*
X1370584D01*
X1369568Y455168D02*
Y459232D01*
X1373632D01*
Y455168D01*
X1369568D01*
X1370584Y456184D02*
Y458216D01*
X1372616D01*
Y456184D01*
X1370584D01*
X1344168Y480568D02*
Y484632D01*
X1348232D01*
Y480568D01*
X1344168D01*
X1345184Y481584D02*
Y483616D01*
X1347216D01*
Y481584D01*
X1345184D01*
X1344168Y455168D02*
Y459232D01*
X1348232D01*
Y455168D01*
X1344168D01*
X1345184Y456184D02*
Y458216D01*
X1347216D01*
Y456184D01*
X1345184D01*
X1318768Y480568D02*
Y484632D01*
X1322832D01*
Y480568D01*
X1318768D01*
X1319784Y481584D02*
Y483616D01*
X1321816D01*
Y481584D01*
X1319784D01*
X1318768Y455168D02*
Y459232D01*
X1322832D01*
Y455168D01*
X1318768D01*
X1319784Y456184D02*
Y458216D01*
X1321816D01*
Y456184D01*
X1319784D01*
X1191768Y455168D02*
Y459232D01*
X1195832D01*
Y455168D01*
X1191768D01*
X1192784Y456184D02*
Y458216D01*
X1194816D01*
Y456184D01*
X1192784D01*
X1191768Y480568D02*
Y484632D01*
X1195832D01*
Y480568D01*
X1191768D01*
X1192784Y481584D02*
Y483616D01*
X1194816D01*
Y481584D01*
X1192784D01*
X1217168Y455168D02*
Y459232D01*
X1221232D01*
Y455168D01*
X1217168D01*
X1218184Y456184D02*
Y458216D01*
X1220216D01*
Y456184D01*
X1218184D01*
X1217168Y480568D02*
Y484632D01*
X1221232D01*
Y480568D01*
X1217168D01*
X1218184Y481584D02*
Y483616D01*
X1220216D01*
Y481584D01*
X1218184D01*
X1242568Y455168D02*
Y459232D01*
X1246632D01*
Y455168D01*
X1242568D01*
X1243584Y456184D02*
Y458216D01*
X1245616D01*
Y456184D01*
X1243584D01*
X1242568Y480568D02*
Y484632D01*
X1246632D01*
Y480568D01*
X1242568D01*
X1243584Y481584D02*
Y483616D01*
X1245616D01*
Y481584D01*
X1243584D01*
X1267968Y455168D02*
Y459232D01*
X1272032D01*
Y455168D01*
X1267968D01*
X1268984Y456184D02*
Y458216D01*
X1271016D01*
Y456184D01*
X1268984D01*
X1267968Y480568D02*
Y484632D01*
X1272032D01*
Y480568D01*
X1267968D01*
X1268984Y481584D02*
Y483616D01*
X1271016D01*
Y481584D01*
X1268984D01*
X1293368Y455168D02*
Y459232D01*
X1297432D01*
Y455168D01*
X1293368D01*
X1294384Y456184D02*
Y458216D01*
X1296416D01*
Y456184D01*
X1294384D01*
X1293368Y480568D02*
Y484632D01*
X1297432D01*
Y480568D01*
X1293368D01*
X1294384Y481584D02*
Y483616D01*
X1296416D01*
Y481584D01*
X1294384D01*
X1293368Y277368D02*
Y281432D01*
X1297432D01*
Y277368D01*
X1293368D01*
X1294384Y278384D02*
Y280416D01*
X1296416D01*
Y278384D01*
X1294384D01*
X1293368Y251968D02*
Y256032D01*
X1297432D01*
Y251968D01*
X1293368D01*
X1294384Y252984D02*
Y255016D01*
X1296416D01*
Y252984D01*
X1294384D01*
X1267968Y277368D02*
Y281432D01*
X1272032D01*
Y277368D01*
X1267968D01*
X1268984Y278384D02*
Y280416D01*
X1271016D01*
Y278384D01*
X1268984D01*
X1267968Y251968D02*
Y256032D01*
X1272032D01*
Y251968D01*
X1267968D01*
X1268984Y252984D02*
Y255016D01*
X1271016D01*
Y252984D01*
X1268984D01*
X1242568Y277368D02*
Y281432D01*
X1246632D01*
Y277368D01*
X1242568D01*
X1243584Y278384D02*
Y280416D01*
X1245616D01*
Y278384D01*
X1243584D01*
X1242568Y251968D02*
Y256032D01*
X1246632D01*
Y251968D01*
X1242568D01*
X1243584Y252984D02*
Y255016D01*
X1245616D01*
Y252984D01*
X1243584D01*
X1217168Y277368D02*
Y281432D01*
X1221232D01*
Y277368D01*
X1217168D01*
X1218184Y278384D02*
Y280416D01*
X1220216D01*
Y278384D01*
X1218184D01*
X1217168Y251968D02*
Y256032D01*
X1221232D01*
Y251968D01*
X1217168D01*
X1218184Y252984D02*
Y255016D01*
X1220216D01*
Y252984D01*
X1218184D01*
X1191768Y277368D02*
Y281432D01*
X1195832D01*
Y277368D01*
X1191768D01*
X1192784Y278384D02*
Y280416D01*
X1194816D01*
Y278384D01*
X1192784D01*
X1191768Y251968D02*
Y256032D01*
X1195832D01*
Y251968D01*
X1191768D01*
X1192784Y252984D02*
Y255016D01*
X1194816D01*
Y252984D01*
X1192784D01*
X1318768Y251968D02*
Y256032D01*
X1322832D01*
Y251968D01*
X1318768D01*
X1319784Y252984D02*
Y255016D01*
X1321816D01*
Y252984D01*
X1319784D01*
X1318768Y277368D02*
Y281432D01*
X1322832D01*
Y277368D01*
X1318768D01*
X1319784Y278384D02*
Y280416D01*
X1321816D01*
Y278384D01*
X1319784D01*
X1344168Y251968D02*
Y256032D01*
X1348232D01*
Y251968D01*
X1344168D01*
X1345184Y252984D02*
Y255016D01*
X1347216D01*
Y252984D01*
X1345184D01*
X1344168Y277368D02*
Y281432D01*
X1348232D01*
Y277368D01*
X1344168D01*
X1345184Y278384D02*
Y280416D01*
X1347216D01*
Y278384D01*
X1345184D01*
X1369568Y251968D02*
Y256032D01*
X1373632D01*
Y251968D01*
X1369568D01*
X1370584Y252984D02*
Y255016D01*
X1372616D01*
Y252984D01*
X1370584D01*
X1369568Y277368D02*
Y281432D01*
X1373632D01*
Y277368D01*
X1369568D01*
X1370584Y278384D02*
Y280416D01*
X1372616D01*
Y278384D01*
X1370584D01*
X1394968Y251968D02*
Y256032D01*
X1399032D01*
Y251968D01*
X1394968D01*
X1395984Y252984D02*
Y255016D01*
X1398016D01*
Y252984D01*
X1395984D01*
X1394968Y277368D02*
Y281432D01*
X1399032D01*
Y277368D01*
X1394968D01*
X1395984Y278384D02*
Y280416D01*
X1398016D01*
Y278384D01*
X1395984D01*
X1420368Y251968D02*
Y256032D01*
X1424432D01*
Y251968D01*
X1420368D01*
X1421384Y252984D02*
Y255016D01*
X1423416D01*
Y252984D01*
X1421384D01*
X1420368Y277368D02*
Y281432D01*
X1424432D01*
Y277368D01*
X1420368D01*
X1421384Y278384D02*
Y280416D01*
X1423416D01*
Y278384D01*
X1421384D01*
X1445768Y251968D02*
Y256032D01*
X1449832D01*
Y251968D01*
X1445768D01*
X1446784Y252984D02*
Y255016D01*
X1448816D01*
Y252984D01*
X1446784D01*
X1445768Y277368D02*
Y281432D01*
X1449832D01*
Y277368D01*
X1445768D01*
X1446784Y278384D02*
Y280416D01*
X1448816D01*
Y278384D01*
X1446784D01*
X1471168Y251968D02*
Y256032D01*
X1475232D01*
Y251968D01*
X1471168D01*
X1472184Y252984D02*
Y255016D01*
X1474216D01*
Y252984D01*
X1472184D01*
X1471168Y277368D02*
Y281432D01*
X1475232D01*
Y277368D01*
X1471168D01*
X1472184Y278384D02*
Y280416D01*
X1474216D01*
Y278384D01*
X1472184D01*
X1496568Y251968D02*
Y256032D01*
X1500632D01*
Y251968D01*
X1496568D01*
X1497584Y252984D02*
Y255016D01*
X1499616D01*
Y252984D01*
X1497584D01*
X1496568Y277368D02*
Y281432D01*
X1500632D01*
Y277368D01*
X1496568D01*
X1497584Y278384D02*
Y280416D01*
X1499616D01*
Y278384D01*
X1497584D01*
X1521968Y251968D02*
Y256032D01*
X1526032D01*
Y251968D01*
X1521968D01*
X1522984Y252984D02*
Y255016D01*
X1525016D01*
Y252984D01*
X1522984D01*
X1521968Y277368D02*
Y281432D01*
X1526032D01*
Y277368D01*
X1521968D01*
X1522984Y278384D02*
Y280416D01*
X1525016D01*
Y278384D01*
X1522984D01*
X1547368Y251968D02*
Y256032D01*
X1551432D01*
Y251968D01*
X1547368D01*
X1548384Y252984D02*
Y255016D01*
X1550416D01*
Y252984D01*
X1548384D01*
X1547368Y277368D02*
Y281432D01*
X1551432D01*
Y277368D01*
X1547368D01*
X1548384Y278384D02*
Y280416D01*
X1550416D01*
Y278384D01*
X1548384D01*
X1572768Y251968D02*
Y256032D01*
X1576832D01*
Y251968D01*
X1572768D01*
X1573784Y252984D02*
Y255016D01*
X1575816D01*
Y252984D01*
X1573784D01*
X1572768Y277368D02*
Y281432D01*
X1576832D01*
Y277368D01*
X1572768D01*
X1573784Y278384D02*
Y280416D01*
X1575816D01*
Y278384D01*
X1573784D01*
X1598168Y251968D02*
Y256032D01*
X1602232D01*
Y251968D01*
X1598168D01*
X1599184Y252984D02*
Y255016D01*
X1601216D01*
Y252984D01*
X1599184D01*
X1598168Y277368D02*
Y281432D01*
X1602232D01*
Y277368D01*
X1598168D01*
X1599184Y278384D02*
Y280416D01*
X1601216D01*
Y278384D01*
X1599184D01*
X1623568Y251968D02*
Y256032D01*
X1627632D01*
Y251968D01*
X1623568D01*
X1624584Y252984D02*
Y255016D01*
X1626616D01*
Y252984D01*
X1624584D01*
X1623568Y277368D02*
Y281432D01*
X1627632D01*
Y277368D01*
X1623568D01*
X1624584Y278384D02*
Y280416D01*
X1626616D01*
Y278384D01*
X1624584D01*
X1648968Y251968D02*
Y256032D01*
X1653032D01*
Y251968D01*
X1648968D01*
X1649984Y252984D02*
Y255016D01*
X1652016D01*
Y252984D01*
X1649984D01*
X1648968Y277368D02*
Y281432D01*
X1653032D01*
Y277368D01*
X1648968D01*
X1649984Y278384D02*
Y280416D01*
X1652016D01*
Y278384D01*
X1649984D01*
X1166368Y277368D02*
Y281432D01*
X1170432D01*
Y277368D01*
X1166368D01*
X1167384Y278384D02*
Y280416D01*
X1169416D01*
Y278384D01*
X1167384D01*
X1166368Y251968D02*
Y256032D01*
X1170432D01*
Y251968D01*
X1166368D01*
X1167384Y252984D02*
Y255016D01*
X1169416D01*
Y252984D01*
X1167384D01*
X658368Y1071118D02*
X659384Y1073150D01*
X658368Y1075182D01*
X660400Y1074166D01*
X662432Y1075182D01*
X661416Y1073150D01*
X662432Y1071118D01*
X660400Y1072134D01*
X658368Y1071118D01*
X632968D02*
X633984Y1073150D01*
X632968Y1075182D01*
X635000Y1074166D01*
X637032Y1075182D01*
X636016Y1073150D01*
X637032Y1071118D01*
X635000Y1072134D01*
X632968Y1071118D01*
Y1096518D02*
X633984Y1098550D01*
X632968Y1100582D01*
X635000Y1099566D01*
X637032Y1100582D01*
X636016Y1098550D01*
X637032Y1096518D01*
X635000Y1097534D01*
X632968Y1096518D01*
Y1045718D02*
X633984Y1047750D01*
X632968Y1049782D01*
X635000Y1048766D01*
X637032Y1049782D01*
X636016Y1047750D01*
X637032Y1045718D01*
X635000Y1046734D01*
X632968Y1045718D01*
X658368Y1096518D02*
X659384Y1098550D01*
X658368Y1100582D01*
X660400Y1099566D01*
X662432Y1100582D01*
X661416Y1098550D01*
X662432Y1096518D01*
X660400Y1097534D01*
X658368Y1096518D01*
Y1045718D02*
X659384Y1047750D01*
X658368Y1049782D01*
X660400Y1048766D01*
X662432Y1049782D01*
X661416Y1047750D01*
X662432Y1045718D01*
X660400Y1046734D01*
X658368Y1045718D01*
X632968Y1198118D02*
X633984Y1200150D01*
X632968Y1202182D01*
X635000Y1201166D01*
X637032Y1202182D01*
X636016Y1200150D01*
X637032Y1198118D01*
X635000Y1199134D01*
X632968Y1198118D01*
Y1172718D02*
X633984Y1174750D01*
X632968Y1176782D01*
X635000Y1175766D01*
X637032Y1176782D01*
X636016Y1174750D01*
X637032Y1172718D01*
X635000Y1173734D01*
X632968Y1172718D01*
X658368Y1198118D02*
X659384Y1200150D01*
X658368Y1202182D01*
X660400Y1201166D01*
X662432Y1202182D01*
X661416Y1200150D01*
X662432Y1198118D01*
X660400Y1199134D01*
X658368Y1198118D01*
Y1172718D02*
X659384Y1174750D01*
X658368Y1176782D01*
X660400Y1175766D01*
X662432Y1176782D01*
X661416Y1174750D01*
X662432Y1172718D01*
X660400Y1173734D01*
X658368Y1172718D01*
X565150Y1045718D02*
X566166Y1046734D01*
X567182D01*
X566166Y1047750D01*
X567182Y1048766D01*
X566166D01*
X565150Y1049782D01*
X564134Y1048766D01*
X563118D01*
X564134Y1047750D01*
X563118Y1046734D01*
X564134D01*
X565150Y1045718D01*
X539750D02*
X540766Y1046734D01*
X541782D01*
X540766Y1047750D01*
X541782Y1048766D01*
X540766D01*
X539750Y1049782D01*
X538734Y1048766D01*
X537718D01*
X538734Y1047750D01*
X537718Y1046734D01*
X538734D01*
X539750Y1045718D01*
X1289050Y963168D02*
X1287018Y967232D01*
X1291082D01*
X1289050Y963168D01*
Y964184D02*
X1288034Y966216D01*
X1290066D01*
X1289050Y964184D01*
Y912368D02*
X1287018Y916432D01*
X1291082D01*
X1289050Y912368D01*
Y913384D02*
X1288034Y915416D01*
X1290066D01*
X1289050Y913384D01*
D84*
X173032Y2000000D02*
G03*
X173032Y2000000I-2032J0D01*
G01*
X197032Y1976000D02*
G03*
X197032Y1976000I-2032J0D01*
G01*
X221032Y2000000D02*
G03*
X221032Y2000000I-2032J0D01*
G01*
X197032Y2024000D02*
G03*
X197032Y2024000I-2032J0D01*
G01*
X180032Y2017000D02*
G03*
X180032Y2017000I-2032J0D01*
G01*
X214032D02*
G03*
X214032Y2017000I-2032J0D01*
G01*
Y1983000D02*
G03*
X214032Y1983000I-2032J0D01*
G01*
X180032D02*
G03*
X180032Y1983000I-2032J0D01*
G01*
X953032Y2000000D02*
G03*
X953032Y2000000I-2032J0D01*
G01*
X977032Y1976000D02*
G03*
X977032Y1976000I-2032J0D01*
G01*
X1001032Y2000000D02*
G03*
X1001032Y2000000I-2032J0D01*
G01*
X977032Y2024000D02*
G03*
X977032Y2024000I-2032J0D01*
G01*
X960032Y2017000D02*
G03*
X960032Y2017000I-2032J0D01*
G01*
X994032D02*
G03*
X994032Y2017000I-2032J0D01*
G01*
Y1983000D02*
G03*
X994032Y1983000I-2032J0D01*
G01*
X960032D02*
G03*
X960032Y1983000I-2032J0D01*
G01*
Y1583000D02*
G03*
X960032Y1583000I-2032J0D01*
G01*
X994032D02*
G03*
X994032Y1583000I-2032J0D01*
G01*
Y1617000D02*
G03*
X994032Y1617000I-2032J0D01*
G01*
X960032D02*
G03*
X960032Y1617000I-2032J0D01*
G01*
X977032Y1624000D02*
G03*
X977032Y1624000I-2032J0D01*
G01*
X1001032Y1600000D02*
G03*
X1001032Y1600000I-2032J0D01*
G01*
X977032Y1576000D02*
G03*
X977032Y1576000I-2032J0D01*
G01*
X953032Y1600000D02*
G03*
X953032Y1600000I-2032J0D01*
G01*
X180032Y1583000D02*
G03*
X180032Y1583000I-2032J0D01*
G01*
X214032D02*
G03*
X214032Y1583000I-2032J0D01*
G01*
Y1617000D02*
G03*
X214032Y1617000I-2032J0D01*
G01*
X180032D02*
G03*
X180032Y1617000I-2032J0D01*
G01*
X197032Y1624000D02*
G03*
X197032Y1624000I-2032J0D01*
G01*
X221032Y1600000D02*
G03*
X221032Y1600000I-2032J0D01*
G01*
X197032Y1576000D02*
G03*
X197032Y1576000I-2032J0D01*
G01*
X173032Y1600000D02*
G03*
X173032Y1600000I-2032J0D01*
G01*
X215732Y-240300D02*
G03*
X215732Y-240300I-2032J0D01*
G01*
X249732D02*
G03*
X249732Y-240300I-2032J0D01*
G01*
Y-206300D02*
G03*
X249732Y-206300I-2032J0D01*
G01*
X215732D02*
G03*
X215732Y-206300I-2032J0D01*
G01*
X232732Y-199300D02*
G03*
X232732Y-199300I-2032J0D01*
G01*
X256732Y-223300D02*
G03*
X256732Y-223300I-2032J0D01*
G01*
X232732Y-247300D02*
G03*
X232732Y-247300I-2032J0D01*
G01*
X208732Y-223300D02*
G03*
X208732Y-223300I-2032J0D01*
G01*
X795732Y-240300D02*
G03*
X795732Y-240300I-2032J0D01*
G01*
X829732D02*
G03*
X829732Y-240300I-2032J0D01*
G01*
Y-206300D02*
G03*
X829732Y-206300I-2032J0D01*
G01*
X795732D02*
G03*
X795732Y-206300I-2032J0D01*
G01*
X812732Y-199300D02*
G03*
X812732Y-199300I-2032J0D01*
G01*
X836732Y-223300D02*
G03*
X836732Y-223300I-2032J0D01*
G01*
X812732Y-247300D02*
G03*
X812732Y-247300I-2032J0D01*
G01*
X788732Y-223300D02*
G03*
X788732Y-223300I-2032J0D01*
G01*
X795732Y249700D02*
G03*
X795732Y249700I-2032J0D01*
G01*
X829732D02*
G03*
X829732Y249700I-2032J0D01*
G01*
Y283700D02*
G03*
X829732Y283700I-2032J0D01*
G01*
X795732D02*
G03*
X795732Y283700I-2032J0D01*
G01*
X812732Y290700D02*
G03*
X812732Y290700I-2032J0D01*
G01*
X836732Y266700D02*
G03*
X836732Y266700I-2032J0D01*
G01*
X812732Y242700D02*
G03*
X812732Y242700I-2032J0D01*
G01*
X788732Y266700D02*
G03*
X788732Y266700I-2032J0D01*
G01*
X215732Y249700D02*
G03*
X215732Y249700I-2032J0D01*
G01*
X249732D02*
G03*
X249732Y249700I-2032J0D01*
G01*
Y283700D02*
G03*
X249732Y283700I-2032J0D01*
G01*
X215732D02*
G03*
X215732Y283700I-2032J0D01*
G01*
X232732Y290700D02*
G03*
X232732Y290700I-2032J0D01*
G01*
X256732Y266700D02*
G03*
X256732Y266700I-2032J0D01*
G01*
X232732Y242700D02*
G03*
X232732Y242700I-2032J0D01*
G01*
X208732Y266700D02*
G03*
X208732Y266700I-2032J0D01*
G01*
X1265682Y965201D02*
G03*
X1265682Y965201I-2032J0D01*
G01*
Y939800D02*
G03*
X1265682Y939800I-2032J0D01*
G01*
Y914400D02*
G03*
X1265682Y914400I-2032J0D01*
G01*
Y889000D02*
G03*
X1265682Y889000I-2032J0D01*
G01*
X1240282Y977900D02*
G03*
X1240282Y977900I-2032J0D01*
G01*
Y952500D02*
G03*
X1240282Y952500I-2032J0D01*
G01*
Y927100D02*
G03*
X1240282Y927100I-2032J0D01*
G01*
Y901740D02*
G03*
X1240282Y901740I-2032J0D01*
G01*
X897382Y901700D02*
G03*
X897382Y901700I-2032J0D01*
G01*
Y927100D02*
G03*
X897382Y927100I-2032J0D01*
G01*
Y952500D02*
G03*
X897382Y952500I-2032J0D01*
G01*
Y977900D02*
G03*
X897382Y977900I-2032J0D01*
G01*
X922782Y888999D02*
G03*
X922782Y888999I-2032J0D01*
G01*
Y914400D02*
G03*
X922782Y914400I-2032J0D01*
G01*
Y939800D02*
G03*
X922782Y939800I-2032J0D01*
G01*
Y965160D02*
G03*
X922782Y965160I-2032J0D01*
G01*
X885032Y-242000D02*
G03*
X885032Y-242000I-2032J0D01*
G01*
X878032Y-225000D02*
G03*
X878032Y-225000I-2032J0D01*
G01*
X885032Y-208000D02*
G03*
X885032Y-208000I-2032J0D01*
G01*
X902032Y-249000D02*
G03*
X902032Y-249000I-2032J0D01*
G01*
X919032Y-242000D02*
G03*
X919032Y-242000I-2032J0D01*
G01*
X902032Y-201000D02*
G03*
X902032Y-201000I-2032J0D01*
G01*
X926032Y-225000D02*
G03*
X926032Y-225000I-2032J0D01*
G01*
X919032Y-208000D02*
G03*
X919032Y-208000I-2032J0D01*
G01*
X60032Y-242000D02*
G03*
X60032Y-242000I-2032J0D01*
G01*
X53032Y-225000D02*
G03*
X53032Y-225000I-2032J0D01*
G01*
X60032Y-208000D02*
G03*
X60032Y-208000I-2032J0D01*
G01*
X77032Y-249000D02*
G03*
X77032Y-249000I-2032J0D01*
G01*
X94032Y-242000D02*
G03*
X94032Y-242000I-2032J0D01*
G01*
X77032Y-201000D02*
G03*
X77032Y-201000I-2032J0D01*
G01*
X101032Y-225000D02*
G03*
X101032Y-225000I-2032J0D01*
G01*
X94032Y-208000D02*
G03*
X94032Y-208000I-2032J0D01*
G01*
X860032Y308000D02*
G03*
X860032Y308000I-2032J0D01*
G01*
X853032Y325000D02*
G03*
X853032Y325000I-2032J0D01*
G01*
X860032Y342000D02*
G03*
X860032Y342000I-2032J0D01*
G01*
X877032Y301000D02*
G03*
X877032Y301000I-2032J0D01*
G01*
X894032Y308000D02*
G03*
X894032Y308000I-2032J0D01*
G01*
X877032Y349000D02*
G03*
X877032Y349000I-2032J0D01*
G01*
X901032Y325000D02*
G03*
X901032Y325000I-2032J0D01*
G01*
X894032Y342000D02*
G03*
X894032Y342000I-2032J0D01*
G01*
X60032Y308000D02*
G03*
X60032Y308000I-2032J0D01*
G01*
X53032Y325000D02*
G03*
X53032Y325000I-2032J0D01*
G01*
X60032Y342000D02*
G03*
X60032Y342000I-2032J0D01*
G01*
X77032Y301000D02*
G03*
X77032Y301000I-2032J0D01*
G01*
X94032Y308000D02*
G03*
X94032Y308000I-2032J0D01*
G01*
X77032Y349000D02*
G03*
X77032Y349000I-2032J0D01*
G01*
X101032Y325000D02*
G03*
X101032Y325000I-2032J0D01*
G01*
X94032Y342000D02*
G03*
X94032Y342000I-2032J0D01*
G01*
X860032Y1408000D02*
G03*
X860032Y1408000I-2032J0D01*
G01*
X853032Y1425000D02*
G03*
X853032Y1425000I-2032J0D01*
G01*
X860032Y1442000D02*
G03*
X860032Y1442000I-2032J0D01*
G01*
X877032Y1401000D02*
G03*
X877032Y1401000I-2032J0D01*
G01*
X894032Y1408000D02*
G03*
X894032Y1408000I-2032J0D01*
G01*
X877032Y1449000D02*
G03*
X877032Y1449000I-2032J0D01*
G01*
X901032Y1425000D02*
G03*
X901032Y1425000I-2032J0D01*
G01*
X894032Y1442000D02*
G03*
X894032Y1442000I-2032J0D01*
G01*
X60032Y1408000D02*
G03*
X60032Y1408000I-2032J0D01*
G01*
X53032Y1425000D02*
G03*
X53032Y1425000I-2032J0D01*
G01*
X60032Y1442000D02*
G03*
X60032Y1442000I-2032J0D01*
G01*
X77032Y1401000D02*
G03*
X77032Y1401000I-2032J0D01*
G01*
X94032Y1408000D02*
G03*
X94032Y1408000I-2032J0D01*
G01*
X77032Y1449000D02*
G03*
X77032Y1449000I-2032J0D01*
G01*
X101032Y1425000D02*
G03*
X101032Y1425000I-2032J0D01*
G01*
X94032Y1442000D02*
G03*
X94032Y1442000I-2032J0D01*
G01*
X860032Y1983000D02*
G03*
X860032Y1983000I-2032J0D01*
G01*
X853032Y2000000D02*
G03*
X853032Y2000000I-2032J0D01*
G01*
X860032Y2017000D02*
G03*
X860032Y2017000I-2032J0D01*
G01*
X877032Y1976000D02*
G03*
X877032Y1976000I-2032J0D01*
G01*
X894032Y1983000D02*
G03*
X894032Y1983000I-2032J0D01*
G01*
X877032Y2024000D02*
G03*
X877032Y2024000I-2032J0D01*
G01*
X901032Y2000000D02*
G03*
X901032Y2000000I-2032J0D01*
G01*
X894032Y2017000D02*
G03*
X894032Y2017000I-2032J0D01*
G01*
X60032Y1983000D02*
G03*
X60032Y1983000I-2032J0D01*
G01*
X53032Y2000000D02*
G03*
X53032Y2000000I-2032J0D01*
G01*
X60032Y2017000D02*
G03*
X60032Y2017000I-2032J0D01*
G01*
X77032Y1976000D02*
G03*
X77032Y1976000I-2032J0D01*
G01*
X94032Y1983000D02*
G03*
X94032Y1983000I-2032J0D01*
G01*
X77032Y2024000D02*
G03*
X77032Y2024000I-2032J0D01*
G01*
X101032Y2000000D02*
G03*
X101032Y2000000I-2032J0D01*
G01*
X94032Y2017000D02*
G03*
X94032Y2017000I-2032J0D01*
G01*
X2032Y393700D02*
G03*
X2032Y393700I-2032J0D01*
G01*
X224282Y508000D02*
G03*
X224282Y508000I-2032J0D01*
G01*
Y381000D02*
G03*
X224282Y381000I-2032J0D01*
G01*
X833882D02*
G03*
X833882Y381000I-2032J0D01*
G01*
Y419100D02*
G03*
X833882Y419100I-2032J0D01*
G01*
X535432Y1149350D02*
G03*
X535432Y1149350I-2032J0D01*
G01*
Y1117600D02*
G03*
X535432Y1117600I-2032J0D01*
G01*
X65532Y393700D02*
G03*
X65532Y393700I-2032J0D01*
G01*
X617982Y609600D02*
G03*
X617982Y609600I-2032J0D01*
G01*
X764032Y685800D02*
G03*
X764032Y685800I-2032J0D01*
G01*
Y660400D02*
G03*
X764032Y660400I-2032J0D01*
G01*
X617982Y711200D02*
G03*
X617982Y711200I-2032J0D01*
G01*
X725932Y781050D02*
G03*
X725932Y781050I-2032J0D01*
G01*
X744982D02*
G03*
X744982Y781050I-2032J0D01*
G01*
X643382D02*
G03*
X643382Y781050I-2032J0D01*
G01*
X617982D02*
G03*
X617982Y781050I-2032J0D01*
G01*
X643382Y825500D02*
G03*
X643382Y825500I-2032J0D01*
G01*
X617982Y838200D02*
G03*
X617982Y838200I-2032J0D01*
G01*
X725932Y825500D02*
G03*
X725932Y825500I-2032J0D01*
G01*
X744982Y838200D02*
G03*
X744982Y838200I-2032J0D01*
G01*
X871982Y977900D02*
G03*
X871982Y977900I-2032J0D01*
G01*
X897382Y1174750D02*
G03*
X897382Y1174750I-2032J0D01*
G01*
X973582Y1174750D02*
G03*
X973582Y1174750I-2032J0D01*
G01*
X840232Y946150D02*
G03*
X840232Y946150I-2032J0D01*
G01*
X700532Y869950D02*
G03*
X700532Y869950I-2032J0D01*
G01*
Y920750D02*
G03*
X700532Y920750I-2032J0D01*
G01*
X764032Y850900D02*
G03*
X764032Y850900I-2032J0D01*
G01*
Y825500D02*
G03*
X764032Y825500I-2032J0D01*
G01*
X573532Y908050D02*
G03*
X573532Y908050I-2032J0D01*
G01*
Y825500D02*
G03*
X573532Y825500I-2032J0D01*
G01*
X510032Y1200150D02*
G03*
X510032Y1200150I-2032J0D01*
G01*
Y1117600D02*
G03*
X510032Y1117600I-2032J0D01*
G01*
X275082Y1111250D02*
G03*
X275082Y1111250I-2032J0D01*
G01*
X383032D02*
G03*
X383032Y1111250I-2032J0D01*
G01*
X275082Y946150D02*
G03*
X275082Y946150I-2032J0D01*
G01*
X370332D02*
G03*
X370332Y946150I-2032J0D01*
G01*
D85*
X1016Y393700D02*
G03*
X1016Y393700I-1016J0D01*
G01*
X223266Y508000D02*
G03*
X223266Y508000I-1016J0D01*
G01*
Y381000D02*
G03*
X223266Y381000I-1016J0D01*
G01*
X832866D02*
G03*
X832866Y381000I-1016J0D01*
G01*
Y419100D02*
G03*
X832866Y419100I-1016J0D01*
G01*
X534416Y1149350D02*
G03*
X534416Y1149350I-1016J0D01*
G01*
Y1117600D02*
G03*
X534416Y1117600I-1016J0D01*
G01*
X64516Y393700D02*
G03*
X64516Y393700I-1016J0D01*
G01*
X616966Y609600D02*
G03*
X616966Y609600I-1016J0D01*
G01*
X763016Y685800D02*
G03*
X763016Y685800I-1016J0D01*
G01*
Y660400D02*
G03*
X763016Y660400I-1016J0D01*
G01*
X616966Y711200D02*
G03*
X616966Y711200I-1016J0D01*
G01*
X724916Y781050D02*
G03*
X724916Y781050I-1016J0D01*
G01*
X743966D02*
G03*
X743966Y781050I-1016J0D01*
G01*
X642366D02*
G03*
X642366Y781050I-1016J0D01*
G01*
X616966D02*
G03*
X616966Y781050I-1016J0D01*
G01*
X642366Y825500D02*
G03*
X642366Y825500I-1016J0D01*
G01*
X616966Y838200D02*
G03*
X616966Y838200I-1016J0D01*
G01*
X724916Y825500D02*
G03*
X724916Y825500I-1016J0D01*
G01*
X743966Y838200D02*
G03*
X743966Y838200I-1016J0D01*
G01*
X870966Y977900D02*
G03*
X870966Y977900I-1016J0D01*
G01*
X896366Y1174750D02*
G03*
X896366Y1174750I-1016J0D01*
G01*
X972566Y1174750D02*
G03*
X972566Y1174750I-1016J0D01*
G01*
X839216Y946150D02*
G03*
X839216Y946150I-1016J0D01*
G01*
X699516Y869950D02*
G03*
X699516Y869950I-1016J0D01*
G01*
Y920750D02*
G03*
X699516Y920750I-1016J0D01*
G01*
X763016Y850900D02*
G03*
X763016Y850900I-1016J0D01*
G01*
Y825500D02*
G03*
X763016Y825500I-1016J0D01*
G01*
X572516Y908050D02*
G03*
X572516Y908050I-1016J0D01*
G01*
Y825500D02*
G03*
X572516Y825500I-1016J0D01*
G01*
X509016Y1200150D02*
G03*
X509016Y1200150I-1016J0D01*
G01*
Y1117600D02*
G03*
X509016Y1117600I-1016J0D01*
G01*
X274066Y1111250D02*
G03*
X274066Y1111250I-1016J0D01*
G01*
X382016D02*
G03*
X382016Y1111250I-1016J0D01*
G01*
X274066Y946150D02*
G03*
X274066Y946150I-1016J0D01*
G01*
X369316D02*
G03*
X369316Y946150I-1016J0D01*
G01*
M02*
