G04 Layer_Color=8388736*
%FSLAX44Y44*%
%MOMM*%
G71*
G01*
G75*
%ADD51C,1.0032*%
%ADD52C,1.8032*%
%ADD53C,1.7032*%
%ADD54R,1.7032X1.7032*%
%ADD55C,3.0032*%
%ADD56C,1.9032*%
%ADD57C,0.2032*%
%ADD58C,6.2032*%
%ADD59R,1.7032X1.7032*%
%ADD60C,3.2000*%
%ADD61C,2.3032*%
%ADD62R,1.9032X1.9032*%
%ADD63R,1.9032X1.9032*%
%ADD64C,2.2032*%
%ADD65C,3.2032*%
D51*
X1070000Y470000D02*
D03*
Y430000D02*
D03*
Y460000D02*
D03*
Y450000D02*
D03*
Y440000D02*
D03*
Y970000D02*
D03*
Y930000D02*
D03*
Y960000D02*
D03*
Y950000D02*
D03*
Y940000D02*
D03*
Y1470000D02*
D03*
Y1430000D02*
D03*
Y1460000D02*
D03*
Y1450000D02*
D03*
Y1440000D02*
D03*
Y1970000D02*
D03*
Y1930000D02*
D03*
Y1960000D02*
D03*
Y1950000D02*
D03*
Y1940000D02*
D03*
X1220000Y1220000D02*
D03*
X1180000D02*
D03*
X1210000D02*
D03*
X1200000D02*
D03*
X1190000D02*
D03*
X1620000D02*
D03*
X1580000D02*
D03*
X1610000D02*
D03*
X1600000D02*
D03*
X1590000D02*
D03*
X1620000Y630000D02*
D03*
X1580000D02*
D03*
X1610000D02*
D03*
X1600000D02*
D03*
X1590000D02*
D03*
X1220000D02*
D03*
X1180000D02*
D03*
X1210000D02*
D03*
X1200000D02*
D03*
X1190000D02*
D03*
X1220000Y540000D02*
D03*
X1180000D02*
D03*
X1210000D02*
D03*
X1200000D02*
D03*
X1190000D02*
D03*
X1620000D02*
D03*
X1580000D02*
D03*
X1610000D02*
D03*
X1600000D02*
D03*
X1590000D02*
D03*
X1620000Y200000D02*
D03*
X1580000D02*
D03*
X1610000D02*
D03*
X1600000D02*
D03*
X1590000D02*
D03*
X1220000D02*
D03*
X1180000D02*
D03*
X1210000D02*
D03*
X1200000D02*
D03*
X1190000D02*
D03*
X1070000Y-70000D02*
D03*
Y-30000D02*
D03*
Y-60000D02*
D03*
Y-50000D02*
D03*
Y-40000D02*
D03*
X1050000D02*
D03*
Y-50000D02*
D03*
Y-60000D02*
D03*
Y-30000D02*
D03*
Y-70000D02*
D03*
Y460000D02*
D03*
Y450000D02*
D03*
Y440000D02*
D03*
Y470000D02*
D03*
Y430000D02*
D03*
Y960000D02*
D03*
Y950000D02*
D03*
Y940000D02*
D03*
Y970000D02*
D03*
Y930000D02*
D03*
Y1460000D02*
D03*
Y1450000D02*
D03*
Y1440000D02*
D03*
Y1470000D02*
D03*
Y1430000D02*
D03*
Y1960000D02*
D03*
Y1950000D02*
D03*
Y1940000D02*
D03*
Y1970000D02*
D03*
Y1930000D02*
D03*
X1610000Y1200000D02*
D03*
X1600000D02*
D03*
X1590000D02*
D03*
X1620000D02*
D03*
X1580000D02*
D03*
X1210000D02*
D03*
X1200000D02*
D03*
X1190000D02*
D03*
X1220000D02*
D03*
X1180000D02*
D03*
X1610000Y220000D02*
D03*
X1600000D02*
D03*
X1590000D02*
D03*
X1620000D02*
D03*
X1580000D02*
D03*
X1210000D02*
D03*
X1200000D02*
D03*
X1190000D02*
D03*
X1220000D02*
D03*
X1180000D02*
D03*
X1210000Y520000D02*
D03*
X1200000D02*
D03*
X1190000D02*
D03*
X1220000D02*
D03*
X1180000D02*
D03*
X1610000D02*
D03*
X1600000D02*
D03*
X1590000D02*
D03*
X1620000D02*
D03*
X1580000D02*
D03*
X1610000Y650000D02*
D03*
X1600000D02*
D03*
X1590000D02*
D03*
X1620000D02*
D03*
X1580000D02*
D03*
X1210000D02*
D03*
X1200000D02*
D03*
X1190000D02*
D03*
X1220000D02*
D03*
X1180000D02*
D03*
D52*
X1270000Y457200D02*
D03*
Y482600D02*
D03*
X1244600Y457200D02*
D03*
Y482600D02*
D03*
X1219200D02*
D03*
Y457200D02*
D03*
X1193800Y482600D02*
D03*
Y457200D02*
D03*
X1168400Y482600D02*
D03*
Y457200D02*
D03*
X1397000D02*
D03*
Y482600D02*
D03*
X1371600Y457200D02*
D03*
Y482600D02*
D03*
X1346200D02*
D03*
Y457200D02*
D03*
X1320800Y482600D02*
D03*
Y457200D02*
D03*
X1295400Y482600D02*
D03*
Y457200D02*
D03*
X1524000D02*
D03*
Y482600D02*
D03*
X1498600Y457200D02*
D03*
Y482600D02*
D03*
X1473200D02*
D03*
Y457200D02*
D03*
X1447800Y482600D02*
D03*
Y457200D02*
D03*
X1422400Y482600D02*
D03*
Y457200D02*
D03*
X1651000D02*
D03*
Y482600D02*
D03*
X1625600Y457200D02*
D03*
Y482600D02*
D03*
X1600200D02*
D03*
Y457200D02*
D03*
X1574800Y482600D02*
D03*
Y457200D02*
D03*
X1549400Y482600D02*
D03*
Y457200D02*
D03*
X1270000Y254000D02*
D03*
Y279400D02*
D03*
X1244600Y254000D02*
D03*
Y279400D02*
D03*
X1219200D02*
D03*
Y254000D02*
D03*
X1193800Y279400D02*
D03*
Y254000D02*
D03*
X1168400Y279400D02*
D03*
Y254000D02*
D03*
X1397000D02*
D03*
Y279400D02*
D03*
X1371600Y254000D02*
D03*
Y279400D02*
D03*
X1346200D02*
D03*
Y254000D02*
D03*
X1320800Y279400D02*
D03*
Y254000D02*
D03*
X1295400Y279400D02*
D03*
Y254000D02*
D03*
X1524000D02*
D03*
Y279400D02*
D03*
X1498600Y254000D02*
D03*
Y279400D02*
D03*
X1473200D02*
D03*
Y254000D02*
D03*
X1447800Y279400D02*
D03*
Y254000D02*
D03*
X1422400Y279400D02*
D03*
Y254000D02*
D03*
X1651000D02*
D03*
Y279400D02*
D03*
X1625600Y254000D02*
D03*
Y279400D02*
D03*
X1600200D02*
D03*
Y254000D02*
D03*
X1574800Y279400D02*
D03*
Y254000D02*
D03*
X1549400Y279400D02*
D03*
Y254000D02*
D03*
X768350Y1298500D02*
D03*
Y1323500D02*
D03*
Y1343500D02*
D03*
Y1368500D02*
D03*
X952500Y774700D02*
D03*
X977900D02*
D03*
X952500Y749300D02*
D03*
X977900D02*
D03*
Y457200D02*
D03*
X952500D02*
D03*
X977900Y482600D02*
D03*
X952500D02*
D03*
Y1346200D02*
D03*
X977900D02*
D03*
X952500Y1320800D02*
D03*
X977900D02*
D03*
X660400Y457200D02*
D03*
Y482600D02*
D03*
X685800Y457200D02*
D03*
Y482600D02*
D03*
X711200D02*
D03*
Y457200D02*
D03*
X736600Y482600D02*
D03*
Y457200D02*
D03*
X762000Y482600D02*
D03*
Y457200D02*
D03*
X533400D02*
D03*
Y482600D02*
D03*
X558800Y457200D02*
D03*
Y482600D02*
D03*
X584200D02*
D03*
Y457200D02*
D03*
X609600Y482600D02*
D03*
Y457200D02*
D03*
X635000Y482600D02*
D03*
Y457200D02*
D03*
X406400D02*
D03*
Y482600D02*
D03*
X431800Y457200D02*
D03*
Y482600D02*
D03*
X457200D02*
D03*
Y457200D02*
D03*
X482600Y482600D02*
D03*
Y457200D02*
D03*
X508000Y482600D02*
D03*
Y457200D02*
D03*
X279400D02*
D03*
Y482600D02*
D03*
X304800Y457200D02*
D03*
Y482600D02*
D03*
X330200D02*
D03*
Y457200D02*
D03*
X355600Y482600D02*
D03*
Y457200D02*
D03*
X381000Y482600D02*
D03*
Y457200D02*
D03*
X933800Y41700D02*
D03*
Y21700D02*
D03*
X907600D02*
D03*
Y41700D02*
D03*
X590550Y600000D02*
D03*
Y625000D02*
D03*
Y645000D02*
D03*
Y670000D02*
D03*
D53*
X1003300Y1047750D02*
D03*
X977900D02*
D03*
X952500D02*
D03*
X927100D02*
D03*
X901700D02*
D03*
X876300D02*
D03*
X850900D02*
D03*
X825500D02*
D03*
X800100D02*
D03*
X774700D02*
D03*
X749300D02*
D03*
X723900D02*
D03*
Y1200150D02*
D03*
X749300D02*
D03*
X774700D02*
D03*
X800100D02*
D03*
X825500D02*
D03*
X850900D02*
D03*
X876300D02*
D03*
X901700D02*
D03*
X927100D02*
D03*
X952500D02*
D03*
X977900D02*
D03*
X590550Y1073150D02*
D03*
Y1047750D02*
D03*
X666750D02*
D03*
Y1098550D02*
D03*
X641350Y1047750D02*
D03*
Y1098550D02*
D03*
Y1073150D02*
D03*
X666750D02*
D03*
X0Y800100D02*
D03*
X127000Y447840D02*
D03*
X0Y1028700D02*
D03*
X920750Y965160D02*
D03*
Y939800D02*
D03*
Y914400D02*
D03*
Y888999D02*
D03*
X895350Y977900D02*
D03*
Y952500D02*
D03*
Y927100D02*
D03*
Y901700D02*
D03*
X1238250Y901740D02*
D03*
Y927100D02*
D03*
Y952500D02*
D03*
Y977900D02*
D03*
X1263650Y889000D02*
D03*
Y914400D02*
D03*
Y939800D02*
D03*
Y965201D02*
D03*
D54*
X1003300Y1200150D02*
D03*
X50000Y800100D02*
D03*
Y1028700D02*
D03*
D55*
X741250Y1267800D02*
D03*
Y1399200D02*
D03*
X563450Y569300D02*
D03*
Y700700D02*
D03*
D56*
X666750Y1174750D02*
D03*
Y1200150D02*
D03*
X641350Y1174750D02*
D03*
Y1200150D02*
D03*
X1365250Y1085850D02*
D03*
Y1035050D02*
D03*
X1390650Y1085850D02*
D03*
Y1035050D02*
D03*
Y1060450D02*
D03*
X1365250D02*
D03*
Y984250D02*
D03*
Y958850D02*
D03*
X1390650Y984250D02*
D03*
Y958850D02*
D03*
X1365250Y869950D02*
D03*
Y844550D02*
D03*
X1390650Y869950D02*
D03*
Y844550D02*
D03*
X1365250Y806450D02*
D03*
Y781050D02*
D03*
X1390650Y806450D02*
D03*
Y781050D02*
D03*
X736600Y546100D02*
D03*
Y596900D02*
D03*
Y647700D02*
D03*
Y723900D02*
D03*
X660400Y546100D02*
D03*
Y596900D02*
D03*
Y647700D02*
D03*
X863600Y546100D02*
D03*
Y596900D02*
D03*
Y647700D02*
D03*
Y723900D02*
D03*
X787400Y546100D02*
D03*
Y596900D02*
D03*
Y647700D02*
D03*
X25400Y875500D02*
D03*
X76200D02*
D03*
X127000D02*
D03*
X203200D02*
D03*
X25400Y951700D02*
D03*
X76200D02*
D03*
X127000D02*
D03*
X25400Y1104900D02*
D03*
X76200D02*
D03*
X127000D02*
D03*
X203200D02*
D03*
X25400Y1181100D02*
D03*
X76200D02*
D03*
X127000D02*
D03*
X930750Y647500D02*
D03*
Y622500D02*
D03*
X910750D02*
D03*
Y647500D02*
D03*
D57*
X1555750Y1085850D02*
D03*
Y958850D02*
D03*
Y869950D02*
D03*
Y781050D02*
D03*
D58*
X75000Y2000000D02*
D03*
X875000D02*
D03*
X75000Y1425000D02*
D03*
X875000D02*
D03*
X75000Y325000D02*
D03*
X875000D02*
D03*
X75000Y-225000D02*
D03*
X900000D02*
D03*
X810700Y266700D02*
D03*
Y-223300D02*
D03*
X230700Y266700D02*
D03*
Y-223300D02*
D03*
X195000Y1600000D02*
D03*
X975000D02*
D03*
Y2000000D02*
D03*
X195000D02*
D03*
D59*
X127000Y497840D02*
D03*
D60*
X984250Y990600D02*
D03*
Y876300D02*
D03*
X1174750Y876300D02*
D03*
Y990601D02*
D03*
D61*
X0Y-50800D02*
D03*
Y0D02*
D03*
Y50800D02*
D03*
D62*
X660400Y723900D02*
D03*
X787400D02*
D03*
D63*
X203200Y951700D02*
D03*
X203200Y1181100D02*
D03*
D64*
X-31750Y1809750D02*
D03*
Y1784750D02*
D03*
X195000Y1850000D02*
D03*
Y1900000D02*
D03*
D65*
X957850Y574800D02*
D03*
Y695200D02*
D03*
M02*
