G04 Layer_Color=8388736*
%FSLAX44Y44*%
%MOMM*%
G71*
G01*
G75*
%ADD45C,0.2540*%
%ADD46C,0.3000*%
%ADD47C,0.2000*%
%ADD48C,0.1000*%
%ADD49C,0.1270*%
D45*
X581500Y1223500D02*
Y1443500D01*
X-58500D02*
X581500D01*
X-58500Y1223500D02*
Y1443500D01*
Y1223500D02*
X581500D01*
X135000Y2055000D02*
X1025000D01*
X135000Y1565000D02*
Y2055000D01*
Y1565000D02*
X1025000D01*
Y2055000D01*
D46*
X609830Y1078230D02*
G03*
X609830Y1078230I-1500J0D01*
G01*
X624200Y1199800D02*
G03*
X624200Y1199800I-1500J0D01*
G01*
Y1098200D02*
G03*
X624200Y1098200I-1500J0D01*
G01*
X1410800Y1035400D02*
G03*
X1410800Y1035400I-1500J0D01*
G01*
Y959200D02*
G03*
X1410800Y959200I-1500J0D01*
G01*
Y844900D02*
G03*
X1410800Y844900I-1500J0D01*
G01*
Y781400D02*
G03*
X1410800Y781400I-1500J0D01*
G01*
X1039320Y775970D02*
G03*
X1039320Y775970I-1500J0D01*
G01*
Y483870D02*
G03*
X1039320Y483870I-1500J0D01*
G01*
Y1347470D02*
G03*
X1039320Y1347470I-1500J0D01*
G01*
D47*
X753348Y1297007D02*
X746683Y1301768D01*
Y1294627D01*
X753348Y1297007D02*
X743350D01*
X751443Y1370101D02*
X751920Y1369149D01*
X753348Y1367721D01*
X743350D01*
X644464Y1222620D02*
X644940Y1221668D01*
X646368Y1220240D01*
X636370D01*
X644464Y1121020D02*
X644940Y1120068D01*
X646368Y1118640D01*
X636370D01*
X914050Y873150D02*
Y869151D01*
Y871150D01*
X926046D01*
X924047Y873150D01*
X1244950Y993750D02*
Y997749D01*
Y995750D01*
X1232954D01*
X1234953Y993750D01*
X1387536Y1012580D02*
X1387060Y1013532D01*
X1385632Y1014960D01*
X1395630D01*
X1387536Y936380D02*
X1387060Y937332D01*
X1385632Y938760D01*
X1395630D01*
X1387536Y822080D02*
X1387060Y823032D01*
X1385632Y824460D01*
X1395630D01*
X1387536Y758580D02*
X1387060Y759532D01*
X1385632Y760960D01*
X1395630D01*
X-26847Y48093D02*
Y54377D01*
X-22277Y50949D01*
Y52663D01*
X-21706Y53806D01*
X-21134Y54377D01*
X-19420Y54948D01*
X-18278D01*
X-16564Y54377D01*
X-15421Y53234D01*
X-14850Y51521D01*
Y49807D01*
X-15421Y48093D01*
X-15993Y47521D01*
X-17135Y46950D01*
X-24562Y-51900D02*
X-25134Y-50757D01*
X-26847Y-49043D01*
X-14850D01*
X970307Y765810D02*
X960310D01*
Y760812D01*
X961976Y759146D01*
X963642D01*
X965308Y760812D01*
Y765810D01*
Y760812D01*
X966974Y759146D01*
X968641D01*
X970307Y760812D01*
Y765810D01*
X985710D02*
X992374D01*
X995707Y762478D01*
X992374Y759146D01*
X985710D01*
X990708D01*
Y765810D01*
X985710Y473710D02*
X992374D01*
X995707Y470378D01*
X992374Y467046D01*
X985710D01*
X990708D01*
Y473710D01*
X970307D02*
X960310D01*
Y468712D01*
X961976Y467046D01*
X963642D01*
X965308Y468712D01*
Y473710D01*
Y468712D01*
X966974Y467046D01*
X968641D01*
X970307Y468712D01*
Y473710D01*
Y1337310D02*
X960310D01*
Y1332312D01*
X961976Y1330645D01*
X963642D01*
X965308Y1332312D01*
Y1337310D01*
Y1332312D01*
X966974Y1330645D01*
X968641D01*
X970307Y1332312D01*
Y1337310D01*
X985710D02*
X992374D01*
X995707Y1333978D01*
X992374Y1330645D01*
X985710D01*
X990708D01*
Y1337310D01*
X575548Y598507D02*
X568883Y603268D01*
Y596127D01*
X575548Y598507D02*
X565550D01*
X573643Y671601D02*
X574120Y670649D01*
X575548Y669221D01*
X565550D01*
D48*
X644250Y1270870D02*
G03*
X638250Y1264870I0J-6000D01*
G01*
X644250Y1267870D02*
G03*
X641250Y1264870I0J-3000D01*
G01*
X638250Y1401870D02*
G03*
X644250Y1395870I6000J0D01*
G01*
X641250Y1401870D02*
G03*
X644250Y1398870I3000J0D01*
G01*
X77500Y800100D02*
G03*
X77500Y800100I-52500J0D01*
G01*
X179500Y472840D02*
G03*
X179500Y472840I-52500J0D01*
G01*
X77500Y1028700D02*
G03*
X77500Y1028700I-52500J0D01*
G01*
X769700Y899440D02*
G03*
X769700Y899440I-5000J0D01*
G01*
Y950240D02*
G03*
X769700Y950240I-5000J0D01*
G01*
X580150Y929360D02*
G03*
X580150Y929360I-5000J0D01*
G01*
Y980160D02*
G03*
X580150Y980160I-5000J0D01*
G01*
X14000Y50800D02*
G03*
X14000Y50800I-14000J0D01*
G01*
X24304Y29258D02*
G03*
X24300Y72341I-25012J21539D01*
G01*
X21300Y30404D02*
G03*
X21300Y71196I-21979J20396D01*
G01*
X14000Y0D02*
G03*
X14000Y0I-14000J0D01*
G01*
X24304Y-21542D02*
G03*
X24300Y21541I-25012J21539D01*
G01*
X21300Y-20396D02*
G03*
X21300Y20396I-21979J20396D01*
G01*
X14000Y-50800D02*
G03*
X14000Y-50800I-14000J0D01*
G01*
X24304Y-72342D02*
G03*
X24300Y-29259I-25012J21539D01*
G01*
X21300Y-71196D02*
G03*
X21300Y-30404I-21979J20396D01*
G01*
X1066900Y747500D02*
G03*
X1066900Y776500I0J14500D01*
G01*
Y455400D02*
G03*
X1066900Y484400I0J14500D01*
G01*
Y1319000D02*
G03*
X1066900Y1348000I0J14500D01*
G01*
X728980Y577850D02*
G03*
X731520Y577850I1270J1270D01*
G01*
Y565150D02*
G03*
X728980Y565150I-1270J-1270D01*
G01*
X668020Y565150D02*
G03*
X665480Y565150I-1270J-1270D01*
G01*
Y577850D02*
G03*
X668020Y577850I1270J1270D01*
G01*
X855980Y577850D02*
G03*
X858520Y577850I1270J1270D01*
G01*
Y565150D02*
G03*
X855980Y565150I-1270J-1270D01*
G01*
X795020Y565150D02*
G03*
X792480Y565150I-1270J-1270D01*
G01*
Y577850D02*
G03*
X795020Y577850I1270J1270D01*
G01*
X57150Y883120D02*
G03*
X57150Y880580I1270J-1270D01*
G01*
X44450D02*
G03*
X44450Y883120I-1270J1270D01*
G01*
X44450Y944080D02*
G03*
X44450Y946620I-1270J1270D01*
G01*
X57150D02*
G03*
X57150Y944080I1270J-1270D01*
G01*
Y1112520D02*
G03*
X57150Y1109980I1270J-1270D01*
G01*
X44450D02*
G03*
X44450Y1112520I-1270J1270D01*
G01*
X44450Y1173480D02*
G03*
X44450Y1176020I-1270J1270D01*
G01*
X57150D02*
G03*
X57150Y1173480I1270J-1270D01*
G01*
X245872Y510540D02*
G03*
X236728Y510540I-4572J0D01*
G01*
X512572D02*
G03*
X503428Y510540I-4572J0D01*
G01*
X804672D02*
G03*
X795528Y510540I-4572J0D01*
G01*
X57350Y8250D02*
G03*
X57350Y8250I-5000J0D01*
G01*
X466450Y572370D02*
G03*
X460450Y566370I0J-6000D01*
G01*
X466450Y569370D02*
G03*
X463450Y566370I0J-3000D01*
G01*
X460450Y703370D02*
G03*
X466450Y697370I6000J0D01*
G01*
X463450Y703370D02*
G03*
X466450Y700370I3000J0D01*
G01*
X1049068Y647500D02*
G03*
X1049068Y642500I-18J-2500D01*
G01*
Y627500D02*
G03*
X1049068Y622500I-18J-2500D01*
G01*
X1172400Y478600D02*
Y486600D01*
X1164400Y478600D02*
X1172400D01*
X1164400D02*
Y486600D01*
X1172400D01*
X1177400Y491600D01*
X1159400D02*
X1164400Y486600D01*
X1159400Y473600D02*
X1164400Y478600D01*
X1172400Y478628D02*
X1177400Y473600D01*
X1159400D02*
X1177400D01*
X1159400D02*
Y491600D01*
X1177400D01*
Y473600D02*
Y491600D01*
X1197800Y478600D02*
Y486600D01*
X1189800Y478600D02*
X1197800D01*
X1189800D02*
Y486600D01*
X1197800D01*
X1202800Y491600D01*
X1184800D02*
X1189800Y486600D01*
X1184800Y473600D02*
X1189800Y478600D01*
X1197800Y478628D02*
X1202800Y473600D01*
X1184800D02*
X1202800D01*
X1184800D02*
Y491600D01*
X1202800D01*
Y473600D02*
Y491600D01*
X1223200Y478600D02*
Y486600D01*
X1215200Y478600D02*
X1223200D01*
X1215200D02*
Y486600D01*
X1223200D01*
X1228200Y491600D01*
X1210200D02*
X1215200Y486600D01*
X1210200Y473600D02*
X1215200Y478600D01*
X1223200Y478628D02*
X1228200Y473600D01*
X1210200D02*
X1228200D01*
X1210200D02*
Y491600D01*
X1228200D01*
Y473600D02*
Y491600D01*
X1248600Y478600D02*
Y486600D01*
X1240600Y478600D02*
X1248600D01*
X1240600D02*
Y486600D01*
X1248600D01*
X1253600Y491600D01*
X1235600D02*
X1240600Y486600D01*
X1235600Y473600D02*
X1240600Y478600D01*
X1248600Y478628D02*
X1253600Y473600D01*
X1235600D02*
X1253600D01*
X1235600D02*
Y491600D01*
X1253600D01*
Y473600D02*
Y491600D01*
X1274000Y478600D02*
Y486600D01*
X1266000Y478600D02*
X1274000D01*
X1266000D02*
Y486600D01*
X1274000D01*
X1279000Y491600D01*
X1261000D02*
X1266000Y486600D01*
X1261000Y473600D02*
X1266000Y478600D01*
X1274000Y478628D02*
X1279000Y473600D01*
X1261000D02*
X1279000D01*
X1261000D02*
Y491600D01*
X1279000D01*
Y473600D02*
Y491600D01*
X1172400Y453200D02*
Y461200D01*
X1164400Y453200D02*
X1172400D01*
X1164400D02*
Y461200D01*
X1172400D01*
X1177400Y466200D01*
X1159400D02*
X1164400Y461200D01*
X1159400Y448200D02*
X1164400Y453200D01*
X1172400Y453228D02*
X1177400Y448200D01*
X1159400D02*
X1177400D01*
X1159400D02*
Y466200D01*
X1177400D01*
Y448200D02*
Y466200D01*
X1197800Y453200D02*
Y461200D01*
X1189800Y453200D02*
X1197800D01*
X1189800D02*
Y461200D01*
X1197800D01*
X1202800Y466200D01*
X1184800D02*
X1189800Y461200D01*
X1184800Y448200D02*
X1189800Y453200D01*
X1197800Y453228D02*
X1202800Y448200D01*
X1184800D02*
X1202800D01*
X1184800D02*
Y466200D01*
X1202800D01*
Y448200D02*
Y466200D01*
X1223200Y453200D02*
Y461200D01*
X1215200Y453200D02*
X1223200D01*
X1215200D02*
Y461200D01*
X1223200D01*
X1228200Y466200D01*
X1210200D02*
X1215200Y461200D01*
X1210200Y448200D02*
X1215200Y453200D01*
X1223200Y453228D02*
X1228200Y448200D01*
X1210200D02*
X1228200D01*
X1210200D02*
Y466200D01*
X1228200D01*
Y448200D02*
Y466200D01*
X1248600Y453200D02*
Y461200D01*
X1240600Y453200D02*
X1248600D01*
X1240600D02*
Y461200D01*
X1248600D01*
X1253600Y466200D01*
X1235600D02*
X1240600Y461200D01*
X1235600Y448200D02*
X1240600Y453200D01*
X1248600Y453228D02*
X1253600Y448200D01*
X1235600D02*
X1253600D01*
X1235600D02*
Y466200D01*
X1253600D01*
Y448200D02*
Y466200D01*
X1274000Y453200D02*
Y461200D01*
X1266000Y453200D02*
X1274000D01*
X1266000D02*
Y461200D01*
X1274000D01*
X1279000Y466200D01*
X1261000D02*
X1266000Y461200D01*
X1261000Y448200D02*
X1266000Y453200D01*
X1274000Y453228D02*
X1279000Y448200D01*
X1261000D02*
X1279000D01*
X1261000D02*
Y466200D01*
X1279000D01*
Y448200D02*
Y466200D01*
X1299400Y478600D02*
Y486600D01*
X1291400Y478600D02*
X1299400D01*
X1291400D02*
Y486600D01*
X1299400D01*
X1304400Y491600D01*
X1286400D02*
X1291400Y486600D01*
X1286400Y473600D02*
X1291400Y478600D01*
X1299400Y478628D02*
X1304400Y473600D01*
X1286400D02*
X1304400D01*
X1286400D02*
Y491600D01*
X1304400D01*
Y473600D02*
Y491600D01*
X1324800Y478600D02*
Y486600D01*
X1316800Y478600D02*
X1324800D01*
X1316800D02*
Y486600D01*
X1324800D01*
X1329800Y491600D01*
X1311800D02*
X1316800Y486600D01*
X1311800Y473600D02*
X1316800Y478600D01*
X1324800Y478628D02*
X1329800Y473600D01*
X1311800D02*
X1329800D01*
X1311800D02*
Y491600D01*
X1329800D01*
Y473600D02*
Y491600D01*
X1350200Y478600D02*
Y486600D01*
X1342200Y478600D02*
X1350200D01*
X1342200D02*
Y486600D01*
X1350200D01*
X1355200Y491600D01*
X1337200D02*
X1342200Y486600D01*
X1337200Y473600D02*
X1342200Y478600D01*
X1350200Y478628D02*
X1355200Y473600D01*
X1337200D02*
X1355200D01*
X1337200D02*
Y491600D01*
X1355200D01*
Y473600D02*
Y491600D01*
X1375600Y478600D02*
Y486600D01*
X1367600Y478600D02*
X1375600D01*
X1367600D02*
Y486600D01*
X1375600D01*
X1380600Y491600D01*
X1362600D02*
X1367600Y486600D01*
X1362600Y473600D02*
X1367600Y478600D01*
X1375600Y478628D02*
X1380600Y473600D01*
X1362600D02*
X1380600D01*
X1362600D02*
Y491600D01*
X1380600D01*
Y473600D02*
Y491600D01*
X1401000Y478600D02*
Y486600D01*
X1393000Y478600D02*
X1401000D01*
X1393000D02*
Y486600D01*
X1401000D01*
X1406000Y491600D01*
X1388000D02*
X1393000Y486600D01*
X1388000Y473600D02*
X1393000Y478600D01*
X1401000Y478628D02*
X1406000Y473600D01*
X1388000D02*
X1406000D01*
X1388000D02*
Y491600D01*
X1406000D01*
Y473600D02*
Y491600D01*
X1299400Y453200D02*
Y461200D01*
X1291400Y453200D02*
X1299400D01*
X1291400D02*
Y461200D01*
X1299400D01*
X1304400Y466200D01*
X1286400D02*
X1291400Y461200D01*
X1286400Y448200D02*
X1291400Y453200D01*
X1299400Y453228D02*
X1304400Y448200D01*
X1286400D02*
X1304400D01*
X1286400D02*
Y466200D01*
X1304400D01*
Y448200D02*
Y466200D01*
X1324800Y453200D02*
Y461200D01*
X1316800Y453200D02*
X1324800D01*
X1316800D02*
Y461200D01*
X1324800D01*
X1329800Y466200D01*
X1311800D02*
X1316800Y461200D01*
X1311800Y448200D02*
X1316800Y453200D01*
X1324800Y453228D02*
X1329800Y448200D01*
X1311800D02*
X1329800D01*
X1311800D02*
Y466200D01*
X1329800D01*
Y448200D02*
Y466200D01*
X1350200Y453200D02*
Y461200D01*
X1342200Y453200D02*
X1350200D01*
X1342200D02*
Y461200D01*
X1350200D01*
X1355200Y466200D01*
X1337200D02*
X1342200Y461200D01*
X1337200Y448200D02*
X1342200Y453200D01*
X1350200Y453228D02*
X1355200Y448200D01*
X1337200D02*
X1355200D01*
X1337200D02*
Y466200D01*
X1355200D01*
Y448200D02*
Y466200D01*
X1375600Y453200D02*
Y461200D01*
X1367600Y453200D02*
X1375600D01*
X1367600D02*
Y461200D01*
X1375600D01*
X1380600Y466200D01*
X1362600D02*
X1367600Y461200D01*
X1362600Y448200D02*
X1367600Y453200D01*
X1375600Y453228D02*
X1380600Y448200D01*
X1362600D02*
X1380600D01*
X1362600D02*
Y466200D01*
X1380600D01*
Y448200D02*
Y466200D01*
X1401000Y453200D02*
Y461200D01*
X1393000Y453200D02*
X1401000D01*
X1393000D02*
Y461200D01*
X1401000D01*
X1406000Y466200D01*
X1388000D02*
X1393000Y461200D01*
X1388000Y448200D02*
X1393000Y453200D01*
X1401000Y453228D02*
X1406000Y448200D01*
X1388000D02*
X1406000D01*
X1388000D02*
Y466200D01*
X1406000D01*
Y448200D02*
Y466200D01*
X1426400Y478600D02*
Y486600D01*
X1418400Y478600D02*
X1426400D01*
X1418400D02*
Y486600D01*
X1426400D01*
X1431400Y491600D01*
X1413400D02*
X1418400Y486600D01*
X1413400Y473600D02*
X1418400Y478600D01*
X1426400Y478628D02*
X1431400Y473600D01*
X1413400D02*
X1431400D01*
X1413400D02*
Y491600D01*
X1431400D01*
Y473600D02*
Y491600D01*
X1451800Y478600D02*
Y486600D01*
X1443800Y478600D02*
X1451800D01*
X1443800D02*
Y486600D01*
X1451800D01*
X1456800Y491600D01*
X1438800D02*
X1443800Y486600D01*
X1438800Y473600D02*
X1443800Y478600D01*
X1451800Y478628D02*
X1456800Y473600D01*
X1438800D02*
X1456800D01*
X1438800D02*
Y491600D01*
X1456800D01*
Y473600D02*
Y491600D01*
X1477200Y478600D02*
Y486600D01*
X1469200Y478600D02*
X1477200D01*
X1469200D02*
Y486600D01*
X1477200D01*
X1482200Y491600D01*
X1464200D02*
X1469200Y486600D01*
X1464200Y473600D02*
X1469200Y478600D01*
X1477200Y478628D02*
X1482200Y473600D01*
X1464200D02*
X1482200D01*
X1464200D02*
Y491600D01*
X1482200D01*
Y473600D02*
Y491600D01*
X1502600Y478600D02*
Y486600D01*
X1494600Y478600D02*
X1502600D01*
X1494600D02*
Y486600D01*
X1502600D01*
X1507600Y491600D01*
X1489600D02*
X1494600Y486600D01*
X1489600Y473600D02*
X1494600Y478600D01*
X1502600Y478628D02*
X1507600Y473600D01*
X1489600D02*
X1507600D01*
X1489600D02*
Y491600D01*
X1507600D01*
Y473600D02*
Y491600D01*
X1528000Y478600D02*
Y486600D01*
X1520000Y478600D02*
X1528000D01*
X1520000D02*
Y486600D01*
X1528000D01*
X1533000Y491600D01*
X1515000D02*
X1520000Y486600D01*
X1515000Y473600D02*
X1520000Y478600D01*
X1528000Y478628D02*
X1533000Y473600D01*
X1515000D02*
X1533000D01*
X1515000D02*
Y491600D01*
X1533000D01*
Y473600D02*
Y491600D01*
X1426400Y453200D02*
Y461200D01*
X1418400Y453200D02*
X1426400D01*
X1418400D02*
Y461200D01*
X1426400D01*
X1431400Y466200D01*
X1413400D02*
X1418400Y461200D01*
X1413400Y448200D02*
X1418400Y453200D01*
X1426400Y453228D02*
X1431400Y448200D01*
X1413400D02*
X1431400D01*
X1413400D02*
Y466200D01*
X1431400D01*
Y448200D02*
Y466200D01*
X1451800Y453200D02*
Y461200D01*
X1443800Y453200D02*
X1451800D01*
X1443800D02*
Y461200D01*
X1451800D01*
X1456800Y466200D01*
X1438800D02*
X1443800Y461200D01*
X1438800Y448200D02*
X1443800Y453200D01*
X1451800Y453228D02*
X1456800Y448200D01*
X1438800D02*
X1456800D01*
X1438800D02*
Y466200D01*
X1456800D01*
Y448200D02*
Y466200D01*
X1477200Y453200D02*
Y461200D01*
X1469200Y453200D02*
X1477200D01*
X1469200D02*
Y461200D01*
X1477200D01*
X1482200Y466200D01*
X1464200D02*
X1469200Y461200D01*
X1464200Y448200D02*
X1469200Y453200D01*
X1477200Y453228D02*
X1482200Y448200D01*
X1464200D02*
X1482200D01*
X1464200D02*
Y466200D01*
X1482200D01*
Y448200D02*
Y466200D01*
X1502600Y453200D02*
Y461200D01*
X1494600Y453200D02*
X1502600D01*
X1494600D02*
Y461200D01*
X1502600D01*
X1507600Y466200D01*
X1489600D02*
X1494600Y461200D01*
X1489600Y448200D02*
X1494600Y453200D01*
X1502600Y453228D02*
X1507600Y448200D01*
X1489600D02*
X1507600D01*
X1489600D02*
Y466200D01*
X1507600D01*
Y448200D02*
Y466200D01*
X1528000Y453200D02*
Y461200D01*
X1520000Y453200D02*
X1528000D01*
X1520000D02*
Y461200D01*
X1528000D01*
X1533000Y466200D01*
X1515000D02*
X1520000Y461200D01*
X1515000Y448200D02*
X1520000Y453200D01*
X1528000Y453228D02*
X1533000Y448200D01*
X1515000D02*
X1533000D01*
X1515000D02*
Y466200D01*
X1533000D01*
Y448200D02*
Y466200D01*
X1553400Y478600D02*
Y486600D01*
X1545400Y478600D02*
X1553400D01*
X1545400D02*
Y486600D01*
X1553400D01*
X1558400Y491600D01*
X1540400D02*
X1545400Y486600D01*
X1540400Y473600D02*
X1545400Y478600D01*
X1553400Y478628D02*
X1558400Y473600D01*
X1540400D02*
X1558400D01*
X1540400D02*
Y491600D01*
X1558400D01*
Y473600D02*
Y491600D01*
X1578800Y478600D02*
Y486600D01*
X1570800Y478600D02*
X1578800D01*
X1570800D02*
Y486600D01*
X1578800D01*
X1583800Y491600D01*
X1565800D02*
X1570800Y486600D01*
X1565800Y473600D02*
X1570800Y478600D01*
X1578800Y478628D02*
X1583800Y473600D01*
X1565800D02*
X1583800D01*
X1565800D02*
Y491600D01*
X1583800D01*
Y473600D02*
Y491600D01*
X1604200Y478600D02*
Y486600D01*
X1596200Y478600D02*
X1604200D01*
X1596200D02*
Y486600D01*
X1604200D01*
X1609200Y491600D01*
X1591200D02*
X1596200Y486600D01*
X1591200Y473600D02*
X1596200Y478600D01*
X1604200Y478628D02*
X1609200Y473600D01*
X1591200D02*
X1609200D01*
X1591200D02*
Y491600D01*
X1609200D01*
Y473600D02*
Y491600D01*
X1629600Y478600D02*
Y486600D01*
X1621600Y478600D02*
X1629600D01*
X1621600D02*
Y486600D01*
X1629600D01*
X1634600Y491600D01*
X1616600D02*
X1621600Y486600D01*
X1616600Y473600D02*
X1621600Y478600D01*
X1629600Y478628D02*
X1634600Y473600D01*
X1616600D02*
X1634600D01*
X1616600D02*
Y491600D01*
X1634600D01*
Y473600D02*
Y491600D01*
X1655000Y478600D02*
Y486600D01*
X1647000Y478600D02*
X1655000D01*
X1647000D02*
Y486600D01*
X1655000D01*
X1660000Y491600D01*
X1642000D02*
X1647000Y486600D01*
X1642000Y473600D02*
X1647000Y478600D01*
X1655000Y478628D02*
X1660000Y473600D01*
X1642000D02*
X1660000D01*
X1642000D02*
Y491600D01*
X1660000D01*
Y473600D02*
Y491600D01*
X1553400Y453200D02*
Y461200D01*
X1545400Y453200D02*
X1553400D01*
X1545400D02*
Y461200D01*
X1553400D01*
X1558400Y466200D01*
X1540400D02*
X1545400Y461200D01*
X1540400Y448200D02*
X1545400Y453200D01*
X1553400Y453228D02*
X1558400Y448200D01*
X1540400D02*
X1558400D01*
X1540400D02*
Y466200D01*
X1558400D01*
Y448200D02*
Y466200D01*
X1578800Y453200D02*
Y461200D01*
X1570800Y453200D02*
X1578800D01*
X1570800D02*
Y461200D01*
X1578800D01*
X1583800Y466200D01*
X1565800D02*
X1570800Y461200D01*
X1565800Y448200D02*
X1570800Y453200D01*
X1578800Y453228D02*
X1583800Y448200D01*
X1565800D02*
X1583800D01*
X1565800D02*
Y466200D01*
X1583800D01*
Y448200D02*
Y466200D01*
X1604200Y453200D02*
Y461200D01*
X1596200Y453200D02*
X1604200D01*
X1596200D02*
Y461200D01*
X1604200D01*
X1609200Y466200D01*
X1591200D02*
X1596200Y461200D01*
X1591200Y448200D02*
X1596200Y453200D01*
X1604200Y453228D02*
X1609200Y448200D01*
X1591200D02*
X1609200D01*
X1591200D02*
Y466200D01*
X1609200D01*
Y448200D02*
Y466200D01*
X1629600Y453200D02*
Y461200D01*
X1621600Y453200D02*
X1629600D01*
X1621600D02*
Y461200D01*
X1629600D01*
X1634600Y466200D01*
X1616600D02*
X1621600Y461200D01*
X1616600Y448200D02*
X1621600Y453200D01*
X1629600Y453228D02*
X1634600Y448200D01*
X1616600D02*
X1634600D01*
X1616600D02*
Y466200D01*
X1634600D01*
Y448200D02*
Y466200D01*
X1655000Y453200D02*
Y461200D01*
X1647000Y453200D02*
X1655000D01*
X1647000D02*
Y461200D01*
X1655000D01*
X1660000Y466200D01*
X1642000D02*
X1647000Y461200D01*
X1642000Y448200D02*
X1647000Y453200D01*
X1655000Y453228D02*
X1660000Y448200D01*
X1642000D02*
X1660000D01*
X1642000D02*
Y466200D01*
X1660000D01*
Y448200D02*
Y466200D01*
X1663300Y444500D02*
Y495300D01*
X1156100Y444500D02*
Y495300D01*
Y444500D02*
X1663300D01*
X1156100Y495300D02*
X1663300D01*
X1156100Y444500D02*
Y495300D01*
X1172400Y275400D02*
Y283400D01*
X1164400Y275400D02*
X1172400D01*
X1164400D02*
Y283400D01*
X1172400D01*
X1177400Y288400D01*
X1159400D02*
X1164400Y283400D01*
X1159400Y270400D02*
X1164400Y275400D01*
X1172400Y275428D02*
X1177400Y270400D01*
X1159400D02*
X1177400D01*
X1159400D02*
Y288400D01*
X1177400D01*
Y270400D02*
Y288400D01*
X1197800Y275400D02*
Y283400D01*
X1189800Y275400D02*
X1197800D01*
X1189800D02*
Y283400D01*
X1197800D01*
X1202800Y288400D01*
X1184800D02*
X1189800Y283400D01*
X1184800Y270400D02*
X1189800Y275400D01*
X1197800Y275428D02*
X1202800Y270400D01*
X1184800D02*
X1202800D01*
X1184800D02*
Y288400D01*
X1202800D01*
Y270400D02*
Y288400D01*
X1223200Y275400D02*
Y283400D01*
X1215200Y275400D02*
X1223200D01*
X1215200D02*
Y283400D01*
X1223200D01*
X1228200Y288400D01*
X1210200D02*
X1215200Y283400D01*
X1210200Y270400D02*
X1215200Y275400D01*
X1223200Y275428D02*
X1228200Y270400D01*
X1210200D02*
X1228200D01*
X1210200D02*
Y288400D01*
X1228200D01*
Y270400D02*
Y288400D01*
X1248600Y275400D02*
Y283400D01*
X1240600Y275400D02*
X1248600D01*
X1240600D02*
Y283400D01*
X1248600D01*
X1253600Y288400D01*
X1235600D02*
X1240600Y283400D01*
X1235600Y270400D02*
X1240600Y275400D01*
X1248600Y275428D02*
X1253600Y270400D01*
X1235600D02*
X1253600D01*
X1235600D02*
Y288400D01*
X1253600D01*
Y270400D02*
Y288400D01*
X1274000Y275400D02*
Y283400D01*
X1266000Y275400D02*
X1274000D01*
X1266000D02*
Y283400D01*
X1274000D01*
X1279000Y288400D01*
X1261000D02*
X1266000Y283400D01*
X1261000Y270400D02*
X1266000Y275400D01*
X1274000Y275428D02*
X1279000Y270400D01*
X1261000D02*
X1279000D01*
X1261000D02*
Y288400D01*
X1279000D01*
Y270400D02*
Y288400D01*
X1172400Y250000D02*
Y258000D01*
X1164400Y250000D02*
X1172400D01*
X1164400D02*
Y258000D01*
X1172400D01*
X1177400Y263000D01*
X1159400D02*
X1164400Y258000D01*
X1159400Y245000D02*
X1164400Y250000D01*
X1172400Y250028D02*
X1177400Y245000D01*
X1159400D02*
X1177400D01*
X1159400D02*
Y263000D01*
X1177400D01*
Y245000D02*
Y263000D01*
X1197800Y250000D02*
Y258000D01*
X1189800Y250000D02*
X1197800D01*
X1189800D02*
Y258000D01*
X1197800D01*
X1202800Y263000D01*
X1184800D02*
X1189800Y258000D01*
X1184800Y245000D02*
X1189800Y250000D01*
X1197800Y250028D02*
X1202800Y245000D01*
X1184800D02*
X1202800D01*
X1184800D02*
Y263000D01*
X1202800D01*
Y245000D02*
Y263000D01*
X1223200Y250000D02*
Y258000D01*
X1215200Y250000D02*
X1223200D01*
X1215200D02*
Y258000D01*
X1223200D01*
X1228200Y263000D01*
X1210200D02*
X1215200Y258000D01*
X1210200Y245000D02*
X1215200Y250000D01*
X1223200Y250028D02*
X1228200Y245000D01*
X1210200D02*
X1228200D01*
X1210200D02*
Y263000D01*
X1228200D01*
Y245000D02*
Y263000D01*
X1248600Y250000D02*
Y258000D01*
X1240600Y250000D02*
X1248600D01*
X1240600D02*
Y258000D01*
X1248600D01*
X1253600Y263000D01*
X1235600D02*
X1240600Y258000D01*
X1235600Y245000D02*
X1240600Y250000D01*
X1248600Y250028D02*
X1253600Y245000D01*
X1235600D02*
X1253600D01*
X1235600D02*
Y263000D01*
X1253600D01*
Y245000D02*
Y263000D01*
X1274000Y250000D02*
Y258000D01*
X1266000Y250000D02*
X1274000D01*
X1266000D02*
Y258000D01*
X1274000D01*
X1279000Y263000D01*
X1261000D02*
X1266000Y258000D01*
X1261000Y245000D02*
X1266000Y250000D01*
X1274000Y250028D02*
X1279000Y245000D01*
X1261000D02*
X1279000D01*
X1261000D02*
Y263000D01*
X1279000D01*
Y245000D02*
Y263000D01*
X1299400Y275400D02*
Y283400D01*
X1291400Y275400D02*
X1299400D01*
X1291400D02*
Y283400D01*
X1299400D01*
X1304400Y288400D01*
X1286400D02*
X1291400Y283400D01*
X1286400Y270400D02*
X1291400Y275400D01*
X1299400Y275428D02*
X1304400Y270400D01*
X1286400D02*
X1304400D01*
X1286400D02*
Y288400D01*
X1304400D01*
Y270400D02*
Y288400D01*
X1324800Y275400D02*
Y283400D01*
X1316800Y275400D02*
X1324800D01*
X1316800D02*
Y283400D01*
X1324800D01*
X1329800Y288400D01*
X1311800D02*
X1316800Y283400D01*
X1311800Y270400D02*
X1316800Y275400D01*
X1324800Y275428D02*
X1329800Y270400D01*
X1311800D02*
X1329800D01*
X1311800D02*
Y288400D01*
X1329800D01*
Y270400D02*
Y288400D01*
X1350200Y275400D02*
Y283400D01*
X1342200Y275400D02*
X1350200D01*
X1342200D02*
Y283400D01*
X1350200D01*
X1355200Y288400D01*
X1337200D02*
X1342200Y283400D01*
X1337200Y270400D02*
X1342200Y275400D01*
X1350200Y275428D02*
X1355200Y270400D01*
X1337200D02*
X1355200D01*
X1337200D02*
Y288400D01*
X1355200D01*
Y270400D02*
Y288400D01*
X1375600Y275400D02*
Y283400D01*
X1367600Y275400D02*
X1375600D01*
X1367600D02*
Y283400D01*
X1375600D01*
X1380600Y288400D01*
X1362600D02*
X1367600Y283400D01*
X1362600Y270400D02*
X1367600Y275400D01*
X1375600Y275428D02*
X1380600Y270400D01*
X1362600D02*
X1380600D01*
X1362600D02*
Y288400D01*
X1380600D01*
Y270400D02*
Y288400D01*
X1401000Y275400D02*
Y283400D01*
X1393000Y275400D02*
X1401000D01*
X1393000D02*
Y283400D01*
X1401000D01*
X1406000Y288400D01*
X1388000D02*
X1393000Y283400D01*
X1388000Y270400D02*
X1393000Y275400D01*
X1401000Y275428D02*
X1406000Y270400D01*
X1388000D02*
X1406000D01*
X1388000D02*
Y288400D01*
X1406000D01*
Y270400D02*
Y288400D01*
X1299400Y250000D02*
Y258000D01*
X1291400Y250000D02*
X1299400D01*
X1291400D02*
Y258000D01*
X1299400D01*
X1304400Y263000D01*
X1286400D02*
X1291400Y258000D01*
X1286400Y245000D02*
X1291400Y250000D01*
X1299400Y250028D02*
X1304400Y245000D01*
X1286400D02*
X1304400D01*
X1286400D02*
Y263000D01*
X1304400D01*
Y245000D02*
Y263000D01*
X1324800Y250000D02*
Y258000D01*
X1316800Y250000D02*
X1324800D01*
X1316800D02*
Y258000D01*
X1324800D01*
X1329800Y263000D01*
X1311800D02*
X1316800Y258000D01*
X1311800Y245000D02*
X1316800Y250000D01*
X1324800Y250028D02*
X1329800Y245000D01*
X1311800D02*
X1329800D01*
X1311800D02*
Y263000D01*
X1329800D01*
Y245000D02*
Y263000D01*
X1350200Y250000D02*
Y258000D01*
X1342200Y250000D02*
X1350200D01*
X1342200D02*
Y258000D01*
X1350200D01*
X1355200Y263000D01*
X1337200D02*
X1342200Y258000D01*
X1337200Y245000D02*
X1342200Y250000D01*
X1350200Y250028D02*
X1355200Y245000D01*
X1337200D02*
X1355200D01*
X1337200D02*
Y263000D01*
X1355200D01*
Y245000D02*
Y263000D01*
X1375600Y250000D02*
Y258000D01*
X1367600Y250000D02*
X1375600D01*
X1367600D02*
Y258000D01*
X1375600D01*
X1380600Y263000D01*
X1362600D02*
X1367600Y258000D01*
X1362600Y245000D02*
X1367600Y250000D01*
X1375600Y250028D02*
X1380600Y245000D01*
X1362600D02*
X1380600D01*
X1362600D02*
Y263000D01*
X1380600D01*
Y245000D02*
Y263000D01*
X1401000Y250000D02*
Y258000D01*
X1393000Y250000D02*
X1401000D01*
X1393000D02*
Y258000D01*
X1401000D01*
X1406000Y263000D01*
X1388000D02*
X1393000Y258000D01*
X1388000Y245000D02*
X1393000Y250000D01*
X1401000Y250028D02*
X1406000Y245000D01*
X1388000D02*
X1406000D01*
X1388000D02*
Y263000D01*
X1406000D01*
Y245000D02*
Y263000D01*
X1426400Y275400D02*
Y283400D01*
X1418400Y275400D02*
X1426400D01*
X1418400D02*
Y283400D01*
X1426400D01*
X1431400Y288400D01*
X1413400D02*
X1418400Y283400D01*
X1413400Y270400D02*
X1418400Y275400D01*
X1426400Y275428D02*
X1431400Y270400D01*
X1413400D02*
X1431400D01*
X1413400D02*
Y288400D01*
X1431400D01*
Y270400D02*
Y288400D01*
X1451800Y275400D02*
Y283400D01*
X1443800Y275400D02*
X1451800D01*
X1443800D02*
Y283400D01*
X1451800D01*
X1456800Y288400D01*
X1438800D02*
X1443800Y283400D01*
X1438800Y270400D02*
X1443800Y275400D01*
X1451800Y275428D02*
X1456800Y270400D01*
X1438800D02*
X1456800D01*
X1438800D02*
Y288400D01*
X1456800D01*
Y270400D02*
Y288400D01*
X1477200Y275400D02*
Y283400D01*
X1469200Y275400D02*
X1477200D01*
X1469200D02*
Y283400D01*
X1477200D01*
X1482200Y288400D01*
X1464200D02*
X1469200Y283400D01*
X1464200Y270400D02*
X1469200Y275400D01*
X1477200Y275428D02*
X1482200Y270400D01*
X1464200D02*
X1482200D01*
X1464200D02*
Y288400D01*
X1482200D01*
Y270400D02*
Y288400D01*
X1502600Y275400D02*
Y283400D01*
X1494600Y275400D02*
X1502600D01*
X1494600D02*
Y283400D01*
X1502600D01*
X1507600Y288400D01*
X1489600D02*
X1494600Y283400D01*
X1489600Y270400D02*
X1494600Y275400D01*
X1502600Y275428D02*
X1507600Y270400D01*
X1489600D02*
X1507600D01*
X1489600D02*
Y288400D01*
X1507600D01*
Y270400D02*
Y288400D01*
X1528000Y275400D02*
Y283400D01*
X1520000Y275400D02*
X1528000D01*
X1520000D02*
Y283400D01*
X1528000D01*
X1533000Y288400D01*
X1515000D02*
X1520000Y283400D01*
X1515000Y270400D02*
X1520000Y275400D01*
X1528000Y275428D02*
X1533000Y270400D01*
X1515000D02*
X1533000D01*
X1515000D02*
Y288400D01*
X1533000D01*
Y270400D02*
Y288400D01*
X1426400Y250000D02*
Y258000D01*
X1418400Y250000D02*
X1426400D01*
X1418400D02*
Y258000D01*
X1426400D01*
X1431400Y263000D01*
X1413400D02*
X1418400Y258000D01*
X1413400Y245000D02*
X1418400Y250000D01*
X1426400Y250028D02*
X1431400Y245000D01*
X1413400D02*
X1431400D01*
X1413400D02*
Y263000D01*
X1431400D01*
Y245000D02*
Y263000D01*
X1451800Y250000D02*
Y258000D01*
X1443800Y250000D02*
X1451800D01*
X1443800D02*
Y258000D01*
X1451800D01*
X1456800Y263000D01*
X1438800D02*
X1443800Y258000D01*
X1438800Y245000D02*
X1443800Y250000D01*
X1451800Y250028D02*
X1456800Y245000D01*
X1438800D02*
X1456800D01*
X1438800D02*
Y263000D01*
X1456800D01*
Y245000D02*
Y263000D01*
X1477200Y250000D02*
Y258000D01*
X1469200Y250000D02*
X1477200D01*
X1469200D02*
Y258000D01*
X1477200D01*
X1482200Y263000D01*
X1464200D02*
X1469200Y258000D01*
X1464200Y245000D02*
X1469200Y250000D01*
X1477200Y250028D02*
X1482200Y245000D01*
X1464200D02*
X1482200D01*
X1464200D02*
Y263000D01*
X1482200D01*
Y245000D02*
Y263000D01*
X1502600Y250000D02*
Y258000D01*
X1494600Y250000D02*
X1502600D01*
X1494600D02*
Y258000D01*
X1502600D01*
X1507600Y263000D01*
X1489600D02*
X1494600Y258000D01*
X1489600Y245000D02*
X1494600Y250000D01*
X1502600Y250028D02*
X1507600Y245000D01*
X1489600D02*
X1507600D01*
X1489600D02*
Y263000D01*
X1507600D01*
Y245000D02*
Y263000D01*
X1528000Y250000D02*
Y258000D01*
X1520000Y250000D02*
X1528000D01*
X1520000D02*
Y258000D01*
X1528000D01*
X1533000Y263000D01*
X1515000D02*
X1520000Y258000D01*
X1515000Y245000D02*
X1520000Y250000D01*
X1528000Y250028D02*
X1533000Y245000D01*
X1515000D02*
X1533000D01*
X1515000D02*
Y263000D01*
X1533000D01*
Y245000D02*
Y263000D01*
X1553400Y275400D02*
Y283400D01*
X1545400Y275400D02*
X1553400D01*
X1545400D02*
Y283400D01*
X1553400D01*
X1558400Y288400D01*
X1540400D02*
X1545400Y283400D01*
X1540400Y270400D02*
X1545400Y275400D01*
X1553400Y275428D02*
X1558400Y270400D01*
X1540400D02*
X1558400D01*
X1540400D02*
Y288400D01*
X1558400D01*
Y270400D02*
Y288400D01*
X1578800Y275400D02*
Y283400D01*
X1570800Y275400D02*
X1578800D01*
X1570800D02*
Y283400D01*
X1578800D01*
X1583800Y288400D01*
X1565800D02*
X1570800Y283400D01*
X1565800Y270400D02*
X1570800Y275400D01*
X1578800Y275428D02*
X1583800Y270400D01*
X1565800D02*
X1583800D01*
X1565800D02*
Y288400D01*
X1583800D01*
Y270400D02*
Y288400D01*
X1604200Y275400D02*
Y283400D01*
X1596200Y275400D02*
X1604200D01*
X1596200D02*
Y283400D01*
X1604200D01*
X1609200Y288400D01*
X1591200D02*
X1596200Y283400D01*
X1591200Y270400D02*
X1596200Y275400D01*
X1604200Y275428D02*
X1609200Y270400D01*
X1591200D02*
X1609200D01*
X1591200D02*
Y288400D01*
X1609200D01*
Y270400D02*
Y288400D01*
X1629600Y275400D02*
Y283400D01*
X1621600Y275400D02*
X1629600D01*
X1621600D02*
Y283400D01*
X1629600D01*
X1634600Y288400D01*
X1616600D02*
X1621600Y283400D01*
X1616600Y270400D02*
X1621600Y275400D01*
X1629600Y275428D02*
X1634600Y270400D01*
X1616600D02*
X1634600D01*
X1616600D02*
Y288400D01*
X1634600D01*
Y270400D02*
Y288400D01*
X1655000Y275400D02*
Y283400D01*
X1647000Y275400D02*
X1655000D01*
X1647000D02*
Y283400D01*
X1655000D01*
X1660000Y288400D01*
X1642000D02*
X1647000Y283400D01*
X1642000Y270400D02*
X1647000Y275400D01*
X1655000Y275428D02*
X1660000Y270400D01*
X1642000D02*
X1660000D01*
X1642000D02*
Y288400D01*
X1660000D01*
Y270400D02*
Y288400D01*
X1553400Y250000D02*
Y258000D01*
X1545400Y250000D02*
X1553400D01*
X1545400D02*
Y258000D01*
X1553400D01*
X1558400Y263000D01*
X1540400D02*
X1545400Y258000D01*
X1540400Y245000D02*
X1545400Y250000D01*
X1553400Y250028D02*
X1558400Y245000D01*
X1540400D02*
X1558400D01*
X1540400D02*
Y263000D01*
X1558400D01*
Y245000D02*
Y263000D01*
X1578800Y250000D02*
Y258000D01*
X1570800Y250000D02*
X1578800D01*
X1570800D02*
Y258000D01*
X1578800D01*
X1583800Y263000D01*
X1565800D02*
X1570800Y258000D01*
X1565800Y245000D02*
X1570800Y250000D01*
X1578800Y250028D02*
X1583800Y245000D01*
X1565800D02*
X1583800D01*
X1565800D02*
Y263000D01*
X1583800D01*
Y245000D02*
Y263000D01*
X1604200Y250000D02*
Y258000D01*
X1596200Y250000D02*
X1604200D01*
X1596200D02*
Y258000D01*
X1604200D01*
X1609200Y263000D01*
X1591200D02*
X1596200Y258000D01*
X1591200Y245000D02*
X1596200Y250000D01*
X1604200Y250028D02*
X1609200Y245000D01*
X1591200D02*
X1609200D01*
X1591200D02*
Y263000D01*
X1609200D01*
Y245000D02*
Y263000D01*
X1629600Y250000D02*
Y258000D01*
X1621600Y250000D02*
X1629600D01*
X1621600D02*
Y258000D01*
X1629600D01*
X1634600Y263000D01*
X1616600D02*
X1621600Y258000D01*
X1616600Y245000D02*
X1621600Y250000D01*
X1629600Y250028D02*
X1634600Y245000D01*
X1616600D02*
X1634600D01*
X1616600D02*
Y263000D01*
X1634600D01*
Y245000D02*
Y263000D01*
X1655000Y250000D02*
Y258000D01*
X1647000Y250000D02*
X1655000D01*
X1647000D02*
Y258000D01*
X1655000D01*
X1660000Y263000D01*
X1642000D02*
X1647000Y258000D01*
X1642000Y245000D02*
X1647000Y250000D01*
X1655000Y250028D02*
X1660000Y245000D01*
X1642000D02*
X1660000D01*
X1642000D02*
Y263000D01*
X1660000D01*
Y245000D02*
Y263000D01*
X1663300Y241300D02*
Y292100D01*
X1156100Y241300D02*
Y292100D01*
Y241300D02*
X1663300D01*
X1156100Y292100D02*
X1663300D01*
X1156100Y241300D02*
Y292100D01*
X708660Y1032510D02*
Y1215390D01*
Y1032510D02*
X1059180D01*
Y1215390D01*
X708660D02*
X1059180D01*
X778250Y1267870D02*
Y1398870D01*
X641250Y1277870D02*
Y1388870D01*
X638250Y1277870D02*
Y1388870D01*
X644250Y1398870D02*
X778250D01*
X644250Y1267870D02*
X778250D01*
X644250Y1270870D02*
X645750D01*
X641250Y1260870D02*
Y1264870D01*
X638250Y1260870D02*
X641250D01*
X638250Y1277870D02*
X645750D01*
X638250Y1388870D02*
X645750D01*
Y1267870D02*
Y1398870D01*
X644250Y1395870D02*
X645750D01*
X641250Y1401870D02*
Y1405870D01*
X638250D02*
X641250D01*
X638250Y1260870D02*
Y1264870D01*
Y1401870D02*
Y1405870D01*
X754000Y1122100D02*
Y1149100D01*
X770000D01*
Y1122100D02*
Y1149100D01*
X754000Y1122100D02*
X770000D01*
X754000Y1123100D02*
X770000D01*
X754000Y1124100D02*
X770000D01*
X754000Y1125100D02*
X770000D01*
X754000Y1126100D02*
X770000D01*
X754000Y1127100D02*
X770000D01*
X754000Y1128100D02*
X770000D01*
X754000Y1129100D02*
X770000D01*
X632850Y666100D02*
Y698100D01*
X649850D01*
Y666100D02*
Y698100D01*
X632850Y666100D02*
X649850D01*
X575700Y1226650D02*
X592700D01*
X575700Y1193650D02*
Y1226650D01*
Y1193650D02*
X592700D01*
Y1226650D01*
X512200Y1193650D02*
X529200D01*
Y1226650D01*
X512200D02*
X529200D01*
X512200Y1193650D02*
Y1226650D01*
X575700Y1182200D02*
X592700D01*
X575700Y1149200D02*
Y1182200D01*
Y1149200D02*
X592700D01*
Y1182200D01*
X512200Y1149200D02*
X529200D01*
Y1182200D01*
X512200D02*
X529200D01*
X512200Y1149200D02*
Y1182200D01*
Y1043950D02*
X529200D01*
Y1076950D01*
X512200D02*
X529200D01*
X512200Y1043950D02*
Y1076950D01*
X580300Y1085850D02*
X600800D01*
X578300Y1083850D02*
X580300Y1085850D01*
X578300Y1062450D02*
Y1083850D01*
Y1062450D02*
X580300Y1060450D01*
X600800D01*
X602800Y1062450D01*
Y1083850D01*
X600800Y1085850D02*
X602800Y1083850D01*
X600800Y1060450D02*
X602800Y1058450D01*
Y1037050D02*
Y1058450D01*
X600800Y1035050D02*
X602800Y1037050D01*
X580300Y1035050D02*
X600800D01*
X578300Y1037050D02*
X580300Y1035050D01*
X578300Y1037050D02*
Y1058450D01*
X580300Y1060450D01*
X797950Y1110600D02*
Y1142600D01*
X814950D01*
Y1110600D02*
Y1142600D01*
X797950Y1110600D02*
X814950D01*
X823350D02*
Y1142600D01*
X840350D01*
Y1110600D02*
Y1142600D01*
X823350Y1110600D02*
X840350D01*
X893200D02*
Y1142600D01*
X910200D01*
Y1110600D02*
Y1142600D01*
X893200Y1110600D02*
X910200D01*
X918600D02*
Y1142600D01*
X935600D01*
Y1110600D02*
Y1142600D01*
X918600Y1110600D02*
X935600D01*
X944000D02*
Y1142600D01*
X961000D01*
Y1110600D02*
Y1142600D01*
X944000Y1110600D02*
X961000D01*
X856301Y1124599D02*
X878300D01*
Y1110599D02*
Y1124599D01*
X856301Y1110599D02*
X878300D01*
X856301D02*
Y1124599D01*
X923300Y1064650D02*
Y1081650D01*
Y1064650D02*
X956300D01*
Y1081650D01*
X923300D02*
X956300D01*
X633984Y1162050D02*
X674116D01*
Y1187450D02*
X679196Y1184910D01*
Y1164590D02*
Y1184910D01*
X674116Y1162050D02*
X679196Y1164590D01*
X633984Y1162050D02*
X674116D01*
X628904Y1164590D02*
X633984Y1162050D01*
X628904Y1164590D02*
Y1184910D01*
X633984Y1187450D01*
X669925Y1171575D02*
Y1177925D01*
X663575Y1171575D02*
X669925D01*
X663575D02*
Y1177925D01*
X669925D01*
X644525Y1171575D02*
Y1177925D01*
X638175Y1171575D02*
X644525D01*
X638175D02*
Y1177925D01*
X644525D01*
X674116Y1212850D02*
X679196Y1210310D01*
Y1189990D02*
Y1210310D01*
X674116Y1187450D02*
X679196Y1189990D01*
X628904D02*
X633984Y1187450D01*
X628904Y1189990D02*
Y1210310D01*
X633984Y1212850D01*
X674116D01*
X669925Y1196975D02*
Y1203325D01*
X663575Y1196975D02*
X669925D01*
X663575D02*
Y1203325D01*
X669925D01*
X644525Y1196975D02*
Y1203325D01*
X638175Y1196975D02*
X644525D01*
X638175D02*
Y1203325D01*
X644525D01*
X638175Y1101725D02*
X644525D01*
X638175Y1095375D02*
Y1101725D01*
Y1095375D02*
X644525D01*
Y1101725D01*
X663575D02*
X669925D01*
X663575Y1095375D02*
Y1101725D01*
Y1095375D02*
X669925D01*
Y1101725D01*
X633984Y1111250D02*
X674116D01*
X628904Y1108710D02*
X633984Y1111250D01*
X628904Y1088390D02*
Y1108710D01*
Y1088390D02*
X633984Y1085850D01*
X674116D02*
X679196Y1088390D01*
Y1108710D01*
X674116Y1111250D02*
X679196Y1108710D01*
X638175Y1076325D02*
X644525D01*
X638175Y1069975D02*
Y1076325D01*
Y1069975D02*
X644525D01*
Y1076325D01*
X663575D02*
X669925D01*
X663575Y1069975D02*
Y1076325D01*
Y1069975D02*
X669925D01*
Y1076325D01*
X628904Y1083310D02*
X633984Y1085850D01*
X628904Y1062990D02*
Y1083310D01*
Y1062990D02*
X633984Y1060450D01*
X674116D02*
X679196Y1062990D01*
Y1083310D01*
X674116Y1085850D02*
X679196Y1083310D01*
X633984Y1035050D02*
X674116D01*
X638175Y1050925D02*
X644525D01*
X638175Y1044575D02*
Y1050925D01*
Y1044575D02*
X644525D01*
Y1050925D01*
X663575D02*
X669925D01*
X663575Y1044575D02*
Y1050925D01*
Y1044575D02*
X669925D01*
Y1050925D01*
X628904Y1057910D02*
X633984Y1060450D01*
X628904Y1037590D02*
Y1057910D01*
Y1037590D02*
X633984Y1035050D01*
X674116D01*
X679196Y1037590D01*
Y1057910D01*
X674116Y1060450D02*
X679196Y1057910D01*
X854700Y918600D02*
Y935600D01*
X821700D02*
X854700D01*
X821700Y918600D02*
Y935600D01*
Y918600D02*
X854700D01*
X716900Y753500D02*
X748900D01*
X716900D02*
Y770500D01*
X748900D01*
Y753500D02*
Y770500D01*
X843900Y753500D02*
X875900D01*
X843900D02*
Y770500D01*
X875900D01*
Y753500D02*
Y770500D01*
X728100Y666100D02*
Y698100D01*
X745100D01*
Y666100D02*
Y698100D01*
X728100Y666100D02*
X745100D01*
X702700D02*
Y698100D01*
X719700D01*
Y666100D02*
Y698100D01*
X702700Y666100D02*
X719700D01*
X607450D02*
Y698100D01*
X624450D01*
Y666100D02*
Y698100D01*
X607450Y666100D02*
X624450D01*
X643500Y571900D02*
Y603900D01*
X626500Y571900D02*
X643500D01*
X626500D02*
Y603900D01*
X643500D01*
X-70500Y1875400D02*
X-38500D01*
Y1858400D02*
Y1875400D01*
X-70500Y1858400D02*
X-38500D01*
X-70500D02*
Y1875400D01*
X15750Y86750D02*
X47750D01*
X15750D02*
Y103750D01*
X47750D01*
Y86750D02*
Y103750D01*
X15750Y124850D02*
X47750D01*
X15750D02*
Y141850D01*
X47750D01*
Y124850D02*
Y141850D01*
X232800Y860300D02*
Y892300D01*
X249800D01*
Y860300D02*
Y892300D01*
X232800Y860300D02*
X249800D01*
X61000Y800100D02*
X71000D01*
X66000Y795100D02*
Y805100D01*
X618100Y1314850D02*
Y1346850D01*
X601100Y1314850D02*
X618100D01*
X601100D02*
Y1346850D01*
X618100D01*
X643500Y1314850D02*
Y1346850D01*
X626500Y1314850D02*
X643500D01*
X626500D02*
Y1346850D01*
X643500D01*
X713350Y1314850D02*
Y1346850D01*
X696350Y1314850D02*
X713350D01*
X696350D02*
Y1346850D01*
X713350D01*
X738750Y1314850D02*
Y1346850D01*
X721750Y1314850D02*
X738750D01*
X721750D02*
Y1346850D01*
X738750D01*
X143900Y422040D02*
Y454040D01*
X160900D01*
Y422040D02*
Y454040D01*
X143900Y422040D02*
X160900D01*
X76600Y455540D02*
X108600D01*
Y438540D02*
Y455540D01*
X76600Y438540D02*
X108600D01*
X76600D02*
Y455540D01*
X110100Y472840D02*
Y504840D01*
X93100Y472840D02*
X110100D01*
X93100D02*
Y504840D01*
X110100D01*
X160900Y472840D02*
Y504840D01*
X143900Y472840D02*
X160900D01*
X143900D02*
Y504840D01*
X160900D01*
X127000Y508840D02*
Y518840D01*
X122000Y513840D02*
X132000D01*
X232800Y1088900D02*
Y1120900D01*
X249800D01*
Y1088900D02*
Y1120900D01*
X232800Y1088900D02*
X249800D01*
X61000Y1028700D02*
X71000D01*
X66000Y1023700D02*
Y1033700D01*
X13100Y1680600D02*
X45100D01*
X13100D02*
Y1697600D01*
X45100D01*
Y1680600D02*
Y1697600D01*
X13100Y1706000D02*
X45100D01*
X13100D02*
Y1723000D01*
X45100D01*
Y1706000D02*
Y1723000D01*
X13100Y1775850D02*
X45100D01*
X13100D02*
Y1792850D01*
X45100D01*
Y1775850D02*
Y1792850D01*
X13100Y1801250D02*
X45100D01*
X13100D02*
Y1818250D01*
X45100D01*
Y1801250D02*
Y1818250D01*
X705000Y715900D02*
Y731900D01*
X706000Y715900D02*
Y731900D01*
X707000Y715900D02*
Y731900D01*
X708000Y715900D02*
Y731900D01*
X709000Y715900D02*
Y731900D01*
X710000Y715900D02*
Y731900D01*
X711000Y715900D02*
Y731900D01*
X712000Y715900D02*
Y731900D01*
X685000D02*
X712000D01*
X685000Y715900D02*
Y731900D01*
Y715900D02*
X712000D01*
X832000D02*
Y731900D01*
X833000Y715900D02*
Y731900D01*
X834000Y715900D02*
Y731900D01*
X835000Y715900D02*
Y731900D01*
X836000Y715900D02*
Y731900D01*
X837000Y715900D02*
Y731900D01*
X838000Y715900D02*
Y731900D01*
X839000Y715900D02*
Y731900D01*
X812000D02*
X839000D01*
X812000Y715900D02*
Y731900D01*
Y715900D02*
X839000D01*
X195200Y907900D02*
X211200D01*
X195200Y906900D02*
X211200D01*
X195200Y905900D02*
X211200D01*
X195200Y904900D02*
X211200D01*
X195200Y903900D02*
X211200D01*
X195200Y902900D02*
X211200D01*
X195200Y901900D02*
X211200D01*
X195200Y900900D02*
X211200D01*
Y927900D01*
X195200D02*
X211200D01*
X195200Y900900D02*
Y927900D01*
X58150Y163300D02*
Y192300D01*
X5350Y163300D02*
Y192300D01*
X58150D01*
X5350Y163300D02*
X58150D01*
X51000D02*
Y192300D01*
X51750Y163300D02*
Y192300D01*
X52500Y163300D02*
Y192300D01*
X53250Y163300D02*
Y192300D01*
X54000Y163300D02*
Y192300D01*
X54750Y163300D02*
Y192300D01*
X55500Y163300D02*
Y192300D01*
X56250Y163300D02*
Y192300D01*
X57000Y163300D02*
Y192300D01*
X57500Y163300D02*
Y192300D01*
X195200Y1136900D02*
X211200D01*
X195200Y1135900D02*
X211200D01*
X195200Y1134900D02*
X211200D01*
X195200Y1133900D02*
X211200D01*
X195200Y1132900D02*
X211200D01*
X195200Y1131900D02*
X211200D01*
X195200Y1130900D02*
X211200D01*
X195200Y1129900D02*
X211200D01*
Y1156900D01*
X195200D02*
X211200D01*
X195200Y1129900D02*
Y1156900D01*
X736600Y868550D02*
X774700D01*
X736600D02*
Y909450D01*
X774700D01*
Y868550D02*
Y909450D01*
X736600Y919350D02*
X774700D01*
X736600D02*
Y960250D01*
X774700D01*
Y919350D02*
Y960250D01*
X565150D02*
X603250D01*
Y919350D02*
Y960250D01*
X565150Y919350D02*
X603250D01*
X565150D02*
Y960250D01*
Y1011050D02*
X603250D01*
Y970150D02*
Y1011050D01*
X565150Y970150D02*
X603250D01*
X565150D02*
Y1011050D01*
X1060450Y856949D02*
Y1009950D01*
X883450Y856949D02*
X1060450D01*
X883450D02*
Y1009950D01*
X1060450D01*
X883050Y999450D02*
X883450D01*
X883050Y867449D02*
Y999450D01*
Y867449D02*
X883450D01*
X1098550Y856950D02*
Y1009950D01*
X1275550D01*
Y856950D02*
Y1009950D01*
X1098550Y856950D02*
X1275550D01*
Y867450D02*
X1275950D01*
Y999451D01*
X1275550D02*
X1275950D01*
X1387475Y1031875D02*
X1393825D01*
Y1038225D01*
X1387475D02*
X1393825D01*
X1387475Y1031875D02*
Y1038225D01*
X1362075Y1031875D02*
X1368425D01*
Y1038225D01*
X1362075D02*
X1368425D01*
X1362075Y1031875D02*
Y1038225D01*
X1357884Y1022350D02*
X1398016D01*
X1403096Y1024890D01*
Y1045210D01*
X1398016Y1047750D02*
X1403096Y1045210D01*
X1352804D02*
X1357884Y1047750D01*
X1352804Y1024890D02*
Y1045210D01*
Y1024890D02*
X1357884Y1022350D01*
X1387475Y1057275D02*
X1393825D01*
Y1063625D01*
X1387475D02*
X1393825D01*
X1387475Y1057275D02*
Y1063625D01*
X1362075Y1057275D02*
X1368425D01*
Y1063625D01*
X1362075D02*
X1368425D01*
X1362075Y1057275D02*
Y1063625D01*
X1398016Y1047750D02*
X1403096Y1050290D01*
Y1070610D01*
X1398016Y1073150D02*
X1403096Y1070610D01*
X1352804D02*
X1357884Y1073150D01*
X1352804Y1050290D02*
Y1070610D01*
Y1050290D02*
X1357884Y1047750D01*
Y1098550D02*
X1398016D01*
X1387475Y1082675D02*
X1393825D01*
Y1089025D01*
X1387475D02*
X1393825D01*
X1387475Y1082675D02*
Y1089025D01*
X1362075Y1082675D02*
X1368425D01*
Y1089025D01*
X1362075D02*
X1368425D01*
X1362075Y1082675D02*
Y1089025D01*
X1398016Y1073150D02*
X1403096Y1075690D01*
Y1096010D01*
X1398016Y1098550D02*
X1403096Y1096010D01*
X1357884Y1098550D02*
X1398016D01*
X1352804Y1096010D02*
X1357884Y1098550D01*
X1352804Y1075690D02*
Y1096010D01*
Y1075690D02*
X1357884Y1073150D01*
Y996950D02*
X1398016D01*
X1352804Y974090D02*
X1357884Y971550D01*
X1352804Y974090D02*
Y994410D01*
X1357884Y996950D01*
X1398016D01*
X1403096Y994410D01*
Y974090D02*
Y994410D01*
X1398016Y971550D02*
X1403096Y974090D01*
X1362075Y981075D02*
Y987425D01*
X1368425D01*
Y981075D02*
Y987425D01*
X1362075Y981075D02*
X1368425D01*
X1387475D02*
Y987425D01*
X1393825D01*
Y981075D02*
Y987425D01*
X1387475Y981075D02*
X1393825D01*
X1352804Y948690D02*
X1357884Y946150D01*
X1352804Y948690D02*
Y969010D01*
X1357884Y971550D01*
X1398016D02*
X1403096Y969010D01*
Y948690D02*
Y969010D01*
X1398016Y946150D02*
X1403096Y948690D01*
X1357884Y946150D02*
X1398016D01*
X1362075Y955675D02*
Y962025D01*
X1368425D01*
Y955675D02*
Y962025D01*
X1362075Y955675D02*
X1368425D01*
X1387475D02*
Y962025D01*
X1393825D01*
Y955675D02*
Y962025D01*
X1387475Y955675D02*
X1393825D01*
X1357884Y882650D02*
X1398016D01*
X1352804Y859790D02*
X1357884Y857250D01*
X1352804Y859790D02*
Y880110D01*
X1357884Y882650D01*
X1398016D01*
X1403096Y880110D01*
Y859790D02*
Y880110D01*
X1398016Y857250D02*
X1403096Y859790D01*
X1362075Y866775D02*
Y873125D01*
X1368425D01*
Y866775D02*
Y873125D01*
X1362075Y866775D02*
X1368425D01*
X1387475D02*
Y873125D01*
X1393825D01*
Y866775D02*
Y873125D01*
X1387475Y866775D02*
X1393825D01*
X1352804Y834390D02*
X1357884Y831850D01*
X1352804Y834390D02*
Y854710D01*
X1357884Y857250D01*
X1398016D02*
X1403096Y854710D01*
Y834390D02*
Y854710D01*
X1398016Y831850D02*
X1403096Y834390D01*
X1357884Y831850D02*
X1398016D01*
X1362075Y841375D02*
Y847725D01*
X1368425D01*
Y841375D02*
Y847725D01*
X1362075Y841375D02*
X1368425D01*
X1387475D02*
Y847725D01*
X1393825D01*
Y841375D02*
Y847725D01*
X1387475Y841375D02*
X1393825D01*
X1357884Y819150D02*
X1398016D01*
X1352804Y796290D02*
X1357884Y793750D01*
X1352804Y796290D02*
Y816610D01*
X1357884Y819150D01*
X1398016D01*
X1403096Y816610D01*
Y796290D02*
Y816610D01*
X1398016Y793750D02*
X1403096Y796290D01*
X1362075Y803275D02*
Y809625D01*
X1368425D01*
Y803275D02*
Y809625D01*
X1362075Y803275D02*
X1368425D01*
X1387475D02*
Y809625D01*
X1393825D01*
Y803275D02*
Y809625D01*
X1387475Y803275D02*
X1393825D01*
X1352804Y770890D02*
X1357884Y768350D01*
X1352804Y770890D02*
Y791210D01*
X1357884Y793750D01*
X1398016D02*
X1403096Y791210D01*
Y770890D02*
Y791210D01*
X1398016Y768350D02*
X1403096Y770890D01*
X1357884Y768350D02*
X1398016D01*
X1362075Y777875D02*
Y784225D01*
X1368425D01*
Y777875D02*
Y784225D01*
X1362075Y777875D02*
X1368425D01*
X1387475D02*
Y784225D01*
X1393825D01*
Y777875D02*
Y784225D01*
X1387475Y777875D02*
X1393825D01*
X-48000Y-86200D02*
Y86200D01*
X-34750Y60550D02*
Y76200D01*
X-43000Y60550D02*
Y86200D01*
X21300Y71196D02*
Y76200D01*
Y71196D02*
X24300Y72341D01*
Y29259D02*
X24304Y21542D01*
X21300Y30404D02*
X24300Y29259D01*
X21300Y20396D02*
Y30404D01*
X24300Y-21541D02*
X24304Y-29258D01*
X21300Y-20396D02*
X24300Y-21541D01*
X21300Y-30404D02*
Y-20396D01*
X-2319Y48481D02*
X2321D01*
X-2319Y53120D02*
X2321D01*
X2320Y53120D02*
X5001Y55800D01*
X2320Y53120D02*
X2321Y48481D01*
X5001Y45800D01*
X-4999Y55800D02*
X-2320Y53120D01*
Y48480D02*
Y53120D01*
X-4999Y45800D02*
X-2320Y48480D01*
X-4999Y45800D02*
X5001Y45800D01*
Y55800D01*
X-5000Y55800D02*
X5001Y55800D01*
X-5000Y45800D02*
Y55800D01*
X-43000Y41050D02*
X-34750D01*
X-47732Y44750D02*
X-31634D01*
X-47732Y56850D02*
X-31634D01*
X-34750Y60550D02*
X-31634Y57240D01*
Y44360D02*
Y57240D01*
X-34750Y41050D02*
X-31634Y44360D01*
X-34750Y9750D02*
Y41050D01*
X-43000Y9750D02*
Y41050D01*
X-47732Y44750D02*
X-43000Y41050D01*
X-47732Y44750D02*
Y56850D01*
X-43000Y60550D01*
X-34750D01*
X21300Y71196D02*
X24300Y72341D01*
X-2319Y-2319D02*
X2321D01*
X-2319Y2321D02*
X2321D01*
X2320Y2320D02*
X5001Y5001D01*
X2320Y2320D02*
X2321Y-2319D01*
X5001Y-4999D01*
X-4999Y5001D02*
X-2320Y2320D01*
Y-2320D02*
Y2320D01*
X-4999Y-4999D02*
X-2320Y-2320D01*
X-4999Y-4999D02*
X5001Y-5000D01*
Y5001D01*
X-5000Y5000D02*
X5001Y5001D01*
X-5000Y-5000D02*
Y5000D01*
X-43000Y-9750D02*
X-34750D01*
X-47732Y-6050D02*
X-31634D01*
X-47732Y6050D02*
X-31634D01*
X-34750Y9750D02*
X-31634Y6440D01*
Y-6440D02*
Y6440D01*
X-34750Y-9750D02*
X-31634Y-6440D01*
X-34750Y-41050D02*
Y-9750D01*
X-43000Y-41050D02*
Y-9750D01*
X-47732Y-6050D02*
X-43000Y-9750D01*
X-47732Y-6050D02*
Y6050D01*
X-43000Y9750D01*
X-34750D01*
X21300Y20396D02*
X24300Y21541D01*
X-2319Y-53120D02*
X2321D01*
X-2319Y-48479D02*
X2321D01*
X2320Y-48480D02*
X5001Y-45799D01*
X2320Y-48480D02*
X2321Y-53120D01*
X5001Y-55799D01*
X-4999Y-45799D02*
X-2320Y-48480D01*
Y-53120D02*
Y-48480D01*
X-4999Y-55799D02*
X-2320Y-53120D01*
X-4999Y-55799D02*
X5001Y-55800D01*
Y-45799D01*
X-5000Y-45800D02*
X5001Y-45799D01*
X-5000Y-55800D02*
Y-45800D01*
X-43000Y-60550D02*
X-34750D01*
X-47732Y-56850D02*
X-31634D01*
X-47732Y-44750D02*
X-31634D01*
X-34750Y-41050D02*
X-31634Y-44360D01*
Y-57240D02*
Y-44360D01*
X-34750Y-60550D02*
X-31634Y-57240D01*
X-47732Y-56850D02*
X-43000Y-60550D01*
X-47732Y-56850D02*
Y-44750D01*
X-43000Y-41050D01*
X-34750D01*
Y76200D02*
X24300D01*
Y72341D02*
Y76200D01*
X21300Y-30404D02*
X24300Y-29259D01*
X21300Y-71196D02*
X24300Y-72341D01*
X21300Y-71196D02*
X24300Y-72341D01*
X21300Y-76200D02*
Y-71196D01*
X24300Y-76200D02*
Y-72341D01*
X-34750Y-76200D02*
X24300D01*
X-34750D02*
Y-60550D01*
X-43000Y-86200D02*
Y-60550D01*
X-48000Y-86200D02*
X38000D01*
Y86200D01*
X-48000D02*
X38000D01*
X665799Y666101D02*
X687800D01*
X665799D02*
Y680101D01*
X687800D01*
Y666101D02*
Y680101D01*
X55500Y91800D02*
X71500D01*
Y136800D01*
X55500D02*
X71500D01*
X55500Y91800D02*
Y136800D01*
X659451Y1346849D02*
X681451D01*
Y1332849D02*
Y1346849D01*
X659451Y1332849D02*
X681451D01*
X659451D02*
Y1346849D01*
X69201Y477840D02*
Y499841D01*
X83201D01*
Y477840D02*
Y499841D01*
X69201Y477840D02*
X83201D01*
X31101Y1738951D02*
Y1760950D01*
X45101D01*
Y1738951D02*
Y1760950D01*
X31101Y1738951D02*
X45101D01*
X999680Y759460D02*
X1009840D01*
X1004760D02*
X1009840Y764540D01*
X999680D02*
X1004760Y759460D01*
X999680Y764540D02*
X1009840D01*
X999680D02*
X1009840D01*
X999680D02*
X1004760Y759460D01*
X1009840Y764540D01*
X999680Y759460D02*
X1009840D01*
X999680D02*
X1009840D01*
X1004760D02*
X1009840Y764540D01*
X999680D02*
X1004760Y759460D01*
X999680Y764540D02*
X1009840D01*
X1004760D02*
Y768350D01*
Y755650D02*
Y759460D01*
X940800Y740400D02*
Y783600D01*
X1046300D01*
Y740400D02*
Y783600D01*
X940800Y740400D02*
X1046300D01*
Y747500D02*
X1066900D01*
X1046300Y776500D02*
X1066900D01*
X1046300Y484400D02*
X1066900D01*
X1046300Y455400D02*
X1066900D01*
X940800Y448300D02*
X1046300D01*
Y491500D01*
X940800D02*
X1046300D01*
X940800Y448300D02*
Y491500D01*
X1004760Y463550D02*
Y467360D01*
Y472440D02*
Y476250D01*
X999680Y472440D02*
X1009840D01*
X999680D02*
X1004760Y467360D01*
X1009840Y472440D01*
X999680Y467360D02*
X1009840D01*
X999680D02*
X1009840D01*
X1004760D02*
X1009840Y472440D01*
X999680D02*
X1004760Y467360D01*
X999680Y472440D02*
X1009840D01*
X999680D02*
X1009840D01*
X999680D02*
X1004760Y467360D01*
X1009840Y472440D01*
X999680Y467360D02*
X1009840D01*
X999680Y1330960D02*
X1009840D01*
X1004760D02*
X1009840Y1336040D01*
X999680D02*
X1004760Y1330960D01*
X999680Y1336040D02*
X1009840D01*
X999680D02*
X1009840D01*
X999680D02*
X1004760Y1330960D01*
X1009840Y1336040D01*
X999680Y1330960D02*
X1009840D01*
X999680D02*
X1009840D01*
X1004760D02*
X1009840Y1336040D01*
X999680D02*
X1004760Y1330960D01*
X999680Y1336040D02*
X1009840D01*
X1004760D02*
Y1339850D01*
Y1327150D02*
Y1330960D01*
X940800Y1311900D02*
Y1355100D01*
X1046300D01*
Y1311900D02*
Y1355100D01*
X940800Y1311900D02*
X1046300D01*
Y1319000D02*
X1066900D01*
X1046300Y1348000D02*
X1066900D01*
X690000Y875200D02*
X707000D01*
Y908200D01*
X690000D02*
X707000D01*
X690000Y875200D02*
Y908200D01*
Y778500D02*
X707000D01*
X690000Y745500D02*
Y778500D01*
Y745500D02*
X707000D01*
Y778500D01*
X817000D02*
X834000D01*
X817000Y745500D02*
Y778500D01*
Y745500D02*
X834000D01*
Y778500D01*
X690000Y926000D02*
X707000D01*
Y959000D01*
X690000D02*
X707000D01*
X690000Y926000D02*
Y959000D01*
X894250Y766200D02*
Y783200D01*
Y766200D02*
X927250D01*
Y783200D01*
X894250D02*
X927250D01*
X894250Y740800D02*
Y757800D01*
Y740800D02*
X927250D01*
Y757800D01*
X894250D02*
X927250D01*
X894250Y474100D02*
Y491100D01*
Y474100D02*
X927250D01*
Y491100D01*
X894250D02*
X927250D01*
X894250Y448700D02*
Y465700D01*
Y448700D02*
X927250D01*
Y465700D01*
X894250D02*
X927250D01*
X264550Y940900D02*
X281550D01*
X264550Y907900D02*
Y940900D01*
Y907900D02*
X281550D01*
Y940900D01*
X894250Y1337700D02*
Y1354700D01*
Y1337700D02*
X927250D01*
Y1354700D01*
X894250D02*
X927250D01*
X257800Y905900D02*
Y922900D01*
X224800D02*
X257800D01*
X224800Y905900D02*
Y922900D01*
Y905900D02*
X257800D01*
X16900Y8900D02*
X33900D01*
Y41900D01*
X16900D02*
X33900D01*
X16900Y8900D02*
Y41900D01*
X264550Y1116500D02*
X281550D01*
Y1149500D01*
X264550D02*
X281550D01*
X264550Y1116500D02*
Y1149500D01*
X894250Y1312300D02*
Y1329300D01*
Y1312300D02*
X927250D01*
Y1329300D01*
X894250D02*
X927250D01*
X257800Y1134500D02*
Y1151500D01*
X224800D02*
X257800D01*
X224800Y1134500D02*
Y1151500D01*
Y1134500D02*
X257800D01*
X690880Y707390D02*
X706120D01*
Y681990D02*
Y707390D01*
X690880Y681990D02*
X706120D01*
X690880D02*
Y707390D01*
X660400Y694690D02*
X690880D01*
X660400D02*
Y713740D01*
X706120Y694690D02*
X736600D01*
Y713740D01*
X648000Y737500D02*
X749000D01*
X648000Y532500D02*
Y737500D01*
Y532500D02*
X749000D01*
Y737500D01*
X713500Y720000D02*
Y737500D01*
X683500Y720000D02*
X713500D01*
X683500D02*
Y737500D01*
X736600Y558800D02*
Y565150D01*
X728980D02*
X736600D01*
Y577850D02*
Y584200D01*
X728980Y577850D02*
X736600D01*
X718820Y647700D02*
X723900D01*
X718820Y571500D02*
Y647700D01*
Y571500D02*
X723900D01*
X731520Y576580D01*
X665480Y576580D02*
X673100Y571500D01*
X678180D01*
Y647700D01*
X673100D02*
X678180D01*
X660400Y577850D02*
X668020D01*
X660400D02*
Y584200D01*
Y565150D02*
X668020D01*
X660400Y558800D02*
Y565150D01*
X817880Y707390D02*
X833120D01*
Y681990D02*
Y707390D01*
X817880Y681990D02*
X833120D01*
X817880D02*
Y707390D01*
X787400Y694690D02*
X817880D01*
X787400D02*
Y713740D01*
X833120Y694690D02*
X863600D01*
Y713740D01*
X775000Y737500D02*
X876000D01*
X775000Y532500D02*
Y737500D01*
Y532500D02*
X876000D01*
Y737500D01*
X840500Y720000D02*
Y737500D01*
X810500Y720000D02*
X840500D01*
X810500D02*
Y737500D01*
X863600Y558800D02*
Y565150D01*
X855980D02*
X863600D01*
Y577850D02*
Y584200D01*
X855980Y577850D02*
X863600D01*
X845820Y647700D02*
X850900D01*
X845820Y571500D02*
Y647700D01*
Y571500D02*
X850900D01*
X858520Y576580D01*
X792480Y576580D02*
X800100Y571500D01*
X805180D01*
Y647700D01*
X800100D02*
X805180D01*
X787400Y577850D02*
X795020D01*
X787400D02*
Y584200D01*
Y565150D02*
X795020D01*
X787400Y558800D02*
Y565150D01*
X186690Y905980D02*
Y921220D01*
X161290Y905980D02*
X186690D01*
X161290D02*
Y921220D01*
X186690D01*
X173990D02*
Y951700D01*
X193040D01*
X173990Y875500D02*
Y905980D01*
Y875500D02*
X193040D01*
X216800Y863100D02*
Y964100D01*
X11800D02*
X216800D01*
X11800Y863100D02*
Y964100D01*
Y863100D02*
X216800D01*
X199300Y898600D02*
X216800D01*
X199300D02*
Y928600D01*
X216800D01*
X38100Y875500D02*
X44450D01*
Y883120D01*
X57150Y875500D02*
X63500D01*
X57150D02*
Y883120D01*
X127000Y888200D02*
Y893280D01*
X50800D02*
X127000D01*
X50800Y888200D02*
Y893280D01*
Y888200D02*
X55880Y880580D01*
X50800Y939000D02*
X55880Y946620D01*
X50800Y933920D02*
Y939000D01*
Y933920D02*
X127000D01*
Y939000D01*
X57150Y944080D02*
Y951700D01*
X63500D01*
X44450Y944080D02*
Y951700D01*
X38100D02*
X44450D01*
X186690Y1135380D02*
Y1150620D01*
X161290Y1135380D02*
X186690D01*
X161290D02*
Y1150620D01*
X186690D01*
X173990D02*
Y1181100D01*
X193040D01*
X173990Y1104900D02*
Y1135380D01*
Y1104900D02*
X193040D01*
X216800Y1092500D02*
Y1193500D01*
X11800D02*
X216800D01*
X11800Y1092500D02*
Y1193500D01*
Y1092500D02*
X216800D01*
X199300Y1128000D02*
X216800D01*
X199300D02*
Y1158000D01*
X216800D01*
X38100Y1104900D02*
X44450D01*
Y1112520D01*
X57150Y1104900D02*
X63500D01*
X57150D02*
Y1112520D01*
X127000Y1117600D02*
Y1122680D01*
X50800D02*
X127000D01*
X50800Y1117600D02*
Y1122680D01*
Y1117600D02*
X55880Y1109980D01*
X50800Y1168400D02*
X55880Y1176020D01*
X50800Y1163320D02*
Y1168400D01*
Y1163320D02*
X127000D01*
Y1168400D01*
X57150Y1173480D02*
Y1181100D01*
X63500D01*
X44450Y1173480D02*
Y1181100D01*
X38100D02*
X44450D01*
X487045Y448309D02*
X528955D01*
X279400Y437895D02*
X288036Y429259D01*
X270764D02*
X279400Y437895D01*
X759714Y431545D02*
Y437895D01*
X738886Y431545D02*
Y437895D01*
X240284Y453868D02*
X264414D01*
X240284Y485931D02*
X264414D01*
X237236Y454659D02*
X240284D01*
X237236D02*
Y485140D01*
X240284D01*
X307086Y431545D02*
Y437895D01*
X297180Y429259D02*
Y431545D01*
X327914D02*
Y437895D01*
X337820Y429259D02*
Y431545D01*
X776986Y453868D02*
X801116D01*
X776986Y485931D02*
X801116D01*
Y485140D02*
X804164D01*
X801116Y454659D02*
X804164D01*
Y485140D01*
X776986Y453868D02*
Y485931D01*
X728980Y431545D02*
X769620D01*
X330835Y501395D02*
X710565D01*
Y491489D02*
Y510540D01*
Y491489D02*
X752475D01*
Y510540D01*
X774700Y501395D02*
X801116D01*
Y437895D02*
Y501395D01*
X528955Y437895D02*
X801116D01*
X264414Y453868D02*
Y485931D01*
X297180Y431545D02*
X337820D01*
X528955Y429259D02*
Y448309D01*
X487045Y429259D02*
Y448309D01*
X240284Y437895D02*
X487045D01*
X240284D02*
Y501395D01*
X288925D01*
X330835Y491489D02*
Y510540D01*
X288925Y491489D02*
X330835D01*
X288925D02*
Y510540D01*
X804672D02*
X811276D01*
X512572D02*
X795528D01*
X245872D02*
X503428D01*
X230124D02*
X236728D01*
X230124Y429259D02*
Y510540D01*
Y429259D02*
X297180D01*
X337820D02*
X728980D01*
Y431545D01*
X769620Y429259D02*
Y431545D01*
Y429259D02*
X811276D01*
Y510540D01*
X44850Y-20000D02*
Y20000D01*
X94850D01*
Y-20000D02*
Y20000D01*
X44850Y-20000D02*
X94850D01*
X486800Y1076950D02*
X503800D01*
X486800Y1043950D02*
Y1076950D01*
Y1043950D02*
X503800D01*
Y1076950D01*
X169300Y422040D02*
Y454040D01*
X186300D01*
Y422040D02*
Y454040D01*
X169300Y422040D02*
X186300D01*
Y472840D02*
Y504840D01*
X169300Y472840D02*
X186300D01*
X169300D02*
Y504840D01*
X186300D01*
X5750Y1757250D02*
Y1837250D01*
X-56750D02*
X5750D01*
X-56750Y1757250D02*
Y1837250D01*
X854700Y867800D02*
Y884800D01*
X821700D02*
X854700D01*
X821700Y867800D02*
Y884800D01*
Y867800D02*
X854700D01*
X672000Y802250D02*
X705000D01*
Y785250D02*
Y802250D01*
X672000Y785250D02*
X705000D01*
X672000D02*
Y802250D01*
X799000D02*
X832000D01*
Y785250D02*
Y802250D01*
X799000Y785250D02*
X832000D01*
X799000D02*
Y802250D01*
X535550Y920600D02*
Y953600D01*
X518550Y920600D02*
X535550D01*
X518550D02*
Y953600D01*
X535550D01*
Y971400D02*
Y1004400D01*
X518550Y971400D02*
X535550D01*
X518550D02*
Y1004400D01*
X535550D01*
X600450Y569370D02*
Y700370D01*
X463450Y579370D02*
Y690370D01*
X460450Y579370D02*
Y690370D01*
X466450Y700370D02*
X600450D01*
X466450Y569370D02*
X600450D01*
X466450Y572370D02*
X467950D01*
X463450Y562370D02*
Y566370D01*
X460450Y562370D02*
X463450D01*
X460450Y579370D02*
X467950D01*
X460450Y690370D02*
X467950D01*
Y569370D02*
Y700370D01*
X466450Y697370D02*
X467950D01*
X463450Y703370D02*
Y707370D01*
X460450D02*
X463450D01*
X460450Y562370D02*
Y566370D01*
Y703370D02*
Y707370D01*
X966828Y696300D02*
X968850D01*
X971322Y695180D01*
X949644Y705956D02*
X949749Y706617D01*
X949886Y706916D01*
X949963Y706952D01*
X965751Y706617D02*
X965856Y705956D01*
X965614Y706916D02*
X965751Y706617D01*
X965537Y706952D02*
X965614Y706916D01*
X949957Y706952D02*
X965537D01*
X965856Y705956D02*
X966940Y695180D01*
X949644Y705956D02*
X965856D01*
X948560Y695180D02*
X949644Y705956D01*
X1054170Y627500D02*
Y642500D01*
X1056433D02*
Y647500D01*
X1057370Y642500D02*
Y647500D01*
X1049068Y642500D02*
X1060550D01*
X1049068Y647500D02*
X1060550D01*
X1056433Y622500D02*
Y627500D01*
X1057370Y622500D02*
Y627500D01*
X1049068D02*
X1060550D01*
X1049068Y622500D02*
X1060550D01*
X966828Y573700D02*
X968850D01*
X971322Y574820D01*
X949644Y564044D02*
X949749Y563383D01*
X949886Y563084D01*
X949963Y563048D01*
X965751Y563383D02*
X965856Y564044D01*
X965614Y563084D02*
X965751Y563383D01*
X965537Y563048D02*
X965614Y563084D01*
X949957Y563048D02*
X965537D01*
X965856Y564044D02*
X966940Y574820D01*
X949644Y564044D02*
X965856D01*
X948560Y574820D02*
X949644Y564044D01*
X947550Y695180D02*
X1060550D01*
Y574820D02*
Y695180D01*
X947550Y574820D02*
X1060550D01*
X943550Y573700D02*
Y579000D01*
X903550Y573700D02*
X943550D01*
X903550Y579000D02*
X947550D01*
Y574820D02*
Y695180D01*
X903550Y691000D02*
X947550D01*
X943550D02*
Y696300D01*
X903550D02*
X943550D01*
X903550Y573700D02*
Y696300D01*
D49*
X-56750Y1757250D02*
X5750D01*
X1169913Y497842D02*
X1174750Y504614D01*
X1167494D01*
X1169913Y497842D02*
Y508000D01*
X1162803Y497842D02*
X1164254Y498326D01*
X1165221Y499777D01*
X1165705Y502196D01*
Y503647D01*
X1165221Y506065D01*
X1164254Y507516D01*
X1162803Y508000D01*
X1161835D01*
X1160384Y507516D01*
X1159417Y506065D01*
X1158933Y503647D01*
Y502196D01*
X1159417Y499777D01*
X1160384Y498326D01*
X1161835Y497842D01*
X1162803D01*
X1657350Y429927D02*
X1656383Y429443D01*
X1654931Y427992D01*
Y438150D01*
X1169913Y294642D02*
X1174750Y301414D01*
X1167494D01*
X1169913Y294642D02*
Y304800D01*
X1162803Y294642D02*
X1164254Y295126D01*
X1165221Y296577D01*
X1165705Y298995D01*
Y300447D01*
X1165221Y302865D01*
X1164254Y304316D01*
X1162803Y304800D01*
X1161835D01*
X1160384Y304316D01*
X1159417Y302865D01*
X1158933Y300447D01*
Y298995D01*
X1159417Y296577D01*
X1160384Y295126D01*
X1161835Y294642D01*
X1162803D01*
X1657350Y226727D02*
X1656383Y226243D01*
X1654931Y224792D01*
Y234950D01*
X760487Y506728D02*
X755650Y499956D01*
X762906D01*
X760487Y506728D02*
Y496570D01*
X767598Y506728D02*
X766146Y506244D01*
X765179Y504793D01*
X764695Y502374D01*
Y500923D01*
X765179Y498505D01*
X766146Y497054D01*
X767598Y496570D01*
X768565D01*
X770016Y497054D01*
X770984Y498505D01*
X771467Y500923D01*
Y502374D01*
X770984Y504793D01*
X770016Y506244D01*
X768565Y506728D01*
X767598D01*
M02*
