G04 Layer_Color=8388736*
%FSLAX44Y44*%
%MOMM*%
G71*
G01*
G75*
%ADD49C,1.8032*%
%ADD50C,6.2032*%
%ADD51C,2.2032*%
%ADD52R,1.7032X1.7032*%
%ADD53C,1.7032*%
%ADD54R,1.9032X1.9032*%
%ADD55C,1.9032*%
%ADD56R,1.9032X1.9032*%
%ADD57C,2.3032*%
%ADD58C,3.0032*%
%ADD59C,3.2032*%
%ADD60C,3.2000*%
%ADD61R,1.7032X1.7032*%
%ADD62C,0.2032*%
%ADD63C,1.7272*%
%ADD64C,1.2032*%
%ADD65C,1.4732*%
D49*
X882200Y41700D02*
D03*
Y21700D02*
D03*
X908400D02*
D03*
Y41700D02*
D03*
X355600Y457200D02*
D03*
Y482600D02*
D03*
X330200Y457200D02*
D03*
Y482600D02*
D03*
X304800Y457200D02*
D03*
Y482600D02*
D03*
X279400D02*
D03*
Y457200D02*
D03*
X254000Y482600D02*
D03*
Y457200D02*
D03*
X482600D02*
D03*
Y482600D02*
D03*
X457200Y457200D02*
D03*
Y482600D02*
D03*
X431800Y457200D02*
D03*
Y482600D02*
D03*
X406400D02*
D03*
Y457200D02*
D03*
X381000Y482600D02*
D03*
Y457200D02*
D03*
X609600D02*
D03*
Y482600D02*
D03*
X584200Y457200D02*
D03*
Y482600D02*
D03*
X558800Y457200D02*
D03*
Y482600D02*
D03*
X533400D02*
D03*
Y457200D02*
D03*
X508000Y482600D02*
D03*
Y457200D02*
D03*
X736600D02*
D03*
Y482600D02*
D03*
X711200Y457200D02*
D03*
Y482600D02*
D03*
X685800Y457200D02*
D03*
Y482600D02*
D03*
X660400D02*
D03*
Y457200D02*
D03*
X635000Y482600D02*
D03*
Y457200D02*
D03*
X977900Y1320800D02*
D03*
X952500D02*
D03*
X977900Y1346200D02*
D03*
X952500D02*
D03*
Y482600D02*
D03*
X977900D02*
D03*
X952500Y457200D02*
D03*
X977900D02*
D03*
Y749300D02*
D03*
X952500D02*
D03*
X977900Y774700D02*
D03*
X952500D02*
D03*
X768350Y1298500D02*
D03*
Y1323500D02*
D03*
Y1343500D02*
D03*
Y1368500D02*
D03*
X590550Y600000D02*
D03*
Y625000D02*
D03*
Y645000D02*
D03*
Y670000D02*
D03*
X571500Y1047750D02*
D03*
X546100D02*
D03*
D50*
X205300Y-223300D02*
D03*
Y266700D02*
D03*
X785300Y-223300D02*
D03*
Y266700D02*
D03*
X195000Y1505000D02*
D03*
X975000D02*
D03*
Y1925000D02*
D03*
X195000D02*
D03*
X875000Y-225000D02*
D03*
X75000D02*
D03*
X875000Y325000D02*
D03*
X75000D02*
D03*
X875000Y1425000D02*
D03*
X75000D02*
D03*
X875000Y1925000D02*
D03*
X75000D02*
D03*
D51*
X195000Y1755000D02*
D03*
Y1805000D02*
D03*
X-5000Y1708350D02*
D03*
Y1733350D02*
D03*
D52*
X1003300Y1200150D02*
D03*
D53*
X977900D02*
D03*
X952500D02*
D03*
X927100D02*
D03*
X901700D02*
D03*
X876300D02*
D03*
X850900D02*
D03*
X825500D02*
D03*
X800100D02*
D03*
X774700D02*
D03*
X749300D02*
D03*
X723900D02*
D03*
Y1047750D02*
D03*
X749300D02*
D03*
X774700D02*
D03*
X800100D02*
D03*
X825500D02*
D03*
X850900D02*
D03*
X876300D02*
D03*
X901700D02*
D03*
X927100D02*
D03*
X952500D02*
D03*
X977900D02*
D03*
X1003300D02*
D03*
X1263650Y965201D02*
D03*
Y939800D02*
D03*
Y914400D02*
D03*
Y889000D02*
D03*
X1238250Y977900D02*
D03*
Y952500D02*
D03*
Y927100D02*
D03*
Y901740D02*
D03*
X895350Y901700D02*
D03*
Y927100D02*
D03*
Y952500D02*
D03*
Y977900D02*
D03*
X920750Y888999D02*
D03*
Y914400D02*
D03*
Y939800D02*
D03*
Y965160D02*
D03*
X127000Y1009250D02*
D03*
X127000Y447840D02*
D03*
X127000Y767950D02*
D03*
D54*
X203200Y1187450D02*
D03*
X203200Y945350D02*
D03*
D55*
X127000Y1187450D02*
D03*
X76200D02*
D03*
X25400D02*
D03*
X203200Y1111250D02*
D03*
X127000D02*
D03*
X76200D02*
D03*
X25400D02*
D03*
X127000Y945350D02*
D03*
X76200D02*
D03*
X25400D02*
D03*
X203200Y869150D02*
D03*
X127000D02*
D03*
X76200D02*
D03*
X25400D02*
D03*
X787400Y647700D02*
D03*
Y596900D02*
D03*
Y546100D02*
D03*
X863600Y723900D02*
D03*
Y647700D02*
D03*
Y596900D02*
D03*
Y546100D02*
D03*
X660400Y647700D02*
D03*
Y596900D02*
D03*
Y546100D02*
D03*
X736600Y723900D02*
D03*
Y647700D02*
D03*
Y596900D02*
D03*
Y546100D02*
D03*
X1390650Y781050D02*
D03*
Y806450D02*
D03*
X1365250Y781050D02*
D03*
Y806450D02*
D03*
X930750Y647500D02*
D03*
Y622500D02*
D03*
X910750D02*
D03*
Y647500D02*
D03*
X1390650Y844550D02*
D03*
Y869950D02*
D03*
X1365250Y844550D02*
D03*
Y869950D02*
D03*
X1390650Y958850D02*
D03*
Y984250D02*
D03*
X1365250Y958850D02*
D03*
Y984250D02*
D03*
Y1060450D02*
D03*
X1390650D02*
D03*
Y1035050D02*
D03*
Y1085850D02*
D03*
X1365250Y1035050D02*
D03*
Y1085850D02*
D03*
X666750Y1073150D02*
D03*
X641350D02*
D03*
Y1098550D02*
D03*
Y1047750D02*
D03*
X666750Y1098550D02*
D03*
Y1047750D02*
D03*
X641350Y1200150D02*
D03*
Y1174750D02*
D03*
X666750Y1200150D02*
D03*
Y1174750D02*
D03*
D56*
X787400Y723900D02*
D03*
X660400D02*
D03*
D57*
X0Y50800D02*
D03*
Y0D02*
D03*
Y-50800D02*
D03*
D58*
X741250Y1267800D02*
D03*
Y1399200D02*
D03*
X563450Y569300D02*
D03*
Y700700D02*
D03*
D59*
X957850Y574800D02*
D03*
Y695200D02*
D03*
D60*
X1174750Y990601D02*
D03*
Y876300D02*
D03*
X984250Y876300D02*
D03*
Y990600D02*
D03*
D61*
X127000Y1059250D02*
D03*
X127000Y497840D02*
D03*
X127000Y817950D02*
D03*
D62*
X1555750Y781050D02*
D03*
Y869950D02*
D03*
Y958850D02*
D03*
Y1085850D02*
D03*
D63*
X1168400Y457200D02*
D03*
Y482600D02*
D03*
X1651000D02*
D03*
Y457200D02*
D03*
X1625600Y482600D02*
D03*
Y457200D02*
D03*
X1600200Y482600D02*
D03*
Y457200D02*
D03*
X1574800Y482600D02*
D03*
Y457200D02*
D03*
X1549400Y482600D02*
D03*
Y457200D02*
D03*
X1524000Y482600D02*
D03*
Y457200D02*
D03*
X1498600Y482600D02*
D03*
Y457200D02*
D03*
X1473200Y482600D02*
D03*
Y457200D02*
D03*
X1447800Y482600D02*
D03*
Y457200D02*
D03*
X1422400Y482600D02*
D03*
Y457200D02*
D03*
X1397000Y482600D02*
D03*
Y457200D02*
D03*
X1371600Y482600D02*
D03*
Y457200D02*
D03*
X1346200Y482600D02*
D03*
Y457200D02*
D03*
X1320800Y482600D02*
D03*
Y457200D02*
D03*
X1193800D02*
D03*
Y482600D02*
D03*
X1219200Y457200D02*
D03*
Y482600D02*
D03*
X1244600Y457200D02*
D03*
Y482600D02*
D03*
X1270000Y457200D02*
D03*
Y482600D02*
D03*
X1295400Y457200D02*
D03*
Y482600D02*
D03*
Y279400D02*
D03*
Y254000D02*
D03*
X1270000Y279400D02*
D03*
Y254000D02*
D03*
X1244600Y279400D02*
D03*
Y254000D02*
D03*
X1219200Y279400D02*
D03*
Y254000D02*
D03*
X1193800Y279400D02*
D03*
Y254000D02*
D03*
X1320800D02*
D03*
Y279400D02*
D03*
X1346200Y254000D02*
D03*
Y279400D02*
D03*
X1371600Y254000D02*
D03*
Y279400D02*
D03*
X1397000Y254000D02*
D03*
Y279400D02*
D03*
X1422400Y254000D02*
D03*
Y279400D02*
D03*
X1447800Y254000D02*
D03*
Y279400D02*
D03*
X1473200Y254000D02*
D03*
Y279400D02*
D03*
X1498600Y254000D02*
D03*
Y279400D02*
D03*
X1524000Y254000D02*
D03*
Y279400D02*
D03*
X1549400Y254000D02*
D03*
Y279400D02*
D03*
X1574800Y254000D02*
D03*
Y279400D02*
D03*
X1600200Y254000D02*
D03*
Y279400D02*
D03*
X1625600Y254000D02*
D03*
Y279400D02*
D03*
X1651000Y254000D02*
D03*
Y279400D02*
D03*
X1168400D02*
D03*
Y254000D02*
D03*
D64*
X196850Y508000D02*
D03*
Y381000D02*
D03*
X831850D02*
D03*
Y419100D02*
D03*
X539750Y1149350D02*
D03*
Y1117600D02*
D03*
X0Y393700D02*
D03*
X63500D02*
D03*
X615950Y609600D02*
D03*
X762000Y685800D02*
D03*
Y660400D02*
D03*
X615950Y711200D02*
D03*
X723900Y781050D02*
D03*
X742950D02*
D03*
X641350D02*
D03*
X615950D02*
D03*
X641350Y825500D02*
D03*
X615950Y838200D02*
D03*
X723900Y825500D02*
D03*
X742950Y838200D02*
D03*
X869950Y977900D02*
D03*
X901700Y1174750D02*
D03*
X977900Y1174750D02*
D03*
X838200Y946150D02*
D03*
X698500Y869950D02*
D03*
Y920750D02*
D03*
X762000Y850900D02*
D03*
Y825500D02*
D03*
X571500Y908050D02*
D03*
Y825500D02*
D03*
X488950D02*
D03*
X501650Y838200D02*
D03*
X514350Y1200150D02*
D03*
Y1117600D02*
D03*
X273050Y1111250D02*
D03*
X381000D02*
D03*
X273050Y946150D02*
D03*
X368300D02*
D03*
D65*
X1289050Y965200D02*
D03*
Y914400D02*
D03*
M02*
