G04 Layer_Color=2752767*
%FSLAX44Y44*%
%MOMM*%
G71*
G01*
G75*
%ADD81C,0.0508*%
%ADD82C,0.0677*%
%ADD83C,0.0339*%
D81*
X1067968Y467968D02*
Y472032D01*
X1072032D01*
Y467968D01*
X1067968D01*
Y427968D02*
Y432032D01*
X1072032D01*
Y427968D01*
X1067968D01*
Y457968D02*
Y462032D01*
X1072032D01*
Y457968D01*
X1067968D01*
Y447968D02*
Y452032D01*
X1072032D01*
Y447968D01*
X1067968D01*
Y437968D02*
Y442032D01*
X1072032D01*
Y437968D01*
X1067968D01*
Y967968D02*
Y972032D01*
X1072032D01*
Y967968D01*
X1067968D01*
Y927968D02*
Y932032D01*
X1072032D01*
Y927968D01*
X1067968D01*
Y957968D02*
Y962032D01*
X1072032D01*
Y957968D01*
X1067968D01*
Y947968D02*
Y952032D01*
X1072032D01*
Y947968D01*
X1067968D01*
Y937968D02*
Y942032D01*
X1072032D01*
Y937968D01*
X1067968D01*
Y1467968D02*
Y1472032D01*
X1072032D01*
Y1467968D01*
X1067968D01*
Y1427968D02*
Y1432032D01*
X1072032D01*
Y1427968D01*
X1067968D01*
Y1457968D02*
Y1462032D01*
X1072032D01*
Y1457968D01*
X1067968D01*
Y1447968D02*
Y1452032D01*
X1072032D01*
Y1447968D01*
X1067968D01*
Y1437968D02*
Y1442032D01*
X1072032D01*
Y1437968D01*
X1067968D01*
Y1967968D02*
Y1972032D01*
X1072032D01*
Y1967968D01*
X1067968D01*
Y1927968D02*
Y1932032D01*
X1072032D01*
Y1927968D01*
X1067968D01*
Y1957968D02*
Y1962032D01*
X1072032D01*
Y1957968D01*
X1067968D01*
Y1947968D02*
Y1952032D01*
X1072032D01*
Y1947968D01*
X1067968D01*
Y1937968D02*
Y1942032D01*
X1072032D01*
Y1937968D01*
X1067968D01*
X1217968Y1217968D02*
Y1222032D01*
X1222032D01*
Y1217968D01*
X1217968D01*
X1177968D02*
Y1222032D01*
X1182032D01*
Y1217968D01*
X1177968D01*
X1207968D02*
Y1222032D01*
X1212032D01*
Y1217968D01*
X1207968D01*
X1197968D02*
Y1222032D01*
X1202032D01*
Y1217968D01*
X1197968D01*
X1187968D02*
Y1222032D01*
X1192032D01*
Y1217968D01*
X1187968D01*
X1617968D02*
Y1222032D01*
X1622032D01*
Y1217968D01*
X1617968D01*
X1577968D02*
Y1222032D01*
X1582032D01*
Y1217968D01*
X1577968D01*
X1607968D02*
Y1222032D01*
X1612032D01*
Y1217968D01*
X1607968D01*
X1597968D02*
Y1222032D01*
X1602032D01*
Y1217968D01*
X1597968D01*
X1587968D02*
Y1222032D01*
X1592032D01*
Y1217968D01*
X1587968D01*
X1617968Y627968D02*
Y632032D01*
X1622032D01*
Y627968D01*
X1617968D01*
X1577968D02*
Y632032D01*
X1582032D01*
Y627968D01*
X1577968D01*
X1607968D02*
Y632032D01*
X1612032D01*
Y627968D01*
X1607968D01*
X1597968D02*
Y632032D01*
X1602032D01*
Y627968D01*
X1597968D01*
X1587968D02*
Y632032D01*
X1592032D01*
Y627968D01*
X1587968D01*
X1217968D02*
Y632032D01*
X1222032D01*
Y627968D01*
X1217968D01*
X1177968D02*
Y632032D01*
X1182032D01*
Y627968D01*
X1177968D01*
X1207968D02*
Y632032D01*
X1212032D01*
Y627968D01*
X1207968D01*
X1197968D02*
Y632032D01*
X1202032D01*
Y627968D01*
X1197968D01*
X1187968D02*
Y632032D01*
X1192032D01*
Y627968D01*
X1187968D01*
X1217968Y537968D02*
Y542032D01*
X1222032D01*
Y537968D01*
X1217968D01*
X1177968D02*
Y542032D01*
X1182032D01*
Y537968D01*
X1177968D01*
X1207968D02*
Y542032D01*
X1212032D01*
Y537968D01*
X1207968D01*
X1197968D02*
Y542032D01*
X1202032D01*
Y537968D01*
X1197968D01*
X1187968D02*
Y542032D01*
X1192032D01*
Y537968D01*
X1187968D01*
X1617968D02*
Y542032D01*
X1622032D01*
Y537968D01*
X1617968D01*
X1577968D02*
Y542032D01*
X1582032D01*
Y537968D01*
X1577968D01*
X1607968D02*
Y542032D01*
X1612032D01*
Y537968D01*
X1607968D01*
X1597968D02*
Y542032D01*
X1602032D01*
Y537968D01*
X1597968D01*
X1587968D02*
Y542032D01*
X1592032D01*
Y537968D01*
X1587968D01*
X1617968Y197968D02*
Y202032D01*
X1622032D01*
Y197968D01*
X1617968D01*
X1577968D02*
Y202032D01*
X1582032D01*
Y197968D01*
X1577968D01*
X1607968D02*
Y202032D01*
X1612032D01*
Y197968D01*
X1607968D01*
X1597968D02*
Y202032D01*
X1602032D01*
Y197968D01*
X1597968D01*
X1587968D02*
Y202032D01*
X1592032D01*
Y197968D01*
X1587968D01*
X1217968D02*
Y202032D01*
X1222032D01*
Y197968D01*
X1217968D01*
X1177968D02*
Y202032D01*
X1182032D01*
Y197968D01*
X1177968D01*
X1207968D02*
Y202032D01*
X1212032D01*
Y197968D01*
X1207968D01*
X1197968D02*
Y202032D01*
X1202032D01*
Y197968D01*
X1197968D01*
X1187968D02*
Y202032D01*
X1192032D01*
Y197968D01*
X1187968D01*
X1067968Y-72032D02*
Y-67968D01*
X1072032D01*
Y-72032D01*
X1067968D01*
Y-32032D02*
Y-27968D01*
X1072032D01*
Y-32032D01*
X1067968D01*
Y-62032D02*
Y-57968D01*
X1072032D01*
Y-62032D01*
X1067968D01*
Y-52032D02*
Y-47968D01*
X1072032D01*
Y-52032D01*
X1067968D01*
Y-42032D02*
Y-37968D01*
X1072032D01*
Y-42032D01*
X1067968D01*
X1047968D02*
Y-37968D01*
X1052032D01*
Y-42032D01*
X1047968D01*
Y-52032D02*
Y-47968D01*
X1052032D01*
Y-52032D01*
X1047968D01*
Y-62032D02*
Y-57968D01*
X1052032D01*
Y-62032D01*
X1047968D01*
Y-32032D02*
Y-27968D01*
X1052032D01*
Y-32032D01*
X1047968D01*
Y-72032D02*
Y-67968D01*
X1052032D01*
Y-72032D01*
X1047968D01*
Y457968D02*
Y462032D01*
X1052032D01*
Y457968D01*
X1047968D01*
Y447968D02*
Y452032D01*
X1052032D01*
Y447968D01*
X1047968D01*
Y437968D02*
Y442032D01*
X1052032D01*
Y437968D01*
X1047968D01*
Y467968D02*
Y472032D01*
X1052032D01*
Y467968D01*
X1047968D01*
Y427968D02*
Y432032D01*
X1052032D01*
Y427968D01*
X1047968D01*
Y957968D02*
Y962032D01*
X1052032D01*
Y957968D01*
X1047968D01*
Y947968D02*
Y952032D01*
X1052032D01*
Y947968D01*
X1047968D01*
Y937968D02*
Y942032D01*
X1052032D01*
Y937968D01*
X1047968D01*
Y967968D02*
Y972032D01*
X1052032D01*
Y967968D01*
X1047968D01*
Y927968D02*
Y932032D01*
X1052032D01*
Y927968D01*
X1047968D01*
Y1457968D02*
Y1462032D01*
X1052032D01*
Y1457968D01*
X1047968D01*
Y1447968D02*
Y1452032D01*
X1052032D01*
Y1447968D01*
X1047968D01*
Y1437968D02*
Y1442032D01*
X1052032D01*
Y1437968D01*
X1047968D01*
Y1467968D02*
Y1472032D01*
X1052032D01*
Y1467968D01*
X1047968D01*
Y1427968D02*
Y1432032D01*
X1052032D01*
Y1427968D01*
X1047968D01*
Y1957968D02*
Y1962032D01*
X1052032D01*
Y1957968D01*
X1047968D01*
Y1947968D02*
Y1952032D01*
X1052032D01*
Y1947968D01*
X1047968D01*
Y1937968D02*
Y1942032D01*
X1052032D01*
Y1937968D01*
X1047968D01*
Y1967968D02*
Y1972032D01*
X1052032D01*
Y1967968D01*
X1047968D01*
Y1927968D02*
Y1932032D01*
X1052032D01*
Y1927968D01*
X1047968D01*
X1607968Y1197968D02*
Y1202032D01*
X1612032D01*
Y1197968D01*
X1607968D01*
X1597968D02*
Y1202032D01*
X1602032D01*
Y1197968D01*
X1597968D01*
X1587968D02*
Y1202032D01*
X1592032D01*
Y1197968D01*
X1587968D01*
X1617968D02*
Y1202032D01*
X1622032D01*
Y1197968D01*
X1617968D01*
X1577968D02*
Y1202032D01*
X1582032D01*
Y1197968D01*
X1577968D01*
X1207968D02*
Y1202032D01*
X1212032D01*
Y1197968D01*
X1207968D01*
X1197968D02*
Y1202032D01*
X1202032D01*
Y1197968D01*
X1197968D01*
X1187968D02*
Y1202032D01*
X1192032D01*
Y1197968D01*
X1187968D01*
X1217968D02*
Y1202032D01*
X1222032D01*
Y1197968D01*
X1217968D01*
X1177968D02*
Y1202032D01*
X1182032D01*
Y1197968D01*
X1177968D01*
X1607968Y217968D02*
Y222032D01*
X1612032D01*
Y217968D01*
X1607968D01*
X1597968D02*
Y222032D01*
X1602032D01*
Y217968D01*
X1597968D01*
X1587968D02*
Y222032D01*
X1592032D01*
Y217968D01*
X1587968D01*
X1617968D02*
Y222032D01*
X1622032D01*
Y217968D01*
X1617968D01*
X1577968D02*
Y222032D01*
X1582032D01*
Y217968D01*
X1577968D01*
X1207968D02*
Y222032D01*
X1212032D01*
Y217968D01*
X1207968D01*
X1197968D02*
Y222032D01*
X1202032D01*
Y217968D01*
X1197968D01*
X1187968D02*
Y222032D01*
X1192032D01*
Y217968D01*
X1187968D01*
X1217968D02*
Y222032D01*
X1222032D01*
Y217968D01*
X1217968D01*
X1177968D02*
Y222032D01*
X1182032D01*
Y217968D01*
X1177968D01*
X1207968Y517968D02*
Y522032D01*
X1212032D01*
Y517968D01*
X1207968D01*
X1197968D02*
Y522032D01*
X1202032D01*
Y517968D01*
X1197968D01*
X1187968D02*
Y522032D01*
X1192032D01*
Y517968D01*
X1187968D01*
X1217968D02*
Y522032D01*
X1222032D01*
Y517968D01*
X1217968D01*
X1177968D02*
Y522032D01*
X1182032D01*
Y517968D01*
X1177968D01*
X1607968D02*
Y522032D01*
X1612032D01*
Y517968D01*
X1607968D01*
X1597968D02*
Y522032D01*
X1602032D01*
Y517968D01*
X1597968D01*
X1587968D02*
Y522032D01*
X1592032D01*
Y517968D01*
X1587968D01*
X1617968D02*
Y522032D01*
X1622032D01*
Y517968D01*
X1617968D01*
X1577968D02*
Y522032D01*
X1582032D01*
Y517968D01*
X1577968D01*
X1607968Y647968D02*
Y652032D01*
X1612032D01*
Y647968D01*
X1607968D01*
X1597968D02*
Y652032D01*
X1602032D01*
Y647968D01*
X1597968D01*
X1587968D02*
Y652032D01*
X1592032D01*
Y647968D01*
X1587968D01*
X1617968D02*
Y652032D01*
X1622032D01*
Y647968D01*
X1617968D01*
X1577968D02*
Y652032D01*
X1582032D01*
Y647968D01*
X1577968D01*
X1207968D02*
Y652032D01*
X1212032D01*
Y647968D01*
X1207968D01*
X1197968D02*
Y652032D01*
X1202032D01*
Y647968D01*
X1197968D01*
X1187968D02*
Y652032D01*
X1192032D01*
Y647968D01*
X1187968D01*
X1217968D02*
Y652032D01*
X1222032D01*
Y647968D01*
X1217968D01*
X1177968D02*
Y652032D01*
X1182032D01*
Y647968D01*
X1177968D01*
X741250Y1265768D02*
X739218Y1269832D01*
X743282D01*
X741250Y1265768D01*
Y1397168D02*
X739218Y1401232D01*
X743282D01*
X741250Y1397168D01*
X666750Y1172718D02*
X667766Y1173734D01*
X668782D01*
X667766Y1174750D01*
X668782Y1175766D01*
X667766D01*
X666750Y1176782D01*
X665734Y1175766D01*
X664718D01*
X665734Y1174750D01*
X664718Y1173734D01*
X665734D01*
X666750Y1172718D01*
Y1198118D02*
X667766Y1199134D01*
X668782D01*
X667766Y1200150D01*
X668782Y1201166D01*
X667766D01*
X666750Y1202182D01*
X665734Y1201166D01*
X664718D01*
X665734Y1200150D01*
X664718Y1199134D01*
X665734D01*
X666750Y1198118D01*
X641350Y1172718D02*
X642366Y1173734D01*
X643382D01*
X642366Y1174750D01*
X643382Y1175766D01*
X642366D01*
X641350Y1176782D01*
X640334Y1175766D01*
X639318D01*
X640334Y1174750D01*
X639318Y1173734D01*
X640334D01*
X641350Y1172718D01*
Y1198118D02*
X642366Y1199134D01*
X643382D01*
X642366Y1200150D01*
X643382Y1201166D01*
X642366D01*
X641350Y1202182D01*
X640334Y1201166D01*
X639318D01*
X640334Y1200150D01*
X639318Y1199134D01*
X640334D01*
X641350Y1198118D01*
X1553718Y1083818D02*
X1554734Y1085850D01*
X1553718Y1087882D01*
X1555750Y1086866D01*
X1557782Y1087882D01*
X1556766Y1085850D01*
X1557782Y1083818D01*
X1555750Y1084834D01*
X1553718Y1083818D01*
Y956818D02*
X1554734Y958850D01*
X1553718Y960882D01*
X1555750Y959866D01*
X1557782Y960882D01*
X1556766Y958850D01*
X1557782Y956818D01*
X1555750Y957834D01*
X1553718Y956818D01*
Y867918D02*
X1554734Y869950D01*
X1553718Y871982D01*
X1555750Y870966D01*
X1557782Y871982D01*
X1556766Y869950D01*
X1557782Y867918D01*
X1555750Y868934D01*
X1553718Y867918D01*
Y779018D02*
X1554734Y781050D01*
X1553718Y783082D01*
X1555750Y782066D01*
X1557782Y783082D01*
X1556766Y781050D01*
X1557782Y779018D01*
X1555750Y780034D01*
X1553718Y779018D01*
X90984Y2015984D02*
Y2014968D01*
X93016D01*
Y2015984D01*
X94032D01*
Y2018016D01*
X93016D01*
Y2019032D01*
X90984D01*
Y2018016D01*
X89968D01*
Y2015984D01*
X90984D01*
X97984Y1998984D02*
Y1997968D01*
X100016D01*
Y1998984D01*
X101032D01*
Y2001016D01*
X100016D01*
Y2002032D01*
X97984D01*
Y2001016D01*
X96968D01*
Y1998984D01*
X97984D01*
X73984Y2022984D02*
Y2021968D01*
X76016D01*
Y2022984D01*
X77032D01*
Y2025016D01*
X76016D01*
Y2026032D01*
X73984D01*
Y2025016D01*
X72968D01*
Y2022984D01*
X73984D01*
X90984Y1981984D02*
Y1980968D01*
X93016D01*
Y1981984D01*
X94032D01*
Y1984016D01*
X93016D01*
Y1985032D01*
X90984D01*
Y1984016D01*
X89968D01*
Y1981984D01*
X90984D01*
X73984Y1974984D02*
Y1973968D01*
X76016D01*
Y1974984D01*
X77032D01*
Y1977016D01*
X76016D01*
Y1978032D01*
X73984D01*
Y1977016D01*
X72968D01*
Y1974984D01*
X73984D01*
X56984Y2015984D02*
Y2014968D01*
X59016D01*
Y2015984D01*
X60032D01*
Y2018016D01*
X59016D01*
Y2019032D01*
X56984D01*
Y2018016D01*
X55968D01*
Y2015984D01*
X56984D01*
X49984Y1998984D02*
Y1997968D01*
X52016D01*
Y1998984D01*
X53032D01*
Y2001016D01*
X52016D01*
Y2002032D01*
X49984D01*
Y2001016D01*
X48968D01*
Y1998984D01*
X49984D01*
X72968Y1997968D02*
X73984Y2000000D01*
X72968Y2002032D01*
X75000Y2001016D01*
X77032Y2002032D01*
X76016Y2000000D01*
X77032Y1997968D01*
X75000Y1998984D01*
X72968Y1997968D01*
X56984Y1981984D02*
Y1980968D01*
X59016D01*
Y1981984D01*
X60032D01*
Y1984016D01*
X59016D01*
Y1985032D01*
X56984D01*
Y1984016D01*
X55968D01*
Y1981984D01*
X56984D01*
X890984Y2015984D02*
Y2014968D01*
X893016D01*
Y2015984D01*
X894032D01*
Y2018016D01*
X893016D01*
Y2019032D01*
X890984D01*
Y2018016D01*
X889968D01*
Y2015984D01*
X890984D01*
X897984Y1998984D02*
Y1997968D01*
X900016D01*
Y1998984D01*
X901032D01*
Y2001016D01*
X900016D01*
Y2002032D01*
X897984D01*
Y2001016D01*
X896968D01*
Y1998984D01*
X897984D01*
X873984Y2022984D02*
Y2021968D01*
X876016D01*
Y2022984D01*
X877032D01*
Y2025016D01*
X876016D01*
Y2026032D01*
X873984D01*
Y2025016D01*
X872968D01*
Y2022984D01*
X873984D01*
X890984Y1981984D02*
Y1980968D01*
X893016D01*
Y1981984D01*
X894032D01*
Y1984016D01*
X893016D01*
Y1985032D01*
X890984D01*
Y1984016D01*
X889968D01*
Y1981984D01*
X890984D01*
X873984Y1974984D02*
Y1973968D01*
X876016D01*
Y1974984D01*
X877032D01*
Y1977016D01*
X876016D01*
Y1978032D01*
X873984D01*
Y1977016D01*
X872968D01*
Y1974984D01*
X873984D01*
X856984Y2015984D02*
Y2014968D01*
X859016D01*
Y2015984D01*
X860032D01*
Y2018016D01*
X859016D01*
Y2019032D01*
X856984D01*
Y2018016D01*
X855968D01*
Y2015984D01*
X856984D01*
X849984Y1998984D02*
Y1997968D01*
X852016D01*
Y1998984D01*
X853032D01*
Y2001016D01*
X852016D01*
Y2002032D01*
X849984D01*
Y2001016D01*
X848968D01*
Y1998984D01*
X849984D01*
X872968Y1997968D02*
X873984Y2000000D01*
X872968Y2002032D01*
X875000Y2001016D01*
X877032Y2002032D01*
X876016Y2000000D01*
X877032Y1997968D01*
X875000Y1998984D01*
X872968Y1997968D01*
X856984Y1981984D02*
Y1980968D01*
X859016D01*
Y1981984D01*
X860032D01*
Y1984016D01*
X859016D01*
Y1985032D01*
X856984D01*
Y1984016D01*
X855968D01*
Y1981984D01*
X856984D01*
X90984Y1440984D02*
Y1439968D01*
X93016D01*
Y1440984D01*
X94032D01*
Y1443016D01*
X93016D01*
Y1444032D01*
X90984D01*
Y1443016D01*
X89968D01*
Y1440984D01*
X90984D01*
X97984Y1423984D02*
Y1422968D01*
X100016D01*
Y1423984D01*
X101032D01*
Y1426016D01*
X100016D01*
Y1427032D01*
X97984D01*
Y1426016D01*
X96968D01*
Y1423984D01*
X97984D01*
X73984Y1447984D02*
Y1446968D01*
X76016D01*
Y1447984D01*
X77032D01*
Y1450016D01*
X76016D01*
Y1451032D01*
X73984D01*
Y1450016D01*
X72968D01*
Y1447984D01*
X73984D01*
X90984Y1406984D02*
Y1405968D01*
X93016D01*
Y1406984D01*
X94032D01*
Y1409016D01*
X93016D01*
Y1410032D01*
X90984D01*
Y1409016D01*
X89968D01*
Y1406984D01*
X90984D01*
X73984Y1399984D02*
Y1398968D01*
X76016D01*
Y1399984D01*
X77032D01*
Y1402016D01*
X76016D01*
Y1403032D01*
X73984D01*
Y1402016D01*
X72968D01*
Y1399984D01*
X73984D01*
X56984Y1440984D02*
Y1439968D01*
X59016D01*
Y1440984D01*
X60032D01*
Y1443016D01*
X59016D01*
Y1444032D01*
X56984D01*
Y1443016D01*
X55968D01*
Y1440984D01*
X56984D01*
X49984Y1423984D02*
Y1422968D01*
X52016D01*
Y1423984D01*
X53032D01*
Y1426016D01*
X52016D01*
Y1427032D01*
X49984D01*
Y1426016D01*
X48968D01*
Y1423984D01*
X49984D01*
X72968Y1422968D02*
X73984Y1425000D01*
X72968Y1427032D01*
X75000Y1426016D01*
X77032Y1427032D01*
X76016Y1425000D01*
X77032Y1422968D01*
X75000Y1423984D01*
X72968Y1422968D01*
X56984Y1406984D02*
Y1405968D01*
X59016D01*
Y1406984D01*
X60032D01*
Y1409016D01*
X59016D01*
Y1410032D01*
X56984D01*
Y1409016D01*
X55968D01*
Y1406984D01*
X56984D01*
X890984Y1440984D02*
Y1439968D01*
X893016D01*
Y1440984D01*
X894032D01*
Y1443016D01*
X893016D01*
Y1444032D01*
X890984D01*
Y1443016D01*
X889968D01*
Y1440984D01*
X890984D01*
X897984Y1423984D02*
Y1422968D01*
X900016D01*
Y1423984D01*
X901032D01*
Y1426016D01*
X900016D01*
Y1427032D01*
X897984D01*
Y1426016D01*
X896968D01*
Y1423984D01*
X897984D01*
X873984Y1447984D02*
Y1446968D01*
X876016D01*
Y1447984D01*
X877032D01*
Y1450016D01*
X876016D01*
Y1451032D01*
X873984D01*
Y1450016D01*
X872968D01*
Y1447984D01*
X873984D01*
X890984Y1406984D02*
Y1405968D01*
X893016D01*
Y1406984D01*
X894032D01*
Y1409016D01*
X893016D01*
Y1410032D01*
X890984D01*
Y1409016D01*
X889968D01*
Y1406984D01*
X890984D01*
X873984Y1399984D02*
Y1398968D01*
X876016D01*
Y1399984D01*
X877032D01*
Y1402016D01*
X876016D01*
Y1403032D01*
X873984D01*
Y1402016D01*
X872968D01*
Y1399984D01*
X873984D01*
X856984Y1440984D02*
Y1439968D01*
X859016D01*
Y1440984D01*
X860032D01*
Y1443016D01*
X859016D01*
Y1444032D01*
X856984D01*
Y1443016D01*
X855968D01*
Y1440984D01*
X856984D01*
X849984Y1423984D02*
Y1422968D01*
X852016D01*
Y1423984D01*
X853032D01*
Y1426016D01*
X852016D01*
Y1427032D01*
X849984D01*
Y1426016D01*
X848968D01*
Y1423984D01*
X849984D01*
X872968Y1422968D02*
X873984Y1425000D01*
X872968Y1427032D01*
X875000Y1426016D01*
X877032Y1427032D01*
X876016Y1425000D01*
X877032Y1422968D01*
X875000Y1423984D01*
X872968Y1422968D01*
X856984Y1406984D02*
Y1405968D01*
X859016D01*
Y1406984D01*
X860032D01*
Y1409016D01*
X859016D01*
Y1410032D01*
X856984D01*
Y1409016D01*
X855968D01*
Y1406984D01*
X856984D01*
X90984Y340984D02*
Y339968D01*
X93016D01*
Y340984D01*
X94032D01*
Y343016D01*
X93016D01*
Y344032D01*
X90984D01*
Y343016D01*
X89968D01*
Y340984D01*
X90984D01*
X97984Y323984D02*
Y322968D01*
X100016D01*
Y323984D01*
X101032D01*
Y326016D01*
X100016D01*
Y327032D01*
X97984D01*
Y326016D01*
X96968D01*
Y323984D01*
X97984D01*
X73984Y347984D02*
Y346968D01*
X76016D01*
Y347984D01*
X77032D01*
Y350016D01*
X76016D01*
Y351032D01*
X73984D01*
Y350016D01*
X72968D01*
Y347984D01*
X73984D01*
X90984Y306984D02*
Y305968D01*
X93016D01*
Y306984D01*
X94032D01*
Y309016D01*
X93016D01*
Y310032D01*
X90984D01*
Y309016D01*
X89968D01*
Y306984D01*
X90984D01*
X73984Y299984D02*
Y298968D01*
X76016D01*
Y299984D01*
X77032D01*
Y302016D01*
X76016D01*
Y303032D01*
X73984D01*
Y302016D01*
X72968D01*
Y299984D01*
X73984D01*
X56984Y340984D02*
Y339968D01*
X59016D01*
Y340984D01*
X60032D01*
Y343016D01*
X59016D01*
Y344032D01*
X56984D01*
Y343016D01*
X55968D01*
Y340984D01*
X56984D01*
X49984Y323984D02*
Y322968D01*
X52016D01*
Y323984D01*
X53032D01*
Y326016D01*
X52016D01*
Y327032D01*
X49984D01*
Y326016D01*
X48968D01*
Y323984D01*
X49984D01*
X72968Y322968D02*
X73984Y325000D01*
X72968Y327032D01*
X75000Y326016D01*
X77032Y327032D01*
X76016Y325000D01*
X77032Y322968D01*
X75000Y323984D01*
X72968Y322968D01*
X56984Y306984D02*
Y305968D01*
X59016D01*
Y306984D01*
X60032D01*
Y309016D01*
X59016D01*
Y310032D01*
X56984D01*
Y309016D01*
X55968D01*
Y306984D01*
X56984D01*
X890984Y340984D02*
Y339968D01*
X893016D01*
Y340984D01*
X894032D01*
Y343016D01*
X893016D01*
Y344032D01*
X890984D01*
Y343016D01*
X889968D01*
Y340984D01*
X890984D01*
X897984Y323984D02*
Y322968D01*
X900016D01*
Y323984D01*
X901032D01*
Y326016D01*
X900016D01*
Y327032D01*
X897984D01*
Y326016D01*
X896968D01*
Y323984D01*
X897984D01*
X873984Y347984D02*
Y346968D01*
X876016D01*
Y347984D01*
X877032D01*
Y350016D01*
X876016D01*
Y351032D01*
X873984D01*
Y350016D01*
X872968D01*
Y347984D01*
X873984D01*
X890984Y306984D02*
Y305968D01*
X893016D01*
Y306984D01*
X894032D01*
Y309016D01*
X893016D01*
Y310032D01*
X890984D01*
Y309016D01*
X889968D01*
Y306984D01*
X890984D01*
X873984Y299984D02*
Y298968D01*
X876016D01*
Y299984D01*
X877032D01*
Y302016D01*
X876016D01*
Y303032D01*
X873984D01*
Y302016D01*
X872968D01*
Y299984D01*
X873984D01*
X856984Y340984D02*
Y339968D01*
X859016D01*
Y340984D01*
X860032D01*
Y343016D01*
X859016D01*
Y344032D01*
X856984D01*
Y343016D01*
X855968D01*
Y340984D01*
X856984D01*
X849984Y323984D02*
Y322968D01*
X852016D01*
Y323984D01*
X853032D01*
Y326016D01*
X852016D01*
Y327032D01*
X849984D01*
Y326016D01*
X848968D01*
Y323984D01*
X849984D01*
X872968Y322968D02*
X873984Y325000D01*
X872968Y327032D01*
X875000Y326016D01*
X877032Y327032D01*
X876016Y325000D01*
X877032Y322968D01*
X875000Y323984D01*
X872968Y322968D01*
X856984Y306984D02*
Y305968D01*
X859016D01*
Y306984D01*
X860032D01*
Y309016D01*
X859016D01*
Y310032D01*
X856984D01*
Y309016D01*
X855968D01*
Y306984D01*
X856984D01*
X90984Y-209016D02*
Y-210032D01*
X93016D01*
Y-209016D01*
X94032D01*
Y-206984D01*
X93016D01*
Y-205968D01*
X90984D01*
Y-206984D01*
X89968D01*
Y-209016D01*
X90984D01*
X97984Y-226016D02*
Y-227032D01*
X100016D01*
Y-226016D01*
X101032D01*
Y-223984D01*
X100016D01*
Y-222968D01*
X97984D01*
Y-223984D01*
X96968D01*
Y-226016D01*
X97984D01*
X73984Y-202016D02*
Y-203032D01*
X76016D01*
Y-202016D01*
X77032D01*
Y-199984D01*
X76016D01*
Y-198968D01*
X73984D01*
Y-199984D01*
X72968D01*
Y-202016D01*
X73984D01*
X90984Y-243016D02*
Y-244032D01*
X93016D01*
Y-243016D01*
X94032D01*
Y-240984D01*
X93016D01*
Y-239968D01*
X90984D01*
Y-240984D01*
X89968D01*
Y-243016D01*
X90984D01*
X73984Y-250016D02*
Y-251032D01*
X76016D01*
Y-250016D01*
X77032D01*
Y-247984D01*
X76016D01*
Y-246968D01*
X73984D01*
Y-247984D01*
X72968D01*
Y-250016D01*
X73984D01*
X56984Y-209016D02*
Y-210032D01*
X59016D01*
Y-209016D01*
X60032D01*
Y-206984D01*
X59016D01*
Y-205968D01*
X56984D01*
Y-206984D01*
X55968D01*
Y-209016D01*
X56984D01*
X49984Y-226016D02*
Y-227032D01*
X52016D01*
Y-226016D01*
X53032D01*
Y-223984D01*
X52016D01*
Y-222968D01*
X49984D01*
Y-223984D01*
X48968D01*
Y-226016D01*
X49984D01*
X72968Y-227032D02*
X73984Y-225000D01*
X72968Y-222968D01*
X75000Y-223984D01*
X77032Y-222968D01*
X76016Y-225000D01*
X77032Y-227032D01*
X75000Y-226016D01*
X72968Y-227032D01*
X56984Y-243016D02*
Y-244032D01*
X59016D01*
Y-243016D01*
X60032D01*
Y-240984D01*
X59016D01*
Y-239968D01*
X56984D01*
Y-240984D01*
X55968D01*
Y-243016D01*
X56984D01*
X915984Y-209016D02*
Y-210032D01*
X918016D01*
Y-209016D01*
X919032D01*
Y-206984D01*
X918016D01*
Y-205968D01*
X915984D01*
Y-206984D01*
X914968D01*
Y-209016D01*
X915984D01*
X922984Y-226016D02*
Y-227032D01*
X925016D01*
Y-226016D01*
X926032D01*
Y-223984D01*
X925016D01*
Y-222968D01*
X922984D01*
Y-223984D01*
X921968D01*
Y-226016D01*
X922984D01*
X898984Y-202016D02*
Y-203032D01*
X901016D01*
Y-202016D01*
X902032D01*
Y-199984D01*
X901016D01*
Y-198968D01*
X898984D01*
Y-199984D01*
X897968D01*
Y-202016D01*
X898984D01*
X915984Y-243016D02*
Y-244032D01*
X918016D01*
Y-243016D01*
X919032D01*
Y-240984D01*
X918016D01*
Y-239968D01*
X915984D01*
Y-240984D01*
X914968D01*
Y-243016D01*
X915984D01*
X898984Y-250016D02*
Y-251032D01*
X901016D01*
Y-250016D01*
X902032D01*
Y-247984D01*
X901016D01*
Y-246968D01*
X898984D01*
Y-247984D01*
X897968D01*
Y-250016D01*
X898984D01*
X881984Y-209016D02*
Y-210032D01*
X884016D01*
Y-209016D01*
X885032D01*
Y-206984D01*
X884016D01*
Y-205968D01*
X881984D01*
Y-206984D01*
X880968D01*
Y-209016D01*
X881984D01*
X874984Y-226016D02*
Y-227032D01*
X877016D01*
Y-226016D01*
X878032D01*
Y-223984D01*
X877016D01*
Y-222968D01*
X874984D01*
Y-223984D01*
X873968D01*
Y-226016D01*
X874984D01*
X897968Y-227032D02*
X898984Y-225000D01*
X897968Y-222968D01*
X900000Y-223984D01*
X902032Y-222968D01*
X901016Y-225000D01*
X902032Y-227032D01*
X900000Y-226016D01*
X897968Y-227032D01*
X881984Y-243016D02*
Y-244032D01*
X884016D01*
Y-243016D01*
X885032D01*
Y-240984D01*
X884016D01*
Y-239968D01*
X881984D01*
Y-240984D01*
X880968D01*
Y-243016D01*
X881984D01*
X982218Y988568D02*
X983234D01*
X984250Y989584D01*
X985266Y988568D01*
X986282D01*
Y989584D01*
X985266Y990600D01*
X986282Y991616D01*
Y992632D01*
X985266D01*
X984250Y991616D01*
X983234Y992632D01*
X982218D01*
Y991616D01*
X983234Y990600D01*
X982218Y989584D01*
Y988568D01*
X919734Y964144D02*
Y963128D01*
X921766D01*
Y964144D01*
X922782D01*
Y966176D01*
X921766D01*
Y967192D01*
X919734D01*
Y966176D01*
X918718D01*
Y964144D01*
X919734D01*
Y938784D02*
Y937768D01*
X921766D01*
Y938784D01*
X922782D01*
Y940816D01*
X921766D01*
Y941832D01*
X919734D01*
Y940816D01*
X918718D01*
Y938784D01*
X919734D01*
Y913384D02*
Y912368D01*
X921766D01*
Y913384D01*
X922782D01*
Y915416D01*
X921766D01*
Y916432D01*
X919734D01*
Y915416D01*
X918718D01*
Y913384D01*
X919734D01*
Y887983D02*
Y886967D01*
X921766D01*
Y887983D01*
X922782D01*
Y890015D01*
X921766D01*
Y891031D01*
X919734D01*
Y890015D01*
X918718D01*
Y887983D01*
X919734D01*
X894334Y976884D02*
Y975868D01*
X896366D01*
Y976884D01*
X897382D01*
Y978916D01*
X896366D01*
Y979932D01*
X894334D01*
Y978916D01*
X893318D01*
Y976884D01*
X894334D01*
Y951484D02*
Y950468D01*
X896366D01*
Y951484D01*
X897382D01*
Y953516D01*
X896366D01*
Y954532D01*
X894334D01*
Y953516D01*
X893318D01*
Y951484D01*
X894334D01*
Y926084D02*
Y925068D01*
X896366D01*
Y926084D01*
X897382D01*
Y928116D01*
X896366D01*
Y929132D01*
X894334D01*
Y928116D01*
X893318D01*
Y926084D01*
X894334D01*
Y900684D02*
Y899668D01*
X896366D01*
Y900684D01*
X897382D01*
Y902716D01*
X896366D01*
Y903732D01*
X894334D01*
Y902716D01*
X893318D01*
Y900684D01*
X894334D01*
X982218Y874268D02*
X983234D01*
X984250Y875284D01*
X985266Y874268D01*
X986282D01*
Y875284D01*
X985266Y876300D01*
X986282Y877316D01*
Y878332D01*
X985266D01*
X984250Y877316D01*
X983234Y878332D01*
X982218D01*
Y877316D01*
X983234Y876300D01*
X982218Y875284D01*
Y874268D01*
X1172718Y874268D02*
X1173734D01*
X1174750Y875284D01*
X1175766Y874268D01*
X1176782D01*
Y875284D01*
X1175766Y876300D01*
X1176782Y877316D01*
Y878332D01*
X1175766D01*
X1174750Y877316D01*
X1173734Y878332D01*
X1172718D01*
Y877316D01*
X1173734Y876300D01*
X1172718Y875284D01*
Y874268D01*
X1237234Y900724D02*
Y899708D01*
X1239266D01*
Y900724D01*
X1240282D01*
Y902756D01*
X1239266D01*
Y903772D01*
X1237234D01*
Y902756D01*
X1236218D01*
Y900724D01*
X1237234D01*
Y926084D02*
Y925068D01*
X1239266D01*
Y926084D01*
X1240282D01*
Y928116D01*
X1239266D01*
Y929132D01*
X1237234D01*
Y928116D01*
X1236218D01*
Y926084D01*
X1237234D01*
Y951484D02*
Y950468D01*
X1239266D01*
Y951484D01*
X1240282D01*
Y953516D01*
X1239266D01*
Y954532D01*
X1237234D01*
Y953516D01*
X1236218D01*
Y951484D01*
X1237234D01*
Y976885D02*
Y975869D01*
X1239266D01*
Y976885D01*
X1240282D01*
Y978916D01*
X1239266D01*
Y979932D01*
X1237234D01*
Y978916D01*
X1236218D01*
Y976885D01*
X1237234D01*
X1262634Y887984D02*
Y886968D01*
X1264666D01*
Y887984D01*
X1265682D01*
Y890016D01*
X1264666D01*
Y891032D01*
X1262634D01*
Y890016D01*
X1261618D01*
Y887984D01*
X1262634D01*
Y913384D02*
Y912368D01*
X1264666D01*
Y913384D01*
X1265682D01*
Y915416D01*
X1264666D01*
Y916432D01*
X1262634D01*
Y915416D01*
X1261618D01*
Y913384D01*
X1262634D01*
Y938784D02*
Y937768D01*
X1264666D01*
Y938784D01*
X1265682D01*
Y940816D01*
X1264666D01*
Y941832D01*
X1262634D01*
Y940816D01*
X1261618D01*
Y938784D01*
X1262634D01*
Y964184D02*
Y963168D01*
X1264666D01*
Y964184D01*
X1265682D01*
Y966217D01*
X1264666D01*
Y967233D01*
X1262634D01*
Y966217D01*
X1261618D01*
Y964184D01*
X1262634D01*
X1172718Y988568D02*
X1173734D01*
X1174750Y989585D01*
X1175766Y988568D01*
X1176782D01*
Y989585D01*
X1175766Y990601D01*
X1176782Y991617D01*
Y992633D01*
X1175766D01*
X1174750Y991617D01*
X1173734Y992633D01*
X1172718D01*
Y991617D01*
X1173734Y990601D01*
X1172718Y989585D01*
Y988568D01*
X1365250Y1083818D02*
X1366266Y1084834D01*
X1367282D01*
X1366266Y1085850D01*
X1367282Y1086866D01*
X1366266D01*
X1365250Y1087882D01*
X1364234Y1086866D01*
X1363218D01*
X1364234Y1085850D01*
X1363218Y1084834D01*
X1364234D01*
X1365250Y1083818D01*
Y1033018D02*
X1366266Y1034034D01*
X1367282D01*
X1366266Y1035050D01*
X1367282Y1036066D01*
X1366266D01*
X1365250Y1037082D01*
X1364234Y1036066D01*
X1363218D01*
X1364234Y1035050D01*
X1363218Y1034034D01*
X1364234D01*
X1365250Y1033018D01*
X1390650Y1083818D02*
X1391666Y1084834D01*
X1392682D01*
X1391666Y1085850D01*
X1392682Y1086866D01*
X1391666D01*
X1390650Y1087882D01*
X1389634Y1086866D01*
X1388618D01*
X1389634Y1085850D01*
X1388618Y1084834D01*
X1389634D01*
X1390650Y1083818D01*
Y1033018D02*
X1391666Y1034034D01*
X1392682D01*
X1391666Y1035050D01*
X1392682Y1036066D01*
X1391666D01*
X1390650Y1037082D01*
X1389634Y1036066D01*
X1388618D01*
X1389634Y1035050D01*
X1388618Y1034034D01*
X1389634D01*
X1390650Y1033018D01*
Y1058418D02*
X1391666Y1059434D01*
X1392682D01*
X1391666Y1060450D01*
X1392682Y1061466D01*
X1391666D01*
X1390650Y1062482D01*
X1389634Y1061466D01*
X1388618D01*
X1389634Y1060450D01*
X1388618Y1059434D01*
X1389634D01*
X1390650Y1058418D01*
X1365250D02*
X1366266Y1059434D01*
X1367282D01*
X1366266Y1060450D01*
X1367282Y1061466D01*
X1366266D01*
X1365250Y1062482D01*
X1364234Y1061466D01*
X1363218D01*
X1364234Y1060450D01*
X1363218Y1059434D01*
X1364234D01*
X1365250Y1058418D01*
Y982218D02*
X1366266Y983234D01*
X1367282D01*
X1366266Y984250D01*
X1367282Y985266D01*
X1366266D01*
X1365250Y986282D01*
X1364234Y985266D01*
X1363218D01*
X1364234Y984250D01*
X1363218Y983234D01*
X1364234D01*
X1365250Y982218D01*
Y956818D02*
X1366266Y957834D01*
X1367282D01*
X1366266Y958850D01*
X1367282Y959866D01*
X1366266D01*
X1365250Y960882D01*
X1364234Y959866D01*
X1363218D01*
X1364234Y958850D01*
X1363218Y957834D01*
X1364234D01*
X1365250Y956818D01*
X1390650Y982218D02*
X1391666Y983234D01*
X1392682D01*
X1391666Y984250D01*
X1392682Y985266D01*
X1391666D01*
X1390650Y986282D01*
X1389634Y985266D01*
X1388618D01*
X1389634Y984250D01*
X1388618Y983234D01*
X1389634D01*
X1390650Y982218D01*
Y956818D02*
X1391666Y957834D01*
X1392682D01*
X1391666Y958850D01*
X1392682Y959866D01*
X1391666D01*
X1390650Y960882D01*
X1389634Y959866D01*
X1388618D01*
X1389634Y958850D01*
X1388618Y957834D01*
X1389634D01*
X1390650Y956818D01*
X1365250Y867918D02*
X1366266Y868934D01*
X1367282D01*
X1366266Y869950D01*
X1367282Y870966D01*
X1366266D01*
X1365250Y871982D01*
X1364234Y870966D01*
X1363218D01*
X1364234Y869950D01*
X1363218Y868934D01*
X1364234D01*
X1365250Y867918D01*
Y842518D02*
X1366266Y843534D01*
X1367282D01*
X1366266Y844550D01*
X1367282Y845566D01*
X1366266D01*
X1365250Y846582D01*
X1364234Y845566D01*
X1363218D01*
X1364234Y844550D01*
X1363218Y843534D01*
X1364234D01*
X1365250Y842518D01*
X1390650Y867918D02*
X1391666Y868934D01*
X1392682D01*
X1391666Y869950D01*
X1392682Y870966D01*
X1391666D01*
X1390650Y871982D01*
X1389634Y870966D01*
X1388618D01*
X1389634Y869950D01*
X1388618Y868934D01*
X1389634D01*
X1390650Y867918D01*
Y842518D02*
X1391666Y843534D01*
X1392682D01*
X1391666Y844550D01*
X1392682Y845566D01*
X1391666D01*
X1390650Y846582D01*
X1389634Y845566D01*
X1388618D01*
X1389634Y844550D01*
X1388618Y843534D01*
X1389634D01*
X1390650Y842518D01*
X1365250Y804418D02*
X1366266Y805434D01*
X1367282D01*
X1366266Y806450D01*
X1367282Y807466D01*
X1366266D01*
X1365250Y808482D01*
X1364234Y807466D01*
X1363218D01*
X1364234Y806450D01*
X1363218Y805434D01*
X1364234D01*
X1365250Y804418D01*
Y779018D02*
X1366266Y780034D01*
X1367282D01*
X1366266Y781050D01*
X1367282Y782066D01*
X1366266D01*
X1365250Y783082D01*
X1364234Y782066D01*
X1363218D01*
X1364234Y781050D01*
X1363218Y780034D01*
X1364234D01*
X1365250Y779018D01*
X1390650Y804418D02*
X1391666Y805434D01*
X1392682D01*
X1391666Y806450D01*
X1392682Y807466D01*
X1391666D01*
X1390650Y808482D01*
X1389634Y807466D01*
X1388618D01*
X1389634Y806450D01*
X1388618Y805434D01*
X1389634D01*
X1390650Y804418D01*
Y779018D02*
X1391666Y780034D01*
X1392682D01*
X1391666Y781050D01*
X1392682Y782066D01*
X1391666D01*
X1390650Y783082D01*
X1389634Y782066D01*
X1388618D01*
X1389634Y781050D01*
X1388618Y780034D01*
X1389634D01*
X1390650Y779018D01*
X-2032Y-50800D02*
X0Y-48768D01*
X2032Y-50800D01*
X0Y-52832D01*
X-2032Y-50800D01*
Y0D02*
X0Y2032D01*
X2032Y0D01*
X0Y-2032D01*
X-2032Y0D01*
Y50800D02*
X0Y52832D01*
X2032Y50800D01*
X0Y48768D01*
X-2032Y50800D01*
X736600Y544068D02*
X737616Y545084D01*
X738632D01*
X737616Y546100D01*
X738632Y547116D01*
X737616D01*
X736600Y548132D01*
X735584Y547116D01*
X734568D01*
X735584Y546100D01*
X734568Y545084D01*
X735584D01*
X736600Y544068D01*
Y594868D02*
X737616Y595884D01*
X738632D01*
X737616Y596900D01*
X738632Y597916D01*
X737616D01*
X736600Y598932D01*
X735584Y597916D01*
X734568D01*
X735584Y596900D01*
X734568Y595884D01*
X735584D01*
X736600Y594868D01*
Y645668D02*
X737616Y646684D01*
X738632D01*
X737616Y647700D01*
X738632Y648716D01*
X737616D01*
X736600Y649732D01*
X735584Y648716D01*
X734568D01*
X735584Y647700D01*
X734568Y646684D01*
X735584D01*
X736600Y645668D01*
Y721868D02*
X737616Y722884D01*
X738632D01*
X737616Y723900D01*
X738632Y724916D01*
X737616D01*
X736600Y725932D01*
X735584Y724916D01*
X734568D01*
X735584Y723900D01*
X734568Y722884D01*
X735584D01*
X736600Y721868D01*
X660400Y544068D02*
X661416Y545084D01*
X662432D01*
X661416Y546100D01*
X662432Y547116D01*
X661416D01*
X660400Y548132D01*
X659384Y547116D01*
X658368D01*
X659384Y546100D01*
X658368Y545084D01*
X659384D01*
X660400Y544068D01*
Y594868D02*
X661416Y595884D01*
X662432D01*
X661416Y596900D01*
X662432Y597916D01*
X661416D01*
X660400Y598932D01*
X659384Y597916D01*
X658368D01*
X659384Y596900D01*
X658368Y595884D01*
X659384D01*
X660400Y594868D01*
Y645668D02*
X661416Y646684D01*
X662432D01*
X661416Y647700D01*
X662432Y648716D01*
X661416D01*
X660400Y649732D01*
X659384Y648716D01*
X658368D01*
X659384Y647700D01*
X658368Y646684D01*
X659384D01*
X660400Y645668D01*
Y721868D02*
X661416Y722884D01*
X662432D01*
X661416Y723900D01*
X662432Y724916D01*
X661416D01*
X660400Y725932D01*
X659384Y724916D01*
X658368D01*
X659384Y723900D01*
X658368Y722884D01*
X659384D01*
X660400Y721868D01*
X863600Y544068D02*
X864616Y545084D01*
X865632D01*
X864616Y546100D01*
X865632Y547116D01*
X864616D01*
X863600Y548132D01*
X862584Y547116D01*
X861568D01*
X862584Y546100D01*
X861568Y545084D01*
X862584D01*
X863600Y544068D01*
Y594868D02*
X864616Y595884D01*
X865632D01*
X864616Y596900D01*
X865632Y597916D01*
X864616D01*
X863600Y598932D01*
X862584Y597916D01*
X861568D01*
X862584Y596900D01*
X861568Y595884D01*
X862584D01*
X863600Y594868D01*
Y645668D02*
X864616Y646684D01*
X865632D01*
X864616Y647700D01*
X865632Y648716D01*
X864616D01*
X863600Y649732D01*
X862584Y648716D01*
X861568D01*
X862584Y647700D01*
X861568Y646684D01*
X862584D01*
X863600Y645668D01*
Y721868D02*
X864616Y722884D01*
X865632D01*
X864616Y723900D01*
X865632Y724916D01*
X864616D01*
X863600Y725932D01*
X862584Y724916D01*
X861568D01*
X862584Y723900D01*
X861568Y722884D01*
X862584D01*
X863600Y721868D01*
X787400Y544068D02*
X788416Y545084D01*
X789432D01*
X788416Y546100D01*
X789432Y547116D01*
X788416D01*
X787400Y548132D01*
X786384Y547116D01*
X785368D01*
X786384Y546100D01*
X785368Y545084D01*
X786384D01*
X787400Y544068D01*
Y594868D02*
X788416Y595884D01*
X789432D01*
X788416Y596900D01*
X789432Y597916D01*
X788416D01*
X787400Y598932D01*
X786384Y597916D01*
X785368D01*
X786384Y596900D01*
X785368Y595884D01*
X786384D01*
X787400Y594868D01*
Y645668D02*
X788416Y646684D01*
X789432D01*
X788416Y647700D01*
X789432Y648716D01*
X788416D01*
X787400Y649732D01*
X786384Y648716D01*
X785368D01*
X786384Y647700D01*
X785368Y646684D01*
X786384D01*
X787400Y645668D01*
Y721868D02*
X788416Y722884D01*
X789432D01*
X788416Y723900D01*
X789432Y724916D01*
X788416D01*
X787400Y725932D01*
X786384Y724916D01*
X785368D01*
X786384Y723900D01*
X785368Y722884D01*
X786384D01*
X787400Y721868D01*
X25400Y873468D02*
X26416Y874484D01*
X27432D01*
X26416Y875500D01*
X27432Y876516D01*
X26416D01*
X25400Y877532D01*
X24384Y876516D01*
X23368D01*
X24384Y875500D01*
X23368Y874484D01*
X24384D01*
X25400Y873468D01*
X76200D02*
X77216Y874484D01*
X78232D01*
X77216Y875500D01*
X78232Y876516D01*
X77216D01*
X76200Y877532D01*
X75184Y876516D01*
X74168D01*
X75184Y875500D01*
X74168Y874484D01*
X75184D01*
X76200Y873468D01*
X127000D02*
X128016Y874484D01*
X129032D01*
X128016Y875500D01*
X129032Y876516D01*
X128016D01*
X127000Y877532D01*
X125984Y876516D01*
X124968D01*
X125984Y875500D01*
X124968Y874484D01*
X125984D01*
X127000Y873468D01*
X203200D02*
X204216Y874484D01*
X205232D01*
X204216Y875500D01*
X205232Y876516D01*
X204216D01*
X203200Y877532D01*
X202184Y876516D01*
X201168D01*
X202184Y875500D01*
X201168Y874484D01*
X202184D01*
X203200Y873468D01*
X25400Y949668D02*
X26416Y950684D01*
X27432D01*
X26416Y951700D01*
X27432Y952716D01*
X26416D01*
X25400Y953732D01*
X24384Y952716D01*
X23368D01*
X24384Y951700D01*
X23368Y950684D01*
X24384D01*
X25400Y949668D01*
X76200D02*
X77216Y950684D01*
X78232D01*
X77216Y951700D01*
X78232Y952716D01*
X77216D01*
X76200Y953732D01*
X75184Y952716D01*
X74168D01*
X75184Y951700D01*
X74168Y950684D01*
X75184D01*
X76200Y949668D01*
X127000D02*
X128016Y950684D01*
X129032D01*
X128016Y951700D01*
X129032Y952716D01*
X128016D01*
X127000Y953732D01*
X125984Y952716D01*
X124968D01*
X125984Y951700D01*
X124968Y950684D01*
X125984D01*
X127000Y949668D01*
X203200D02*
X204216Y950684D01*
X205232D01*
X204216Y951700D01*
X205232Y952716D01*
X204216D01*
X203200Y953732D01*
X202184Y952716D01*
X201168D01*
X202184Y951700D01*
X201168Y950684D01*
X202184D01*
X203200Y949668D01*
X25400Y1102868D02*
X26416Y1103884D01*
X27432D01*
X26416Y1104900D01*
X27432Y1105916D01*
X26416D01*
X25400Y1106932D01*
X24384Y1105916D01*
X23368D01*
X24384Y1104900D01*
X23368Y1103884D01*
X24384D01*
X25400Y1102868D01*
X76200D02*
X77216Y1103884D01*
X78232D01*
X77216Y1104900D01*
X78232Y1105916D01*
X77216D01*
X76200Y1106932D01*
X75184Y1105916D01*
X74168D01*
X75184Y1104900D01*
X74168Y1103884D01*
X75184D01*
X76200Y1102868D01*
X127000D02*
X128016Y1103884D01*
X129032D01*
X128016Y1104900D01*
X129032Y1105916D01*
X128016D01*
X127000Y1106932D01*
X125984Y1105916D01*
X124968D01*
X125984Y1104900D01*
X124968Y1103884D01*
X125984D01*
X127000Y1102868D01*
X203200D02*
X204216Y1103884D01*
X205232D01*
X204216Y1104900D01*
X205232Y1105916D01*
X204216D01*
X203200Y1106932D01*
X202184Y1105916D01*
X201168D01*
X202184Y1104900D01*
X201168Y1103884D01*
X202184D01*
X203200Y1102868D01*
X25400Y1179068D02*
X26416Y1180084D01*
X27432D01*
X26416Y1181100D01*
X27432Y1182116D01*
X26416D01*
X25400Y1183132D01*
X24384Y1182116D01*
X23368D01*
X24384Y1181100D01*
X23368Y1180084D01*
X24384D01*
X25400Y1179068D01*
X76200D02*
X77216Y1180084D01*
X78232D01*
X77216Y1181100D01*
X78232Y1182116D01*
X77216D01*
X76200Y1183132D01*
X75184Y1182116D01*
X74168D01*
X75184Y1181100D01*
X74168Y1180084D01*
X75184D01*
X76200Y1179068D01*
X127000D02*
X128016Y1180084D01*
X129032D01*
X128016Y1181100D01*
X129032Y1182116D01*
X128016D01*
X127000Y1183132D01*
X125984Y1182116D01*
X124968D01*
X125984Y1181100D01*
X124968Y1180084D01*
X125984D01*
X127000Y1179068D01*
X203200D02*
X204216Y1180084D01*
X205232D01*
X204216Y1181100D01*
X205232Y1182116D01*
X204216D01*
X203200Y1183132D01*
X202184Y1182116D01*
X201168D01*
X202184Y1181100D01*
X201168Y1180084D01*
X202184D01*
X203200Y1179068D01*
X660400Y455168D02*
X661416Y456184D01*
X662432D01*
X661416Y457200D01*
X662432Y458216D01*
X661416D01*
X660400Y459232D01*
X659384Y458216D01*
X658368D01*
X659384Y457200D01*
X658368Y456184D01*
X659384D01*
X660400Y455168D01*
Y480568D02*
X661416Y481584D01*
X662432D01*
X661416Y482600D01*
X662432Y483616D01*
X661416D01*
X660400Y484632D01*
X659384Y483616D01*
X658368D01*
X659384Y482600D01*
X658368Y481584D01*
X659384D01*
X660400Y480568D01*
X685800Y455168D02*
X686816Y456184D01*
X687832D01*
X686816Y457200D01*
X687832Y458216D01*
X686816D01*
X685800Y459232D01*
X684784Y458216D01*
X683768D01*
X684784Y457200D01*
X683768Y456184D01*
X684784D01*
X685800Y455168D01*
Y480568D02*
X686816Y481584D01*
X687832D01*
X686816Y482600D01*
X687832Y483616D01*
X686816D01*
X685800Y484632D01*
X684784Y483616D01*
X683768D01*
X684784Y482600D01*
X683768Y481584D01*
X684784D01*
X685800Y480568D01*
X711200D02*
X712216Y481584D01*
X713232D01*
X712216Y482600D01*
X713232Y483616D01*
X712216D01*
X711200Y484632D01*
X710184Y483616D01*
X709168D01*
X710184Y482600D01*
X709168Y481584D01*
X710184D01*
X711200Y480568D01*
Y455168D02*
X712216Y456184D01*
X713232D01*
X712216Y457200D01*
X713232Y458216D01*
X712216D01*
X711200Y459232D01*
X710184Y458216D01*
X709168D01*
X710184Y457200D01*
X709168Y456184D01*
X710184D01*
X711200Y455168D01*
X736600Y480568D02*
X737616Y481584D01*
X738632D01*
X737616Y482600D01*
X738632Y483616D01*
X737616D01*
X736600Y484632D01*
X735584Y483616D01*
X734568D01*
X735584Y482600D01*
X734568Y481584D01*
X735584D01*
X736600Y480568D01*
Y455168D02*
X737616Y456184D01*
X738632D01*
X737616Y457200D01*
X738632Y458216D01*
X737616D01*
X736600Y459232D01*
X735584Y458216D01*
X734568D01*
X735584Y457200D01*
X734568Y456184D01*
X735584D01*
X736600Y455168D01*
X762000Y480568D02*
X763016Y481584D01*
X764032D01*
X763016Y482600D01*
X764032Y483616D01*
X763016D01*
X762000Y484632D01*
X760984Y483616D01*
X759968D01*
X760984Y482600D01*
X759968Y481584D01*
X760984D01*
X762000Y480568D01*
Y455168D02*
X763016Y456184D01*
X764032D01*
X763016Y457200D01*
X764032Y458216D01*
X763016D01*
X762000Y459232D01*
X760984Y458216D01*
X759968D01*
X760984Y457200D01*
X759968Y456184D01*
X760984D01*
X762000Y455168D01*
X533400D02*
X534416Y456184D01*
X535432D01*
X534416Y457200D01*
X535432Y458216D01*
X534416D01*
X533400Y459232D01*
X532384Y458216D01*
X531368D01*
X532384Y457200D01*
X531368Y456184D01*
X532384D01*
X533400Y455168D01*
Y480568D02*
X534416Y481584D01*
X535432D01*
X534416Y482600D01*
X535432Y483616D01*
X534416D01*
X533400Y484632D01*
X532384Y483616D01*
X531368D01*
X532384Y482600D01*
X531368Y481584D01*
X532384D01*
X533400Y480568D01*
X558800Y455168D02*
X559816Y456184D01*
X560832D01*
X559816Y457200D01*
X560832Y458216D01*
X559816D01*
X558800Y459232D01*
X557784Y458216D01*
X556768D01*
X557784Y457200D01*
X556768Y456184D01*
X557784D01*
X558800Y455168D01*
Y480568D02*
X559816Y481584D01*
X560832D01*
X559816Y482600D01*
X560832Y483616D01*
X559816D01*
X558800Y484632D01*
X557784Y483616D01*
X556768D01*
X557784Y482600D01*
X556768Y481584D01*
X557784D01*
X558800Y480568D01*
X584200D02*
X585216Y481584D01*
X586232D01*
X585216Y482600D01*
X586232Y483616D01*
X585216D01*
X584200Y484632D01*
X583184Y483616D01*
X582168D01*
X583184Y482600D01*
X582168Y481584D01*
X583184D01*
X584200Y480568D01*
Y455168D02*
X585216Y456184D01*
X586232D01*
X585216Y457200D01*
X586232Y458216D01*
X585216D01*
X584200Y459232D01*
X583184Y458216D01*
X582168D01*
X583184Y457200D01*
X582168Y456184D01*
X583184D01*
X584200Y455168D01*
X609600Y480568D02*
X610616Y481584D01*
X611632D01*
X610616Y482600D01*
X611632Y483616D01*
X610616D01*
X609600Y484632D01*
X608584Y483616D01*
X607568D01*
X608584Y482600D01*
X607568Y481584D01*
X608584D01*
X609600Y480568D01*
Y455168D02*
X610616Y456184D01*
X611632D01*
X610616Y457200D01*
X611632Y458216D01*
X610616D01*
X609600Y459232D01*
X608584Y458216D01*
X607568D01*
X608584Y457200D01*
X607568Y456184D01*
X608584D01*
X609600Y455168D01*
X635000Y480568D02*
X636016Y481584D01*
X637032D01*
X636016Y482600D01*
X637032Y483616D01*
X636016D01*
X635000Y484632D01*
X633984Y483616D01*
X632968D01*
X633984Y482600D01*
X632968Y481584D01*
X633984D01*
X635000Y480568D01*
Y455168D02*
X636016Y456184D01*
X637032D01*
X636016Y457200D01*
X637032Y458216D01*
X636016D01*
X635000Y459232D01*
X633984Y458216D01*
X632968D01*
X633984Y457200D01*
X632968Y456184D01*
X633984D01*
X635000Y455168D01*
X406400D02*
X407416Y456184D01*
X408432D01*
X407416Y457200D01*
X408432Y458216D01*
X407416D01*
X406400Y459232D01*
X405384Y458216D01*
X404368D01*
X405384Y457200D01*
X404368Y456184D01*
X405384D01*
X406400Y455168D01*
Y480568D02*
X407416Y481584D01*
X408432D01*
X407416Y482600D01*
X408432Y483616D01*
X407416D01*
X406400Y484632D01*
X405384Y483616D01*
X404368D01*
X405384Y482600D01*
X404368Y481584D01*
X405384D01*
X406400Y480568D01*
X431800Y455168D02*
X432816Y456184D01*
X433832D01*
X432816Y457200D01*
X433832Y458216D01*
X432816D01*
X431800Y459232D01*
X430784Y458216D01*
X429768D01*
X430784Y457200D01*
X429768Y456184D01*
X430784D01*
X431800Y455168D01*
Y480568D02*
X432816Y481584D01*
X433832D01*
X432816Y482600D01*
X433832Y483616D01*
X432816D01*
X431800Y484632D01*
X430784Y483616D01*
X429768D01*
X430784Y482600D01*
X429768Y481584D01*
X430784D01*
X431800Y480568D01*
X457200D02*
X458216Y481584D01*
X459232D01*
X458216Y482600D01*
X459232Y483616D01*
X458216D01*
X457200Y484632D01*
X456184Y483616D01*
X455168D01*
X456184Y482600D01*
X455168Y481584D01*
X456184D01*
X457200Y480568D01*
Y455168D02*
X458216Y456184D01*
X459232D01*
X458216Y457200D01*
X459232Y458216D01*
X458216D01*
X457200Y459232D01*
X456184Y458216D01*
X455168D01*
X456184Y457200D01*
X455168Y456184D01*
X456184D01*
X457200Y455168D01*
X482600Y480568D02*
X483616Y481584D01*
X484632D01*
X483616Y482600D01*
X484632Y483616D01*
X483616D01*
X482600Y484632D01*
X481584Y483616D01*
X480568D01*
X481584Y482600D01*
X480568Y481584D01*
X481584D01*
X482600Y480568D01*
Y455168D02*
X483616Y456184D01*
X484632D01*
X483616Y457200D01*
X484632Y458216D01*
X483616D01*
X482600Y459232D01*
X481584Y458216D01*
X480568D01*
X481584Y457200D01*
X480568Y456184D01*
X481584D01*
X482600Y455168D01*
X508000Y480568D02*
X509016Y481584D01*
X510032D01*
X509016Y482600D01*
X510032Y483616D01*
X509016D01*
X508000Y484632D01*
X506984Y483616D01*
X505968D01*
X506984Y482600D01*
X505968Y481584D01*
X506984D01*
X508000Y480568D01*
Y455168D02*
X509016Y456184D01*
X510032D01*
X509016Y457200D01*
X510032Y458216D01*
X509016D01*
X508000Y459232D01*
X506984Y458216D01*
X505968D01*
X506984Y457200D01*
X505968Y456184D01*
X506984D01*
X508000Y455168D01*
X279400D02*
X280416Y456184D01*
X281432D01*
X280416Y457200D01*
X281432Y458216D01*
X280416D01*
X279400Y459232D01*
X278384Y458216D01*
X277368D01*
X278384Y457200D01*
X277368Y456184D01*
X278384D01*
X279400Y455168D01*
Y480568D02*
X280416Y481584D01*
X281432D01*
X280416Y482600D01*
X281432Y483616D01*
X280416D01*
X279400Y484632D01*
X278384Y483616D01*
X277368D01*
X278384Y482600D01*
X277368Y481584D01*
X278384D01*
X279400Y480568D01*
X304800Y455168D02*
X305816Y456184D01*
X306832D01*
X305816Y457200D01*
X306832Y458216D01*
X305816D01*
X304800Y459232D01*
X303784Y458216D01*
X302768D01*
X303784Y457200D01*
X302768Y456184D01*
X303784D01*
X304800Y455168D01*
Y480568D02*
X305816Y481584D01*
X306832D01*
X305816Y482600D01*
X306832Y483616D01*
X305816D01*
X304800Y484632D01*
X303784Y483616D01*
X302768D01*
X303784Y482600D01*
X302768Y481584D01*
X303784D01*
X304800Y480568D01*
X330200D02*
X331216Y481584D01*
X332232D01*
X331216Y482600D01*
X332232Y483616D01*
X331216D01*
X330200Y484632D01*
X329184Y483616D01*
X328168D01*
X329184Y482600D01*
X328168Y481584D01*
X329184D01*
X330200Y480568D01*
Y455168D02*
X331216Y456184D01*
X332232D01*
X331216Y457200D01*
X332232Y458216D01*
X331216D01*
X330200Y459232D01*
X329184Y458216D01*
X328168D01*
X329184Y457200D01*
X328168Y456184D01*
X329184D01*
X330200Y455168D01*
X355600Y480568D02*
X356616Y481584D01*
X357632D01*
X356616Y482600D01*
X357632Y483616D01*
X356616D01*
X355600Y484632D01*
X354584Y483616D01*
X353568D01*
X354584Y482600D01*
X353568Y481584D01*
X354584D01*
X355600Y480568D01*
Y455168D02*
X356616Y456184D01*
X357632D01*
X356616Y457200D01*
X357632Y458216D01*
X356616D01*
X355600Y459232D01*
X354584Y458216D01*
X353568D01*
X354584Y457200D01*
X353568Y456184D01*
X354584D01*
X355600Y455168D01*
X381000Y480568D02*
X382016Y481584D01*
X383032D01*
X382016Y482600D01*
X383032Y483616D01*
X382016D01*
X381000Y484632D01*
X379984Y483616D01*
X378968D01*
X379984Y482600D01*
X378968Y481584D01*
X379984D01*
X381000Y480568D01*
Y455168D02*
X382016Y456184D01*
X383032D01*
X382016Y457200D01*
X383032Y458216D01*
X382016D01*
X381000Y459232D01*
X379984Y458216D01*
X378968D01*
X379984Y457200D01*
X378968Y456184D01*
X379984D01*
X381000Y455168D01*
X-31750Y1807718D02*
X-30734Y1808734D01*
X-29718D01*
X-30734Y1809750D01*
X-29718Y1810766D01*
X-30734D01*
X-31750Y1811782D01*
X-32766Y1810766D01*
X-33782D01*
X-32766Y1809750D01*
X-33782Y1808734D01*
X-32766D01*
X-31750Y1807718D01*
Y1782718D02*
X-30734Y1783734D01*
X-29718D01*
X-30734Y1784750D01*
X-29718Y1785766D01*
X-30734D01*
X-31750Y1786782D01*
X-32766Y1785766D01*
X-33782D01*
X-32766Y1784750D01*
X-33782Y1783734D01*
X-32766D01*
X-31750Y1782718D01*
X205684Y265684D02*
Y264668D01*
X207716D01*
Y265684D01*
X208732D01*
Y267716D01*
X207716D01*
Y268732D01*
X205684D01*
Y267716D01*
X204668D01*
Y265684D01*
X205684D01*
X229684Y241684D02*
Y240668D01*
X231716D01*
Y241684D01*
X232732D01*
Y243716D01*
X231716D01*
Y244732D01*
X229684D01*
Y243716D01*
X228668D01*
Y241684D01*
X229684D01*
X253684Y265684D02*
Y264668D01*
X255716D01*
Y265684D01*
X256732D01*
Y267716D01*
X255716D01*
Y268732D01*
X253684D01*
Y267716D01*
X252668D01*
Y265684D01*
X253684D01*
X229684Y289684D02*
Y288668D01*
X231716D01*
Y289684D01*
X232732D01*
Y291716D01*
X231716D01*
Y292732D01*
X229684D01*
Y291716D01*
X228668D01*
Y289684D01*
X229684D01*
X212684Y282684D02*
Y281668D01*
X214716D01*
Y282684D01*
X215732D01*
Y284716D01*
X214716D01*
Y285732D01*
X212684D01*
Y284716D01*
X211668D01*
Y282684D01*
X212684D01*
X246684D02*
Y281668D01*
X248716D01*
Y282684D01*
X249732D01*
Y284716D01*
X248716D01*
Y285732D01*
X246684D01*
Y284716D01*
X245668D01*
Y282684D01*
X246684D01*
Y248684D02*
Y247668D01*
X248716D01*
Y248684D01*
X249732D01*
Y250716D01*
X248716D01*
Y251732D01*
X246684D01*
Y250716D01*
X245668D01*
Y248684D01*
X246684D01*
X212684D02*
Y247668D01*
X214716D01*
Y248684D01*
X215732D01*
Y250716D01*
X214716D01*
Y251732D01*
X212684D01*
Y250716D01*
X211668D01*
Y248684D01*
X212684D01*
X785684Y265684D02*
Y264668D01*
X787716D01*
Y265684D01*
X788732D01*
Y267716D01*
X787716D01*
Y268732D01*
X785684D01*
Y267716D01*
X784668D01*
Y265684D01*
X785684D01*
X809684Y241684D02*
Y240668D01*
X811716D01*
Y241684D01*
X812732D01*
Y243716D01*
X811716D01*
Y244732D01*
X809684D01*
Y243716D01*
X808668D01*
Y241684D01*
X809684D01*
X833684Y265684D02*
Y264668D01*
X835716D01*
Y265684D01*
X836732D01*
Y267716D01*
X835716D01*
Y268732D01*
X833684D01*
Y267716D01*
X832668D01*
Y265684D01*
X833684D01*
X809684Y289684D02*
Y288668D01*
X811716D01*
Y289684D01*
X812732D01*
Y291716D01*
X811716D01*
Y292732D01*
X809684D01*
Y291716D01*
X808668D01*
Y289684D01*
X809684D01*
X792684Y282684D02*
Y281668D01*
X794716D01*
Y282684D01*
X795732D01*
Y284716D01*
X794716D01*
Y285732D01*
X792684D01*
Y284716D01*
X791668D01*
Y282684D01*
X792684D01*
X826684D02*
Y281668D01*
X828716D01*
Y282684D01*
X829732D01*
Y284716D01*
X828716D01*
Y285732D01*
X826684D01*
Y284716D01*
X825668D01*
Y282684D01*
X826684D01*
Y248684D02*
Y247668D01*
X828716D01*
Y248684D01*
X829732D01*
Y250716D01*
X828716D01*
Y251732D01*
X826684D01*
Y250716D01*
X825668D01*
Y248684D01*
X826684D01*
X792684D02*
Y247668D01*
X794716D01*
Y248684D01*
X795732D01*
Y250716D01*
X794716D01*
Y251732D01*
X792684D01*
Y250716D01*
X791668D01*
Y248684D01*
X792684D01*
X785684Y-224316D02*
Y-225332D01*
X787716D01*
Y-224316D01*
X788732D01*
Y-222284D01*
X787716D01*
Y-221268D01*
X785684D01*
Y-222284D01*
X784668D01*
Y-224316D01*
X785684D01*
X809684Y-248316D02*
Y-249332D01*
X811716D01*
Y-248316D01*
X812732D01*
Y-246284D01*
X811716D01*
Y-245268D01*
X809684D01*
Y-246284D01*
X808668D01*
Y-248316D01*
X809684D01*
X833684Y-224316D02*
Y-225332D01*
X835716D01*
Y-224316D01*
X836732D01*
Y-222284D01*
X835716D01*
Y-221268D01*
X833684D01*
Y-222284D01*
X832668D01*
Y-224316D01*
X833684D01*
X809684Y-200316D02*
Y-201332D01*
X811716D01*
Y-200316D01*
X812732D01*
Y-198284D01*
X811716D01*
Y-197268D01*
X809684D01*
Y-198284D01*
X808668D01*
Y-200316D01*
X809684D01*
X792684Y-207316D02*
Y-208332D01*
X794716D01*
Y-207316D01*
X795732D01*
Y-205284D01*
X794716D01*
Y-204268D01*
X792684D01*
Y-205284D01*
X791668D01*
Y-207316D01*
X792684D01*
X826684D02*
Y-208332D01*
X828716D01*
Y-207316D01*
X829732D01*
Y-205284D01*
X828716D01*
Y-204268D01*
X826684D01*
Y-205284D01*
X825668D01*
Y-207316D01*
X826684D01*
Y-241316D02*
Y-242332D01*
X828716D01*
Y-241316D01*
X829732D01*
Y-239284D01*
X828716D01*
Y-238268D01*
X826684D01*
Y-239284D01*
X825668D01*
Y-241316D01*
X826684D01*
X792684D02*
Y-242332D01*
X794716D01*
Y-241316D01*
X795732D01*
Y-239284D01*
X794716D01*
Y-238268D01*
X792684D01*
Y-239284D01*
X791668D01*
Y-241316D01*
X792684D01*
X205684Y-224316D02*
Y-225332D01*
X207716D01*
Y-224316D01*
X208732D01*
Y-222284D01*
X207716D01*
Y-221268D01*
X205684D01*
Y-222284D01*
X204668D01*
Y-224316D01*
X205684D01*
X229684Y-248316D02*
Y-249332D01*
X231716D01*
Y-248316D01*
X232732D01*
Y-246284D01*
X231716D01*
Y-245268D01*
X229684D01*
Y-246284D01*
X228668D01*
Y-248316D01*
X229684D01*
X253684Y-224316D02*
Y-225332D01*
X255716D01*
Y-224316D01*
X256732D01*
Y-222284D01*
X255716D01*
Y-221268D01*
X253684D01*
Y-222284D01*
X252668D01*
Y-224316D01*
X253684D01*
X229684Y-200316D02*
Y-201332D01*
X231716D01*
Y-200316D01*
X232732D01*
Y-198284D01*
X231716D01*
Y-197268D01*
X229684D01*
Y-198284D01*
X228668D01*
Y-200316D01*
X229684D01*
X212684Y-207316D02*
Y-208332D01*
X214716D01*
Y-207316D01*
X215732D01*
Y-205284D01*
X214716D01*
Y-204268D01*
X212684D01*
Y-205284D01*
X211668D01*
Y-207316D01*
X212684D01*
X246684D02*
Y-208332D01*
X248716D01*
Y-207316D01*
X249732D01*
Y-205284D01*
X248716D01*
Y-204268D01*
X246684D01*
Y-205284D01*
X245668D01*
Y-207316D01*
X246684D01*
Y-241316D02*
Y-242332D01*
X248716D01*
Y-241316D01*
X249732D01*
Y-239284D01*
X248716D01*
Y-238268D01*
X246684D01*
Y-239284D01*
X245668D01*
Y-241316D01*
X246684D01*
X212684D02*
Y-242332D01*
X214716D01*
Y-241316D01*
X215732D01*
Y-239284D01*
X214716D01*
Y-238268D01*
X212684D01*
Y-239284D01*
X211668D01*
Y-241316D01*
X212684D01*
X808668Y264668D02*
X809684Y266700D01*
X808668Y268732D01*
X810700Y267716D01*
X812732Y268732D01*
X811716Y266700D01*
X812732Y264668D01*
X810700Y265684D01*
X808668Y264668D01*
Y-225332D02*
X809684Y-223300D01*
X808668Y-221268D01*
X810700Y-222284D01*
X812732Y-221268D01*
X811716Y-223300D01*
X812732Y-225332D01*
X810700Y-224316D01*
X808668Y-225332D01*
X228668Y264668D02*
X229684Y266700D01*
X228668Y268732D01*
X230700Y267716D01*
X232732Y268732D01*
X231716Y266700D01*
X232732Y264668D01*
X230700Y265684D01*
X228668Y264668D01*
Y-225332D02*
X229684Y-223300D01*
X228668Y-221268D01*
X230700Y-222284D01*
X232732Y-221268D01*
X231716Y-223300D01*
X232732Y-225332D01*
X230700Y-224316D01*
X228668Y-225332D01*
X169984Y1598984D02*
Y1597968D01*
X172016D01*
Y1598984D01*
X173032D01*
Y1601016D01*
X172016D01*
Y1602032D01*
X169984D01*
Y1601016D01*
X168968D01*
Y1598984D01*
X169984D01*
X193984Y1574984D02*
Y1573968D01*
X196016D01*
Y1574984D01*
X197032D01*
Y1577016D01*
X196016D01*
Y1578032D01*
X193984D01*
Y1577016D01*
X192968D01*
Y1574984D01*
X193984D01*
X217984Y1598984D02*
Y1597968D01*
X220016D01*
Y1598984D01*
X221032D01*
Y1601016D01*
X220016D01*
Y1602032D01*
X217984D01*
Y1601016D01*
X216968D01*
Y1598984D01*
X217984D01*
X193984Y1622984D02*
Y1621968D01*
X196016D01*
Y1622984D01*
X197032D01*
Y1625016D01*
X196016D01*
Y1626032D01*
X193984D01*
Y1625016D01*
X192968D01*
Y1622984D01*
X193984D01*
X176984Y1615984D02*
Y1614968D01*
X179016D01*
Y1615984D01*
X180032D01*
Y1618016D01*
X179016D01*
Y1619032D01*
X176984D01*
Y1618016D01*
X175968D01*
Y1615984D01*
X176984D01*
X210984D02*
Y1614968D01*
X213016D01*
Y1615984D01*
X214032D01*
Y1618016D01*
X213016D01*
Y1619032D01*
X210984D01*
Y1618016D01*
X209968D01*
Y1615984D01*
X210984D01*
Y1581984D02*
Y1580968D01*
X213016D01*
Y1581984D01*
X214032D01*
Y1584016D01*
X213016D01*
Y1585032D01*
X210984D01*
Y1584016D01*
X209968D01*
Y1581984D01*
X210984D01*
X176984D02*
Y1580968D01*
X179016D01*
Y1581984D01*
X180032D01*
Y1584016D01*
X179016D01*
Y1585032D01*
X176984D01*
Y1584016D01*
X175968D01*
Y1581984D01*
X176984D01*
X192968Y1597968D02*
X193984Y1600000D01*
X192968Y1602032D01*
X195000Y1601016D01*
X197032Y1602032D01*
X196016Y1600000D01*
X197032Y1597968D01*
X195000Y1598984D01*
X192968Y1597968D01*
X949984Y1598984D02*
Y1597968D01*
X952016D01*
Y1598984D01*
X953032D01*
Y1601016D01*
X952016D01*
Y1602032D01*
X949984D01*
Y1601016D01*
X948968D01*
Y1598984D01*
X949984D01*
X973984Y1574984D02*
Y1573968D01*
X976016D01*
Y1574984D01*
X977032D01*
Y1577016D01*
X976016D01*
Y1578032D01*
X973984D01*
Y1577016D01*
X972968D01*
Y1574984D01*
X973984D01*
X997984Y1598984D02*
Y1597968D01*
X1000016D01*
Y1598984D01*
X1001032D01*
Y1601016D01*
X1000016D01*
Y1602032D01*
X997984D01*
Y1601016D01*
X996968D01*
Y1598984D01*
X997984D01*
X973984Y1622984D02*
Y1621968D01*
X976016D01*
Y1622984D01*
X977032D01*
Y1625016D01*
X976016D01*
Y1626032D01*
X973984D01*
Y1625016D01*
X972968D01*
Y1622984D01*
X973984D01*
X956984Y1615984D02*
Y1614968D01*
X959016D01*
Y1615984D01*
X960032D01*
Y1618016D01*
X959016D01*
Y1619032D01*
X956984D01*
Y1618016D01*
X955968D01*
Y1615984D01*
X956984D01*
X990984D02*
Y1614968D01*
X993016D01*
Y1615984D01*
X994032D01*
Y1618016D01*
X993016D01*
Y1619032D01*
X990984D01*
Y1618016D01*
X989968D01*
Y1615984D01*
X990984D01*
Y1581984D02*
Y1580968D01*
X993016D01*
Y1581984D01*
X994032D01*
Y1584016D01*
X993016D01*
Y1585032D01*
X990984D01*
Y1584016D01*
X989968D01*
Y1581984D01*
X990984D01*
X956984D02*
Y1580968D01*
X959016D01*
Y1581984D01*
X960032D01*
Y1584016D01*
X959016D01*
Y1585032D01*
X956984D01*
Y1584016D01*
X955968D01*
Y1581984D01*
X956984D01*
X972968Y1597968D02*
X973984Y1600000D01*
X972968Y1602032D01*
X975000Y1601016D01*
X977032Y1602032D01*
X976016Y1600000D01*
X977032Y1597968D01*
X975000Y1598984D01*
X972968Y1597968D01*
Y1997968D02*
X973984Y2000000D01*
X972968Y2002032D01*
X975000Y2001016D01*
X977032Y2002032D01*
X976016Y2000000D01*
X977032Y1997968D01*
X975000Y1998984D01*
X972968Y1997968D01*
X956984Y1981984D02*
Y1980968D01*
X959016D01*
Y1981984D01*
X960032D01*
Y1984016D01*
X959016D01*
Y1985032D01*
X956984D01*
Y1984016D01*
X955968D01*
Y1981984D01*
X956984D01*
X990984D02*
Y1980968D01*
X993016D01*
Y1981984D01*
X994032D01*
Y1984016D01*
X993016D01*
Y1985032D01*
X990984D01*
Y1984016D01*
X989968D01*
Y1981984D01*
X990984D01*
Y2015984D02*
Y2014968D01*
X993016D01*
Y2015984D01*
X994032D01*
Y2018016D01*
X993016D01*
Y2019032D01*
X990984D01*
Y2018016D01*
X989968D01*
Y2015984D01*
X990984D01*
X956984D02*
Y2014968D01*
X959016D01*
Y2015984D01*
X960032D01*
Y2018016D01*
X959016D01*
Y2019032D01*
X956984D01*
Y2018016D01*
X955968D01*
Y2015984D01*
X956984D01*
X973984Y2022984D02*
Y2021968D01*
X976016D01*
Y2022984D01*
X977032D01*
Y2025016D01*
X976016D01*
Y2026032D01*
X973984D01*
Y2025016D01*
X972968D01*
Y2022984D01*
X973984D01*
X997984Y1998984D02*
Y1997968D01*
X1000016D01*
Y1998984D01*
X1001032D01*
Y2001016D01*
X1000016D01*
Y2002032D01*
X997984D01*
Y2001016D01*
X996968D01*
Y1998984D01*
X997984D01*
X973984Y1974984D02*
Y1973968D01*
X976016D01*
Y1974984D01*
X977032D01*
Y1977016D01*
X976016D01*
Y1978032D01*
X973984D01*
Y1977016D01*
X972968D01*
Y1974984D01*
X973984D01*
X949984Y1998984D02*
Y1997968D01*
X952016D01*
Y1998984D01*
X953032D01*
Y2001016D01*
X952016D01*
Y2002032D01*
X949984D01*
Y2001016D01*
X948968D01*
Y1998984D01*
X949984D01*
X192968Y1997968D02*
X193984Y2000000D01*
X192968Y2002032D01*
X195000Y2001016D01*
X197032Y2002032D01*
X196016Y2000000D01*
X197032Y1997968D01*
X195000Y1998984D01*
X192968Y1997968D01*
X176984Y1981984D02*
Y1980968D01*
X179016D01*
Y1981984D01*
X180032D01*
Y1984016D01*
X179016D01*
Y1985032D01*
X176984D01*
Y1984016D01*
X175968D01*
Y1981984D01*
X176984D01*
X210984D02*
Y1980968D01*
X213016D01*
Y1981984D01*
X214032D01*
Y1984016D01*
X213016D01*
Y1985032D01*
X210984D01*
Y1984016D01*
X209968D01*
Y1981984D01*
X210984D01*
Y2015984D02*
Y2014968D01*
X213016D01*
Y2015984D01*
X214032D01*
Y2018016D01*
X213016D01*
Y2019032D01*
X210984D01*
Y2018016D01*
X209968D01*
Y2015984D01*
X210984D01*
X176984D02*
Y2014968D01*
X179016D01*
Y2015984D01*
X180032D01*
Y2018016D01*
X179016D01*
Y2019032D01*
X176984D01*
Y2018016D01*
X175968D01*
Y2015984D01*
X176984D01*
X193984Y2022984D02*
Y2021968D01*
X196016D01*
Y2022984D01*
X197032D01*
Y2025016D01*
X196016D01*
Y2026032D01*
X193984D01*
Y2025016D01*
X192968D01*
Y2022984D01*
X193984D01*
X217984Y1998984D02*
Y1997968D01*
X220016D01*
Y1998984D01*
X221032D01*
Y2001016D01*
X220016D01*
Y2002032D01*
X217984D01*
Y2001016D01*
X216968D01*
Y1998984D01*
X217984D01*
X193984Y1974984D02*
Y1973968D01*
X196016D01*
Y1974984D01*
X197032D01*
Y1977016D01*
X196016D01*
Y1978032D01*
X193984D01*
Y1977016D01*
X192968D01*
Y1974984D01*
X193984D01*
X169984Y1998984D02*
Y1997968D01*
X172016D01*
Y1998984D01*
X173032D01*
Y2001016D01*
X172016D01*
Y2002032D01*
X169984D01*
Y2001016D01*
X168968D01*
Y1998984D01*
X169984D01*
X192968Y1847968D02*
Y1852032D01*
X197032D01*
Y1847968D01*
X192968D01*
X193984Y1848984D02*
Y1851016D01*
X196016D01*
Y1848984D01*
X193984D01*
X192968Y1897968D02*
Y1902032D01*
X197032D01*
Y1897968D01*
X192968D01*
X193984Y1898984D02*
Y1901016D01*
X196016D01*
Y1898984D01*
X193984D01*
X563450Y567268D02*
X561418Y571332D01*
X565482D01*
X563450Y567268D01*
Y698668D02*
X561418Y702732D01*
X565482D01*
X563450Y698668D01*
X957850Y572768D02*
X955818Y576832D01*
X959882D01*
X957850Y572768D01*
X930750Y645468D02*
X931766Y646484D01*
X932782D01*
X931766Y647500D01*
X932782Y648516D01*
X931766D01*
X930750Y649532D01*
X929734Y648516D01*
X928718D01*
X929734Y647500D01*
X928718Y646484D01*
X929734D01*
X930750Y645468D01*
Y620468D02*
X931766Y621484D01*
X932782D01*
X931766Y622500D01*
X932782Y623516D01*
X931766D01*
X930750Y624532D01*
X929734Y623516D01*
X928718D01*
X929734Y622500D01*
X928718Y621484D01*
X929734D01*
X930750Y620468D01*
X910750D02*
X911766Y621484D01*
X912782D01*
X911766Y622500D01*
X912782Y623516D01*
X911766D01*
X910750Y624532D01*
X909734Y623516D01*
X908718D01*
X909734Y622500D01*
X908718Y621484D01*
X909734D01*
X910750Y620468D01*
Y645468D02*
X911766Y646484D01*
X912782D01*
X911766Y647500D01*
X912782Y648516D01*
X911766D01*
X910750Y649532D01*
X909734Y648516D01*
X908718D01*
X909734Y647500D01*
X908718Y646484D01*
X909734D01*
X910750Y645468D01*
X957850Y693168D02*
X955818Y697232D01*
X959882D01*
X957850Y693168D01*
D82*
X1272032Y457200D02*
G03*
X1272032Y457200I-2032J0D01*
G01*
Y482600D02*
G03*
X1272032Y482600I-2032J0D01*
G01*
X1246632Y457200D02*
G03*
X1246632Y457200I-2032J0D01*
G01*
Y482600D02*
G03*
X1246632Y482600I-2032J0D01*
G01*
X1221232D02*
G03*
X1221232Y482600I-2032J0D01*
G01*
Y457200D02*
G03*
X1221232Y457200I-2032J0D01*
G01*
X1195832Y482600D02*
G03*
X1195832Y482600I-2032J0D01*
G01*
Y457200D02*
G03*
X1195832Y457200I-2032J0D01*
G01*
X1170432Y482600D02*
G03*
X1170432Y482600I-2032J0D01*
G01*
Y457200D02*
G03*
X1170432Y457200I-2032J0D01*
G01*
X1399032D02*
G03*
X1399032Y457200I-2032J0D01*
G01*
Y482600D02*
G03*
X1399032Y482600I-2032J0D01*
G01*
X1373632Y457200D02*
G03*
X1373632Y457200I-2032J0D01*
G01*
Y482600D02*
G03*
X1373632Y482600I-2032J0D01*
G01*
X1348232D02*
G03*
X1348232Y482600I-2032J0D01*
G01*
Y457200D02*
G03*
X1348232Y457200I-2032J0D01*
G01*
X1322832Y482600D02*
G03*
X1322832Y482600I-2032J0D01*
G01*
Y457200D02*
G03*
X1322832Y457200I-2032J0D01*
G01*
X1297432Y482600D02*
G03*
X1297432Y482600I-2032J0D01*
G01*
Y457200D02*
G03*
X1297432Y457200I-2032J0D01*
G01*
X1526032D02*
G03*
X1526032Y457200I-2032J0D01*
G01*
Y482600D02*
G03*
X1526032Y482600I-2032J0D01*
G01*
X1500632Y457200D02*
G03*
X1500632Y457200I-2032J0D01*
G01*
Y482600D02*
G03*
X1500632Y482600I-2032J0D01*
G01*
X1475232D02*
G03*
X1475232Y482600I-2032J0D01*
G01*
Y457200D02*
G03*
X1475232Y457200I-2032J0D01*
G01*
X1449832Y482600D02*
G03*
X1449832Y482600I-2032J0D01*
G01*
Y457200D02*
G03*
X1449832Y457200I-2032J0D01*
G01*
X1424432Y482600D02*
G03*
X1424432Y482600I-2032J0D01*
G01*
Y457200D02*
G03*
X1424432Y457200I-2032J0D01*
G01*
X1653032D02*
G03*
X1653032Y457200I-2032J0D01*
G01*
Y482600D02*
G03*
X1653032Y482600I-2032J0D01*
G01*
X1627632Y457200D02*
G03*
X1627632Y457200I-2032J0D01*
G01*
Y482600D02*
G03*
X1627632Y482600I-2032J0D01*
G01*
X1602232D02*
G03*
X1602232Y482600I-2032J0D01*
G01*
Y457200D02*
G03*
X1602232Y457200I-2032J0D01*
G01*
X1576832Y482600D02*
G03*
X1576832Y482600I-2032J0D01*
G01*
Y457200D02*
G03*
X1576832Y457200I-2032J0D01*
G01*
X1551432Y482600D02*
G03*
X1551432Y482600I-2032J0D01*
G01*
Y457200D02*
G03*
X1551432Y457200I-2032J0D01*
G01*
X1272032Y254000D02*
G03*
X1272032Y254000I-2032J0D01*
G01*
Y279400D02*
G03*
X1272032Y279400I-2032J0D01*
G01*
X1246632Y254000D02*
G03*
X1246632Y254000I-2032J0D01*
G01*
Y279400D02*
G03*
X1246632Y279400I-2032J0D01*
G01*
X1221232D02*
G03*
X1221232Y279400I-2032J0D01*
G01*
Y254000D02*
G03*
X1221232Y254000I-2032J0D01*
G01*
X1195832Y279400D02*
G03*
X1195832Y279400I-2032J0D01*
G01*
Y254000D02*
G03*
X1195832Y254000I-2032J0D01*
G01*
X1170432Y279400D02*
G03*
X1170432Y279400I-2032J0D01*
G01*
Y254000D02*
G03*
X1170432Y254000I-2032J0D01*
G01*
X1399032D02*
G03*
X1399032Y254000I-2032J0D01*
G01*
Y279400D02*
G03*
X1399032Y279400I-2032J0D01*
G01*
X1373632Y254000D02*
G03*
X1373632Y254000I-2032J0D01*
G01*
Y279400D02*
G03*
X1373632Y279400I-2032J0D01*
G01*
X1348232D02*
G03*
X1348232Y279400I-2032J0D01*
G01*
Y254000D02*
G03*
X1348232Y254000I-2032J0D01*
G01*
X1322832Y279400D02*
G03*
X1322832Y279400I-2032J0D01*
G01*
Y254000D02*
G03*
X1322832Y254000I-2032J0D01*
G01*
X1297432Y279400D02*
G03*
X1297432Y279400I-2032J0D01*
G01*
Y254000D02*
G03*
X1297432Y254000I-2032J0D01*
G01*
X1526032D02*
G03*
X1526032Y254000I-2032J0D01*
G01*
Y279400D02*
G03*
X1526032Y279400I-2032J0D01*
G01*
X1500632Y254000D02*
G03*
X1500632Y254000I-2032J0D01*
G01*
Y279400D02*
G03*
X1500632Y279400I-2032J0D01*
G01*
X1475232D02*
G03*
X1475232Y279400I-2032J0D01*
G01*
Y254000D02*
G03*
X1475232Y254000I-2032J0D01*
G01*
X1449832Y279400D02*
G03*
X1449832Y279400I-2032J0D01*
G01*
Y254000D02*
G03*
X1449832Y254000I-2032J0D01*
G01*
X1424432Y279400D02*
G03*
X1424432Y279400I-2032J0D01*
G01*
Y254000D02*
G03*
X1424432Y254000I-2032J0D01*
G01*
X1653032D02*
G03*
X1653032Y254000I-2032J0D01*
G01*
Y279400D02*
G03*
X1653032Y279400I-2032J0D01*
G01*
X1627632Y254000D02*
G03*
X1627632Y254000I-2032J0D01*
G01*
Y279400D02*
G03*
X1627632Y279400I-2032J0D01*
G01*
X1602232D02*
G03*
X1602232Y279400I-2032J0D01*
G01*
Y254000D02*
G03*
X1602232Y254000I-2032J0D01*
G01*
X1576832Y279400D02*
G03*
X1576832Y279400I-2032J0D01*
G01*
Y254000D02*
G03*
X1576832Y254000I-2032J0D01*
G01*
X1551432Y279400D02*
G03*
X1551432Y279400I-2032J0D01*
G01*
Y254000D02*
G03*
X1551432Y254000I-2032J0D01*
G01*
X1005332Y1047750D02*
G03*
X1005332Y1047750I-2032J0D01*
G01*
X979932D02*
G03*
X979932Y1047750I-2032J0D01*
G01*
X954532D02*
G03*
X954532Y1047750I-2032J0D01*
G01*
X929132D02*
G03*
X929132Y1047750I-2032J0D01*
G01*
X903732D02*
G03*
X903732Y1047750I-2032J0D01*
G01*
X878332D02*
G03*
X878332Y1047750I-2032J0D01*
G01*
X852932D02*
G03*
X852932Y1047750I-2032J0D01*
G01*
X827532D02*
G03*
X827532Y1047750I-2032J0D01*
G01*
X802132D02*
G03*
X802132Y1047750I-2032J0D01*
G01*
X776732D02*
G03*
X776732Y1047750I-2032J0D01*
G01*
X751332D02*
G03*
X751332Y1047750I-2032J0D01*
G01*
X725932D02*
G03*
X725932Y1047750I-2032J0D01*
G01*
Y1200150D02*
G03*
X725932Y1200150I-2032J0D01*
G01*
X751332D02*
G03*
X751332Y1200150I-2032J0D01*
G01*
X776732D02*
G03*
X776732Y1200150I-2032J0D01*
G01*
X802132D02*
G03*
X802132Y1200150I-2032J0D01*
G01*
X827532D02*
G03*
X827532Y1200150I-2032J0D01*
G01*
X852932D02*
G03*
X852932Y1200150I-2032J0D01*
G01*
X878332D02*
G03*
X878332Y1200150I-2032J0D01*
G01*
X903732D02*
G03*
X903732Y1200150I-2032J0D01*
G01*
X929132D02*
G03*
X929132Y1200150I-2032J0D01*
G01*
X954532D02*
G03*
X954532Y1200150I-2032J0D01*
G01*
X979932D02*
G03*
X979932Y1200150I-2032J0D01*
G01*
X1005332D02*
G03*
X1005332Y1200150I-2032J0D01*
G01*
X770382Y1298500D02*
G03*
X770382Y1298500I-2032J0D01*
G01*
Y1323500D02*
G03*
X770382Y1323500I-2032J0D01*
G01*
Y1343500D02*
G03*
X770382Y1343500I-2032J0D01*
G01*
Y1368500D02*
G03*
X770382Y1368500I-2032J0D01*
G01*
X592582Y1073150D02*
G03*
X592582Y1073150I-2032J0D01*
G01*
Y1047750D02*
G03*
X592582Y1047750I-2032J0D01*
G01*
X668782D02*
G03*
X668782Y1047750I-2032J0D01*
G01*
Y1098550D02*
G03*
X668782Y1098550I-2032J0D01*
G01*
X643382Y1047750D02*
G03*
X643382Y1047750I-2032J0D01*
G01*
Y1098550D02*
G03*
X643382Y1098550I-2032J0D01*
G01*
Y1073150D02*
G03*
X643382Y1073150I-2032J0D01*
G01*
X668782D02*
G03*
X668782Y1073150I-2032J0D01*
G01*
X2032Y800100D02*
G03*
X2032Y800100I-2032J0D01*
G01*
X52032D02*
G03*
X52032Y800100I-2032J0D01*
G01*
X129032Y447840D02*
G03*
X129032Y447840I-2032J0D01*
G01*
Y497840D02*
G03*
X129032Y497840I-2032J0D01*
G01*
X2032Y1028700D02*
G03*
X2032Y1028700I-2032J0D01*
G01*
X52032D02*
G03*
X52032Y1028700I-2032J0D01*
G01*
X954532Y774700D02*
G03*
X954532Y774700I-2032J0D01*
G01*
X979932D02*
G03*
X979932Y774700I-2032J0D01*
G01*
X954532Y749300D02*
G03*
X954532Y749300I-2032J0D01*
G01*
X979932D02*
G03*
X979932Y749300I-2032J0D01*
G01*
Y457200D02*
G03*
X979932Y457200I-2032J0D01*
G01*
X954532D02*
G03*
X954532Y457200I-2032J0D01*
G01*
X979932Y482600D02*
G03*
X979932Y482600I-2032J0D01*
G01*
X954532D02*
G03*
X954532Y482600I-2032J0D01*
G01*
Y1346200D02*
G03*
X954532Y1346200I-2032J0D01*
G01*
X979932D02*
G03*
X979932Y1346200I-2032J0D01*
G01*
X954532Y1320800D02*
G03*
X954532Y1320800I-2032J0D01*
G01*
X979932D02*
G03*
X979932Y1320800I-2032J0D01*
G01*
X935832Y41700D02*
G03*
X935832Y41700I-2032J0D01*
G01*
Y21700D02*
G03*
X935832Y21700I-2032J0D01*
G01*
X909632D02*
G03*
X909632Y21700I-2032J0D01*
G01*
Y41700D02*
G03*
X909632Y41700I-2032J0D01*
G01*
X592582Y600000D02*
G03*
X592582Y600000I-2032J0D01*
G01*
Y625000D02*
G03*
X592582Y625000I-2032J0D01*
G01*
Y645000D02*
G03*
X592582Y645000I-2032J0D01*
G01*
Y670000D02*
G03*
X592582Y670000I-2032J0D01*
G01*
X2032Y590550D02*
G03*
X2032Y590550I-2032J0D01*
G01*
X586232Y1231900D02*
G03*
X586232Y1231900I-2032J0D01*
G01*
Y1187450D02*
G03*
X586232Y1187450I-2032J0D01*
G01*
Y1111250D02*
G03*
X586232Y1111250I-2032J0D01*
G01*
X465582Y1060450D02*
G03*
X465582Y1060450I-2032J0D01*
G01*
X408432Y1123950D02*
G03*
X408432Y1123950I-2032J0D01*
G01*
X306832D02*
G03*
X306832Y1123950I-2032J0D01*
G01*
X325882Y1136650D02*
G03*
X325882Y1136650I-2032J0D01*
G01*
X694182Y1123950D02*
G03*
X694182Y1123950I-2032J0D01*
G01*
X497332Y812800D02*
G03*
X497332Y812800I-2032J0D01*
G01*
X383032D02*
G03*
X383032Y812800I-2032J0D01*
G01*
X421132Y1136650D02*
G03*
X421132Y1136650I-2032J0D01*
G01*
X503682Y1155700D02*
G03*
X503682Y1155700I-2032J0D01*
G01*
Y1200150D02*
G03*
X503682Y1200150I-2032J0D01*
G01*
X408432Y1098550D02*
G03*
X408432Y1098550I-2032J0D01*
G01*
X275082D02*
G03*
X275082Y1098550I-2032J0D01*
G01*
X344932Y1060450D02*
G03*
X344932Y1060450I-2032J0D01*
G01*
X275082Y952500D02*
G03*
X275082Y952500I-2032J0D01*
G01*
X764032Y825500D02*
G03*
X764032Y825500I-2032J0D01*
G01*
Y850900D02*
G03*
X764032Y850900I-2032J0D01*
G01*
X700532Y920750D02*
G03*
X700532Y920750I-2032J0D01*
G01*
Y869950D02*
G03*
X700532Y869950I-2032J0D01*
G01*
X840232Y946150D02*
G03*
X840232Y946150I-2032J0D01*
G01*
X979932Y1174750D02*
G03*
X979932Y1174750I-2032J0D01*
G01*
X903732Y1174750D02*
G03*
X903732Y1174750I-2032J0D01*
G01*
X871982Y977900D02*
G03*
X871982Y977900I-2032J0D01*
G01*
X744982Y838200D02*
G03*
X744982Y838200I-2032J0D01*
G01*
X725932Y825500D02*
G03*
X725932Y825500I-2032J0D01*
G01*
X617982Y838200D02*
G03*
X617982Y838200I-2032J0D01*
G01*
X643382Y825500D02*
G03*
X643382Y825500I-2032J0D01*
G01*
X617982Y781050D02*
G03*
X617982Y781050I-2032J0D01*
G01*
X643382D02*
G03*
X643382Y781050I-2032J0D01*
G01*
X744982D02*
G03*
X744982Y781050I-2032J0D01*
G01*
X725932D02*
G03*
X725932Y781050I-2032J0D01*
G01*
X617982Y711200D02*
G03*
X617982Y711200I-2032J0D01*
G01*
X1291082Y914400D02*
G03*
X1291082Y914400I-2032J0D01*
G01*
Y965200D02*
G03*
X1291082Y965200I-2032J0D01*
G01*
X764032Y660400D02*
G03*
X764032Y660400I-2032J0D01*
G01*
Y685800D02*
G03*
X764032Y685800I-2032J0D01*
G01*
X617982Y609600D02*
G03*
X617982Y609600I-2032J0D01*
G01*
X65532Y393700D02*
G03*
X65532Y393700I-2032J0D01*
G01*
X833882Y419100D02*
G03*
X833882Y419100I-2032J0D01*
G01*
Y381000D02*
G03*
X833882Y381000I-2032J0D01*
G01*
X2032Y393700D02*
G03*
X2032Y393700I-2032J0D01*
G01*
X217932Y508000D02*
G03*
X217932Y508000I-2032J0D01*
G01*
Y381000D02*
G03*
X217932Y381000I-2032J0D01*
G01*
X65532Y590550D02*
G03*
X65532Y590550I-2032J0D01*
G01*
X325882Y838200D02*
G03*
X325882Y838200I-2032J0D01*
G01*
X306832Y825500D02*
G03*
X306832Y825500I-2032J0D01*
G01*
X395732Y952500D02*
G03*
X395732Y952500I-2032J0D01*
G01*
X2032Y1301750D02*
G03*
X2032Y1301750I-2032J0D01*
G01*
X78232D02*
G03*
X78232Y1301750I-2032J0D01*
G01*
X808482D02*
G03*
X808482Y1301750I-2032J0D01*
G01*
X846582D02*
G03*
X846582Y1301750I-2032J0D01*
G01*
X579882Y908050D02*
G03*
X579882Y908050I-2032J0D01*
G01*
Y825500D02*
G03*
X579882Y825500I-2032J0D01*
G01*
X789432Y1060450D02*
G03*
X789432Y1060450I-2032J0D01*
G01*
X694182Y1047750D02*
G03*
X694182Y1047750I-2032J0D01*
G01*
X529082Y825500D02*
G03*
X529082Y825500I-2032J0D01*
G01*
X541782Y838200D02*
G03*
X541782Y838200I-2032J0D01*
G01*
X738632Y1060450D02*
G03*
X738632Y1060450I-2032J0D01*
G01*
X2032Y857250D02*
G03*
X2032Y857250I-2032J0D01*
G01*
Y1085850D02*
G03*
X2032Y1085850I-2032J0D01*
G01*
X160782Y857250D02*
G03*
X160782Y857250I-2032J0D01*
G01*
Y1085850D02*
G03*
X160782Y1085850I-2032J0D01*
G01*
D83*
X1016Y590550D02*
G03*
X1016Y590550I-1016J0D01*
G01*
X585216Y1231900D02*
G03*
X585216Y1231900I-1016J0D01*
G01*
Y1187450D02*
G03*
X585216Y1187450I-1016J0D01*
G01*
Y1111250D02*
G03*
X585216Y1111250I-1016J0D01*
G01*
X464566Y1060450D02*
G03*
X464566Y1060450I-1016J0D01*
G01*
X407416Y1123950D02*
G03*
X407416Y1123950I-1016J0D01*
G01*
X305816D02*
G03*
X305816Y1123950I-1016J0D01*
G01*
X324866Y1136650D02*
G03*
X324866Y1136650I-1016J0D01*
G01*
X693166Y1123950D02*
G03*
X693166Y1123950I-1016J0D01*
G01*
X496316Y812800D02*
G03*
X496316Y812800I-1016J0D01*
G01*
X382016D02*
G03*
X382016Y812800I-1016J0D01*
G01*
X420116Y1136650D02*
G03*
X420116Y1136650I-1016J0D01*
G01*
X502666Y1155700D02*
G03*
X502666Y1155700I-1016J0D01*
G01*
Y1200150D02*
G03*
X502666Y1200150I-1016J0D01*
G01*
X407416Y1098550D02*
G03*
X407416Y1098550I-1016J0D01*
G01*
X274066D02*
G03*
X274066Y1098550I-1016J0D01*
G01*
X343916Y1060450D02*
G03*
X343916Y1060450I-1016J0D01*
G01*
X274066Y952500D02*
G03*
X274066Y952500I-1016J0D01*
G01*
X763016Y825500D02*
G03*
X763016Y825500I-1016J0D01*
G01*
Y850900D02*
G03*
X763016Y850900I-1016J0D01*
G01*
X699516Y920750D02*
G03*
X699516Y920750I-1016J0D01*
G01*
Y869950D02*
G03*
X699516Y869950I-1016J0D01*
G01*
X839216Y946150D02*
G03*
X839216Y946150I-1016J0D01*
G01*
X978916Y1174750D02*
G03*
X978916Y1174750I-1016J0D01*
G01*
X902716Y1174750D02*
G03*
X902716Y1174750I-1016J0D01*
G01*
X870966Y977900D02*
G03*
X870966Y977900I-1016J0D01*
G01*
X743966Y838200D02*
G03*
X743966Y838200I-1016J0D01*
G01*
X724916Y825500D02*
G03*
X724916Y825500I-1016J0D01*
G01*
X616966Y838200D02*
G03*
X616966Y838200I-1016J0D01*
G01*
X642366Y825500D02*
G03*
X642366Y825500I-1016J0D01*
G01*
X616966Y781050D02*
G03*
X616966Y781050I-1016J0D01*
G01*
X642366D02*
G03*
X642366Y781050I-1016J0D01*
G01*
X743966D02*
G03*
X743966Y781050I-1016J0D01*
G01*
X724916D02*
G03*
X724916Y781050I-1016J0D01*
G01*
X616966Y711200D02*
G03*
X616966Y711200I-1016J0D01*
G01*
X1290066Y914400D02*
G03*
X1290066Y914400I-1016J0D01*
G01*
Y965200D02*
G03*
X1290066Y965200I-1016J0D01*
G01*
X763016Y660400D02*
G03*
X763016Y660400I-1016J0D01*
G01*
Y685800D02*
G03*
X763016Y685800I-1016J0D01*
G01*
X616966Y609600D02*
G03*
X616966Y609600I-1016J0D01*
G01*
X64516Y393700D02*
G03*
X64516Y393700I-1016J0D01*
G01*
X832866Y419100D02*
G03*
X832866Y419100I-1016J0D01*
G01*
Y381000D02*
G03*
X832866Y381000I-1016J0D01*
G01*
X1016Y393700D02*
G03*
X1016Y393700I-1016J0D01*
G01*
X216916Y508000D02*
G03*
X216916Y508000I-1016J0D01*
G01*
Y381000D02*
G03*
X216916Y381000I-1016J0D01*
G01*
X64516Y590550D02*
G03*
X64516Y590550I-1016J0D01*
G01*
X324866Y838200D02*
G03*
X324866Y838200I-1016J0D01*
G01*
X305816Y825500D02*
G03*
X305816Y825500I-1016J0D01*
G01*
X394716Y952500D02*
G03*
X394716Y952500I-1016J0D01*
G01*
X1016Y1301750D02*
G03*
X1016Y1301750I-1016J0D01*
G01*
X77216D02*
G03*
X77216Y1301750I-1016J0D01*
G01*
X807466D02*
G03*
X807466Y1301750I-1016J0D01*
G01*
X845566D02*
G03*
X845566Y1301750I-1016J0D01*
G01*
X578866Y908050D02*
G03*
X578866Y908050I-1016J0D01*
G01*
Y825500D02*
G03*
X578866Y825500I-1016J0D01*
G01*
X788416Y1060450D02*
G03*
X788416Y1060450I-1016J0D01*
G01*
X693166Y1047750D02*
G03*
X693166Y1047750I-1016J0D01*
G01*
X528066Y825500D02*
G03*
X528066Y825500I-1016J0D01*
G01*
X540766Y838200D02*
G03*
X540766Y838200I-1016J0D01*
G01*
X737616Y1060450D02*
G03*
X737616Y1060450I-1016J0D01*
G01*
X1016Y857250D02*
G03*
X1016Y857250I-1016J0D01*
G01*
Y1085850D02*
G03*
X1016Y1085850I-1016J0D01*
G01*
X159766Y857250D02*
G03*
X159766Y857250I-1016J0D01*
G01*
Y1085850D02*
G03*
X159766Y1085850I-1016J0D01*
G01*
M02*
