G04 Layer_Color=128*
%FSLAX44Y44*%
%MOMM*%
G71*
G01*
G75*
%ADD81C,0.0508*%
D81*
X946350Y695200D02*
X969350D01*
X957850Y683700D02*
Y706700D01*
X905750Y647500D02*
X915750D01*
X910750Y642500D02*
Y652500D01*
X905750Y622500D02*
X915750D01*
X910750Y617500D02*
Y627500D01*
X925750Y622500D02*
X935750D01*
X930750Y617500D02*
Y627500D01*
X925750Y647500D02*
X935750D01*
X930750Y642500D02*
Y652500D01*
X946350Y574800D02*
X969350D01*
X957850Y563300D02*
Y586300D01*
X586050Y670000D02*
X595050D01*
X590550Y665500D02*
Y674500D01*
X551950Y700700D02*
X574950D01*
X563450Y689200D02*
Y712200D01*
X551950Y569300D02*
X574950D01*
X563450Y557800D02*
Y580800D01*
X586050Y645000D02*
X595050D01*
X590550Y640500D02*
Y649500D01*
X586050Y625000D02*
X595050D01*
X590550Y620500D02*
Y629500D01*
X586050Y600000D02*
X595050D01*
X590550Y595500D02*
Y604500D01*
X189000Y1900000D02*
X201000D01*
X195000Y1894000D02*
Y1906000D01*
X189000Y1850000D02*
X201000D01*
X195000Y1844000D02*
Y1856000D01*
X167000Y2000000D02*
X175000D01*
X171000Y1996000D02*
Y2004000D01*
X191000Y1976000D02*
X199000D01*
X195000Y1972000D02*
Y1980000D01*
X215000Y2000000D02*
X223000D01*
X219000Y1996000D02*
Y2004000D01*
X191000Y2024000D02*
X199000D01*
X195000Y2020000D02*
Y2028000D01*
X174000Y2017000D02*
X182000D01*
X178000Y2013000D02*
Y2021000D01*
X208000Y2017000D02*
X216000D01*
X212000Y2013000D02*
Y2021000D01*
X208000Y1983000D02*
X216000D01*
X212000Y1979000D02*
Y1987000D01*
X174000Y1983000D02*
X182000D01*
X178000Y1979000D02*
Y1987000D01*
X180000Y2000000D02*
X210000D01*
X195000Y1985000D02*
Y2015000D01*
X947000Y2000000D02*
X955000D01*
X951000Y1996000D02*
Y2004000D01*
X971000Y1976000D02*
X979000D01*
X975000Y1972000D02*
Y1980000D01*
X995000Y2000000D02*
X1003000D01*
X999000Y1996000D02*
Y2004000D01*
X971000Y2024000D02*
X979000D01*
X975000Y2020000D02*
Y2028000D01*
X954000Y2017000D02*
X962000D01*
X958000Y2013000D02*
Y2021000D01*
X988000Y2017000D02*
X996000D01*
X992000Y2013000D02*
Y2021000D01*
X988000Y1983000D02*
X996000D01*
X992000Y1979000D02*
Y1987000D01*
X954000Y1983000D02*
X962000D01*
X958000Y1979000D02*
Y1987000D01*
X960000Y2000000D02*
X990000D01*
X975000Y1985000D02*
Y2015000D01*
X960000Y1600000D02*
X990000D01*
X975000Y1585000D02*
Y1615000D01*
X954000Y1583000D02*
X962000D01*
X958000Y1579000D02*
Y1587000D01*
X988000Y1583000D02*
X996000D01*
X992000Y1579000D02*
Y1587000D01*
X988000Y1617000D02*
X996000D01*
X992000Y1613000D02*
Y1621000D01*
X954000Y1617000D02*
X962000D01*
X958000Y1613000D02*
Y1621000D01*
X971000Y1624000D02*
X979000D01*
X975000Y1620000D02*
Y1628000D01*
X995000Y1600000D02*
X1003000D01*
X999000Y1596000D02*
Y1604000D01*
X971000Y1576000D02*
X979000D01*
X975000Y1572000D02*
Y1580000D01*
X947000Y1600000D02*
X955000D01*
X951000Y1596000D02*
Y1604000D01*
X180000Y1600000D02*
X210000D01*
X195000Y1585000D02*
Y1615000D01*
X174000Y1583000D02*
X182000D01*
X178000Y1579000D02*
Y1587000D01*
X208000Y1583000D02*
X216000D01*
X212000Y1579000D02*
Y1587000D01*
X208000Y1617000D02*
X216000D01*
X212000Y1613000D02*
Y1621000D01*
X174000Y1617000D02*
X182000D01*
X178000Y1613000D02*
Y1621000D01*
X191000Y1624000D02*
X199000D01*
X195000Y1620000D02*
Y1628000D01*
X215000Y1600000D02*
X223000D01*
X219000Y1596000D02*
Y1604000D01*
X191000Y1576000D02*
X199000D01*
X195000Y1572000D02*
Y1580000D01*
X167000Y1600000D02*
X175000D01*
X171000Y1596000D02*
Y1604000D01*
X903100Y41700D02*
X912100D01*
X907600Y37200D02*
Y46200D01*
X903100Y21700D02*
X912100D01*
X907600Y17200D02*
Y26200D01*
X929300Y21700D02*
X938300D01*
X933800Y17200D02*
Y26200D01*
X929300Y41700D02*
X938300D01*
X933800Y37200D02*
Y46200D01*
X215700Y-223300D02*
X245700D01*
X230700Y-238300D02*
Y-208300D01*
X215700Y266700D02*
X245700D01*
X230700Y251700D02*
Y281700D01*
X795700Y-223300D02*
X825700D01*
X810700Y-238300D02*
Y-208300D01*
X795700Y266700D02*
X825700D01*
X810700Y251700D02*
Y281700D01*
X209700Y-240300D02*
X217700D01*
X213700Y-244300D02*
Y-236300D01*
X243700Y-240300D02*
X251700D01*
X247700Y-244300D02*
Y-236300D01*
X243700Y-206300D02*
X251700D01*
X247700Y-210300D02*
Y-202300D01*
X209700Y-206300D02*
X217700D01*
X213700Y-210300D02*
Y-202300D01*
X226700Y-199300D02*
X234700D01*
X230700Y-203300D02*
Y-195300D01*
X250700Y-223300D02*
X258700D01*
X254700Y-227300D02*
Y-219300D01*
X226700Y-247300D02*
X234700D01*
X230700Y-251300D02*
Y-243300D01*
X202700Y-223300D02*
X210700D01*
X206700Y-227300D02*
Y-219300D01*
X789700Y-240300D02*
X797700D01*
X793700Y-244300D02*
Y-236300D01*
X823700Y-240300D02*
X831700D01*
X827700Y-244300D02*
Y-236300D01*
X823700Y-206300D02*
X831700D01*
X827700Y-210300D02*
Y-202300D01*
X789700Y-206300D02*
X797700D01*
X793700Y-210300D02*
Y-202300D01*
X806700Y-199300D02*
X814700D01*
X810700Y-203300D02*
Y-195300D01*
X830700Y-223300D02*
X838700D01*
X834700Y-227300D02*
Y-219300D01*
X806700Y-247300D02*
X814700D01*
X810700Y-251300D02*
Y-243300D01*
X782700Y-223300D02*
X790700D01*
X786700Y-227300D02*
Y-219300D01*
X789700Y249700D02*
X797700D01*
X793700Y245700D02*
Y253700D01*
X823700Y249700D02*
X831700D01*
X827700Y245700D02*
Y253700D01*
X823700Y283700D02*
X831700D01*
X827700Y279700D02*
Y287700D01*
X789700Y283700D02*
X797700D01*
X793700Y279700D02*
Y287700D01*
X806700Y290700D02*
X814700D01*
X810700Y286700D02*
Y294700D01*
X830700Y266700D02*
X838700D01*
X834700Y262700D02*
Y270700D01*
X806700Y242700D02*
X814700D01*
X810700Y238700D02*
Y246700D01*
X782700Y266700D02*
X790700D01*
X786700Y262700D02*
Y270700D01*
X209700Y249700D02*
X217700D01*
X213700Y245700D02*
Y253700D01*
X243700Y249700D02*
X251700D01*
X247700Y245700D02*
Y253700D01*
X243700Y283700D02*
X251700D01*
X247700Y279700D02*
Y287700D01*
X209700Y283700D02*
X217700D01*
X213700Y279700D02*
Y287700D01*
X226700Y290700D02*
X234700D01*
X230700Y286700D02*
Y294700D01*
X250700Y266700D02*
X258700D01*
X254700Y262700D02*
Y270700D01*
X226700Y242700D02*
X234700D01*
X230700Y238700D02*
Y246700D01*
X202700Y266700D02*
X210700D01*
X206700Y262700D02*
Y270700D01*
X-36750Y1784750D02*
X-26750D01*
X-31750Y1779750D02*
Y1789750D01*
X-36750Y1809750D02*
X-26750D01*
X-31750Y1804750D02*
Y1814750D01*
X376000Y457200D02*
X386000D01*
X381000Y452200D02*
Y462200D01*
X376000Y482600D02*
X386000D01*
X381000Y477600D02*
Y487600D01*
X350600Y457200D02*
X360600D01*
X355600Y452200D02*
Y462200D01*
X350600Y482600D02*
X360600D01*
X355600Y477600D02*
Y487600D01*
X325200Y457200D02*
X335200D01*
X330200Y452200D02*
Y462200D01*
X325200Y482600D02*
X335200D01*
X330200Y477600D02*
Y487600D01*
X299800Y482600D02*
X309800D01*
X304800Y477600D02*
Y487600D01*
X299800Y457200D02*
X309800D01*
X304800Y452200D02*
Y462200D01*
X274400Y482600D02*
X284400D01*
X279400Y477600D02*
Y487600D01*
X274400Y457200D02*
X284400D01*
X279400Y452200D02*
Y462200D01*
X503000Y457200D02*
X513000D01*
X508000Y452200D02*
Y462200D01*
X503000Y482600D02*
X513000D01*
X508000Y477600D02*
Y487600D01*
X477600Y457200D02*
X487600D01*
X482600Y452200D02*
Y462200D01*
X477600Y482600D02*
X487600D01*
X482600Y477600D02*
Y487600D01*
X452200Y457200D02*
X462200D01*
X457200Y452200D02*
Y462200D01*
X452200Y482600D02*
X462200D01*
X457200Y477600D02*
Y487600D01*
X426800Y482600D02*
X436800D01*
X431800Y477600D02*
Y487600D01*
X426800Y457200D02*
X436800D01*
X431800Y452200D02*
Y462200D01*
X401400Y482600D02*
X411400D01*
X406400Y477600D02*
Y487600D01*
X401400Y457200D02*
X411400D01*
X406400Y452200D02*
Y462200D01*
X630000Y457200D02*
X640000D01*
X635000Y452200D02*
Y462200D01*
X630000Y482600D02*
X640000D01*
X635000Y477600D02*
Y487600D01*
X604600Y457200D02*
X614600D01*
X609600Y452200D02*
Y462200D01*
X604600Y482600D02*
X614600D01*
X609600Y477600D02*
Y487600D01*
X579200Y457200D02*
X589200D01*
X584200Y452200D02*
Y462200D01*
X579200Y482600D02*
X589200D01*
X584200Y477600D02*
Y487600D01*
X553800Y482600D02*
X563800D01*
X558800Y477600D02*
Y487600D01*
X553800Y457200D02*
X563800D01*
X558800Y452200D02*
Y462200D01*
X528400Y482600D02*
X538400D01*
X533400Y477600D02*
Y487600D01*
X528400Y457200D02*
X538400D01*
X533400Y452200D02*
Y462200D01*
X757000Y457200D02*
X767000D01*
X762000Y452200D02*
Y462200D01*
X757000Y482600D02*
X767000D01*
X762000Y477600D02*
Y487600D01*
X731600Y457200D02*
X741600D01*
X736600Y452200D02*
Y462200D01*
X731600Y482600D02*
X741600D01*
X736600Y477600D02*
Y487600D01*
X706200Y457200D02*
X716200D01*
X711200Y452200D02*
Y462200D01*
X706200Y482600D02*
X716200D01*
X711200Y477600D02*
Y487600D01*
X680800Y482600D02*
X690800D01*
X685800Y477600D02*
Y487600D01*
X680800Y457200D02*
X690800D01*
X685800Y452200D02*
Y462200D01*
X655400Y482600D02*
X665400D01*
X660400Y477600D02*
Y487600D01*
X655400Y457200D02*
X665400D01*
X660400Y452200D02*
Y462200D01*
X198200Y1181100D02*
X208200D01*
X203200Y1176100D02*
Y1186100D01*
X122000Y1181100D02*
X132000D01*
X127000Y1176100D02*
Y1186100D01*
X71200Y1181100D02*
X81200D01*
X76200Y1176100D02*
Y1186100D01*
X20400Y1181100D02*
X30400D01*
X25400Y1176100D02*
Y1186100D01*
X198200Y1104900D02*
X208200D01*
X203200Y1099900D02*
Y1109900D01*
X122000Y1104900D02*
X132000D01*
X127000Y1099900D02*
Y1109900D01*
X71200Y1104900D02*
X81200D01*
X76200Y1099900D02*
Y1109900D01*
X20400Y1104900D02*
X30400D01*
X25400Y1099900D02*
Y1109900D01*
X198200Y951700D02*
X208200D01*
X203200Y946700D02*
Y956700D01*
X122000Y951700D02*
X132000D01*
X127000Y946700D02*
Y956700D01*
X71200Y951700D02*
X81200D01*
X76200Y946700D02*
Y956700D01*
X20400Y951700D02*
X30400D01*
X25400Y946700D02*
Y956700D01*
X198200Y875500D02*
X208200D01*
X203200Y870500D02*
Y880500D01*
X122000Y875500D02*
X132000D01*
X127000Y870500D02*
Y880500D01*
X71200Y875500D02*
X81200D01*
X76200Y870500D02*
Y880500D01*
X20400Y875500D02*
X30400D01*
X25400Y870500D02*
Y880500D01*
X782400Y723900D02*
X792400D01*
X787400Y718900D02*
Y728900D01*
X782400Y647700D02*
X792400D01*
X787400Y642700D02*
Y652700D01*
X782400Y596900D02*
X792400D01*
X787400Y591900D02*
Y601900D01*
X782400Y546100D02*
X792400D01*
X787400Y541100D02*
Y551100D01*
X858600Y723900D02*
X868600D01*
X863600Y718900D02*
Y728900D01*
X858600Y647700D02*
X868600D01*
X863600Y642700D02*
Y652700D01*
X858600Y596900D02*
X868600D01*
X863600Y591900D02*
Y601900D01*
X858600Y546100D02*
X868600D01*
X863600Y541100D02*
Y551100D01*
X655400Y723900D02*
X665400D01*
X660400Y718900D02*
Y728900D01*
X655400Y647700D02*
X665400D01*
X660400Y642700D02*
Y652700D01*
X655400Y596900D02*
X665400D01*
X660400Y591900D02*
Y601900D01*
X655400Y546100D02*
X665400D01*
X660400Y541100D02*
Y551100D01*
X731600Y723900D02*
X741600D01*
X736600Y718900D02*
Y728900D01*
X731600Y647700D02*
X741600D01*
X736600Y642700D02*
Y652700D01*
X731600Y596900D02*
X741600D01*
X736600Y591900D02*
Y601900D01*
X731600Y546100D02*
X741600D01*
X736600Y541100D02*
Y551100D01*
X973400Y1320800D02*
X982400D01*
X977900Y1316300D02*
Y1325300D01*
X948000Y1320800D02*
X957000D01*
X952500Y1316300D02*
Y1325300D01*
X973400Y1346200D02*
X982400D01*
X977900Y1341700D02*
Y1350700D01*
X948000Y1346200D02*
X957000D01*
X952500Y1341700D02*
Y1350700D01*
X948000Y482600D02*
X957000D01*
X952500Y478100D02*
Y487100D01*
X973400Y482600D02*
X982400D01*
X977900Y478100D02*
Y487100D01*
X948000Y457200D02*
X957000D01*
X952500Y452700D02*
Y461700D01*
X973400Y457200D02*
X982400D01*
X977900Y452700D02*
Y461700D01*
X973400Y749300D02*
X982400D01*
X977900Y744800D02*
Y753800D01*
X948000Y749300D02*
X957000D01*
X952500Y744800D02*
Y753800D01*
X973400Y774700D02*
X982400D01*
X977900Y770200D02*
Y779200D01*
X948000Y774700D02*
X957000D01*
X952500Y770200D02*
Y779200D01*
X-7000Y50800D02*
X7000D01*
X0Y43800D02*
Y57800D01*
X-7000Y0D02*
X7000D01*
X0Y-7000D02*
Y7000D01*
X-7000Y-50800D02*
X7000D01*
X0Y-57800D02*
Y-43800D01*
X1385650Y781050D02*
X1395650D01*
X1390650Y776050D02*
Y786050D01*
X1385650Y806450D02*
X1395650D01*
X1390650Y801450D02*
Y811450D01*
X1360250Y781050D02*
X1370250D01*
X1365250Y776050D02*
Y786050D01*
X1360250Y806450D02*
X1370250D01*
X1365250Y801450D02*
Y811450D01*
X1385650Y844550D02*
X1395650D01*
X1390650Y839550D02*
Y849550D01*
X1385650Y869950D02*
X1395650D01*
X1390650Y864950D02*
Y874950D01*
X1360250Y844550D02*
X1370250D01*
X1365250Y839550D02*
Y849550D01*
X1360250Y869950D02*
X1370250D01*
X1365250Y864950D02*
Y874950D01*
X1385650Y958850D02*
X1395650D01*
X1390650Y953850D02*
Y963850D01*
X1385650Y984250D02*
X1395650D01*
X1390650Y979250D02*
Y989250D01*
X1360250Y958850D02*
X1370250D01*
X1365250Y953850D02*
Y963850D01*
X1360250Y984250D02*
X1370250D01*
X1365250Y979250D02*
Y989250D01*
X1360250Y1060450D02*
X1370250D01*
X1365250Y1055450D02*
Y1065450D01*
X1385650Y1060450D02*
X1395650D01*
X1390650Y1055450D02*
Y1065450D01*
X1385650Y1035050D02*
X1395650D01*
X1390650Y1030050D02*
Y1040050D01*
X1385650Y1085850D02*
X1395650D01*
X1390650Y1080850D02*
Y1090850D01*
X1360250Y1035050D02*
X1370250D01*
X1365250Y1030050D02*
Y1040050D01*
X1360250Y1085850D02*
X1370250D01*
X1365250Y1080850D02*
Y1090850D01*
X1158750Y990601D02*
X1190750D01*
X1174750Y974601D02*
Y1006600D01*
X1259650Y965201D02*
X1267650D01*
X1263650Y961200D02*
Y969200D01*
X1259650Y939800D02*
X1267650D01*
X1263650Y935800D02*
Y943800D01*
X1259650Y914400D02*
X1267650D01*
X1263650Y910400D02*
Y918400D01*
X1259650Y889000D02*
X1267650D01*
X1263650Y885000D02*
Y893000D01*
X1234250Y977900D02*
X1242250D01*
X1238250Y973901D02*
Y981900D01*
X1234250Y952500D02*
X1242250D01*
X1238250Y948500D02*
Y956500D01*
X1234250Y927100D02*
X1242250D01*
X1238250Y923100D02*
Y931100D01*
X1234250Y901740D02*
X1242250D01*
X1238250Y897740D02*
Y905740D01*
X1158750Y876300D02*
X1190750D01*
X1174750Y860300D02*
Y892300D01*
X968250Y876300D02*
X1000250D01*
X984250Y860300D02*
Y892299D01*
X891350Y901700D02*
X899350D01*
X895350Y897700D02*
Y905699D01*
X891350Y927100D02*
X899350D01*
X895350Y923100D02*
Y931100D01*
X891350Y952500D02*
X899350D01*
X895350Y948500D02*
Y956500D01*
X891350Y977900D02*
X899350D01*
X895350Y973900D02*
Y981900D01*
X916750Y888999D02*
X924750D01*
X920750Y885000D02*
Y892999D01*
X916750Y914400D02*
X924750D01*
X920750Y910400D02*
Y918400D01*
X916750Y939800D02*
X924750D01*
X920750Y935800D02*
Y943800D01*
X916750Y965160D02*
X924750D01*
X920750Y961160D02*
Y969160D01*
X968250Y990600D02*
X1000250D01*
X984250Y974600D02*
Y1006600D01*
X45500Y1028700D02*
X54500D01*
X50000Y1024200D02*
Y1033200D01*
X-4500Y1028700D02*
X4500D01*
X0Y1024200D02*
Y1033200D01*
X122500Y497840D02*
X131500D01*
X127000Y493340D02*
Y502340D01*
X122500Y447840D02*
X131500D01*
X127000Y443340D02*
Y452340D01*
X45500Y800100D02*
X54500D01*
X50000Y795600D02*
Y804600D01*
X-4500Y800100D02*
X4500D01*
X0Y795600D02*
Y804600D01*
X879000Y-242000D02*
X887000D01*
X883000Y-246000D02*
Y-238000D01*
X885000Y-225000D02*
X915000D01*
X900000Y-240000D02*
Y-210000D01*
X872000Y-225000D02*
X880000D01*
X876000Y-229000D02*
Y-221000D01*
X879000Y-208000D02*
X887000D01*
X883000Y-212000D02*
Y-204000D01*
X896000Y-249000D02*
X904000D01*
X900000Y-253000D02*
Y-245000D01*
X913000Y-242000D02*
X921000D01*
X917000Y-246000D02*
Y-238000D01*
X896000Y-201000D02*
X904000D01*
X900000Y-205000D02*
Y-197000D01*
X920000Y-225000D02*
X928000D01*
X924000Y-229000D02*
Y-221000D01*
X913000Y-208000D02*
X921000D01*
X917000Y-212000D02*
Y-204000D01*
X54000Y-242000D02*
X62000D01*
X58000Y-246000D02*
Y-238000D01*
X60000Y-225000D02*
X90000D01*
X75000Y-240000D02*
Y-210000D01*
X47000Y-225000D02*
X55000D01*
X51000Y-229000D02*
Y-221000D01*
X54000Y-208000D02*
X62000D01*
X58000Y-212000D02*
Y-204000D01*
X71000Y-249000D02*
X79000D01*
X75000Y-253000D02*
Y-245000D01*
X88000Y-242000D02*
X96000D01*
X92000Y-246000D02*
Y-238000D01*
X71000Y-201000D02*
X79000D01*
X75000Y-205000D02*
Y-197000D01*
X95000Y-225000D02*
X103000D01*
X99000Y-229000D02*
Y-221000D01*
X88000Y-208000D02*
X96000D01*
X92000Y-212000D02*
Y-204000D01*
X854000Y308000D02*
X862000D01*
X858000Y304000D02*
Y312000D01*
X860000Y325000D02*
X890000D01*
X875000Y310000D02*
Y340000D01*
X847000Y325000D02*
X855000D01*
X851000Y321000D02*
Y329000D01*
X854000Y342000D02*
X862000D01*
X858000Y338000D02*
Y346000D01*
X871000Y301000D02*
X879000D01*
X875000Y297000D02*
Y305000D01*
X888000Y308000D02*
X896000D01*
X892000Y304000D02*
Y312000D01*
X871000Y349000D02*
X879000D01*
X875000Y345000D02*
Y353000D01*
X895000Y325000D02*
X903000D01*
X899000Y321000D02*
Y329000D01*
X888000Y342000D02*
X896000D01*
X892000Y338000D02*
Y346000D01*
X54000Y308000D02*
X62000D01*
X58000Y304000D02*
Y312000D01*
X60000Y325000D02*
X90000D01*
X75000Y310000D02*
Y340000D01*
X47000Y325000D02*
X55000D01*
X51000Y321000D02*
Y329000D01*
X54000Y342000D02*
X62000D01*
X58000Y338000D02*
Y346000D01*
X71000Y301000D02*
X79000D01*
X75000Y297000D02*
Y305000D01*
X88000Y308000D02*
X96000D01*
X92000Y304000D02*
Y312000D01*
X71000Y349000D02*
X79000D01*
X75000Y345000D02*
Y353000D01*
X95000Y325000D02*
X103000D01*
X99000Y321000D02*
Y329000D01*
X88000Y342000D02*
X96000D01*
X92000Y338000D02*
Y346000D01*
X854000Y1408000D02*
X862000D01*
X858000Y1404000D02*
Y1412000D01*
X860000Y1425000D02*
X890000D01*
X875000Y1410000D02*
Y1440000D01*
X847000Y1425000D02*
X855000D01*
X851000Y1421000D02*
Y1429000D01*
X854000Y1442000D02*
X862000D01*
X858000Y1438000D02*
Y1446000D01*
X871000Y1401000D02*
X879000D01*
X875000Y1397000D02*
Y1405000D01*
X888000Y1408000D02*
X896000D01*
X892000Y1404000D02*
Y1412000D01*
X871000Y1449000D02*
X879000D01*
X875000Y1445000D02*
Y1453000D01*
X895000Y1425000D02*
X903000D01*
X899000Y1421000D02*
Y1429000D01*
X888000Y1442000D02*
X896000D01*
X892000Y1438000D02*
Y1446000D01*
X54000Y1408000D02*
X62000D01*
X58000Y1404000D02*
Y1412000D01*
X60000Y1425000D02*
X90000D01*
X75000Y1410000D02*
Y1440000D01*
X47000Y1425000D02*
X55000D01*
X51000Y1421000D02*
Y1429000D01*
X54000Y1442000D02*
X62000D01*
X58000Y1438000D02*
Y1446000D01*
X71000Y1401000D02*
X79000D01*
X75000Y1397000D02*
Y1405000D01*
X88000Y1408000D02*
X96000D01*
X92000Y1404000D02*
Y1412000D01*
X71000Y1449000D02*
X79000D01*
X75000Y1445000D02*
Y1453000D01*
X95000Y1425000D02*
X103000D01*
X99000Y1421000D02*
Y1429000D01*
X88000Y1442000D02*
X96000D01*
X92000Y1438000D02*
Y1446000D01*
X854000Y1983000D02*
X862000D01*
X858000Y1979000D02*
Y1987000D01*
X860000Y2000000D02*
X890000D01*
X875000Y1985000D02*
Y2015000D01*
X847000Y2000000D02*
X855000D01*
X851000Y1996000D02*
Y2004000D01*
X854000Y2017000D02*
X862000D01*
X858000Y2013000D02*
Y2021000D01*
X871000Y1976000D02*
X879000D01*
X875000Y1972000D02*
Y1980000D01*
X888000Y1983000D02*
X896000D01*
X892000Y1979000D02*
Y1987000D01*
X871000Y2024000D02*
X879000D01*
X875000Y2020000D02*
Y2028000D01*
X895000Y2000000D02*
X903000D01*
X899000Y1996000D02*
Y2004000D01*
X888000Y2017000D02*
X896000D01*
X892000Y2013000D02*
Y2021000D01*
X54000Y1983000D02*
X62000D01*
X58000Y1979000D02*
Y1987000D01*
X60000Y2000000D02*
X90000D01*
X75000Y1985000D02*
Y2015000D01*
X47000Y2000000D02*
X55000D01*
X51000Y1996000D02*
Y2004000D01*
X54000Y2017000D02*
X62000D01*
X58000Y2013000D02*
Y2021000D01*
X71000Y1976000D02*
X79000D01*
X75000Y1972000D02*
Y1980000D01*
X88000Y1983000D02*
X96000D01*
X92000Y1979000D02*
Y1987000D01*
X71000Y2024000D02*
X79000D01*
X75000Y2020000D02*
Y2028000D01*
X95000Y2000000D02*
X103000D01*
X99000Y1996000D02*
Y2004000D01*
X88000Y2017000D02*
X96000D01*
X92000Y2013000D02*
Y2021000D01*
X1540750Y781050D02*
X1570750D01*
X1555750Y766050D02*
Y796050D01*
X1540750Y869950D02*
X1570750D01*
X1555750Y854950D02*
Y884950D01*
X1540750Y958850D02*
X1570750D01*
X1555750Y943850D02*
Y973850D01*
X1540750Y1085850D02*
X1570750D01*
X1555750Y1070850D02*
Y1100850D01*
X662250Y1073150D02*
X671250D01*
X666750Y1068650D02*
Y1077650D01*
X636850Y1073150D02*
X645850D01*
X641350Y1068650D02*
Y1077650D01*
X636850Y1098550D02*
X645850D01*
X641350Y1094050D02*
Y1103050D01*
X636850Y1047750D02*
X645850D01*
X641350Y1043250D02*
Y1052250D01*
X662250Y1098550D02*
X671250D01*
X666750Y1094050D02*
Y1103050D01*
X662250Y1047750D02*
X671250D01*
X666750Y1043250D02*
Y1052250D01*
X636350Y1200150D02*
X646350D01*
X641350Y1195150D02*
Y1205150D01*
X636350Y1174750D02*
X646350D01*
X641350Y1169750D02*
Y1179750D01*
X661750Y1200150D02*
X671750D01*
X666750Y1195150D02*
Y1205150D01*
X661750Y1174750D02*
X671750D01*
X666750Y1169750D02*
Y1179750D01*
X586050Y1047750D02*
X595050D01*
X590550Y1043250D02*
Y1052250D01*
X586050Y1073150D02*
X595050D01*
X590550Y1068650D02*
Y1077650D01*
X763850Y1368500D02*
X772850D01*
X768350Y1364000D02*
Y1373000D01*
X729750Y1399200D02*
X752750D01*
X741250Y1387700D02*
Y1410700D01*
X729750Y1267800D02*
X752750D01*
X741250Y1256300D02*
Y1279300D01*
X763850Y1343500D02*
X772850D01*
X768350Y1339000D02*
Y1348000D01*
X763850Y1323500D02*
X772850D01*
X768350Y1319000D02*
Y1328000D01*
X763850Y1298500D02*
X772850D01*
X768350Y1294000D02*
Y1303000D01*
X998800Y1200150D02*
X1007800D01*
X1003300Y1195650D02*
Y1204650D01*
X973400Y1200150D02*
X982400D01*
X977900Y1195650D02*
Y1204650D01*
X948000Y1200150D02*
X957000D01*
X952500Y1195650D02*
Y1204650D01*
X922600Y1200150D02*
X931600D01*
X927100Y1195650D02*
Y1204650D01*
X897200Y1200150D02*
X906200D01*
X901700Y1195650D02*
Y1204650D01*
X871800Y1200150D02*
X880800D01*
X876300Y1195650D02*
Y1204650D01*
X846400Y1200150D02*
X855400D01*
X850900Y1195650D02*
Y1204650D01*
X821000Y1200150D02*
X830000D01*
X825500Y1195650D02*
Y1204650D01*
X795600Y1200150D02*
X804600D01*
X800100Y1195650D02*
Y1204650D01*
X770200Y1200150D02*
X779200D01*
X774700Y1195650D02*
Y1204650D01*
X744800Y1200150D02*
X753800D01*
X749300Y1195650D02*
Y1204650D01*
X719400Y1200150D02*
X728400D01*
X723900Y1195650D02*
Y1204650D01*
X719400Y1047750D02*
X728400D01*
X723900Y1043250D02*
Y1052250D01*
X744800Y1047750D02*
X753800D01*
X749300Y1043250D02*
Y1052250D01*
X770200Y1047750D02*
X779200D01*
X774700Y1043250D02*
Y1052250D01*
X795600Y1047750D02*
X804600D01*
X800100Y1043250D02*
Y1052250D01*
X821000Y1047750D02*
X830000D01*
X825500Y1043250D02*
Y1052250D01*
X846400Y1047750D02*
X855400D01*
X850900Y1043250D02*
Y1052250D01*
X871800Y1047750D02*
X880800D01*
X876300Y1043250D02*
Y1052250D01*
X897200Y1047750D02*
X906200D01*
X901700Y1043250D02*
Y1052250D01*
X922600Y1047750D02*
X931600D01*
X927100Y1043250D02*
Y1052250D01*
X948000Y1047750D02*
X957000D01*
X952500Y1043250D02*
Y1052250D01*
X973400Y1047750D02*
X982400D01*
X977900Y1043250D02*
Y1052250D01*
X998800Y1047750D02*
X1007800D01*
X1003300Y1043250D02*
Y1052250D01*
X1544900Y254000D02*
X1553900D01*
X1549400Y249500D02*
Y258500D01*
X1544900Y279400D02*
X1553900D01*
X1549400Y274900D02*
Y283900D01*
X1570300Y254000D02*
X1579300D01*
X1574800Y249500D02*
Y258500D01*
X1570300Y279400D02*
X1579300D01*
X1574800Y274900D02*
Y283900D01*
X1595700Y254000D02*
X1604700D01*
X1600200Y249500D02*
Y258500D01*
X1595700Y279400D02*
X1604700D01*
X1600200Y274900D02*
Y283900D01*
X1621100Y279400D02*
X1630100D01*
X1625600Y274900D02*
Y283900D01*
X1621100Y254000D02*
X1630100D01*
X1625600Y249500D02*
Y258500D01*
X1646500Y279400D02*
X1655500D01*
X1651000Y274900D02*
Y283900D01*
X1646500Y254000D02*
X1655500D01*
X1651000Y249500D02*
Y258500D01*
X1417900Y254000D02*
X1426900D01*
X1422400Y249500D02*
Y258500D01*
X1417900Y279400D02*
X1426900D01*
X1422400Y274900D02*
Y283900D01*
X1443300Y254000D02*
X1452300D01*
X1447800Y249500D02*
Y258500D01*
X1443300Y279400D02*
X1452300D01*
X1447800Y274900D02*
Y283900D01*
X1468700Y254000D02*
X1477700D01*
X1473200Y249500D02*
Y258500D01*
X1468700Y279400D02*
X1477700D01*
X1473200Y274900D02*
Y283900D01*
X1494100Y279400D02*
X1503100D01*
X1498600Y274900D02*
Y283900D01*
X1494100Y254000D02*
X1503100D01*
X1498600Y249500D02*
Y258500D01*
X1519500Y279400D02*
X1528500D01*
X1524000Y274900D02*
Y283900D01*
X1519500Y254000D02*
X1528500D01*
X1524000Y249500D02*
Y258500D01*
X1290900Y254000D02*
X1299900D01*
X1295400Y249500D02*
Y258500D01*
X1290900Y279400D02*
X1299900D01*
X1295400Y274900D02*
Y283900D01*
X1316300Y254000D02*
X1325300D01*
X1320800Y249500D02*
Y258500D01*
X1316300Y279400D02*
X1325300D01*
X1320800Y274900D02*
Y283900D01*
X1341700Y254000D02*
X1350700D01*
X1346200Y249500D02*
Y258500D01*
X1341700Y279400D02*
X1350700D01*
X1346200Y274900D02*
Y283900D01*
X1367100Y279400D02*
X1376100D01*
X1371600Y274900D02*
Y283900D01*
X1367100Y254000D02*
X1376100D01*
X1371600Y249500D02*
Y258500D01*
X1392500Y279400D02*
X1401500D01*
X1397000Y274900D02*
Y283900D01*
X1392500Y254000D02*
X1401500D01*
X1397000Y249500D02*
Y258500D01*
X1163900Y254000D02*
X1172900D01*
X1168400Y249500D02*
Y258500D01*
X1163900Y279400D02*
X1172900D01*
X1168400Y274900D02*
Y283900D01*
X1189300Y254000D02*
X1198300D01*
X1193800Y249500D02*
Y258500D01*
X1189300Y279400D02*
X1198300D01*
X1193800Y274900D02*
Y283900D01*
X1214700Y254000D02*
X1223700D01*
X1219200Y249500D02*
Y258500D01*
X1214700Y279400D02*
X1223700D01*
X1219200Y274900D02*
Y283900D01*
X1240100Y279400D02*
X1249100D01*
X1244600Y274900D02*
Y283900D01*
X1240100Y254000D02*
X1249100D01*
X1244600Y249500D02*
Y258500D01*
X1265500Y279400D02*
X1274500D01*
X1270000Y274900D02*
Y283900D01*
X1265500Y254000D02*
X1274500D01*
X1270000Y249500D02*
Y258500D01*
X1544900Y457200D02*
X1553900D01*
X1549400Y452700D02*
Y461700D01*
X1544900Y482600D02*
X1553900D01*
X1549400Y478100D02*
Y487100D01*
X1570300Y457200D02*
X1579300D01*
X1574800Y452700D02*
Y461700D01*
X1570300Y482600D02*
X1579300D01*
X1574800Y478100D02*
Y487100D01*
X1595700Y457200D02*
X1604700D01*
X1600200Y452700D02*
Y461700D01*
X1595700Y482600D02*
X1604700D01*
X1600200Y478100D02*
Y487100D01*
X1621100Y482600D02*
X1630100D01*
X1625600Y478100D02*
Y487100D01*
X1621100Y457200D02*
X1630100D01*
X1625600Y452700D02*
Y461700D01*
X1646500Y482600D02*
X1655500D01*
X1651000Y478100D02*
Y487100D01*
X1646500Y457200D02*
X1655500D01*
X1651000Y452700D02*
Y461700D01*
X1417900Y457200D02*
X1426900D01*
X1422400Y452700D02*
Y461700D01*
X1417900Y482600D02*
X1426900D01*
X1422400Y478100D02*
Y487100D01*
X1443300Y457200D02*
X1452300D01*
X1447800Y452700D02*
Y461700D01*
X1443300Y482600D02*
X1452300D01*
X1447800Y478100D02*
Y487100D01*
X1468700Y457200D02*
X1477700D01*
X1473200Y452700D02*
Y461700D01*
X1468700Y482600D02*
X1477700D01*
X1473200Y478100D02*
Y487100D01*
X1494100Y482600D02*
X1503100D01*
X1498600Y478100D02*
Y487100D01*
X1494100Y457200D02*
X1503100D01*
X1498600Y452700D02*
Y461700D01*
X1519500Y482600D02*
X1528500D01*
X1524000Y478100D02*
Y487100D01*
X1519500Y457200D02*
X1528500D01*
X1524000Y452700D02*
Y461700D01*
X1290900Y457200D02*
X1299900D01*
X1295400Y452700D02*
Y461700D01*
X1290900Y482600D02*
X1299900D01*
X1295400Y478100D02*
Y487100D01*
X1316300Y457200D02*
X1325300D01*
X1320800Y452700D02*
Y461700D01*
X1316300Y482600D02*
X1325300D01*
X1320800Y478100D02*
Y487100D01*
X1341700Y457200D02*
X1350700D01*
X1346200Y452700D02*
Y461700D01*
X1341700Y482600D02*
X1350700D01*
X1346200Y478100D02*
Y487100D01*
X1367100Y482600D02*
X1376100D01*
X1371600Y478100D02*
Y487100D01*
X1367100Y457200D02*
X1376100D01*
X1371600Y452700D02*
Y461700D01*
X1392500Y482600D02*
X1401500D01*
X1397000Y478100D02*
Y487100D01*
X1392500Y457200D02*
X1401500D01*
X1397000Y452700D02*
Y461700D01*
X1163900Y457200D02*
X1172900D01*
X1168400Y452700D02*
Y461700D01*
X1163900Y482600D02*
X1172900D01*
X1168400Y478100D02*
Y487100D01*
X1189300Y457200D02*
X1198300D01*
X1193800Y452700D02*
Y461700D01*
X1189300Y482600D02*
X1198300D01*
X1193800Y478100D02*
Y487100D01*
X1214700Y457200D02*
X1223700D01*
X1219200Y452700D02*
Y461700D01*
X1214700Y482600D02*
X1223700D01*
X1219200Y478100D02*
Y487100D01*
X1240100Y482600D02*
X1249100D01*
X1244600Y478100D02*
Y487100D01*
X1240100Y457200D02*
X1249100D01*
X1244600Y452700D02*
Y461700D01*
X1265500Y482600D02*
X1274500D01*
X1270000Y478100D02*
Y487100D01*
X1265500Y457200D02*
X1274500D01*
X1270000Y452700D02*
Y461700D01*
X1176000Y650000D02*
X1184000D01*
X1180000Y646000D02*
Y654000D01*
X1216000Y650000D02*
X1224000D01*
X1220000Y646000D02*
Y654000D01*
X1186000Y650000D02*
X1194000D01*
X1190000Y646000D02*
Y654000D01*
X1196000Y650000D02*
X1204000D01*
X1200000Y646000D02*
Y654000D01*
X1206000Y650000D02*
X1214000D01*
X1210000Y646000D02*
Y654000D01*
X1576000Y650000D02*
X1584000D01*
X1580000Y646000D02*
Y654000D01*
X1616000Y650000D02*
X1624000D01*
X1620000Y646000D02*
Y654000D01*
X1586000Y650000D02*
X1594000D01*
X1590000Y646000D02*
Y654000D01*
X1596000Y650000D02*
X1604000D01*
X1600000Y646000D02*
Y654000D01*
X1606000Y650000D02*
X1614000D01*
X1610000Y646000D02*
Y654000D01*
X1576000Y520000D02*
X1584000D01*
X1580000Y516000D02*
Y524000D01*
X1616000Y520000D02*
X1624000D01*
X1620000Y516000D02*
Y524000D01*
X1586000Y520000D02*
X1594000D01*
X1590000Y516000D02*
Y524000D01*
X1596000Y520000D02*
X1604000D01*
X1600000Y516000D02*
Y524000D01*
X1606000Y520000D02*
X1614000D01*
X1610000Y516000D02*
Y524000D01*
X1176000Y520000D02*
X1184000D01*
X1180000Y516000D02*
Y524000D01*
X1216000Y520000D02*
X1224000D01*
X1220000Y516000D02*
Y524000D01*
X1186000Y520000D02*
X1194000D01*
X1190000Y516000D02*
Y524000D01*
X1196000Y520000D02*
X1204000D01*
X1200000Y516000D02*
Y524000D01*
X1206000Y520000D02*
X1214000D01*
X1210000Y516000D02*
Y524000D01*
X1176000Y220000D02*
X1184000D01*
X1180000Y216000D02*
Y224000D01*
X1216000Y220000D02*
X1224000D01*
X1220000Y216000D02*
Y224000D01*
X1186000Y220000D02*
X1194000D01*
X1190000Y216000D02*
Y224000D01*
X1196000Y220000D02*
X1204000D01*
X1200000Y216000D02*
Y224000D01*
X1206000Y220000D02*
X1214000D01*
X1210000Y216000D02*
Y224000D01*
X1576000Y220000D02*
X1584000D01*
X1580000Y216000D02*
Y224000D01*
X1616000Y220000D02*
X1624000D01*
X1620000Y216000D02*
Y224000D01*
X1586000Y220000D02*
X1594000D01*
X1590000Y216000D02*
Y224000D01*
X1596000Y220000D02*
X1604000D01*
X1600000Y216000D02*
Y224000D01*
X1606000Y220000D02*
X1614000D01*
X1610000Y216000D02*
Y224000D01*
X1176000Y1200000D02*
X1184000D01*
X1180000Y1196000D02*
Y1204000D01*
X1216000Y1200000D02*
X1224000D01*
X1220000Y1196000D02*
Y1204000D01*
X1186000Y1200000D02*
X1194000D01*
X1190000Y1196000D02*
Y1204000D01*
X1196000Y1200000D02*
X1204000D01*
X1200000Y1196000D02*
Y1204000D01*
X1206000Y1200000D02*
X1214000D01*
X1210000Y1196000D02*
Y1204000D01*
X1576000Y1200000D02*
X1584000D01*
X1580000Y1196000D02*
Y1204000D01*
X1616000Y1200000D02*
X1624000D01*
X1620000Y1196000D02*
Y1204000D01*
X1586000Y1200000D02*
X1594000D01*
X1590000Y1196000D02*
Y1204000D01*
X1596000Y1200000D02*
X1604000D01*
X1600000Y1196000D02*
Y1204000D01*
X1606000Y1200000D02*
X1614000D01*
X1610000Y1196000D02*
Y1204000D01*
X1046000Y1930000D02*
X1054000D01*
X1050000Y1926000D02*
Y1934000D01*
X1046000Y1970000D02*
X1054000D01*
X1050000Y1966000D02*
Y1974000D01*
X1046000Y1940000D02*
X1054000D01*
X1050000Y1936000D02*
Y1944000D01*
X1046000Y1950000D02*
X1054000D01*
X1050000Y1946000D02*
Y1954000D01*
X1046000Y1960000D02*
X1054000D01*
X1050000Y1956000D02*
Y1964000D01*
X1046000Y1430000D02*
X1054000D01*
X1050000Y1426000D02*
Y1434000D01*
X1046000Y1470000D02*
X1054000D01*
X1050000Y1466000D02*
Y1474000D01*
X1046000Y1440000D02*
X1054000D01*
X1050000Y1436000D02*
Y1444000D01*
X1046000Y1450000D02*
X1054000D01*
X1050000Y1446000D02*
Y1454000D01*
X1046000Y1460000D02*
X1054000D01*
X1050000Y1456000D02*
Y1464000D01*
X1046000Y930000D02*
X1054000D01*
X1050000Y926000D02*
Y934000D01*
X1046000Y970000D02*
X1054000D01*
X1050000Y966000D02*
Y974000D01*
X1046000Y940000D02*
X1054000D01*
X1050000Y936000D02*
Y944000D01*
X1046000Y950000D02*
X1054000D01*
X1050000Y946000D02*
Y954000D01*
X1046000Y960000D02*
X1054000D01*
X1050000Y956000D02*
Y964000D01*
X1046000Y430000D02*
X1054000D01*
X1050000Y426000D02*
Y434000D01*
X1046000Y470000D02*
X1054000D01*
X1050000Y466000D02*
Y474000D01*
X1046000Y440000D02*
X1054000D01*
X1050000Y436000D02*
Y444000D01*
X1046000Y450000D02*
X1054000D01*
X1050000Y446000D02*
Y454000D01*
X1046000Y460000D02*
X1054000D01*
X1050000Y456000D02*
Y464000D01*
X1046000Y-70000D02*
X1054000D01*
X1050000Y-74000D02*
Y-66000D01*
X1046000Y-30000D02*
X1054000D01*
X1050000Y-34000D02*
Y-26000D01*
X1046000Y-60000D02*
X1054000D01*
X1050000Y-64000D02*
Y-56000D01*
X1046000Y-50000D02*
X1054000D01*
X1050000Y-54000D02*
Y-46000D01*
X1046000Y-40000D02*
X1054000D01*
X1050000Y-44000D02*
Y-36000D01*
X1066000Y-40000D02*
X1074000D01*
X1070000Y-44000D02*
Y-36000D01*
X1066000Y-50000D02*
X1074000D01*
X1070000Y-54000D02*
Y-46000D01*
X1066000Y-60000D02*
X1074000D01*
X1070000Y-64000D02*
Y-56000D01*
X1066000Y-30000D02*
X1074000D01*
X1070000Y-34000D02*
Y-26000D01*
X1066000Y-70000D02*
X1074000D01*
X1070000Y-74000D02*
Y-66000D01*
X1186000Y200000D02*
X1194000D01*
X1190000Y196000D02*
Y204000D01*
X1196000Y200000D02*
X1204000D01*
X1200000Y196000D02*
Y204000D01*
X1206000Y200000D02*
X1214000D01*
X1210000Y196000D02*
Y204000D01*
X1176000Y200000D02*
X1184000D01*
X1180000Y196000D02*
Y204000D01*
X1216000Y200000D02*
X1224000D01*
X1220000Y196000D02*
Y204000D01*
X1586000Y200000D02*
X1594000D01*
X1590000Y196000D02*
Y204000D01*
X1596000Y200000D02*
X1604000D01*
X1600000Y196000D02*
Y204000D01*
X1606000Y200000D02*
X1614000D01*
X1610000Y196000D02*
Y204000D01*
X1576000Y200000D02*
X1584000D01*
X1580000Y196000D02*
Y204000D01*
X1616000Y200000D02*
X1624000D01*
X1620000Y196000D02*
Y204000D01*
X1586000Y540000D02*
X1594000D01*
X1590000Y536000D02*
Y544000D01*
X1596000Y540000D02*
X1604000D01*
X1600000Y536000D02*
Y544000D01*
X1606000Y540000D02*
X1614000D01*
X1610000Y536000D02*
Y544000D01*
X1576000Y540000D02*
X1584000D01*
X1580000Y536000D02*
Y544000D01*
X1616000Y540000D02*
X1624000D01*
X1620000Y536000D02*
Y544000D01*
X1186000Y540000D02*
X1194000D01*
X1190000Y536000D02*
Y544000D01*
X1196000Y540000D02*
X1204000D01*
X1200000Y536000D02*
Y544000D01*
X1206000Y540000D02*
X1214000D01*
X1210000Y536000D02*
Y544000D01*
X1176000Y540000D02*
X1184000D01*
X1180000Y536000D02*
Y544000D01*
X1216000Y540000D02*
X1224000D01*
X1220000Y536000D02*
Y544000D01*
X1186000Y630000D02*
X1194000D01*
X1190000Y626000D02*
Y634000D01*
X1196000Y630000D02*
X1204000D01*
X1200000Y626000D02*
Y634000D01*
X1206000Y630000D02*
X1214000D01*
X1210000Y626000D02*
Y634000D01*
X1176000Y630000D02*
X1184000D01*
X1180000Y626000D02*
Y634000D01*
X1216000Y630000D02*
X1224000D01*
X1220000Y626000D02*
Y634000D01*
X1586000Y630000D02*
X1594000D01*
X1590000Y626000D02*
Y634000D01*
X1596000Y630000D02*
X1604000D01*
X1600000Y626000D02*
Y634000D01*
X1606000Y630000D02*
X1614000D01*
X1610000Y626000D02*
Y634000D01*
X1576000Y630000D02*
X1584000D01*
X1580000Y626000D02*
Y634000D01*
X1616000Y630000D02*
X1624000D01*
X1620000Y626000D02*
Y634000D01*
X1586000Y1220000D02*
X1594000D01*
X1590000Y1216000D02*
Y1224000D01*
X1596000Y1220000D02*
X1604000D01*
X1600000Y1216000D02*
Y1224000D01*
X1606000Y1220000D02*
X1614000D01*
X1610000Y1216000D02*
Y1224000D01*
X1576000Y1220000D02*
X1584000D01*
X1580000Y1216000D02*
Y1224000D01*
X1616000Y1220000D02*
X1624000D01*
X1620000Y1216000D02*
Y1224000D01*
X1186000Y1220000D02*
X1194000D01*
X1190000Y1216000D02*
Y1224000D01*
X1196000Y1220000D02*
X1204000D01*
X1200000Y1216000D02*
Y1224000D01*
X1206000Y1220000D02*
X1214000D01*
X1210000Y1216000D02*
Y1224000D01*
X1176000Y1220000D02*
X1184000D01*
X1180000Y1216000D02*
Y1224000D01*
X1216000Y1220000D02*
X1224000D01*
X1220000Y1216000D02*
Y1224000D01*
X1066000Y1940000D02*
X1074000D01*
X1070000Y1936000D02*
Y1944000D01*
X1066000Y1950000D02*
X1074000D01*
X1070000Y1946000D02*
Y1954000D01*
X1066000Y1960000D02*
X1074000D01*
X1070000Y1956000D02*
Y1964000D01*
X1066000Y1930000D02*
X1074000D01*
X1070000Y1926000D02*
Y1934000D01*
X1066000Y1970000D02*
X1074000D01*
X1070000Y1966000D02*
Y1974000D01*
X1066000Y1440000D02*
X1074000D01*
X1070000Y1436000D02*
Y1444000D01*
X1066000Y1450000D02*
X1074000D01*
X1070000Y1446000D02*
Y1454000D01*
X1066000Y1460000D02*
X1074000D01*
X1070000Y1456000D02*
Y1464000D01*
X1066000Y1430000D02*
X1074000D01*
X1070000Y1426000D02*
Y1434000D01*
X1066000Y1470000D02*
X1074000D01*
X1070000Y1466000D02*
Y1474000D01*
X1066000Y940000D02*
X1074000D01*
X1070000Y936000D02*
Y944000D01*
X1066000Y950000D02*
X1074000D01*
X1070000Y946000D02*
Y954000D01*
X1066000Y960000D02*
X1074000D01*
X1070000Y956000D02*
Y964000D01*
X1066000Y930000D02*
X1074000D01*
X1070000Y926000D02*
Y934000D01*
X1066000Y970000D02*
X1074000D01*
X1070000Y966000D02*
Y974000D01*
X1066000Y440000D02*
X1074000D01*
X1070000Y436000D02*
Y444000D01*
X1066000Y450000D02*
X1074000D01*
X1070000Y446000D02*
Y454000D01*
X1066000Y460000D02*
X1074000D01*
X1070000Y456000D02*
Y464000D01*
X1066000Y430000D02*
X1074000D01*
X1070000Y426000D02*
Y434000D01*
X1066000Y470000D02*
X1074000D01*
X1070000Y466000D02*
Y474000D01*
X155750Y1085850D02*
X161750D01*
X158750Y1082850D02*
Y1088850D01*
X155750Y857250D02*
X161750D01*
X158750Y854250D02*
Y860250D01*
X-3000Y1085850D02*
X3000D01*
X0Y1082850D02*
Y1088850D01*
X-3000Y857250D02*
X3000D01*
X0Y854250D02*
Y860250D01*
X733600Y1060450D02*
X739600D01*
X736600Y1057450D02*
Y1063450D01*
X536750Y838200D02*
X542750D01*
X539750Y835200D02*
Y841200D01*
X524050Y825500D02*
X530050D01*
X527050Y822500D02*
Y828500D01*
X689150Y1047750D02*
X695150D01*
X692150Y1044750D02*
Y1050750D01*
X784400Y1060450D02*
X790400D01*
X787400Y1057450D02*
Y1063450D01*
X574850Y825500D02*
X580850D01*
X577850Y822500D02*
Y828500D01*
X574850Y908050D02*
X580850D01*
X577850Y905050D02*
Y911050D01*
X841550Y1301750D02*
X847550D01*
X844550Y1298750D02*
Y1304750D01*
X803450Y1301750D02*
X809450D01*
X806450Y1298750D02*
Y1304750D01*
X73200Y1301750D02*
X79200D01*
X76200Y1298750D02*
Y1304750D01*
X-3000Y1301750D02*
X3000D01*
X0Y1298750D02*
Y1304750D01*
X390700Y952500D02*
X396700D01*
X393700Y949500D02*
Y955500D01*
X301800Y825500D02*
X307800D01*
X304800Y822500D02*
Y828500D01*
X320850Y838200D02*
X326850D01*
X323850Y835200D02*
Y841200D01*
X60500Y590550D02*
X66500D01*
X63500Y587550D02*
Y593550D01*
X-3000Y590550D02*
X3000D01*
X0Y587550D02*
Y593550D01*
X212900Y381000D02*
X218900D01*
X215900Y378000D02*
Y384000D01*
X212900Y508000D02*
X218900D01*
X215900Y505000D02*
Y511000D01*
X-3000Y393700D02*
X3000D01*
X0Y390700D02*
Y396700D01*
X828850Y381000D02*
X834850D01*
X831850Y378000D02*
Y384000D01*
X828850Y419100D02*
X834850D01*
X831850Y416100D02*
Y422100D01*
X60500Y393700D02*
X66500D01*
X63500Y390700D02*
Y396700D01*
X612950Y609600D02*
X618950D01*
X615950Y606600D02*
Y612600D01*
X759000Y685800D02*
X765000D01*
X762000Y682800D02*
Y688800D01*
X759000Y660400D02*
X765000D01*
X762000Y657400D02*
Y663400D01*
X1286050Y965200D02*
X1292050D01*
X1289050Y962200D02*
Y968200D01*
X1286050Y914400D02*
X1292050D01*
X1289050Y911400D02*
Y917400D01*
X612950Y711200D02*
X618950D01*
X615950Y708200D02*
Y714200D01*
X720900Y781050D02*
X726900D01*
X723900Y778050D02*
Y784050D01*
X739950Y781050D02*
X745950D01*
X742950Y778050D02*
Y784050D01*
X638350Y781050D02*
X644350D01*
X641350Y778050D02*
Y784050D01*
X612950Y781050D02*
X618950D01*
X615950Y778050D02*
Y784050D01*
X638350Y825500D02*
X644350D01*
X641350Y822500D02*
Y828500D01*
X612950Y838200D02*
X618950D01*
X615950Y835200D02*
Y841200D01*
X720900Y825500D02*
X726900D01*
X723900Y822500D02*
Y828500D01*
X739950Y838200D02*
X745950D01*
X742950Y835200D02*
Y841200D01*
X866950Y977900D02*
X872950D01*
X869950Y974900D02*
Y980900D01*
X898700Y1174750D02*
X904700D01*
X901700Y1171750D02*
Y1177750D01*
X974900Y1174750D02*
X980900D01*
X977900Y1171750D02*
Y1177750D01*
X835200Y946150D02*
X841200D01*
X838200Y943150D02*
Y949150D01*
X695500Y869950D02*
X701500D01*
X698500Y866950D02*
Y872950D01*
X695500Y920750D02*
X701500D01*
X698500Y917750D02*
Y923750D01*
X759000Y850900D02*
X765000D01*
X762000Y847900D02*
Y853900D01*
X759000Y825500D02*
X765000D01*
X762000Y822500D02*
Y828500D01*
X270050Y952500D02*
X276050D01*
X273050Y949500D02*
Y955500D01*
X339900Y1060450D02*
X345900D01*
X342900Y1057450D02*
Y1063450D01*
X270050Y1098550D02*
X276050D01*
X273050Y1095550D02*
Y1101550D01*
X403400Y1098550D02*
X409400D01*
X406400Y1095550D02*
Y1101550D01*
X498650Y1200150D02*
X504650D01*
X501650Y1197150D02*
Y1203150D01*
X498650Y1155700D02*
X504650D01*
X501650Y1152700D02*
Y1158700D01*
X416100Y1136650D02*
X422100D01*
X419100Y1133650D02*
Y1139650D01*
X378000Y812800D02*
X384000D01*
X381000Y809800D02*
Y815800D01*
X492300Y812800D02*
X498300D01*
X495300Y809800D02*
Y815800D01*
X689150Y1123950D02*
X695150D01*
X692150Y1120950D02*
Y1126950D01*
X320850Y1136650D02*
X326850D01*
X323850Y1133650D02*
Y1139650D01*
X301800Y1123950D02*
X307800D01*
X304800Y1120950D02*
Y1126950D01*
X403400Y1123950D02*
X409400D01*
X406400Y1120950D02*
Y1126950D01*
X460550Y1060450D02*
X466550D01*
X463550Y1057450D02*
Y1063450D01*
X581200Y1111250D02*
X587200D01*
X584200Y1108250D02*
Y1114250D01*
X581200Y1187450D02*
X587200D01*
X584200Y1184450D02*
Y1190450D01*
X581200Y1231900D02*
X587200D01*
X584200Y1228900D02*
Y1234900D01*
M02*
