G04 Layer_Color=32896*
%FSLAX44Y44*%
%MOMM*%
G71*
G01*
G75*
%ADD10C,0.5000*%
%ADD44C,0.2000*%
%ADD45C,0.2540*%
%ADD46C,0.1270*%
%ADD80C,0.1016*%
%ADD81C,0.6000*%
%ADD82C,0.2500*%
D10*
X578450Y980100D02*
G03*
X578450Y980100I-2500J0D01*
G01*
Y929300D02*
G03*
X578450Y929300I-2500J0D01*
G01*
X766400Y950300D02*
G03*
X766400Y950300I-2500J0D01*
G01*
Y899500D02*
G03*
X766400Y899500I-2500J0D01*
G01*
D44*
X838200Y870800D02*
Y881800D01*
X172050Y488840D02*
X183550D01*
X172050Y438040D02*
X183550D01*
X508850Y1092200D02*
X519850D01*
X534250D02*
X545250D01*
X94850Y-15500D02*
Y15500D01*
X44850Y-15500D02*
Y15500D01*
Y-15500D02*
X94850D01*
X44850Y15500D02*
X94850D01*
X241300Y1143850D02*
Y1154850D01*
X910750Y1315300D02*
Y1326300D01*
X267550Y1139350D02*
X278550D01*
X19900Y25400D02*
X30900D01*
X241300Y902550D02*
Y913550D01*
X910750Y1340700D02*
Y1351700D01*
X267550Y918050D02*
X278550D01*
X910750Y451700D02*
Y462700D01*
Y477100D02*
Y488100D01*
Y743800D02*
Y754800D01*
Y769200D02*
Y780200D01*
X693000Y942500D02*
X704000D01*
X820000Y762000D02*
X831000D01*
X693000D02*
X704000D01*
X693000Y891700D02*
X704000D01*
X109500Y1601800D02*
X121500D01*
X70200Y488840D02*
X82200D01*
X648500Y1397350D02*
Y1409350D01*
X55500Y104800D02*
Y123800D01*
X71500Y104800D02*
Y123800D01*
X676800Y667100D02*
Y679100D01*
X565950Y970100D02*
Y1011100D01*
Y970100D02*
X602450D01*
Y1011100D01*
X565950D02*
X602450D01*
X565950Y919300D02*
Y960300D01*
Y919300D02*
X602450D01*
Y960300D01*
X565950D02*
X602450D01*
X773900Y919300D02*
Y960300D01*
X737400D02*
X773900D01*
X737400Y919300D02*
Y960300D01*
Y919300D02*
X773900D01*
Y868500D02*
Y909500D01*
X737400D02*
X773900D01*
X737400Y868500D02*
Y909500D01*
Y868500D02*
X773900D01*
X211200Y1136250D02*
Y1163250D01*
X195200Y1136250D02*
Y1163250D01*
Y1139750D02*
X211200D01*
X195200Y1141750D02*
X211200D01*
X195200Y1143750D02*
X211200D01*
X5250Y163300D02*
Y166050D01*
X58250Y163300D02*
Y166050D01*
X5250Y189550D02*
Y192300D01*
X58250Y189550D02*
Y192300D01*
X5250Y163300D02*
X58250D01*
X5250Y192300D02*
X58250D01*
X211200Y894550D02*
Y921550D01*
X195200Y894550D02*
Y921550D01*
Y898050D02*
X211200D01*
X195200Y900050D02*
X211200D01*
X195200Y902050D02*
X211200D01*
X812000Y731900D02*
X839000D01*
X812000Y715900D02*
X839000D01*
X835500D02*
Y731900D01*
X833500Y715900D02*
Y731900D01*
X831500Y715900D02*
Y731900D01*
X685000D02*
X712000D01*
X685000Y715900D02*
X712000D01*
X708500D02*
Y731900D01*
X706500Y715900D02*
Y731900D01*
X704500Y715900D02*
Y731900D01*
X81100Y1640500D02*
Y1652000D01*
Y1615100D02*
Y1626600D01*
Y1577000D02*
Y1588500D01*
Y1551600D02*
Y1563100D01*
X235550Y1111250D02*
X247050D01*
X146650Y488840D02*
X158150D01*
X95850D02*
X107350D01*
X92600Y441290D02*
Y452790D01*
X146650Y438040D02*
X158150D01*
X687200Y1437750D02*
X698700D01*
X661800D02*
X673300D01*
X623700D02*
X635200D01*
X598300D02*
X609800D01*
X235550Y869950D02*
X247050D01*
X28050Y127600D02*
Y139100D01*
Y89500D02*
Y101000D01*
X26000Y1720850D02*
X37500D01*
X629250Y587900D02*
X640750D01*
X610200Y682100D02*
X621700D01*
X635600D02*
X647100D01*
X705450D02*
X716950D01*
X730850D02*
X742350D01*
X859900Y756250D02*
Y767750D01*
X732900Y756250D02*
Y767750D01*
X815500Y788250D02*
Y799250D01*
X521550Y987900D02*
X532550D01*
X838200Y921600D02*
Y932600D01*
X521550Y937100D02*
X532550D01*
X688500Y788250D02*
Y799250D01*
X939800Y1067650D02*
Y1078650D01*
X867300Y1124300D02*
Y1136300D01*
X946750Y1139300D02*
X958250D01*
X921350D02*
X932850D01*
X895950D02*
X907450D01*
X826100D02*
X837600D01*
X800700D02*
X812200D01*
X768000Y1122300D02*
Y1138300D01*
X770000Y1122300D02*
Y1138300D01*
X772000Y1122300D02*
Y1138300D01*
X748500Y1122300D02*
X775500D01*
X748500Y1138300D02*
X775500D01*
D45*
X-100000Y-325000D02*
X1050000D01*
Y2000000D01*
X-100000D02*
X1050000D01*
X-100000Y-325000D02*
Y2000000D01*
X1682750Y222250D02*
Y514350D01*
X1136650D02*
X1682750D01*
X1136650Y222250D02*
X1682750D01*
X1136650D02*
Y514350D01*
X1110000Y650000D02*
Y1200000D01*
X1700000D01*
Y650000D02*
Y1200000D01*
X1110000Y650000D02*
X1700000D01*
X546862Y1117600D02*
Y1132835D01*
X539244D01*
X536705Y1130296D01*
Y1125218D01*
X539244Y1122678D01*
X546862D01*
X541784D02*
X536705Y1117600D01*
X521470D02*
X531627D01*
X521470Y1127757D01*
Y1130296D01*
X524009Y1132835D01*
X529088D01*
X531627Y1130296D01*
X508774Y1117600D02*
Y1132835D01*
X516392Y1125218D01*
X506235D01*
X495300Y1117600D02*
Y1132835D01*
X487682D01*
X485143Y1130296D01*
Y1125218D01*
X487682Y1122678D01*
X495300D01*
X490222D02*
X485143Y1117600D01*
X469908D02*
X480065D01*
X469908Y1127757D01*
Y1130296D01*
X472447Y1132835D01*
X477526D01*
X480065Y1130296D01*
X464830D02*
X462291Y1132835D01*
X457212D01*
X454673Y1130296D01*
Y1127757D01*
X457212Y1125218D01*
X459752D01*
X457212D01*
X454673Y1122678D01*
Y1120139D01*
X457212Y1117600D01*
X462291D01*
X464830Y1120139D01*
X577345Y1120647D02*
Y1130804D01*
X579884Y1133343D01*
X584963D01*
X587502Y1130804D01*
Y1120647D01*
X584963Y1118108D01*
X579884D01*
X582424Y1123186D02*
X577345Y1118108D01*
X579884D02*
X577345Y1120647D01*
X562110Y1133343D02*
X572267D01*
Y1125725D01*
X567189Y1128265D01*
X564649D01*
X562110Y1125725D01*
Y1120647D01*
X564649Y1118108D01*
X569728D01*
X572267Y1120647D01*
X168915Y1162450D02*
X184150D01*
Y1154833D01*
X181611Y1152293D01*
X171454D01*
X168915Y1154833D01*
Y1162450D01*
Y1137058D02*
Y1147215D01*
X176532D01*
X173993Y1142137D01*
Y1139597D01*
X176532Y1137058D01*
X181611D01*
X184150Y1139597D01*
Y1144676D01*
X181611Y1147215D01*
X869950Y751835D02*
Y736600D01*
X862333D01*
X859793Y739139D01*
Y749296D01*
X862333Y751835D01*
X869950D01*
X844558Y736600D02*
X854715D01*
X844558Y746757D01*
Y749296D01*
X847097Y751835D01*
X852176D01*
X854715Y749296D01*
X927100Y717550D02*
Y732785D01*
X919482D01*
X916943Y730246D01*
Y725167D01*
X919482Y722628D01*
X927100D01*
X922022D02*
X916943Y717550D01*
X911865D02*
X906787D01*
X909326D01*
Y732785D01*
X911865Y730246D01*
X899169D02*
X896630Y732785D01*
X891552D01*
X889012Y730246D01*
Y720089D01*
X891552Y717550D01*
X896630D01*
X899169Y720089D01*
Y730246D01*
X927100Y787400D02*
Y802635D01*
X919482D01*
X916943Y800096D01*
Y795017D01*
X919482Y792478D01*
X927100D01*
X922022D02*
X916943Y787400D01*
X911865Y789939D02*
X909326Y787400D01*
X904247D01*
X901708Y789939D01*
Y800096D01*
X904247Y802635D01*
X909326D01*
X911865Y800096D01*
Y797557D01*
X909326Y795017D01*
X901708D01*
X831850Y831850D02*
X816615D01*
Y824232D01*
X819154Y821693D01*
X824232D01*
X826772Y824232D01*
Y831850D01*
Y826772D02*
X831850Y821693D01*
X816615Y806458D02*
X819154Y811537D01*
X824232Y816615D01*
X829311D01*
X831850Y814076D01*
Y808997D01*
X829311Y806458D01*
X826772D01*
X824232Y808997D01*
Y816615D01*
X806450Y812800D02*
Y828035D01*
X798832D01*
X796293Y825496D01*
Y820417D01*
X798832Y817878D01*
X806450D01*
X801372D02*
X796293Y812800D01*
X783597D02*
Y828035D01*
X791215Y820417D01*
X781058D01*
X783593Y789939D02*
Y800096D01*
X786133Y802635D01*
X791211D01*
X793750Y800096D01*
Y789939D01*
X791211Y787400D01*
X786133D01*
X788672Y792478D02*
X783593Y787400D01*
X786133D02*
X783593Y789939D01*
X768358Y787400D02*
X778515D01*
X768358Y797557D01*
Y800096D01*
X770897Y802635D01*
X775976D01*
X778515Y800096D01*
X685800Y701035D02*
Y685800D01*
X675643D01*
X670565D02*
X665487D01*
X668026D01*
Y701035D01*
X670565Y698496D01*
X641346Y549907D02*
X643885Y547368D01*
Y542289D01*
X641346Y539750D01*
X631189D01*
X628650Y542289D01*
Y547368D01*
X631189Y549907D01*
X643885Y554985D02*
Y565142D01*
X641346D01*
X631189Y554985D01*
X628650D01*
X622296Y645157D02*
X624835Y642617D01*
Y637539D01*
X622296Y635000D01*
X612139D01*
X609600Y637539D01*
Y642617D01*
X612139Y645157D01*
X624835Y660392D02*
X622296Y655313D01*
X617217Y650235D01*
X612139D01*
X609600Y652774D01*
Y657853D01*
X612139Y660392D01*
X614678D01*
X617217Y657853D01*
Y650235D01*
X647696Y645157D02*
X650235Y642617D01*
Y637539D01*
X647696Y635000D01*
X637539D01*
X635000Y637539D01*
Y642617D01*
X637539Y645157D01*
X650235Y660392D02*
Y650235D01*
X642617D01*
X645157Y655313D01*
Y657853D01*
X642617Y660392D01*
X637539D01*
X635000Y657853D01*
Y652774D01*
X637539Y650235D01*
X717546Y645157D02*
X720085Y642617D01*
Y637539D01*
X717546Y635000D01*
X707389D01*
X704850Y637539D01*
Y642617D01*
X707389Y645157D01*
X704850Y657853D02*
X720085D01*
X712467Y650235D01*
Y660392D01*
X761996Y676907D02*
X764535Y674368D01*
Y669289D01*
X761996Y666750D01*
X751839D01*
X749300Y669289D01*
Y674368D01*
X751839Y676907D01*
X761996Y681985D02*
X764535Y684524D01*
Y689603D01*
X761996Y692142D01*
X759457D01*
X756917Y689603D01*
Y687063D01*
Y689603D01*
X754378Y692142D01*
X751839D01*
X749300Y689603D01*
Y684524D01*
X751839Y681985D01*
X866143Y787396D02*
X868682Y789935D01*
X873761D01*
X876300Y787396D01*
Y777239D01*
X873761Y774700D01*
X868682D01*
X866143Y777239D01*
X850908Y774700D02*
X861065D01*
X850908Y784857D01*
Y787396D01*
X853447Y789935D01*
X858526D01*
X861065Y787396D01*
X501650Y968850D02*
Y984085D01*
X494033D01*
X491493Y981546D01*
Y976468D01*
X494033Y973928D01*
X501650D01*
X496572D02*
X491493Y968850D01*
X486415D02*
X481337D01*
X483876D01*
Y984085D01*
X486415Y981546D01*
X466101Y968850D02*
Y984085D01*
X473719Y976468D01*
X463562D01*
X885350Y920750D02*
Y935985D01*
X877732D01*
X875193Y933446D01*
Y928367D01*
X877732Y925828D01*
X885350D01*
X880272D02*
X875193Y920750D01*
X870115Y933446D02*
X867576Y935985D01*
X862497D01*
X859958Y933446D01*
Y930907D01*
X862497Y928367D01*
X859958Y925828D01*
Y923289D01*
X862497Y920750D01*
X867576D01*
X870115Y923289D01*
Y925828D01*
X867576Y928367D01*
X870115Y930907D01*
Y933446D01*
X867576Y928367D02*
X862497D01*
X673100Y923450D02*
Y938685D01*
X665482D01*
X662943Y936146D01*
Y931068D01*
X665482Y928528D01*
X673100D01*
X668022D02*
X662943Y923450D01*
X657865Y938685D02*
X647708D01*
Y936146D01*
X657865Y925989D01*
Y923450D01*
X885350Y869950D02*
Y885185D01*
X877732D01*
X875193Y882646D01*
Y877568D01*
X877732Y875028D01*
X885350D01*
X880272D02*
X875193Y869950D01*
X859958D02*
X870115D01*
X859958Y880107D01*
Y882646D01*
X862497Y885185D01*
X867576D01*
X870115Y882646D01*
X673100Y872650D02*
Y887885D01*
X665482D01*
X662943Y885346D01*
Y880267D01*
X665482Y877728D01*
X673100D01*
X668022D02*
X662943Y872650D01*
X657865D02*
X652787D01*
X655326D01*
Y887885D01*
X657865Y885346D01*
X508000Y1012185D02*
X502922D01*
X505461D01*
Y996950D01*
X508000D01*
X502922D01*
X485147Y1009646D02*
X487687Y1012185D01*
X492765D01*
X495304Y1009646D01*
Y999489D01*
X492765Y996950D01*
X487687D01*
X485147Y999489D01*
X472452Y996950D02*
Y1012185D01*
X480069Y1004567D01*
X469912D01*
X679450Y961385D02*
X674372D01*
X676911D01*
Y946150D01*
X679450D01*
X674372D01*
X656597Y958846D02*
X659137Y961385D01*
X664215D01*
X666754Y958846D01*
Y948689D01*
X664215Y946150D01*
X659137D01*
X656597Y948689D01*
X641362Y946150D02*
X651519D01*
X641362Y956307D01*
Y958846D01*
X643902Y961385D01*
X648980D01*
X651519Y958846D01*
X679450Y910585D02*
X674372D01*
X676911D01*
Y895350D01*
X679450D01*
X674372D01*
X656597Y908046D02*
X659137Y910585D01*
X664215D01*
X666754Y908046D01*
Y897889D01*
X664215Y895350D01*
X659137D01*
X656597Y897889D01*
X651519Y895350D02*
X646441D01*
X648980D01*
Y910585D01*
X651519Y908046D01*
X61845Y1716402D02*
X64384Y1713862D01*
Y1708784D01*
X61845Y1706245D01*
X51688D01*
X49149Y1708784D01*
Y1713862D01*
X51688Y1716402D01*
X61845Y1721480D02*
X64384Y1724019D01*
Y1729098D01*
X61845Y1731637D01*
X59306D01*
X56767Y1729098D01*
X54227Y1731637D01*
X51688D01*
X49149Y1729098D01*
Y1724019D01*
X51688Y1721480D01*
X54227D01*
X56767Y1724019D01*
X59306Y1721480D01*
X61845D01*
X56767Y1724019D02*
Y1729098D01*
X889000Y450850D02*
Y466085D01*
X881383D01*
X878843Y463546D01*
Y458467D01*
X881383Y455928D01*
X889000D01*
X883922D02*
X878843Y450850D01*
X873765D02*
X868687D01*
X871226D01*
Y466085D01*
X873765Y463546D01*
X861069D02*
X858530Y466085D01*
X853452D01*
X850912Y463546D01*
Y461007D01*
X853452Y458467D01*
X855991D01*
X853452D01*
X850912Y455928D01*
Y453389D01*
X853452Y450850D01*
X858530D01*
X861069Y453389D01*
X889000Y476250D02*
Y491485D01*
X881383D01*
X878843Y488946D01*
Y483867D01*
X881383Y481328D01*
X889000D01*
X883922D02*
X878843Y476250D01*
X873765D02*
X868687D01*
X871226D01*
Y491485D01*
X873765Y488946D01*
X850912Y476250D02*
X861069D01*
X850912Y486407D01*
Y488946D01*
X853452Y491485D01*
X858530D01*
X861069Y488946D01*
X269239Y949957D02*
X279396D01*
X281935Y947418D01*
Y942339D01*
X279396Y939800D01*
X269239D01*
X266700Y942339D01*
Y947418D01*
X271778Y944878D02*
X266700Y949957D01*
Y947418D02*
X269239Y949957D01*
X279396Y955035D02*
X281935Y957574D01*
Y962653D01*
X279396Y965192D01*
X276857D01*
X274317Y962653D01*
Y960113D01*
Y962653D01*
X271778Y965192D01*
X269239D01*
X266700Y962653D01*
Y957574D01*
X269239Y955035D01*
X661200Y1386835D02*
Y1371600D01*
X651043D01*
X645965Y1384296D02*
X643426Y1386835D01*
X638347D01*
X635808Y1384296D01*
Y1381757D01*
X638347Y1379218D01*
X640887D01*
X638347D01*
X635808Y1376678D01*
Y1374139D01*
X638347Y1371600D01*
X643426D01*
X645965Y1374139D01*
X508000Y961385D02*
X502922D01*
X505461D01*
Y946150D01*
X508000D01*
X502922D01*
X485147Y958846D02*
X487687Y961385D01*
X492765D01*
X495304Y958846D01*
Y948689D01*
X492765Y946150D01*
X487687D01*
X485147Y948689D01*
X480069Y958846D02*
X477530Y961385D01*
X472452D01*
X469912Y958846D01*
Y956307D01*
X472452Y953767D01*
X474991D01*
X472452D01*
X469912Y951228D01*
Y948689D01*
X472452Y946150D01*
X477530D01*
X480069Y948689D01*
X185416Y523237D02*
X187955Y520698D01*
Y515619D01*
X185416Y513080D01*
X175259D01*
X172720Y515619D01*
Y520698D01*
X175259Y523237D01*
X172720Y538472D02*
Y528315D01*
X182877Y538472D01*
X185416D01*
X187955Y535933D01*
Y530854D01*
X185416Y528315D01*
X172720Y553707D02*
Y543550D01*
X182877Y553707D01*
X185416D01*
X187955Y551168D01*
Y546089D01*
X185416Y543550D01*
X160016Y523237D02*
X162555Y520698D01*
Y515619D01*
X160016Y513080D01*
X149859D01*
X147320Y515619D01*
Y520698D01*
X149859Y523237D01*
X147320Y538472D02*
Y528315D01*
X157477Y538472D01*
X160016D01*
X162555Y535933D01*
Y530854D01*
X160016Y528315D01*
X147320Y543550D02*
Y548629D01*
Y546089D01*
X162555D01*
X160016Y543550D01*
X109216Y523237D02*
X111755Y520698D01*
Y515619D01*
X109216Y513080D01*
X99059D01*
X96520Y515619D01*
Y520698D01*
X99059Y523237D01*
X96520Y538472D02*
Y528315D01*
X106677Y538472D01*
X109216D01*
X111755Y535933D01*
Y530854D01*
X109216Y528315D01*
Y543550D02*
X111755Y546089D01*
Y551168D01*
X109216Y553707D01*
X99059D01*
X96520Y551168D01*
Y546089D01*
X99059Y543550D01*
X109216D01*
X185416Y406397D02*
X187955Y403857D01*
Y398779D01*
X185416Y396240D01*
X175259D01*
X172720Y398779D01*
Y403857D01*
X175259Y406397D01*
X172720Y411475D02*
Y416553D01*
Y414014D01*
X187955D01*
X185416Y411475D01*
X187955Y424171D02*
Y434328D01*
X185416D01*
X175259Y424171D01*
X172720D01*
X160016Y401317D02*
X162555Y398778D01*
Y393699D01*
X160016Y391160D01*
X149859D01*
X147320Y393699D01*
Y398778D01*
X149859Y401317D01*
X147320Y406395D02*
Y411473D01*
Y408934D01*
X162555D01*
X160016Y406395D01*
Y419091D02*
X162555Y421630D01*
Y426708D01*
X160016Y429248D01*
X157477D01*
X154937Y426708D01*
X152398Y429248D01*
X149859D01*
X147320Y426708D01*
Y421630D01*
X149859Y419091D01*
X152398D01*
X154937Y421630D01*
X157477Y419091D01*
X160016D01*
X154937Y421630D02*
Y426708D01*
X99056Y416557D02*
X101595Y414017D01*
Y408939D01*
X99056Y406400D01*
X88899D01*
X86360Y408939D01*
Y414017D01*
X88899Y416557D01*
X86360Y421635D02*
Y426713D01*
Y424174D01*
X101595D01*
X99056Y421635D01*
X88899Y434331D02*
X86360Y436870D01*
Y441949D01*
X88899Y444488D01*
X99056D01*
X101595Y441949D01*
Y436870D01*
X99056Y434331D01*
X96517D01*
X93977Y436870D01*
Y444488D01*
X266696Y867407D02*
X269235Y864867D01*
Y859789D01*
X266696Y857250D01*
X256539D01*
X254000Y859789D01*
Y864867D01*
X256539Y867407D01*
X254000Y872485D02*
Y877563D01*
Y875024D01*
X269235D01*
X266696Y872485D01*
X254000Y885181D02*
Y890259D01*
Y887720D01*
X269235D01*
X266696Y885181D01*
X604046Y1388107D02*
X606585Y1385568D01*
Y1380489D01*
X604046Y1377950D01*
X593889D01*
X591350Y1380489D01*
Y1385568D01*
X593889Y1388107D01*
X591350Y1393185D02*
Y1398263D01*
Y1395724D01*
X606585D01*
X604046Y1393185D01*
Y1405881D02*
X606585Y1408420D01*
Y1413499D01*
X604046Y1416038D01*
X601507D01*
X598968Y1413499D01*
Y1410959D01*
Y1413499D01*
X596428Y1416038D01*
X593889D01*
X591350Y1413499D01*
Y1408420D01*
X593889Y1405881D01*
X623096Y1388107D02*
X625635Y1385568D01*
Y1380489D01*
X623096Y1377950D01*
X612939D01*
X610400Y1380489D01*
Y1385568D01*
X612939Y1388107D01*
X610400Y1393185D02*
Y1398263D01*
Y1395724D01*
X625635D01*
X623096Y1393185D01*
X610400Y1413499D02*
X625635D01*
X618018Y1405881D01*
Y1416038D01*
X686596Y1388107D02*
X689135Y1385568D01*
Y1380489D01*
X686596Y1377950D01*
X676439D01*
X673900Y1380489D01*
Y1385568D01*
X676439Y1388107D01*
X673900Y1393185D02*
Y1398263D01*
Y1395724D01*
X689135D01*
X686596Y1393185D01*
X689135Y1416038D02*
Y1405881D01*
X681517D01*
X684057Y1410959D01*
Y1413499D01*
X681517Y1416038D01*
X676439D01*
X673900Y1413499D01*
Y1408420D01*
X676439Y1405881D01*
X705646Y1388107D02*
X708185Y1385568D01*
Y1380489D01*
X705646Y1377950D01*
X695489D01*
X692950Y1380489D01*
Y1385568D01*
X695489Y1388107D01*
X692950Y1393185D02*
Y1398263D01*
Y1395724D01*
X708185D01*
X705646Y1393185D01*
X708185Y1416038D02*
X705646Y1410959D01*
X700567Y1405881D01*
X695489D01*
X692950Y1408420D01*
Y1413499D01*
X695489Y1416038D01*
X698028D01*
X700567Y1413499D01*
Y1405881D01*
X266696Y1102357D02*
X269235Y1099818D01*
Y1094739D01*
X266696Y1092200D01*
X256539D01*
X254000Y1094739D01*
Y1099818D01*
X256539Y1102357D01*
X254000Y1117592D02*
Y1107435D01*
X264157Y1117592D01*
X266696D01*
X269235Y1115053D01*
Y1109974D01*
X266696Y1107435D01*
X254000Y1130288D02*
X269235D01*
X261618Y1122670D01*
Y1132827D01*
X130743Y1557346D02*
X133282Y1559885D01*
X138361D01*
X140900Y1557346D01*
Y1547189D01*
X138361Y1544650D01*
X133282D01*
X130743Y1547189D01*
X115508Y1544650D02*
X125665D01*
X115508Y1554807D01*
Y1557346D01*
X118047Y1559885D01*
X123126D01*
X125665Y1557346D01*
X100273Y1559885D02*
X105351Y1557346D01*
X110430Y1552267D01*
Y1547189D01*
X107891Y1544650D01*
X102812D01*
X100273Y1547189D01*
Y1549728D01*
X102812Y1552267D01*
X110430D01*
X130743Y1576396D02*
X133282Y1578935D01*
X138361D01*
X140900Y1576396D01*
Y1566239D01*
X138361Y1563700D01*
X133282D01*
X130743Y1566239D01*
X115508Y1563700D02*
X125665D01*
X115508Y1573857D01*
Y1576396D01*
X118047Y1578935D01*
X123126D01*
X125665Y1576396D01*
X110430Y1578935D02*
X100273D01*
Y1576396D01*
X110430Y1566239D01*
Y1563700D01*
X130743Y1639896D02*
X133282Y1642435D01*
X138361D01*
X140900Y1639896D01*
Y1629739D01*
X138361Y1627200D01*
X133282D01*
X130743Y1629739D01*
X115508Y1627200D02*
X125665D01*
X115508Y1637357D01*
Y1639896D01*
X118047Y1642435D01*
X123126D01*
X125665Y1639896D01*
X110430D02*
X107891Y1642435D01*
X102812D01*
X100273Y1639896D01*
Y1637357D01*
X102812Y1634818D01*
X100273Y1632278D01*
Y1629739D01*
X102812Y1627200D01*
X107891D01*
X110430Y1629739D01*
Y1632278D01*
X107891Y1634818D01*
X110430Y1637357D01*
Y1639896D01*
X107891Y1634818D02*
X102812D01*
X130743Y1658946D02*
X133282Y1661485D01*
X138361D01*
X140900Y1658946D01*
Y1648789D01*
X138361Y1646250D01*
X133282D01*
X130743Y1648789D01*
X115508Y1646250D02*
X125665D01*
X115508Y1656407D01*
Y1658946D01*
X118047Y1661485D01*
X123126D01*
X125665Y1658946D01*
X110430Y1648789D02*
X107891Y1646250D01*
X102812D01*
X100273Y1648789D01*
Y1658946D01*
X102812Y1661485D01*
X107891D01*
X110430Y1658946D01*
Y1656407D01*
X107891Y1653867D01*
X100273D01*
X742950Y751835D02*
Y736600D01*
X735332D01*
X732793Y739139D01*
Y749296D01*
X735332Y751835D01*
X742950D01*
X727715Y736600D02*
X722637D01*
X725176D01*
Y751835D01*
X727715Y749296D01*
X168915Y920750D02*
X184150D01*
Y913132D01*
X181611Y910593D01*
X171454D01*
X168915Y913132D01*
Y920750D01*
X171454Y905515D02*
X168915Y902976D01*
Y897897D01*
X171454Y895358D01*
X173993D01*
X176532Y897897D01*
Y900437D01*
Y897897D01*
X179072Y895358D01*
X181611D01*
X184150Y897897D01*
Y902976D01*
X181611Y905515D01*
X59685Y476140D02*
X44450D01*
Y486297D01*
Y498993D02*
X59685D01*
X52068Y491375D01*
Y501532D01*
X132015Y1614500D02*
X147250D01*
Y1604343D01*
X132015Y1589108D02*
Y1599265D01*
X139632D01*
X137093Y1594187D01*
Y1591647D01*
X139632Y1589108D01*
X144711D01*
X147250Y1591647D01*
Y1596726D01*
X144711Y1599265D01*
X269239Y1197607D02*
X279396D01*
X281935Y1195068D01*
Y1189989D01*
X279396Y1187450D01*
X269239D01*
X266700Y1189989D01*
Y1195068D01*
X271778Y1192528D02*
X266700Y1197607D01*
Y1195068D02*
X269239Y1197607D01*
X266700Y1210303D02*
X281935D01*
X274317Y1202685D01*
Y1212842D01*
X292100Y927100D02*
X307335D01*
Y934717D01*
X304796Y937257D01*
X299718D01*
X297178Y934717D01*
Y927100D01*
Y932178D02*
X292100Y937257D01*
Y942335D02*
Y947413D01*
Y944874D01*
X307335D01*
X304796Y942335D01*
X307335Y965188D02*
Y955031D01*
X299718D01*
X302257Y960109D01*
Y962648D01*
X299718Y965188D01*
X294639D01*
X292100Y962648D01*
Y957570D01*
X294639Y955031D01*
X330200Y901700D02*
Y916935D01*
X322583D01*
X320043Y914396D01*
Y909317D01*
X322583Y906778D01*
X330200D01*
X325122D02*
X320043Y901700D01*
X314965D02*
X309887D01*
X312426D01*
Y916935D01*
X314965Y914396D01*
X302269Y916935D02*
X292112D01*
Y914396D01*
X302269Y904239D01*
Y901700D01*
X888050Y1339850D02*
Y1355085D01*
X880433D01*
X877893Y1352546D01*
Y1347467D01*
X880433Y1344928D01*
X888050D01*
X882972D02*
X877893Y1339850D01*
X872815D02*
X867737D01*
X870276D01*
Y1355085D01*
X872815Y1352546D01*
X849962Y1355085D02*
X855041Y1352546D01*
X860119Y1347467D01*
Y1342389D01*
X857580Y1339850D01*
X852502D01*
X849962Y1342389D01*
Y1344928D01*
X852502Y1347467D01*
X860119D01*
X501650Y918050D02*
Y933285D01*
X494033D01*
X491493Y930746D01*
Y925667D01*
X494033Y923128D01*
X501650D01*
X496572D02*
X491493Y918050D01*
X486415D02*
X481337D01*
X483876D01*
Y933285D01*
X486415Y930746D01*
X473719Y918050D02*
X468641D01*
X471180D01*
Y933285D01*
X473719Y930746D01*
X304800Y1130300D02*
X289565D01*
Y1122682D01*
X292104Y1120143D01*
X297183D01*
X299722Y1122682D01*
Y1130300D01*
Y1125222D02*
X304800Y1120143D01*
Y1115065D02*
Y1109987D01*
Y1112526D01*
X289565D01*
X292104Y1115065D01*
X302261Y1102369D02*
X304800Y1099830D01*
Y1094752D01*
X302261Y1092212D01*
X292104D01*
X289565Y1094752D01*
Y1099830D01*
X292104Y1102369D01*
X294643D01*
X297183Y1099830D01*
Y1092212D01*
X323850Y1143000D02*
Y1158235D01*
X316232D01*
X313693Y1155696D01*
Y1150618D01*
X316232Y1148078D01*
X323850D01*
X318772D02*
X313693Y1143000D01*
X298458D02*
X308615D01*
X298458Y1153157D01*
Y1155696D01*
X300997Y1158235D01*
X306076D01*
X308615Y1155696D01*
X293380Y1143000D02*
X288302D01*
X290841D01*
Y1158235D01*
X293380Y1155696D01*
X888050Y1314450D02*
Y1329685D01*
X880433D01*
X877893Y1327146D01*
Y1322068D01*
X880433Y1319528D01*
X888050D01*
X882972D02*
X877893Y1314450D01*
X862658D02*
X872815D01*
X862658Y1324607D01*
Y1327146D01*
X865197Y1329685D01*
X870276D01*
X872815Y1327146D01*
X857580D02*
X855041Y1329685D01*
X849962D01*
X847423Y1327146D01*
Y1316989D01*
X849962Y1314450D01*
X855041D01*
X857580Y1316989D01*
Y1327146D01*
X80015Y127000D02*
X95250D01*
Y116843D01*
Y101608D02*
Y111765D01*
X85093Y101608D01*
X82554D01*
X80015Y104147D01*
Y109226D01*
X82554Y111765D01*
X-3807Y101596D02*
X-1268Y104135D01*
X3811D01*
X6350Y101596D01*
Y91439D01*
X3811Y88900D01*
X-1268D01*
X-3807Y91439D01*
X-8885D02*
X-11424Y88900D01*
X-16503D01*
X-19042Y91439D01*
Y101596D01*
X-16503Y104135D01*
X-11424D01*
X-8885Y101596D01*
Y99057D01*
X-11424Y96517D01*
X-19042D01*
X-3807Y139696D02*
X-1268Y142235D01*
X3811D01*
X6350Y139696D01*
Y129539D01*
X3811Y127000D01*
X-1268D01*
X-3807Y129539D01*
X-8885Y127000D02*
X-13963D01*
X-11424D01*
Y142235D01*
X-8885Y139696D01*
X-21581D02*
X-24120Y142235D01*
X-29199D01*
X-31738Y139696D01*
Y129539D01*
X-29199Y127000D01*
X-24120D01*
X-21581Y129539D01*
Y139696D01*
X-7800Y186685D02*
Y171450D01*
X-15417D01*
X-17957Y173989D01*
Y184146D01*
X-15417Y186685D01*
X-7800D01*
X-30653Y171450D02*
Y186685D01*
X-23035Y179067D01*
X-33192D01*
X31750Y0D02*
X16515D01*
Y-7617D01*
X19054Y-10157D01*
X24132D01*
X26672Y-7617D01*
Y0D01*
Y-5078D02*
X31750Y-10157D01*
Y-15235D02*
Y-20313D01*
Y-17774D01*
X16515D01*
X19054Y-15235D01*
Y-27931D02*
X16515Y-30470D01*
Y-35549D01*
X19054Y-38088D01*
X21593D01*
X24132Y-35549D01*
X26672Y-38088D01*
X29211D01*
X31750Y-35549D01*
Y-30470D01*
X29211Y-27931D01*
X26672D01*
X24132Y-30470D01*
X21593Y-27931D01*
X19054D01*
X24132Y-30470D02*
Y-35549D01*
X105415Y12700D02*
Y2543D01*
Y7622D01*
X120650D01*
Y-2535D02*
Y-7613D01*
Y-5074D01*
X105415D01*
X107954Y-2535D01*
X732793Y787396D02*
X735332Y789935D01*
X740411D01*
X742950Y787396D01*
Y777239D01*
X740411Y774700D01*
X735332D01*
X732793Y777239D01*
X727715Y774700D02*
X722637D01*
X725176D01*
Y789935D01*
X727715Y787396D01*
X656593Y789939D02*
Y800096D01*
X659133Y802635D01*
X664211D01*
X666750Y800096D01*
Y789939D01*
X664211Y787400D01*
X659133D01*
X661672Y792478D02*
X656593Y787400D01*
X659133D02*
X656593Y789939D01*
X651515Y787400D02*
X646437D01*
X648976D01*
Y802635D01*
X651515Y800096D01*
X679450Y812800D02*
Y828035D01*
X671833D01*
X669293Y825496D01*
Y820417D01*
X671833Y817878D01*
X679450D01*
X674372D02*
X669293Y812800D01*
X664215Y825496D02*
X661676Y828035D01*
X656597D01*
X654058Y825496D01*
Y822957D01*
X656597Y820417D01*
X659137D01*
X656597D01*
X654058Y817878D01*
Y815339D01*
X656597Y812800D01*
X661676D01*
X664215Y815339D01*
X704850Y838200D02*
X689615D01*
Y830583D01*
X692154Y828043D01*
X697233D01*
X699772Y830583D01*
Y838200D01*
Y833122D02*
X704850Y828043D01*
X689615Y812808D02*
Y822965D01*
X697233D01*
X694693Y817887D01*
Y815347D01*
X697233Y812808D01*
X702311D01*
X704850Y815347D01*
Y820426D01*
X702311Y822965D01*
X958850Y1085850D02*
Y1101085D01*
X951233D01*
X948693Y1098546D01*
Y1093467D01*
X951233Y1090928D01*
X958850D01*
X953772D02*
X948693Y1085850D01*
X933458D02*
X943615D01*
X933458Y1096007D01*
Y1098546D01*
X935997Y1101085D01*
X941076D01*
X943615Y1098546D01*
X918223Y1085850D02*
X928380D01*
X918223Y1096007D01*
Y1098546D01*
X920762Y1101085D01*
X925841D01*
X928380Y1098546D01*
X882650Y1113785D02*
Y1098550D01*
X872493D01*
X857258Y1113785D02*
X862337Y1111246D01*
X867415Y1106168D01*
Y1101089D01*
X864876Y1098550D01*
X859797D01*
X857258Y1101089D01*
Y1103628D01*
X859797Y1106168D01*
X867415D01*
X996946Y1127757D02*
X999485Y1125218D01*
Y1120139D01*
X996946Y1117600D01*
X986789D01*
X984250Y1120139D01*
Y1125218D01*
X986789Y1127757D01*
X996946Y1132835D02*
X999485Y1135374D01*
Y1140453D01*
X996946Y1142992D01*
X994407D01*
X991868Y1140453D01*
Y1137913D01*
Y1140453D01*
X989328Y1142992D01*
X986789D01*
X984250Y1140453D01*
Y1135374D01*
X986789Y1132835D01*
X984250Y1155688D02*
X999485D01*
X991868Y1148070D01*
Y1158227D01*
X977896Y1127757D02*
X980435Y1125218D01*
Y1120139D01*
X977896Y1117600D01*
X967739D01*
X965200Y1120139D01*
Y1125218D01*
X967739Y1127757D01*
X977896Y1132835D02*
X980435Y1135374D01*
Y1140453D01*
X977896Y1142992D01*
X975357D01*
X972818Y1140453D01*
Y1137913D01*
Y1140453D01*
X970278Y1142992D01*
X967739D01*
X965200Y1140453D01*
Y1135374D01*
X967739Y1132835D01*
X977896Y1148070D02*
X980435Y1150609D01*
Y1155688D01*
X977896Y1158227D01*
X975357D01*
X972818Y1155688D01*
Y1153148D01*
Y1155688D01*
X970278Y1158227D01*
X967739D01*
X965200Y1155688D01*
Y1150609D01*
X967739Y1148070D01*
X908046Y1083307D02*
X910585Y1080768D01*
Y1075689D01*
X908046Y1073150D01*
X897889D01*
X895350Y1075689D01*
Y1080768D01*
X897889Y1083307D01*
X908046Y1088385D02*
X910585Y1090924D01*
Y1096003D01*
X908046Y1098542D01*
X905507D01*
X902968Y1096003D01*
Y1093463D01*
Y1096003D01*
X900428Y1098542D01*
X897889D01*
X895350Y1096003D01*
Y1090924D01*
X897889Y1088385D01*
X895350Y1113777D02*
Y1103620D01*
X905507Y1113777D01*
X908046D01*
X910585Y1111238D01*
Y1106159D01*
X908046Y1103620D01*
X838196Y1089657D02*
X840735Y1087117D01*
Y1082039D01*
X838196Y1079500D01*
X828039D01*
X825500Y1082039D01*
Y1087117D01*
X828039Y1089657D01*
X838196Y1094735D02*
X840735Y1097274D01*
Y1102353D01*
X838196Y1104892D01*
X835657D01*
X833118Y1102353D01*
Y1099813D01*
Y1102353D01*
X830578Y1104892D01*
X828039D01*
X825500Y1102353D01*
Y1097274D01*
X828039Y1094735D01*
X825500Y1109970D02*
Y1115049D01*
Y1112509D01*
X840735D01*
X838196Y1109970D01*
X812796Y1089657D02*
X815335Y1087117D01*
Y1082039D01*
X812796Y1079500D01*
X802639D01*
X800100Y1082039D01*
Y1087117D01*
X802639Y1089657D01*
X812796Y1094735D02*
X815335Y1097274D01*
Y1102353D01*
X812796Y1104892D01*
X810257D01*
X807718Y1102353D01*
Y1099813D01*
Y1102353D01*
X805178Y1104892D01*
X802639D01*
X800100Y1102353D01*
Y1097274D01*
X802639Y1094735D01*
X812796Y1109970D02*
X815335Y1112509D01*
Y1117588D01*
X812796Y1120127D01*
X802639D01*
X800100Y1117588D01*
Y1112509D01*
X802639Y1109970D01*
X812796D01*
X785334Y1164839D02*
Y1149604D01*
X777717D01*
X775177Y1152143D01*
Y1162300D01*
X777717Y1164839D01*
X785334D01*
X770099D02*
X759942D01*
Y1162300D01*
X770099Y1152143D01*
Y1149604D01*
D46*
X553720Y1074420D02*
Y1109980D01*
Y1074420D02*
X589280D01*
Y1109980D01*
X553720D02*
X589280D01*
X223520Y1163320D02*
X259080D01*
Y1198880D01*
X223520D02*
X259080D01*
X223520Y1163320D02*
Y1198880D01*
Y922020D02*
X259080D01*
Y957580D01*
X223520D02*
X259080D01*
X223520Y922020D02*
Y957580D01*
X811530Y744220D02*
Y779780D01*
X775970D02*
X811530D01*
X775970Y744220D02*
Y779780D01*
Y744220D02*
X811530D01*
X684530D02*
Y779780D01*
X648970D02*
X684530D01*
X648970Y744220D02*
Y779780D01*
Y744220D02*
X684530D01*
D80*
X556260Y1076452D02*
G03*
X556260Y1076452I-508J0D01*
G01*
X257556Y1165352D02*
G03*
X257556Y1165352I-508J0D01*
G01*
Y924052D02*
G03*
X257556Y924052I-508J0D01*
G01*
X810006Y777748D02*
G03*
X810006Y777748I-508J0D01*
G01*
X683006D02*
G03*
X683006Y777748I-508J0D01*
G01*
D81*
X57600Y5500D02*
G03*
X57600Y5500I-3000J0D01*
G01*
D82*
X43550Y24000D02*
G03*
X43550Y24000I-1250J0D01*
G01*
X553450Y969600D02*
G03*
X553450Y969600I-1250J0D01*
G01*
Y918800D02*
G03*
X553450Y918800I-1250J0D01*
G01*
X788900Y960800D02*
G03*
X788900Y960800I-1250J0D01*
G01*
Y910000D02*
G03*
X788900Y910000I-1250J0D01*
G01*
X213450Y1129750D02*
G03*
X213450Y1129750I-1250J0D01*
G01*
X66000Y191050D02*
G03*
X66000Y191050I-1250J0D01*
G01*
X213450Y888050D02*
G03*
X213450Y888050I-1250J0D01*
G01*
X846750Y732900D02*
G03*
X846750Y732900I-1250J0D01*
G01*
X719750D02*
G03*
X719750Y732900I-1250J0D01*
G01*
X783250Y1139300D02*
G03*
X783250Y1139300I-1250J0D01*
G01*
M02*
