G04 Layer_Color=8388736*
%FSLAX44Y44*%
%MOMM*%
G71*
G01*
G75*
%ADD43C,0.3000*%
%ADD44C,0.2000*%
%ADD45C,0.2540*%
%ADD46C,0.1270*%
%ADD47C,0.1000*%
D43*
X1039320Y1347470D02*
G03*
X1039320Y1347470I-1500J0D01*
G01*
Y483870D02*
G03*
X1039320Y483870I-1500J0D01*
G01*
Y775970D02*
G03*
X1039320Y775970I-1500J0D01*
G01*
X1410800Y781400D02*
G03*
X1410800Y781400I-1500J0D01*
G01*
Y844900D02*
G03*
X1410800Y844900I-1500J0D01*
G01*
Y959200D02*
G03*
X1410800Y959200I-1500J0D01*
G01*
Y1035400D02*
G03*
X1410800Y1035400I-1500J0D01*
G01*
X617850Y1098200D02*
G03*
X617850Y1098200I-1500J0D01*
G01*
Y1199800D02*
G03*
X617850Y1199800I-1500J0D01*
G01*
X536170Y1065530D02*
G03*
X536170Y1065530I-1500J0D01*
G01*
D44*
X985710Y1337310D02*
X992374D01*
X995707Y1333978D01*
X992374Y1330645D01*
X985710D01*
X990708D01*
Y1337310D01*
X970307D02*
X960310D01*
Y1332312D01*
X961976Y1330645D01*
X963642D01*
X965308Y1332312D01*
Y1337310D01*
Y1332312D01*
X966974Y1330645D01*
X968641D01*
X970307Y1332312D01*
Y1337310D01*
Y473710D02*
X960310D01*
Y468712D01*
X961976Y467046D01*
X963642D01*
X965308Y468712D01*
Y473710D01*
Y468712D01*
X966974Y467046D01*
X968641D01*
X970307Y468712D01*
Y473710D01*
X985710D02*
X992374D01*
X995707Y470378D01*
X992374Y467046D01*
X985710D01*
X990708D01*
Y473710D01*
X985710Y765810D02*
X992374D01*
X995707Y762478D01*
X992374Y759146D01*
X985710D01*
X990708D01*
Y765810D01*
X970307D02*
X960310D01*
Y760812D01*
X961976Y759146D01*
X963642D01*
X965308Y760812D01*
Y765810D01*
Y760812D01*
X966974Y759146D01*
X968641D01*
X970307Y760812D01*
Y765810D01*
X-24562Y-51900D02*
X-25134Y-50757D01*
X-26847Y-49043D01*
X-14850D01*
X-26847Y48093D02*
Y54377D01*
X-22277Y50949D01*
Y52663D01*
X-21706Y53806D01*
X-21134Y54377D01*
X-19420Y54948D01*
X-18278D01*
X-16564Y54377D01*
X-15421Y53234D01*
X-14850Y51521D01*
Y49807D01*
X-15421Y48093D01*
X-15993Y47521D01*
X-17135Y46950D01*
X753348Y1297007D02*
X746683Y1301768D01*
Y1294627D01*
X753348Y1297007D02*
X743350D01*
X751443Y1370101D02*
X751920Y1369149D01*
X753348Y1367721D01*
X743350D01*
X1387536Y758580D02*
X1387060Y759532D01*
X1385632Y760960D01*
X1395630D01*
X575548Y598507D02*
X568883Y603268D01*
Y596127D01*
X575548Y598507D02*
X565550D01*
X573643Y671601D02*
X574120Y670649D01*
X575548Y669221D01*
X565550D01*
X1387536Y822080D02*
X1387060Y823032D01*
X1385632Y824460D01*
X1395630D01*
X1387536Y936380D02*
X1387060Y937332D01*
X1385632Y938760D01*
X1395630D01*
X1387536Y1012580D02*
X1387060Y1013532D01*
X1385632Y1014960D01*
X1395630D01*
X1244950Y993750D02*
Y997749D01*
Y995750D01*
X1232954D01*
X1234953Y993750D01*
X914050Y873150D02*
Y869151D01*
Y871150D01*
X926046D01*
X924047Y873150D01*
X638114Y1121020D02*
X638590Y1120068D01*
X640018Y1118640D01*
X630020D01*
X638114Y1222620D02*
X638590Y1221668D01*
X640018Y1220240D01*
X630020D01*
D45*
X1025000Y1565000D02*
Y2055000D01*
X135000Y1565000D02*
X1025000D01*
X135000D02*
Y2055000D01*
X1025000D01*
X-58500Y1223500D02*
X581500D01*
X-58500D02*
Y1443500D01*
X581500D01*
Y1223500D02*
Y1443500D01*
D46*
X-30000Y1780850D02*
X32500D01*
X760487Y506728D02*
X755650Y499956D01*
X762906D01*
X760487Y506728D02*
Y496570D01*
X767598Y506728D02*
X766146Y506244D01*
X765179Y504793D01*
X764695Y502374D01*
Y500923D01*
X765179Y498505D01*
X766146Y497054D01*
X767598Y496570D01*
X768565D01*
X770016Y497054D01*
X770984Y498505D01*
X771467Y500923D01*
Y502374D01*
X770984Y504793D01*
X770016Y506244D01*
X768565Y506728D01*
X767598D01*
D47*
X57350Y8250D02*
G03*
X57350Y8250I-5000J0D01*
G01*
X804672Y510540D02*
G03*
X795528Y510540I-4572J0D01*
G01*
X512572D02*
G03*
X503428Y510540I-4572J0D01*
G01*
X245872D02*
G03*
X236728Y510540I-4572J0D01*
G01*
X57150Y1182370D02*
G03*
X57150Y1179830I1270J-1270D01*
G01*
X44450D02*
G03*
X44450Y1182370I-1270J1270D01*
G01*
X44450Y1116330D02*
G03*
X44450Y1118870I-1270J1270D01*
G01*
X57150D02*
G03*
X57150Y1116330I1270J-1270D01*
G01*
Y940270D02*
G03*
X57150Y937730I1270J-1270D01*
G01*
X44450D02*
G03*
X44450Y940270I-1270J1270D01*
G01*
X44450Y874230D02*
G03*
X44450Y876770I-1270J1270D01*
G01*
X57150D02*
G03*
X57150Y874230I1270J-1270D01*
G01*
X792480Y577850D02*
G03*
X795020Y577850I1270J1270D01*
G01*
Y565150D02*
G03*
X792480Y565150I-1270J-1270D01*
G01*
X858520Y565150D02*
G03*
X855980Y565150I-1270J-1270D01*
G01*
Y577850D02*
G03*
X858520Y577850I1270J1270D01*
G01*
X665480Y577850D02*
G03*
X668020Y577850I1270J1270D01*
G01*
Y565150D02*
G03*
X665480Y565150I-1270J-1270D01*
G01*
X731520Y565150D02*
G03*
X728980Y565150I-1270J-1270D01*
G01*
Y577850D02*
G03*
X731520Y577850I1270J1270D01*
G01*
X1066900Y1319000D02*
G03*
X1066900Y1348000I0J14500D01*
G01*
Y455400D02*
G03*
X1066900Y484400I0J14500D01*
G01*
Y747500D02*
G03*
X1066900Y776500I0J14500D01*
G01*
X21300Y-71196D02*
G03*
X21300Y-30404I-21979J20396D01*
G01*
X24304Y-72342D02*
G03*
X24300Y-29259I-25012J21539D01*
G01*
X14000Y-50800D02*
G03*
X14000Y-50800I-14000J0D01*
G01*
X21300Y-20396D02*
G03*
X21300Y20396I-21979J20396D01*
G01*
X24304Y-21542D02*
G03*
X24300Y21541I-25012J21539D01*
G01*
X14000Y0D02*
G03*
X14000Y0I-14000J0D01*
G01*
X21300Y30404D02*
G03*
X21300Y71196I-21979J20396D01*
G01*
X24304Y29258D02*
G03*
X24300Y72341I-25012J21539D01*
G01*
X14000Y50800D02*
G03*
X14000Y50800I-14000J0D01*
G01*
X644250Y1270870D02*
G03*
X638250Y1264870I0J-6000D01*
G01*
X644250Y1267870D02*
G03*
X641250Y1264870I0J-3000D01*
G01*
X638250Y1401870D02*
G03*
X644250Y1395870I6000J0D01*
G01*
X641250Y1401870D02*
G03*
X644250Y1398870I3000J0D01*
G01*
X1049068Y647500D02*
G03*
X1049068Y642500I-18J-2500D01*
G01*
Y627500D02*
G03*
X1049068Y622500I-18J-2500D01*
G01*
X466450Y572370D02*
G03*
X460450Y566370I0J-6000D01*
G01*
X466450Y569370D02*
G03*
X463450Y566370I0J-3000D01*
G01*
X460450Y703370D02*
G03*
X466450Y697370I6000J0D01*
G01*
X463450Y703370D02*
G03*
X466450Y700370I3000J0D01*
G01*
X580150Y980160D02*
G03*
X580150Y980160I-5000J0D01*
G01*
Y929360D02*
G03*
X580150Y929360I-5000J0D01*
G01*
X769700Y950240D02*
G03*
X769700Y950240I-5000J0D01*
G01*
Y899440D02*
G03*
X769700Y899440I-5000J0D01*
G01*
X179500Y1034250D02*
G03*
X179500Y1034250I-52500J0D01*
G01*
X179500Y472840D02*
G03*
X179500Y472840I-52500J0D01*
G01*
X179500Y792950D02*
G03*
X179500Y792950I-52500J0D01*
G01*
X518550Y1004400D02*
X535550D01*
X518550Y971400D02*
Y1004400D01*
Y971400D02*
X535550D01*
Y1004400D01*
X518550Y953600D02*
X535550D01*
X518550Y920600D02*
Y953600D01*
Y920600D02*
X535550D01*
Y953600D01*
X799000Y785250D02*
Y802250D01*
Y785250D02*
X832000D01*
Y802250D01*
X799000D02*
X832000D01*
X672000Y785250D02*
Y802250D01*
Y785250D02*
X705000D01*
Y802250D01*
X672000D02*
X705000D01*
X702310Y1215390D02*
X1052830D01*
Y1032510D02*
Y1215390D01*
X702310Y1032510D02*
X1052830D01*
X702310D02*
Y1215390D01*
X821700Y867800D02*
X854700D01*
X821700D02*
Y884800D01*
X854700D01*
Y867800D02*
Y884800D01*
X-30000Y1780850D02*
Y1860850D01*
X32500D01*
Y1780850D02*
Y1860850D01*
X169300Y504840D02*
X186300D01*
X169300Y472840D02*
Y504840D01*
Y472840D02*
X186300D01*
Y504840D01*
X169300Y422040D02*
X186300D01*
Y454040D01*
X169300D02*
X186300D01*
X169300Y422040D02*
Y454040D01*
X516500Y1075700D02*
Y1108700D01*
X499500Y1075700D02*
X516500D01*
X499500D02*
Y1108700D01*
X516500D01*
X524900Y1075700D02*
Y1108700D01*
X541900D01*
Y1075700D02*
Y1108700D01*
X524900Y1075700D02*
X541900D01*
X44850Y-20000D02*
X94850D01*
Y20000D01*
X44850D02*
X94850D01*
X44850Y-20000D02*
Y20000D01*
X811276Y429259D02*
Y510540D01*
X769620Y429259D02*
X811276D01*
X769620D02*
Y431545D01*
X728980Y429259D02*
Y431545D01*
X337820Y429259D02*
X728980D01*
X230124D02*
X297180D01*
X230124D02*
Y510540D01*
X236728D01*
X245872D02*
X503428D01*
X512572D02*
X795528D01*
X804672D02*
X811276D01*
X288925Y491489D02*
Y510540D01*
Y491489D02*
X330835D01*
Y491489D02*
Y510540D01*
X240284Y501395D02*
X288925D01*
X240284Y437895D02*
Y501395D01*
Y437895D02*
X487045D01*
Y429259D02*
Y448309D01*
X528955Y429259D02*
Y448309D01*
X297180Y431545D02*
X337820D01*
X264414Y453868D02*
Y485931D01*
X528955Y437895D02*
X801116D01*
Y501395D01*
X774700D02*
X801116D01*
X752475Y491489D02*
Y510540D01*
X710565Y491489D02*
X752475D01*
X710565Y491489D02*
Y510540D01*
X330835Y501395D02*
X710565D01*
X728980Y431545D02*
X769620D01*
X776986Y453868D02*
Y485931D01*
X804164Y454659D02*
Y485140D01*
X801116Y454659D02*
X804164D01*
X801116Y485140D02*
X804164D01*
X776986Y485931D02*
X801116D01*
X776986Y453868D02*
X801116D01*
X337820Y429259D02*
Y431545D01*
X327914D02*
Y437895D01*
X297180Y429259D02*
Y431545D01*
X307086D02*
Y437895D01*
X237236Y485140D02*
X240284D01*
X237236Y454659D02*
Y485140D01*
Y454659D02*
X240284D01*
Y485931D02*
X264414D01*
X240284Y453868D02*
X264414D01*
X738886Y431545D02*
Y437895D01*
X759714Y431545D02*
Y437895D01*
X270764Y429259D02*
X279400Y437895D01*
X288036Y429259D01*
X487045Y448309D02*
X528955D01*
X38100Y1187450D02*
X44450D01*
Y1179830D02*
Y1187450D01*
X57150D02*
X63500D01*
X57150Y1179830D02*
Y1187450D01*
X127000Y1169670D02*
Y1174750D01*
X50800Y1169670D02*
X127000D01*
X50800D02*
Y1174750D01*
X55880Y1182370D01*
X50800Y1123950D02*
X55880Y1116330D01*
X50800Y1123950D02*
Y1129030D01*
X127000D01*
Y1123950D02*
Y1129030D01*
X57150Y1111250D02*
Y1118870D01*
Y1111250D02*
X63500D01*
X44450D02*
Y1118870D01*
X38100Y1111250D02*
X44450D01*
X199300Y1164350D02*
X216800D01*
X199300Y1134350D02*
Y1164350D01*
Y1134350D02*
X216800D01*
X11800Y1098850D02*
X216800D01*
X11800D02*
Y1199850D01*
X216800D01*
Y1098850D02*
Y1199850D01*
X173990Y1111250D02*
X193040D01*
X173990D02*
Y1141730D01*
Y1187450D02*
X193040D01*
X173990Y1156970D02*
Y1187450D01*
X161290Y1156970D02*
X186690D01*
X161290Y1141730D02*
Y1156970D01*
Y1141730D02*
X186690D01*
Y1156970D01*
X38100Y945350D02*
X44450D01*
Y937730D02*
Y945350D01*
X57150D02*
X63500D01*
X57150Y937730D02*
Y945350D01*
X127000Y927570D02*
Y932650D01*
X50800Y927570D02*
X127000D01*
X50800D02*
Y932650D01*
X55880Y940270D01*
X50800Y881850D02*
X55880Y874230D01*
X50800Y881850D02*
Y886930D01*
X127000D01*
Y881850D02*
Y886930D01*
X57150Y869150D02*
Y876770D01*
Y869150D02*
X63500D01*
X44450D02*
Y876770D01*
X38100Y869150D02*
X44450D01*
X199300Y922250D02*
X216800D01*
X199300Y892250D02*
Y922250D01*
Y892250D02*
X216800D01*
X11800Y856750D02*
X216800D01*
X11800D02*
Y957750D01*
X216800D01*
Y856750D02*
Y957750D01*
X173990Y869150D02*
X193040D01*
X173990D02*
Y899630D01*
Y945350D02*
X193040D01*
X173990Y914870D02*
Y945350D01*
X161290Y914870D02*
X186690D01*
X161290Y899630D02*
Y914870D01*
Y899630D02*
X186690D01*
Y914870D01*
X787400Y558800D02*
Y565150D01*
X795020D01*
X787400Y577850D02*
Y584200D01*
Y577850D02*
X795020D01*
X800100Y647700D02*
X805180D01*
Y571500D02*
Y647700D01*
X800100Y571500D02*
X805180D01*
X792480Y576580D02*
X800100Y571500D01*
X850900Y571500D02*
X858520Y576580D01*
X845820Y571500D02*
X850900D01*
X845820D02*
Y647700D01*
X850900D01*
X855980Y577850D02*
X863600D01*
Y584200D01*
X855980Y565150D02*
X863600D01*
Y558800D02*
Y565150D01*
X810500Y720000D02*
Y737500D01*
Y720000D02*
X840500D01*
Y737500D01*
X876000Y532500D02*
Y737500D01*
X775000Y532500D02*
X876000D01*
X775000D02*
Y737500D01*
X876000D01*
X863600Y694690D02*
Y713740D01*
X833120Y694690D02*
X863600D01*
X787400D02*
Y713740D01*
Y694690D02*
X817880D01*
Y681990D02*
Y707390D01*
Y681990D02*
X833120D01*
Y707390D01*
X817880D02*
X833120D01*
X660400Y558800D02*
Y565150D01*
X668020D01*
X660400Y577850D02*
Y584200D01*
Y577850D02*
X668020D01*
X673100Y647700D02*
X678180D01*
Y571500D02*
Y647700D01*
X673100Y571500D02*
X678180D01*
X665480Y576580D02*
X673100Y571500D01*
X723900Y571500D02*
X731520Y576580D01*
X718820Y571500D02*
X723900D01*
X718820D02*
Y647700D01*
X723900D01*
X728980Y577850D02*
X736600D01*
Y584200D01*
X728980Y565150D02*
X736600D01*
Y558800D02*
Y565150D01*
X683500Y720000D02*
Y737500D01*
Y720000D02*
X713500D01*
Y737500D01*
X749000Y532500D02*
Y737500D01*
X648000Y532500D02*
X749000D01*
X648000D02*
Y737500D01*
X749000D01*
X736600Y694690D02*
Y713740D01*
X706120Y694690D02*
X736600D01*
X660400D02*
Y713740D01*
Y694690D02*
X690880D01*
Y681990D02*
Y707390D01*
Y681990D02*
X706120D01*
Y707390D01*
X690880D02*
X706120D01*
X224800Y1140850D02*
X257800D01*
X224800D02*
Y1157850D01*
X257800D01*
Y1140850D02*
Y1157850D01*
X894250Y1329300D02*
X927250D01*
Y1312300D02*
Y1329300D01*
X894250Y1312300D02*
X927250D01*
X894250D02*
Y1329300D01*
X264550Y1122850D02*
Y1155850D01*
X281550D01*
Y1122850D02*
Y1155850D01*
X264550Y1122850D02*
X281550D01*
X16900Y8900D02*
Y41900D01*
X33900D01*
Y8900D02*
Y41900D01*
X16900Y8900D02*
X33900D01*
X224800Y899550D02*
X257800D01*
X224800D02*
Y916550D01*
X257800D01*
Y899550D02*
Y916550D01*
X894250Y1354700D02*
X927250D01*
Y1337700D02*
Y1354700D01*
X894250Y1337700D02*
X927250D01*
X894250D02*
Y1354700D01*
X281550Y901550D02*
Y934550D01*
X264550Y901550D02*
X281550D01*
X264550D02*
Y934550D01*
X281550D01*
X894250Y465700D02*
X927250D01*
Y448700D02*
Y465700D01*
X894250Y448700D02*
X927250D01*
X894250D02*
Y465700D01*
Y491100D02*
X927250D01*
Y474100D02*
Y491100D01*
X894250Y474100D02*
X927250D01*
X894250D02*
Y491100D01*
Y757800D02*
X927250D01*
Y740800D02*
Y757800D01*
X894250Y740800D02*
X927250D01*
X894250D02*
Y757800D01*
Y783200D02*
X927250D01*
Y766200D02*
Y783200D01*
X894250Y766200D02*
X927250D01*
X894250D02*
Y783200D01*
X690000Y926000D02*
Y959000D01*
X707000D01*
Y926000D02*
Y959000D01*
X690000Y926000D02*
X707000D01*
X834000Y745500D02*
Y778500D01*
X817000Y745500D02*
X834000D01*
X817000D02*
Y778500D01*
X834000D01*
X707000Y745500D02*
Y778500D01*
X690000Y745500D02*
X707000D01*
X690000D02*
Y778500D01*
X707000D01*
X690000Y875200D02*
Y908200D01*
X707000D01*
Y875200D02*
Y908200D01*
X690000Y875200D02*
X707000D01*
X1046300Y1348000D02*
X1066900D01*
X1046300Y1319000D02*
X1066900D01*
X940800Y1311900D02*
X1046300D01*
Y1355100D01*
X940800D02*
X1046300D01*
X940800Y1311900D02*
Y1355100D01*
X1004760Y1327150D02*
Y1330960D01*
Y1336040D02*
Y1339850D01*
X999680Y1336040D02*
X1009840D01*
X999680D02*
X1004760Y1330960D01*
X1009840Y1336040D01*
X999680Y1330960D02*
X1009840D01*
X999680D02*
X1009840D01*
X1004760D02*
X1009840Y1336040D01*
X999680D02*
X1004760Y1330960D01*
X999680Y1336040D02*
X1009840D01*
X999680D02*
X1009840D01*
X999680D02*
X1004760Y1330960D01*
X1009840Y1336040D01*
X999680Y1330960D02*
X1009840D01*
X999680Y467360D02*
X1009840D01*
X1004760D02*
X1009840Y472440D01*
X999680D02*
X1004760Y467360D01*
X999680Y472440D02*
X1009840D01*
X999680D02*
X1009840D01*
X999680D02*
X1004760Y467360D01*
X1009840Y472440D01*
X999680Y467360D02*
X1009840D01*
X999680D02*
X1009840D01*
X1004760D02*
X1009840Y472440D01*
X999680D02*
X1004760Y467360D01*
X999680Y472440D02*
X1009840D01*
X1004760D02*
Y476250D01*
Y463550D02*
Y467360D01*
X940800Y448300D02*
Y491500D01*
X1046300D01*
Y448300D02*
Y491500D01*
X940800Y448300D02*
X1046300D01*
Y455400D02*
X1066900D01*
X1046300Y484400D02*
X1066900D01*
X1046300Y776500D02*
X1066900D01*
X1046300Y747500D02*
X1066900D01*
X940800Y740400D02*
X1046300D01*
Y783600D01*
X940800D02*
X1046300D01*
X940800Y740400D02*
Y783600D01*
X1004760Y755650D02*
Y759460D01*
Y764540D02*
Y768350D01*
X999680Y764540D02*
X1009840D01*
X999680D02*
X1004760Y759460D01*
X1009840Y764540D01*
X999680Y759460D02*
X1009840D01*
X999680D02*
X1009840D01*
X1004760D02*
X1009840Y764540D01*
X999680D02*
X1004760Y759460D01*
X999680Y764540D02*
X1009840D01*
X999680D02*
X1009840D01*
X999680D02*
X1004760Y759460D01*
X1009840Y764540D01*
X999680Y759460D02*
X1009840D01*
X108500Y1690800D02*
X122500D01*
Y1712800D01*
X108500D02*
X122500D01*
X108500Y1690800D02*
Y1712800D01*
X69201Y477840D02*
X83201D01*
Y499841D01*
X69201D02*
X83201D01*
X69201Y477840D02*
Y499841D01*
X637500Y1396349D02*
Y1410349D01*
Y1396349D02*
X659500D01*
Y1410349D01*
X637500D02*
X659500D01*
X55500Y91800D02*
Y136800D01*
X71500D01*
Y91800D02*
Y136800D01*
X55500Y91800D02*
X71500D01*
X687800Y666101D02*
Y680101D01*
X665799D02*
X687800D01*
X665799Y666101D02*
Y680101D01*
Y666101D02*
X687800D01*
X-48000Y86200D02*
X38000D01*
Y-86200D02*
Y86200D01*
X-48000Y-86200D02*
X38000D01*
X-43000D02*
Y-60550D01*
X-34750Y-76200D02*
Y-60550D01*
Y-76200D02*
X24300D01*
Y-72341D01*
X21300Y-76200D02*
Y-71196D01*
X24300Y-72341D01*
X21300Y-71196D02*
X24300Y-72341D01*
X21300Y-30404D02*
X24300Y-29259D01*
Y72341D02*
Y76200D01*
X-34750D02*
X24300D01*
X-43000Y-41050D02*
X-34750D01*
X-47732Y-44750D02*
X-43000Y-41050D01*
X-47732Y-56850D02*
Y-44750D01*
Y-56850D02*
X-43000Y-60550D01*
X-34750D02*
X-31634Y-57240D01*
Y-44360D01*
X-34750Y-41050D02*
X-31634Y-44360D01*
X-47732Y-44750D02*
X-31634D01*
X-47732Y-56850D02*
X-31634D01*
X-43000Y-60550D02*
X-34750D01*
X-5000Y-55800D02*
Y-45800D01*
X5001Y-45799D01*
Y-55800D02*
Y-45799D01*
X-4999Y-55799D02*
X5001Y-55800D01*
X-4999Y-55799D02*
X-2320Y-53120D01*
Y-48480D01*
X-4999Y-45799D02*
X-2320Y-48480D01*
X2321Y-53120D02*
X5001Y-55799D01*
X2320Y-48480D02*
X2321Y-53120D01*
X2320Y-48480D02*
X5001Y-45799D01*
X-2319Y-48479D02*
X2321D01*
X-2319Y-53120D02*
X2321D01*
X21300Y20396D02*
X24300Y21541D01*
X-43000Y9750D02*
X-34750D01*
X-47732Y6050D02*
X-43000Y9750D01*
X-47732Y-6050D02*
Y6050D01*
Y-6050D02*
X-43000Y-9750D01*
Y-41050D02*
Y-9750D01*
X-34750Y-41050D02*
Y-9750D01*
X-31634Y-6440D01*
Y6440D01*
X-34750Y9750D02*
X-31634Y6440D01*
X-47732Y6050D02*
X-31634D01*
X-47732Y-6050D02*
X-31634D01*
X-43000Y-9750D02*
X-34750D01*
X-5000Y-5000D02*
Y5000D01*
X5001Y5001D01*
Y-5000D02*
Y5001D01*
X-4999Y-4999D02*
X5001Y-5000D01*
X-4999Y-4999D02*
X-2320Y-2320D01*
Y2320D01*
X-4999Y5001D02*
X-2320Y2320D01*
X2321Y-2319D02*
X5001Y-4999D01*
X2320Y2320D02*
X2321Y-2319D01*
X2320Y2320D02*
X5001Y5001D01*
X-2319Y2321D02*
X2321D01*
X-2319Y-2319D02*
X2321D01*
X21300Y71196D02*
X24300Y72341D01*
X-43000Y60550D02*
X-34750D01*
X-47732Y56850D02*
X-43000Y60550D01*
X-47732Y44750D02*
Y56850D01*
Y44750D02*
X-43000Y41050D01*
Y9750D02*
Y41050D01*
X-34750Y9750D02*
Y41050D01*
X-31634Y44360D01*
Y57240D01*
X-34750Y60550D02*
X-31634Y57240D01*
X-47732Y56850D02*
X-31634D01*
X-47732Y44750D02*
X-31634D01*
X-43000Y41050D02*
X-34750D01*
X-5000Y45800D02*
Y55800D01*
X5001Y55800D01*
Y45800D02*
Y55800D01*
X-4999Y45800D02*
X5001Y45800D01*
X-4999Y45800D02*
X-2320Y48480D01*
Y53120D01*
X-4999Y55800D02*
X-2320Y53120D01*
X2321Y48481D02*
X5001Y45800D01*
X2320Y53120D02*
X2321Y48481D01*
X2320Y53120D02*
X5001Y55800D01*
X-2319Y53120D02*
X2321D01*
X-2319Y48481D02*
X2321D01*
X21300Y-30404D02*
Y-20396D01*
X24300Y-21541D01*
X24304Y-29258D01*
X21300Y20396D02*
Y30404D01*
X24300Y29259D01*
X24304Y21542D01*
X21300Y71196D02*
X24300Y72341D01*
X21300Y71196D02*
Y76200D01*
X-43000Y60550D02*
Y86200D01*
X-34750Y60550D02*
Y76200D01*
X-48000Y-86200D02*
Y86200D01*
X778250Y1267870D02*
Y1398870D01*
X641250Y1277870D02*
Y1388870D01*
X638250Y1277870D02*
Y1388870D01*
X644250Y1398870D02*
X778250D01*
X644250Y1267870D02*
X778250D01*
X644250Y1270870D02*
X645750D01*
X641250Y1260870D02*
Y1264870D01*
X638250Y1260870D02*
X641250D01*
X638250Y1277870D02*
X645750D01*
X638250Y1388870D02*
X645750D01*
Y1267870D02*
Y1398870D01*
X644250Y1395870D02*
X645750D01*
X641250Y1401870D02*
Y1405870D01*
X638250D02*
X641250D01*
X638250Y1260870D02*
Y1264870D01*
Y1401870D02*
Y1405870D01*
X1387475Y777875D02*
X1393825D01*
Y784225D01*
X1387475D02*
X1393825D01*
X1387475Y777875D02*
Y784225D01*
X1362075Y777875D02*
X1368425D01*
Y784225D01*
X1362075D02*
X1368425D01*
X1362075Y777875D02*
Y784225D01*
X1357884Y768350D02*
X1398016D01*
X1403096Y770890D01*
Y791210D01*
X1398016Y793750D02*
X1403096Y791210D01*
X1352804D02*
X1357884Y793750D01*
X1352804Y770890D02*
Y791210D01*
Y770890D02*
X1357884Y768350D01*
X1387475Y803275D02*
X1393825D01*
Y809625D01*
X1387475D02*
X1393825D01*
X1387475Y803275D02*
Y809625D01*
X1362075Y803275D02*
X1368425D01*
Y809625D01*
X1362075D02*
X1368425D01*
X1362075Y803275D02*
Y809625D01*
X1398016Y793750D02*
X1403096Y796290D01*
Y816610D01*
X1398016Y819150D02*
X1403096Y816610D01*
X1357884Y819150D02*
X1398016D01*
X1352804Y816610D02*
X1357884Y819150D01*
X1352804Y796290D02*
Y816610D01*
Y796290D02*
X1357884Y793750D01*
Y819150D02*
X1398016D01*
X966828Y696300D02*
X968850D01*
X971322Y695180D01*
X949644Y705956D02*
X949749Y706617D01*
X949886Y706916D01*
X949963Y706952D01*
X965751Y706617D02*
X965856Y705956D01*
X965614Y706916D02*
X965751Y706617D01*
X965537Y706952D02*
X965614Y706916D01*
X949957Y706952D02*
X965537D01*
X965856Y705956D02*
X966940Y695180D01*
X949644Y705956D02*
X965856D01*
X948560Y695180D02*
X949644Y705956D01*
X1054170Y627500D02*
Y642500D01*
X1056433D02*
Y647500D01*
X1057370Y642500D02*
Y647500D01*
X1049068Y642500D02*
X1060550D01*
X1049068Y647500D02*
X1060550D01*
X1056433Y622500D02*
Y627500D01*
X1057370Y622500D02*
Y627500D01*
X1049068D02*
X1060550D01*
X1049068Y622500D02*
X1060550D01*
X966828Y573700D02*
X968850D01*
X971322Y574820D01*
X949644Y564044D02*
X949749Y563383D01*
X949886Y563084D01*
X949963Y563048D01*
X965751Y563383D02*
X965856Y564044D01*
X965614Y563084D02*
X965751Y563383D01*
X965537Y563048D02*
X965614Y563084D01*
X949957Y563048D02*
X965537D01*
X965856Y564044D02*
X966940Y574820D01*
X949644Y564044D02*
X965856D01*
X948560Y574820D02*
X949644Y564044D01*
X947550Y695180D02*
X1060550D01*
Y574820D02*
Y695180D01*
X947550Y574820D02*
X1060550D01*
X943550Y573700D02*
Y579000D01*
X903550Y573700D02*
X943550D01*
X903550Y579000D02*
X947550D01*
Y574820D02*
Y695180D01*
X903550Y691000D02*
X947550D01*
X943550D02*
Y696300D01*
X903550D02*
X943550D01*
X903550Y573700D02*
Y696300D01*
X600450Y569370D02*
Y700370D01*
X463450Y579370D02*
Y690370D01*
X460450Y579370D02*
Y690370D01*
X466450Y700370D02*
X600450D01*
X466450Y569370D02*
X600450D01*
X466450Y572370D02*
X467950D01*
X463450Y562370D02*
Y566370D01*
X460450Y562370D02*
X463450D01*
X460450Y579370D02*
X467950D01*
X460450Y690370D02*
X467950D01*
Y569370D02*
Y700370D01*
X466450Y697370D02*
X467950D01*
X463450Y703370D02*
Y707370D01*
X460450D02*
X463450D01*
X460450Y562370D02*
Y566370D01*
Y703370D02*
Y707370D01*
X1387475Y841375D02*
X1393825D01*
Y847725D01*
X1387475D02*
X1393825D01*
X1387475Y841375D02*
Y847725D01*
X1362075Y841375D02*
X1368425D01*
Y847725D01*
X1362075D02*
X1368425D01*
X1362075Y841375D02*
Y847725D01*
X1357884Y831850D02*
X1398016D01*
X1403096Y834390D01*
Y854710D01*
X1398016Y857250D02*
X1403096Y854710D01*
X1352804D02*
X1357884Y857250D01*
X1352804Y834390D02*
Y854710D01*
Y834390D02*
X1357884Y831850D01*
X1387475Y866775D02*
X1393825D01*
Y873125D01*
X1387475D02*
X1393825D01*
X1387475Y866775D02*
Y873125D01*
X1362075Y866775D02*
X1368425D01*
Y873125D01*
X1362075D02*
X1368425D01*
X1362075Y866775D02*
Y873125D01*
X1398016Y857250D02*
X1403096Y859790D01*
Y880110D01*
X1398016Y882650D02*
X1403096Y880110D01*
X1357884Y882650D02*
X1398016D01*
X1352804Y880110D02*
X1357884Y882650D01*
X1352804Y859790D02*
Y880110D01*
Y859790D02*
X1357884Y857250D01*
Y882650D02*
X1398016D01*
X1387475Y955675D02*
X1393825D01*
Y962025D01*
X1387475D02*
X1393825D01*
X1387475Y955675D02*
Y962025D01*
X1362075Y955675D02*
X1368425D01*
Y962025D01*
X1362075D02*
X1368425D01*
X1362075Y955675D02*
Y962025D01*
X1357884Y946150D02*
X1398016D01*
X1403096Y948690D01*
Y969010D01*
X1398016Y971550D02*
X1403096Y969010D01*
X1352804D02*
X1357884Y971550D01*
X1352804Y948690D02*
Y969010D01*
Y948690D02*
X1357884Y946150D01*
X1387475Y981075D02*
X1393825D01*
Y987425D01*
X1387475D02*
X1393825D01*
X1387475Y981075D02*
Y987425D01*
X1362075Y981075D02*
X1368425D01*
Y987425D01*
X1362075D02*
X1368425D01*
X1362075Y981075D02*
Y987425D01*
X1398016Y971550D02*
X1403096Y974090D01*
Y994410D01*
X1398016Y996950D02*
X1403096Y994410D01*
X1357884Y996950D02*
X1398016D01*
X1352804Y994410D02*
X1357884Y996950D01*
X1352804Y974090D02*
Y994410D01*
Y974090D02*
X1357884Y971550D01*
Y996950D02*
X1398016D01*
X1352804Y1075690D02*
X1357884Y1073150D01*
X1352804Y1075690D02*
Y1096010D01*
X1357884Y1098550D01*
X1398016D01*
X1403096Y1096010D01*
Y1075690D02*
Y1096010D01*
X1398016Y1073150D02*
X1403096Y1075690D01*
X1362075Y1082675D02*
Y1089025D01*
X1368425D01*
Y1082675D02*
Y1089025D01*
X1362075Y1082675D02*
X1368425D01*
X1387475D02*
Y1089025D01*
X1393825D01*
Y1082675D02*
Y1089025D01*
X1387475Y1082675D02*
X1393825D01*
X1357884Y1098550D02*
X1398016D01*
X1352804Y1050290D02*
X1357884Y1047750D01*
X1352804Y1050290D02*
Y1070610D01*
X1357884Y1073150D01*
X1398016D02*
X1403096Y1070610D01*
Y1050290D02*
Y1070610D01*
X1398016Y1047750D02*
X1403096Y1050290D01*
X1362075Y1057275D02*
Y1063625D01*
X1368425D01*
Y1057275D02*
Y1063625D01*
X1362075Y1057275D02*
X1368425D01*
X1387475D02*
Y1063625D01*
X1393825D01*
Y1057275D02*
Y1063625D01*
X1387475Y1057275D02*
X1393825D01*
X1352804Y1024890D02*
X1357884Y1022350D01*
X1352804Y1024890D02*
Y1045210D01*
X1357884Y1047750D01*
X1398016D02*
X1403096Y1045210D01*
Y1024890D02*
Y1045210D01*
X1398016Y1022350D02*
X1403096Y1024890D01*
X1357884Y1022350D02*
X1398016D01*
X1362075Y1031875D02*
Y1038225D01*
X1368425D01*
Y1031875D02*
Y1038225D01*
X1362075Y1031875D02*
X1368425D01*
X1387475D02*
Y1038225D01*
X1393825D01*
Y1031875D02*
Y1038225D01*
X1387475Y1031875D02*
X1393825D01*
X1275550Y999451D02*
X1275950D01*
Y867450D02*
Y999451D01*
X1275550Y867450D02*
X1275950D01*
X1098550Y856950D02*
X1275550D01*
Y1009950D01*
X1098550D02*
X1275550D01*
X1098550Y856950D02*
Y1009950D01*
X883050Y867449D02*
X883450D01*
X883050D02*
Y999450D01*
X883450D01*
Y1009950D02*
X1060450D01*
X883450Y856949D02*
Y1009950D01*
Y856949D02*
X1060450D01*
Y1009950D01*
X565150Y970150D02*
Y1011050D01*
Y970150D02*
X603250D01*
Y1011050D01*
X565150D02*
X603250D01*
X565150Y919350D02*
Y960250D01*
Y919350D02*
X603250D01*
Y960250D01*
X565150D02*
X603250D01*
X774700Y919350D02*
Y960250D01*
X736600D02*
X774700D01*
X736600Y919350D02*
Y960250D01*
Y919350D02*
X774700D01*
Y868550D02*
Y909450D01*
X736600D02*
X774700D01*
X736600Y868550D02*
Y909450D01*
Y868550D02*
X774700D01*
X195200Y1136250D02*
Y1163250D01*
X211200D01*
Y1136250D02*
Y1163250D01*
X195200Y1136250D02*
X211200D01*
X195200Y1137250D02*
X211200D01*
X195200Y1138250D02*
X211200D01*
X195200Y1139250D02*
X211200D01*
X195200Y1140250D02*
X211200D01*
X195200Y1141250D02*
X211200D01*
X195200Y1142250D02*
X211200D01*
X195200Y1143250D02*
X211200D01*
X57500Y163300D02*
Y192300D01*
X57000Y163300D02*
Y192300D01*
X56250Y163300D02*
Y192300D01*
X55500Y163300D02*
Y192300D01*
X54750Y163300D02*
Y192300D01*
X54000Y163300D02*
Y192300D01*
X53250Y163300D02*
Y192300D01*
X52500Y163300D02*
Y192300D01*
X51750Y163300D02*
Y192300D01*
X51000Y163300D02*
Y192300D01*
X5350Y163300D02*
X58150D01*
X5350Y192300D02*
X58150D01*
X5350Y163300D02*
Y192300D01*
X58150Y163300D02*
Y192300D01*
X195200Y894550D02*
Y921550D01*
X211200D01*
Y894550D02*
Y921550D01*
X195200Y894550D02*
X211200D01*
X195200Y895550D02*
X211200D01*
X195200Y896550D02*
X211200D01*
X195200Y897550D02*
X211200D01*
X195200Y898550D02*
X211200D01*
X195200Y899550D02*
X211200D01*
X195200Y900550D02*
X211200D01*
X195200Y901550D02*
X211200D01*
X812000Y715900D02*
X839000D01*
X812000D02*
Y731900D01*
X839000D01*
Y715900D02*
Y731900D01*
X838000Y715900D02*
Y731900D01*
X837000Y715900D02*
Y731900D01*
X836000Y715900D02*
Y731900D01*
X835000Y715900D02*
Y731900D01*
X834000Y715900D02*
Y731900D01*
X833000Y715900D02*
Y731900D01*
X832000Y715900D02*
Y731900D01*
X685000Y715900D02*
X712000D01*
X685000D02*
Y731900D01*
X712000D01*
Y715900D02*
Y731900D01*
X711000Y715900D02*
Y731900D01*
X710000Y715900D02*
Y731900D01*
X709000Y715900D02*
Y731900D01*
X708000Y715900D02*
Y731900D01*
X707000Y715900D02*
Y731900D01*
X706000Y715900D02*
Y731900D01*
X705000Y715900D02*
Y731900D01*
X97100Y1737750D02*
Y1754750D01*
X65100D02*
X97100D01*
X65100Y1737750D02*
Y1754750D01*
Y1737750D02*
X97100D01*
Y1712350D02*
Y1729350D01*
X65100D02*
X97100D01*
X65100Y1712350D02*
Y1729350D01*
Y1712350D02*
X97100D01*
Y1674250D02*
Y1691250D01*
X65100D02*
X97100D01*
X65100Y1674250D02*
Y1691250D01*
Y1674250D02*
X97100D01*
Y1648850D02*
Y1665850D01*
X65100D02*
X97100D01*
X65100Y1648850D02*
Y1665850D01*
Y1648850D02*
X97100D01*
X122000Y1075250D02*
X132000D01*
X127000Y1070250D02*
Y1080250D01*
X232800Y1095250D02*
X249800D01*
Y1127250D01*
X232800D02*
X249800D01*
X232800Y1095250D02*
Y1127250D01*
X122000Y513840D02*
X132000D01*
X127000Y508840D02*
Y518840D01*
X143900Y504840D02*
X160900D01*
X143900Y472840D02*
Y504840D01*
Y472840D02*
X160900D01*
Y504840D01*
X93100D02*
X110100D01*
X93100Y472840D02*
Y504840D01*
Y472840D02*
X110100D01*
Y504840D01*
X76600Y438540D02*
Y455540D01*
Y438540D02*
X108600D01*
Y455540D01*
X76600D02*
X108600D01*
X143900Y422040D02*
X160900D01*
Y454040D01*
X143900D02*
X160900D01*
X143900Y422040D02*
Y454040D01*
X684450Y1421750D02*
X701450D01*
Y1453750D01*
X684450D02*
X701450D01*
X684450Y1421750D02*
Y1453750D01*
X659050Y1421750D02*
X676050D01*
Y1453750D01*
X659050D02*
X676050D01*
X659050Y1421750D02*
Y1453750D01*
X620950Y1421750D02*
X637950D01*
Y1453750D01*
X620950D02*
X637950D01*
X620950Y1421750D02*
Y1453750D01*
X595550Y1421750D02*
X612550D01*
Y1453750D01*
X595550D02*
X612550D01*
X595550Y1421750D02*
Y1453750D01*
X122000Y833950D02*
X132000D01*
X127000Y828950D02*
Y838950D01*
X232800Y853950D02*
X249800D01*
Y885950D01*
X232800D02*
X249800D01*
X232800Y853950D02*
Y885950D01*
X44050Y124850D02*
Y141850D01*
X12050D02*
X44050D01*
X12050Y124850D02*
Y141850D01*
Y124850D02*
X44050D01*
Y86750D02*
Y103750D01*
X12050D02*
X44050D01*
X12050Y86750D02*
Y103750D01*
Y86750D02*
X44050D01*
X23250Y1804850D02*
X40250D01*
Y1836850D01*
X23250D02*
X40250D01*
X23250Y1804850D02*
Y1836850D01*
X626500Y603900D02*
X643500D01*
X626500Y571900D02*
Y603900D01*
Y571900D02*
X643500D01*
Y603900D01*
X607450Y666100D02*
X624450D01*
Y698100D01*
X607450D02*
X624450D01*
X607450Y666100D02*
Y698100D01*
X632850Y666100D02*
X649850D01*
Y698100D01*
X632850D02*
X649850D01*
X632850Y666100D02*
Y698100D01*
X702700Y666100D02*
X719700D01*
Y698100D01*
X702700D02*
X719700D01*
X702700Y666100D02*
Y698100D01*
X728100Y666100D02*
X745100D01*
Y698100D01*
X728100D02*
X745100D01*
X728100Y666100D02*
Y698100D01*
X875900Y753500D02*
Y770500D01*
X843900D02*
X875900D01*
X843900Y753500D02*
Y770500D01*
Y753500D02*
X875900D01*
X748900D02*
Y770500D01*
X716900D02*
X748900D01*
X716900Y753500D02*
Y770500D01*
Y753500D02*
X748900D01*
X821700Y918600D02*
X854700D01*
X821700D02*
Y935600D01*
X854700D01*
Y918600D02*
Y935600D01*
X667766Y1060450D02*
X672846Y1057910D01*
Y1037590D02*
Y1057910D01*
X667766Y1035050D02*
X672846Y1037590D01*
X627634Y1035050D02*
X667766D01*
X622554Y1037590D02*
X627634Y1035050D01*
X622554Y1037590D02*
Y1057910D01*
X627634Y1060450D01*
X663575Y1044575D02*
Y1050925D01*
X657225Y1044575D02*
X663575D01*
X657225D02*
Y1050925D01*
X663575D01*
X638175Y1044575D02*
Y1050925D01*
X631825Y1044575D02*
X638175D01*
X631825D02*
Y1050925D01*
X638175D01*
X627634Y1035050D02*
X667766D01*
Y1085850D02*
X672846Y1083310D01*
Y1062990D02*
Y1083310D01*
X667766Y1060450D02*
X672846Y1062990D01*
X622554D02*
X627634Y1060450D01*
X622554Y1062990D02*
Y1083310D01*
X627634Y1085850D01*
X663575Y1069975D02*
Y1076325D01*
X657225Y1069975D02*
X663575D01*
X657225D02*
Y1076325D01*
X663575D01*
X638175Y1069975D02*
Y1076325D01*
X631825Y1069975D02*
X638175D01*
X631825D02*
Y1076325D01*
X638175D01*
X667766Y1111250D02*
X672846Y1108710D01*
Y1088390D02*
Y1108710D01*
X667766Y1085850D02*
X672846Y1088390D01*
X622554D02*
X627634Y1085850D01*
X622554Y1088390D02*
Y1108710D01*
X627634Y1111250D01*
X667766D01*
X663575Y1095375D02*
Y1101725D01*
X657225Y1095375D02*
X663575D01*
X657225D02*
Y1101725D01*
X663575D01*
X638175Y1095375D02*
Y1101725D01*
X631825Y1095375D02*
X638175D01*
X631825D02*
Y1101725D01*
X638175D01*
X631825Y1203325D02*
X638175D01*
X631825Y1196975D02*
Y1203325D01*
Y1196975D02*
X638175D01*
Y1203325D01*
X657225D02*
X663575D01*
X657225Y1196975D02*
Y1203325D01*
Y1196975D02*
X663575D01*
Y1203325D01*
X627634Y1212850D02*
X667766D01*
X622554Y1210310D02*
X627634Y1212850D01*
X622554Y1189990D02*
Y1210310D01*
Y1189990D02*
X627634Y1187450D01*
X667766D02*
X672846Y1189990D01*
Y1210310D01*
X667766Y1212850D02*
X672846Y1210310D01*
X631825Y1177925D02*
X638175D01*
X631825Y1171575D02*
Y1177925D01*
Y1171575D02*
X638175D01*
Y1177925D01*
X657225D02*
X663575D01*
X657225Y1171575D02*
Y1177925D01*
Y1171575D02*
X663575D01*
Y1177925D01*
X622554Y1184910D02*
X627634Y1187450D01*
X622554Y1164590D02*
Y1184910D01*
Y1164590D02*
X627634Y1162050D01*
X667766D01*
X672846Y1164590D01*
Y1184910D01*
X667766Y1187450D02*
X672846Y1184910D01*
X627634Y1162050D02*
X667766D01*
X916950Y1081650D02*
X949950D01*
Y1064650D02*
Y1081650D01*
X916950Y1064650D02*
X949950D01*
X916950D02*
Y1081650D01*
X849950Y1123299D02*
Y1137299D01*
Y1123299D02*
X871951D01*
Y1137299D01*
X849950D02*
X871951D01*
X937650Y1123300D02*
X954650D01*
Y1155300D01*
X937650D02*
X954650D01*
X937650Y1123300D02*
Y1155300D01*
X912250Y1123300D02*
X929250D01*
Y1155300D01*
X912250D02*
X929250D01*
X912250Y1123300D02*
Y1155300D01*
X886850Y1123300D02*
X903850D01*
Y1155300D01*
X886850D02*
X903850D01*
X886850Y1123300D02*
Y1155300D01*
X817000Y1123300D02*
X834000D01*
Y1155300D01*
X817000D02*
X834000D01*
X817000Y1123300D02*
Y1155300D01*
X791600Y1123300D02*
X808600D01*
Y1155300D01*
X791600D02*
X808600D01*
X791600Y1123300D02*
Y1155300D01*
X552450Y1037500D02*
X554450Y1035500D01*
X575850D01*
X577850Y1037500D01*
Y1058000D01*
X575850Y1060000D02*
X577850Y1058000D01*
X554450Y1060000D02*
X575850D01*
X552450Y1058000D02*
X554450Y1060000D01*
X527050Y1058000D02*
X529050Y1060000D01*
X550450D01*
X552450Y1058000D01*
Y1037500D02*
Y1058000D01*
X550450Y1035500D02*
X552450Y1037500D01*
X529050Y1035500D02*
X550450D01*
X527050Y1037500D02*
X529050Y1035500D01*
X527050Y1037500D02*
Y1058000D01*
X762150Y1122300D02*
Y1138300D01*
X763150Y1122300D02*
Y1138300D01*
X764150Y1122300D02*
Y1138300D01*
X765150Y1122300D02*
Y1138300D01*
X766150Y1122300D02*
Y1138300D01*
X767150Y1122300D02*
Y1138300D01*
X768150Y1122300D02*
Y1138300D01*
X769150Y1122300D02*
Y1138300D01*
X742150D02*
X769150D01*
X742150Y1122300D02*
Y1138300D01*
Y1122300D02*
X769150D01*
M02*
